<svg width="23" height="26" viewBox="0 0 23 26" fill="none" xmlns="http://www.w3.org/2000/svg">
<path d="M17.878 8.63947C17.878 6.85889 17.1667 5.15124 15.9006 3.89218C14.6345 2.63311 12.9173 1.92578 11.1268 1.92578C9.33627 1.92578 7.61907 2.63311 6.35298 3.89218C5.08688 5.15124 4.3756 6.85889 4.3756 8.63947C4.3756 16.4721 1 18.71 1 18.71H21.2536C21.2536 18.71 17.878 16.4721 17.878 8.63947Z" stroke="#464646" stroke-width="2" stroke-linecap="round" stroke-linejoin="round"/>
<path d="M13.0734 23.186C12.8755 23.5252 12.5916 23.8067 12.25 24.0023C11.9083 24.198 11.521 24.301 11.1268 24.301C10.7325 24.301 10.3452 24.198 10.0036 24.0023C9.66194 23.8067 9.378 23.5252 9.18018 23.186" stroke="#464646" stroke-width="2" stroke-linecap="round" stroke-linejoin="round"/>
</svg>
