<svg width="120" height="120" viewBox="0 0 120 120" fill="none" xmlns="http://www.w3.org/2000/svg">
<circle cx="60" cy="60" r="60" fill="#F1F1F1"/>
<path d="M59.0895 91.5809C53.7634 91.5144 48.038 90.9984 42.5455 88.9678C41.3638 88.5351 40.1987 87.9526 39.1002 87.3201C36.1376 85.6391 34.6896 83.1924 35.0557 79.6306C35.9046 71.4752 39.6661 65.1338 46.5067 60.6067C47.056 60.2405 47.4388 60.2073 48.0047 60.64C54.9285 65.8162 64.1326 65.7996 71.0564 60.6234C71.4392 60.3404 71.7388 60.0908 72.2714 60.4403C79.5947 65.2171 83.506 71.9245 83.9887 80.6626C84.1218 83.1425 83.0733 85.0066 81.1759 86.4546C78.6127 88.4186 75.6168 89.4006 72.5377 90.1496C68.2935 91.1981 63.9328 91.5643 59.0895 91.5809Z" fill="#D1D1D1"/>
<path d="M59.5222 29C68.4433 28.9834 75.6833 36.2235 75.7 45.1945C75.7166 54.1822 68.5431 61.4056 59.5887 61.4223C50.6177 61.4389 43.3943 54.2654 43.3776 45.2944C43.3277 36.2734 50.5178 29.0167 59.5222 29Z" fill="#D1D1D1"/>
</svg>
