<svg width="152" height="38" viewBox="0 0 152 38" fill="none" xmlns="http://www.w3.org/2000/svg">
<path fill-rule="evenodd" clip-rule="evenodd" d="M0 37.5272V11.2726H3.38777V22.098H16.5517V11.2726H19.9395V37.5023H16.5517V25.1589H3.41197V37.5023H0V37.5272ZM25.2147 14.9309V11.2726H28.3605V14.9309H25.2147ZM25.2147 37.5272V18.5144H28.3605V37.5272H25.2147ZM32.0145 29.0162L37.0477 28.4936C37.3381 30.2107 37.9673 31.4799 38.8868 32.3012C39.8064 33.1224 41.0647 33.5206 42.6134 33.5206C44.2589 33.5206 45.493 33.1473 46.3399 32.4256C47.1869 31.7039 47.5982 30.8827 47.5982 29.9121C47.5982 29.29 47.4288 28.7425 47.0659 28.3194C46.7029 27.8964 46.0979 27.4982 45.2268 27.1747C44.6218 26.9756 43.2667 26.5774 41.1373 26.0299C38.3786 25.3331 36.4428 24.4621 35.3538 23.4169C33.781 21.9735 33.0308 20.2066 33.0308 18.1411C33.0308 16.7973 33.3938 15.5281 34.1197 14.3834C34.8699 13.2137 35.9104 12.3178 37.2897 11.7206C38.6932 11.0984 40.3387 10.7998 42.2988 10.7998C45.493 10.7998 47.8886 11.5215 49.5099 12.9649C51.1312 14.4331 51.9539 16.3742 52.0507 18.813L46.8965 19.0121C46.6787 17.6434 46.2189 16.6729 45.493 16.1005C44.767 15.5281 43.7023 15.2046 42.2504 15.2046C40.7743 15.2046 39.6128 15.5281 38.7658 16.1503C38.2335 16.5733 37.9431 17.1208 37.9431 17.7927C37.9431 18.4149 38.2093 18.9624 38.7174 19.3854C39.3466 19.9578 40.9437 20.555 43.4361 21.1772C45.9285 21.7745 47.7918 22.3966 48.9775 23.0685C50.1633 23.7155 51.107 24.6114 51.7846 25.7313C52.4621 26.876 52.8009 28.2448 52.8009 29.9121C52.8009 31.4053 52.3895 32.8238 51.5668 34.1427C50.7682 35.4617 49.6067 36.4322 48.1306 37.0544C46.6545 37.7014 44.8154 38 42.5892 38C39.3708 38 36.8783 37.2285 35.1603 35.7105C33.3938 34.1676 32.3532 31.9279 32.0145 29.0162ZM65.5292 18.4895V22.4713H62.1899V30.1859C62.1899 31.7288 62.2141 32.6496 62.2625 32.9233C62.3351 33.1722 62.4802 33.3961 62.7222 33.5703C62.94 33.7445 63.2062 33.8192 63.545 33.8192C64.0047 33.8192 64.6581 33.645 65.505 33.3464L65.9164 37.2534C64.7791 37.7512 63.5208 38 62.0689 38C61.1977 38 60.3992 37.8507 59.6974 37.5521C58.9957 37.2534 58.4633 36.8553 58.1245 36.3575C57.81 35.8847 57.568 35.2128 57.447 34.3916C57.3502 33.7943 57.3018 32.6247 57.3018 30.8329V22.4961H55.0755V18.5144H57.3018V14.7318L62.1899 11.7704V18.5144H65.5292V18.4895ZM72.5952 24.3626L68.1669 23.5662C68.675 21.6998 69.522 20.3311 70.7319 19.4352C71.966 18.5642 73.7809 18.1162 76.1765 18.1162C78.3544 18.1162 79.9757 18.3651 81.0404 18.9126C82.1051 19.4352 82.8553 20.1071 83.2909 20.9283C83.7264 21.7496 83.9442 23.2427 83.9442 25.4078L83.8716 31.2808C83.8716 32.9482 83.9442 34.1676 84.1136 34.9639C84.2588 35.7603 84.5734 36.6313 84.9847 37.5272H80.1451C79.9999 37.2037 79.8547 36.7059 79.6853 36.0589C79.6127 35.7603 79.5401 35.5612 79.4917 35.4617C78.669 36.3078 77.7736 36.9299 76.8299 37.353C75.8862 37.776 74.8698 37.9751 73.8051 37.9751C71.9176 37.9751 70.4173 37.4525 69.3284 36.3824C68.2395 35.3372 67.6829 33.9934 67.6829 32.3509C67.6829 31.2808 67.9249 30.3352 68.4331 29.4891C68.9412 28.6678 69.6188 27.9959 70.5383 27.548C71.4336 27.1249 72.7162 26.7267 74.41 26.3783C76.6847 25.9553 78.2818 25.5322 79.1529 25.1589V24.6612C79.1529 23.6658 78.911 22.9939 78.4754 22.5708C78.0156 22.1477 77.1203 21.9238 75.8378 21.9238C74.9666 21.9238 74.2891 22.1229 73.8051 22.4713C73.2727 22.8445 72.8856 23.4667 72.5952 24.3626ZM79.1529 28.4439C78.5238 28.6429 77.5316 28.9167 76.1765 29.2153C74.8214 29.5139 73.9503 29.8126 73.5147 30.0863C72.8856 30.5592 72.5468 31.1315 72.5468 31.8532C72.5468 32.5749 72.7888 33.1722 73.3211 33.6948C73.8293 34.2174 74.4585 34.4662 75.257 34.4662C76.1523 34.4662 76.9993 34.1676 77.7978 33.5703C78.3786 33.1224 78.7658 32.5749 78.9594 31.903C79.0803 31.4799 79.1529 30.6338 79.1529 29.4393V28.4439ZM86.6302 18.4895H89.3405V17.071C89.3405 15.4535 89.5098 14.2838 89.8486 13.4875C90.1874 12.6911 90.7924 12.0441 91.6877 11.5464C92.583 11.0487 93.7204 10.7998 95.0755 10.7998C96.479 10.7998 97.8583 10.9989 99.1892 11.4468L98.5601 14.9309C97.7615 14.7318 96.9872 14.6322 96.2854 14.6322C95.5594 14.6322 95.0513 14.8064 94.7125 15.1548C94.3737 15.5032 94.2527 16.1503 94.2527 17.1457V18.4895H97.9067V22.4464H94.2527V37.5023H89.3647V22.4464H86.6544V18.4895H86.6302ZM98.4874 18.4895H101.198V17.071C101.198 15.4535 101.367 14.2838 101.706 13.4875C102.045 12.6911 102.65 12.0441 103.545 11.5464C104.44 11.0487 105.578 10.7998 106.933 10.7998C108.336 10.7998 109.716 10.9989 111.046 11.4468L110.417 14.9309C109.619 14.7318 108.844 14.6322 108.118 14.6322C107.392 14.6322 106.884 14.8064 106.546 15.1548C106.255 15.5032 106.086 16.1503 106.086 17.1457V18.4895H109.74V22.4464H106.086V37.5023H101.198V22.4464H98.4874V18.4895Z" fill="#616163"/>
<path fill-rule="evenodd" clip-rule="evenodd" d="M130.38 6.89317C129.461 3.65801 126.412 3.16029 123.871 4.95207C121.258 6.79362 119.515 10.7754 120.411 13.9607C121.33 17.1959 124.379 17.6936 126.92 15.9267C129.534 14.0852 131.276 10.0786 130.38 6.89317Z" fill="#F37540"/>
<path fill-rule="evenodd" clip-rule="evenodd" d="M120.459 36.5573C121.499 35.6365 122.878 34.7655 123.992 34.0189L126.169 32.6253C129.315 26.3292 133.55 20.4313 138.002 15.0559C142.068 10.1036 146.811 4.92739 151.989 1.19452L151.118 0C145.577 3.01118 140.495 7.11734 135.921 11.5221C131.106 16.1758 126.678 21.3272 123.12 27.0509L122.975 27.25L121.959 25.06C121.209 23.4673 119.128 19.2616 117.022 19.2616C114.917 19.2616 112.909 20.8045 111.433 22.2728C112.739 22.7456 113.828 23.6415 114.699 24.7365C116.055 26.379 117.143 28.6187 118.015 30.5847L118.837 32.4262C119.37 33.7452 120.023 35.2134 120.459 36.5573Z" fill="#F37540"/>
</svg>
