<svg width="352" height="358" viewBox="0 0 352 358" fill="none" xmlns="http://www.w3.org/2000/svg">
<rect x="9" y="134" width="65" height="65" rx="25" fill="#FFF1F0"/>
<rect x="98" y="134" width="65" height="65" rx="25" fill="#E8FFF1"/>
<rect x="189" y="134" width="65" height="65" rx="25" fill="#FFF8E9"/>
<rect x="278" y="134" width="65" height="65" rx="25" fill="#F3EFFF"/>
<path d="M25.3632 208.758V218H24.1571V208.758H25.3632ZM28.3339 208.758V209.761H21.1928V208.758H28.3339ZM30.8031 211.132V218H29.6225V211.132H30.8031ZM29.5336 209.31C29.5336 209.12 29.5907 208.959 29.705 208.828C29.8235 208.696 29.997 208.631 30.2255 208.631C30.4498 208.631 30.6212 208.696 30.7397 208.828C30.8624 208.959 30.9237 209.12 30.9237 209.31C30.9237 209.492 30.8624 209.649 30.7397 209.78C30.6212 209.907 30.4498 209.97 30.2255 209.97C29.997 209.97 29.8235 209.907 29.705 209.78C29.5907 209.649 29.5336 209.492 29.5336 209.31ZM33.8627 212.598V218H32.6884V211.132H33.7992L33.8627 212.598ZM33.5834 214.306L33.0946 214.287C33.0989 213.817 33.1687 213.383 33.3041 212.985C33.4395 212.583 33.63 212.234 33.8754 211.938C34.1208 211.642 34.4128 211.413 34.7514 211.252C35.0941 211.087 35.4729 211.005 35.8876 211.005C36.2261 211.005 36.5308 211.051 36.8017 211.145C37.0725 211.233 37.3031 211.377 37.4936 211.576C37.6882 211.775 37.8363 212.033 37.9379 212.351C38.0395 212.664 38.0902 213.047 38.0902 213.5V218H36.9096V213.487C36.9096 213.127 36.8567 212.839 36.7509 212.624C36.6451 212.403 36.4906 212.245 36.2875 212.147C36.0844 212.046 35.8347 211.995 35.5385 211.995C35.2465 211.995 34.9799 212.056 34.7387 212.179C34.5017 212.302 34.2965 212.471 34.123 212.687C33.9537 212.903 33.8204 213.15 33.7231 213.43C33.63 213.705 33.5834 213.997 33.5834 214.306ZM45.974 211.132V212.033H42.2607V211.132H45.974ZM43.5175 209.462H44.6918V216.299C44.6918 216.532 44.7278 216.707 44.7997 216.826C44.8717 216.944 44.9648 217.022 45.079 217.061C45.1933 217.099 45.316 217.118 45.4472 217.118C45.5445 217.118 45.6461 217.109 45.7519 217.092C45.8619 217.071 45.9444 217.054 45.9994 217.042L46.0058 218C45.9127 218.03 45.7899 218.057 45.6376 218.083C45.4895 218.112 45.3096 218.127 45.0981 218.127C44.8103 218.127 44.5458 218.07 44.3046 217.956C44.0634 217.841 43.8708 217.651 43.727 217.384C43.5873 217.113 43.5175 216.75 43.5175 216.292V209.462ZM53.7816 210.58H54.683C54.683 211.041 54.6217 211.428 54.4989 211.741C54.3804 212.054 54.171 212.289 53.8705 212.446C53.5701 212.602 53.1469 212.681 52.601 212.681V211.957C52.9818 211.957 53.2548 211.91 53.4198 211.817C53.5849 211.72 53.6864 211.57 53.7245 211.367C53.7626 211.164 53.7816 210.901 53.7816 210.58ZM51.5536 216.413V211.132H52.7343V218H51.6107L51.5536 216.413ZM51.7758 214.966L52.2646 214.953C52.2646 215.41 52.2159 215.833 52.1186 216.223C52.0255 216.608 51.8731 216.942 51.6615 217.226C51.4499 217.509 51.1728 217.731 50.83 217.892C50.4872 218.049 50.0704 218.127 49.5795 218.127C49.2452 218.127 48.9384 218.078 48.6591 217.981C48.384 217.884 48.147 217.733 47.9482 217.53C47.7493 217.327 47.5948 217.063 47.4848 216.737C47.379 216.411 47.3261 216.02 47.3261 215.562V211.132H48.5004V215.575C48.5004 215.884 48.5343 216.14 48.602 216.343C48.6739 216.542 48.7691 216.701 48.8876 216.819C49.0103 216.934 49.1457 217.014 49.2939 217.061C49.4462 217.107 49.6028 217.13 49.7636 217.13C50.2629 217.13 50.6586 217.035 50.9506 216.845C51.2426 216.65 51.4521 216.39 51.579 216.064C51.7102 215.734 51.7758 215.368 51.7758 214.966ZM49.4906 210.25L50.7221 208.383H52.1376L50.4364 210.25H49.4906ZM58.1488 217.162C58.4281 217.162 58.6863 217.105 58.9232 216.991C59.1602 216.876 59.3549 216.72 59.5072 216.521C59.6596 216.318 59.7463 216.087 59.7675 215.829H60.8847C60.8635 216.235 60.726 216.614 60.4721 216.965C60.2224 217.312 59.8944 217.594 59.4882 217.81C59.0819 218.021 58.6355 218.127 58.1488 218.127C57.6326 218.127 57.1819 218.036 56.7968 217.854C56.4159 217.672 56.0985 217.422 55.8446 217.105C55.595 216.788 55.4066 216.424 55.2797 216.013C55.157 215.598 55.0956 215.16 55.0956 214.699V214.433C55.0956 213.971 55.157 213.535 55.2797 213.125C55.4066 212.71 55.595 212.344 55.8446 212.027C56.0985 211.709 56.4159 211.46 56.7968 211.278C57.1819 211.096 57.6326 211.005 58.1488 211.005C58.6863 211.005 59.156 211.115 59.558 211.335C59.96 211.551 60.2753 211.847 60.5038 212.224C60.7366 212.596 60.8635 213.019 60.8847 213.493H59.7675C59.7463 213.21 59.6659 212.954 59.5263 212.725C59.3909 212.497 59.2047 212.315 58.9677 212.179C58.7349 212.04 58.462 211.97 58.1488 211.97C57.7891 211.97 57.4866 212.042 57.2411 212.186C56.9999 212.325 56.8074 212.516 56.6635 212.757C56.5238 212.994 56.4223 213.258 56.3588 213.55C56.2996 213.838 56.2699 214.132 56.2699 214.433V214.699C56.2699 215 56.2996 215.296 56.3588 215.588C56.418 215.88 56.5175 216.144 56.6571 216.381C56.801 216.618 56.9936 216.809 57.2348 216.953C57.4802 217.092 57.7849 217.162 58.1488 217.162Z" fill="#464646"/>
<path d="M125.605 213.398V216.781C125.491 216.951 125.309 217.141 125.059 217.353C124.809 217.56 124.464 217.742 124.024 217.898C123.588 218.051 123.026 218.127 122.336 218.127C121.773 218.127 121.255 218.03 120.781 217.835C120.311 217.636 119.903 217.348 119.556 216.972C119.213 216.591 118.946 216.13 118.756 215.588C118.57 215.042 118.476 214.424 118.476 213.734V213.017C118.476 212.327 118.557 211.712 118.718 211.17C118.883 210.628 119.124 210.169 119.441 209.792C119.759 209.412 120.148 209.124 120.609 208.929C121.071 208.73 121.6 208.631 122.196 208.631C122.903 208.631 123.493 208.754 123.967 208.999C124.445 209.24 124.818 209.575 125.084 210.002C125.355 210.429 125.529 210.916 125.605 211.462H124.38C124.325 211.128 124.215 210.823 124.05 210.548C123.889 210.273 123.658 210.053 123.358 209.888C123.057 209.718 122.67 209.634 122.196 209.634C121.769 209.634 121.399 209.712 121.085 209.869C120.772 210.025 120.514 210.25 120.311 210.542C120.108 210.833 119.955 211.187 119.854 211.602C119.757 212.016 119.708 212.484 119.708 213.004V213.734C119.708 214.268 119.769 214.744 119.892 215.163C120.019 215.582 120.199 215.939 120.432 216.235C120.664 216.527 120.941 216.75 121.263 216.902C121.589 217.054 121.949 217.13 122.342 217.13C122.778 217.13 123.131 217.094 123.402 217.022C123.673 216.946 123.885 216.857 124.037 216.756C124.189 216.65 124.306 216.551 124.386 216.458V214.388H122.247V213.398H125.605ZM131.045 214.375H128.576V213.379H131.045C131.523 213.379 131.91 213.303 132.206 213.15C132.503 212.998 132.718 212.786 132.854 212.516C132.994 212.245 133.063 211.936 133.063 211.589C133.063 211.271 132.994 210.973 132.854 210.694C132.718 210.415 132.503 210.19 132.206 210.021C131.91 209.847 131.523 209.761 131.045 209.761H128.861V218H127.636V208.758H131.045C131.743 208.758 132.333 208.878 132.816 209.12C133.298 209.361 133.664 209.695 133.914 210.123C134.164 210.546 134.288 211.03 134.288 211.576C134.288 212.169 134.164 212.674 133.914 213.093C133.664 213.512 133.298 213.832 132.816 214.052C132.333 214.268 131.743 214.375 131.045 214.375ZM140.763 215.664C140.763 215.448 140.729 215.258 140.662 215.093C140.598 214.924 140.484 214.771 140.319 214.636C140.158 214.5 139.934 214.371 139.646 214.249C139.362 214.126 139.003 214.001 138.567 213.874C138.11 213.739 137.697 213.588 137.329 213.423C136.961 213.254 136.646 213.062 136.383 212.846C136.121 212.63 135.92 212.382 135.78 212.103C135.641 211.824 135.571 211.504 135.571 211.145C135.571 210.785 135.645 210.453 135.793 210.148C135.941 209.843 136.153 209.579 136.428 209.354C136.707 209.126 137.039 208.948 137.424 208.821C137.809 208.694 138.239 208.631 138.713 208.631C139.407 208.631 139.995 208.764 140.477 209.031C140.964 209.293 141.334 209.638 141.588 210.065C141.842 210.489 141.969 210.941 141.969 211.424H140.75C140.75 211.077 140.676 210.77 140.528 210.503C140.38 210.233 140.156 210.021 139.855 209.869C139.555 209.712 139.174 209.634 138.713 209.634C138.277 209.634 137.917 209.699 137.634 209.831C137.35 209.962 137.139 210.139 136.999 210.364C136.864 210.588 136.796 210.844 136.796 211.132C136.796 211.326 136.836 211.504 136.916 211.665C137.001 211.822 137.13 211.968 137.304 212.103C137.481 212.238 137.706 212.363 137.976 212.478C138.252 212.592 138.579 212.702 138.96 212.808C139.485 212.956 139.938 213.121 140.319 213.303C140.7 213.485 141.013 213.69 141.258 213.918C141.508 214.143 141.692 214.399 141.81 214.687C141.933 214.97 141.995 215.292 141.995 215.651C141.995 216.028 141.918 216.369 141.766 216.673C141.614 216.978 141.396 217.238 141.112 217.454C140.829 217.67 140.488 217.837 140.09 217.956C139.697 218.07 139.257 218.127 138.77 218.127C138.343 218.127 137.921 218.068 137.507 217.949C137.096 217.831 136.722 217.653 136.383 217.416C136.049 217.179 135.78 216.887 135.577 216.54C135.378 216.189 135.279 215.783 135.279 215.321H136.497C136.497 215.639 136.559 215.912 136.682 216.14C136.804 216.364 136.971 216.551 137.183 216.699C137.399 216.847 137.642 216.957 137.913 217.029C138.188 217.097 138.474 217.13 138.77 217.13C139.197 217.13 139.559 217.071 139.855 216.953C140.152 216.834 140.376 216.665 140.528 216.445C140.685 216.225 140.763 215.965 140.763 215.664Z" fill="#464646"/>
<path d="M197.854 208.758V218H196.629V208.758H197.854ZM203.434 208.758L199.593 213.068L197.435 215.309L197.232 214.001L198.857 212.211L201.961 208.758H203.434ZM202.253 218L198.831 213.493L199.561 212.522L203.713 218H202.253ZM205.788 208.25V218H204.614V208.25H205.788ZM205.509 214.306L205.02 214.287C205.025 213.817 205.094 213.383 205.23 212.985C205.365 212.583 205.556 212.234 205.801 211.938C206.047 211.642 206.339 211.413 206.677 211.252C207.02 211.087 207.399 211.005 207.813 211.005C208.152 211.005 208.457 211.051 208.727 211.145C208.998 211.233 209.229 211.377 209.419 211.576C209.614 211.775 209.762 212.033 209.864 212.351C209.965 212.664 210.016 213.047 210.016 213.5V218H208.835V213.487C208.835 213.127 208.782 212.839 208.677 212.624C208.571 212.403 208.416 212.245 208.213 212.147C208.01 212.046 207.76 211.995 207.464 211.995C207.172 211.995 206.906 212.056 206.664 212.179C206.427 212.302 206.222 212.471 206.049 212.687C205.879 212.903 205.746 213.15 205.649 213.43C205.556 213.705 205.509 213.997 205.509 214.306ZM215.824 216.826V213.29C215.824 213.019 215.769 212.784 215.659 212.585C215.553 212.382 215.392 212.226 215.177 212.116C214.961 212.006 214.694 211.951 214.377 211.951C214.081 211.951 213.82 212.001 213.596 212.103C213.376 212.205 213.203 212.338 213.076 212.503C212.953 212.668 212.892 212.846 212.892 213.036H211.717C211.717 212.791 211.781 212.547 211.908 212.306C212.035 212.065 212.217 211.847 212.454 211.652C212.695 211.453 212.982 211.297 213.317 211.183C213.655 211.064 214.032 211.005 214.447 211.005C214.946 211.005 215.386 211.09 215.767 211.259C216.152 211.428 216.453 211.684 216.668 212.027C216.888 212.365 216.998 212.791 216.998 213.303V216.502C216.998 216.73 217.017 216.974 217.056 217.232C217.098 217.49 217.159 217.712 217.24 217.898V218H216.015C215.955 217.865 215.909 217.685 215.875 217.46C215.841 217.232 215.824 217.02 215.824 216.826ZM216.027 213.836L216.04 214.661H214.853C214.519 214.661 214.22 214.689 213.958 214.744C213.696 214.794 213.475 214.873 213.298 214.979C213.12 215.084 212.985 215.218 212.892 215.378C212.798 215.535 212.752 215.719 212.752 215.931C212.752 216.146 212.801 216.343 212.898 216.521C212.995 216.699 213.141 216.84 213.336 216.946C213.535 217.048 213.778 217.099 214.066 217.099C214.426 217.099 214.743 217.022 215.018 216.87C215.293 216.718 215.511 216.532 215.672 216.312C215.837 216.091 215.926 215.878 215.938 215.67L216.44 216.235C216.41 216.413 216.33 216.61 216.199 216.826C216.067 217.042 215.892 217.249 215.672 217.448C215.456 217.642 215.198 217.805 214.897 217.937C214.601 218.063 214.267 218.127 213.894 218.127C213.429 218.127 213.021 218.036 212.669 217.854C212.322 217.672 212.052 217.429 211.857 217.124C211.666 216.815 211.571 216.47 211.571 216.089C211.571 215.721 211.643 215.397 211.787 215.118C211.931 214.835 212.138 214.6 212.409 214.414C212.68 214.223 213.006 214.079 213.387 213.982C213.767 213.885 214.193 213.836 214.663 213.836H216.027ZM215.018 210.015H214.174L214.167 209.05C214.383 209.037 214.559 209.016 214.694 208.986C214.83 208.952 214.929 208.904 214.993 208.84C215.056 208.773 215.088 208.684 215.088 208.574C215.088 208.485 215.06 208.411 215.005 208.352C214.95 208.288 214.874 208.237 214.777 208.199C214.679 208.157 214.567 208.127 214.44 208.11C214.313 208.093 214.178 208.085 214.034 208.085L214.079 207.412C214.392 207.412 214.667 207.44 214.904 207.495C215.145 207.55 215.346 207.63 215.507 207.736C215.672 207.842 215.795 207.969 215.875 208.117C215.96 208.261 216.002 208.421 216.002 208.599C216.002 208.921 215.9 209.156 215.697 209.304C215.494 209.448 215.27 209.536 215.024 209.57L215.018 210.015ZM218.535 214.642V214.496C218.535 214.001 218.607 213.542 218.75 213.119C218.894 212.691 219.102 212.321 219.372 212.008C219.643 211.69 219.971 211.445 220.356 211.271C220.741 211.094 221.173 211.005 221.651 211.005C222.134 211.005 222.567 211.094 222.953 211.271C223.342 211.445 223.672 211.69 223.943 212.008C224.218 212.321 224.427 212.691 224.571 213.119C224.715 213.542 224.787 214.001 224.787 214.496V214.642C224.787 215.137 224.715 215.596 224.571 216.02C224.427 216.443 224.218 216.813 223.943 217.13C223.672 217.444 223.344 217.689 222.959 217.867C222.578 218.04 222.146 218.127 221.664 218.127C221.182 218.127 220.748 218.04 220.363 217.867C219.978 217.689 219.648 217.444 219.372 217.13C219.102 216.813 218.894 216.443 218.75 216.02C218.607 215.596 218.535 215.137 218.535 214.642ZM219.709 214.496V214.642C219.709 214.985 219.749 215.309 219.829 215.613C219.91 215.914 220.031 216.18 220.191 216.413C220.356 216.646 220.562 216.83 220.807 216.965C221.052 217.097 221.338 217.162 221.664 217.162C221.986 217.162 222.267 217.097 222.508 216.965C222.754 216.83 222.957 216.646 223.118 216.413C223.278 216.18 223.399 215.914 223.479 215.613C223.564 215.309 223.606 214.985 223.606 214.642V214.496C223.606 214.158 223.564 213.838 223.479 213.538C223.399 213.233 223.276 212.964 223.111 212.731C222.95 212.494 222.747 212.308 222.502 212.173C222.261 212.037 221.977 211.97 221.651 211.97C221.33 211.97 221.046 212.037 220.801 212.173C220.559 212.308 220.356 212.494 220.191 212.731C220.031 212.964 219.91 213.233 219.829 213.538C219.749 213.838 219.709 214.158 219.709 214.496ZM233.483 216.178C233.483 216.009 233.445 215.852 233.369 215.708C233.297 215.56 233.147 215.427 232.918 215.309C232.694 215.186 232.356 215.08 231.903 214.991C231.522 214.911 231.177 214.816 230.868 214.706C230.563 214.596 230.303 214.462 230.087 214.306C229.876 214.149 229.713 213.965 229.599 213.753C229.484 213.542 229.427 213.294 229.427 213.011C229.427 212.74 229.486 212.484 229.605 212.243C229.728 212.001 229.899 211.788 230.119 211.602C230.343 211.415 230.612 211.269 230.925 211.164C231.238 211.058 231.587 211.005 231.973 211.005C232.523 211.005 232.992 211.102 233.382 211.297C233.771 211.492 234.069 211.752 234.277 212.078C234.484 212.399 234.588 212.757 234.588 213.15H233.413C233.413 212.96 233.356 212.776 233.242 212.598C233.132 212.416 232.969 212.266 232.753 212.147C232.542 212.029 232.281 211.97 231.973 211.97C231.647 211.97 231.382 212.021 231.179 212.122C230.98 212.219 230.834 212.344 230.741 212.497C230.652 212.649 230.608 212.81 230.608 212.979C230.608 213.106 230.629 213.22 230.671 213.322C230.718 213.419 230.798 213.51 230.913 213.595C231.027 213.675 231.188 213.751 231.395 213.823C231.602 213.895 231.867 213.967 232.188 214.039C232.751 214.166 233.215 214.318 233.579 214.496C233.942 214.674 234.213 214.892 234.391 215.15C234.569 215.408 234.658 215.721 234.658 216.089C234.658 216.39 234.594 216.665 234.467 216.915C234.344 217.164 234.165 217.38 233.928 217.562C233.695 217.74 233.416 217.879 233.09 217.981C232.768 218.078 232.406 218.127 232.004 218.127C231.399 218.127 230.887 218.019 230.468 217.803C230.049 217.587 229.732 217.308 229.516 216.965C229.3 216.623 229.192 216.261 229.192 215.88H230.373C230.39 216.201 230.483 216.458 230.652 216.648C230.822 216.834 231.029 216.967 231.274 217.048C231.52 217.124 231.763 217.162 232.004 217.162C232.326 217.162 232.595 217.12 232.81 217.035C233.031 216.951 233.198 216.834 233.312 216.686C233.426 216.538 233.483 216.369 233.483 216.178ZM240.25 216.826V213.29C240.25 213.019 240.195 212.784 240.085 212.585C239.979 212.382 239.818 212.226 239.602 212.116C239.387 212.006 239.12 211.951 238.803 211.951C238.506 211.951 238.246 212.001 238.022 212.103C237.802 212.205 237.628 212.338 237.501 212.503C237.379 212.668 237.317 212.846 237.317 213.036H236.143C236.143 212.791 236.206 212.547 236.333 212.306C236.46 212.065 236.642 211.847 236.879 211.652C237.121 211.453 237.408 211.297 237.743 211.183C238.081 211.064 238.458 211.005 238.872 211.005C239.372 211.005 239.812 211.09 240.193 211.259C240.578 211.428 240.878 211.684 241.094 212.027C241.314 212.365 241.424 212.791 241.424 213.303V216.502C241.424 216.73 241.443 216.974 241.481 217.232C241.524 217.49 241.585 217.712 241.665 217.898V218H240.44C240.381 217.865 240.335 217.685 240.301 217.46C240.267 217.232 240.25 217.02 240.25 216.826ZM240.453 213.836L240.466 214.661H239.279C238.944 214.661 238.646 214.689 238.384 214.744C238.121 214.794 237.901 214.873 237.724 214.979C237.546 215.084 237.41 215.218 237.317 215.378C237.224 215.535 237.178 215.719 237.178 215.931C237.178 216.146 237.226 216.343 237.324 216.521C237.421 216.699 237.567 216.84 237.762 216.946C237.961 217.048 238.204 217.099 238.492 217.099C238.851 217.099 239.169 217.022 239.444 216.87C239.719 216.718 239.937 216.532 240.098 216.312C240.263 216.091 240.351 215.878 240.364 215.67L240.866 216.235C240.836 216.413 240.756 216.61 240.624 216.826C240.493 217.042 240.318 217.249 240.098 217.448C239.882 217.642 239.624 217.805 239.323 217.937C239.027 218.063 238.693 218.127 238.32 218.127C237.855 218.127 237.446 218.036 237.095 217.854C236.748 217.672 236.477 217.429 236.283 217.124C236.092 216.815 235.997 216.47 235.997 216.089C235.997 215.721 236.069 215.397 236.213 215.118C236.357 214.835 236.564 214.6 236.835 214.414C237.106 214.223 237.432 214.079 237.812 213.982C238.193 213.885 238.619 213.836 239.088 213.836H240.453ZM238.352 210.116L239.583 208.25H240.999L239.298 210.116H238.352ZM246.147 211.132V212.033H242.434V211.132H246.147ZM243.69 209.462H244.865V216.299C244.865 216.532 244.901 216.707 244.973 216.826C245.045 216.944 245.138 217.022 245.252 217.061C245.366 217.099 245.489 217.118 245.62 217.118C245.717 217.118 245.819 217.109 245.925 217.092C246.035 217.071 246.117 217.054 246.172 217.042L246.179 218C246.086 218.03 245.963 218.057 245.81 218.083C245.662 218.112 245.482 218.127 245.271 218.127C244.983 218.127 244.719 218.07 244.477 217.956C244.236 217.841 244.044 217.651 243.9 217.384C243.76 217.113 243.69 216.75 243.69 216.292V209.462Z" fill="#464646"/>
<path d="M303.269 215.061H304.488C304.424 215.645 304.257 216.168 303.986 216.629C303.715 217.09 303.332 217.456 302.837 217.727C302.342 217.994 301.724 218.127 300.984 218.127C300.442 218.127 299.949 218.025 299.505 217.822C299.065 217.619 298.686 217.331 298.369 216.959C298.051 216.582 297.806 216.132 297.632 215.607C297.463 215.078 297.378 214.49 297.378 213.842V212.922C297.378 212.274 297.463 211.688 297.632 211.164C297.806 210.635 298.053 210.182 298.375 209.805C298.701 209.429 299.092 209.139 299.549 208.936C300.006 208.732 300.52 208.631 301.092 208.631C301.79 208.631 302.38 208.762 302.863 209.024C303.345 209.287 303.72 209.651 303.986 210.116C304.257 210.577 304.424 211.113 304.488 211.722H303.269C303.21 211.291 303.1 210.92 302.939 210.611C302.778 210.298 302.55 210.057 302.253 209.888C301.957 209.718 301.57 209.634 301.092 209.634C300.681 209.634 300.319 209.712 300.006 209.869C299.697 210.025 299.437 210.247 299.225 210.535C299.018 210.823 298.862 211.168 298.756 211.57C298.65 211.972 298.597 212.418 298.597 212.909V213.842C298.597 214.295 298.644 214.72 298.737 215.118C298.834 215.516 298.98 215.865 299.175 216.166C299.369 216.466 299.617 216.703 299.917 216.876C300.218 217.046 300.573 217.13 300.984 217.13C301.504 217.13 301.919 217.048 302.228 216.883C302.537 216.718 302.77 216.481 302.926 216.172C303.087 215.863 303.201 215.493 303.269 215.061ZM307.154 208.25V218H305.979V208.25H307.154ZM306.874 214.306L306.386 214.287C306.39 213.817 306.46 213.383 306.595 212.985C306.731 212.583 306.921 212.234 307.166 211.938C307.412 211.642 307.704 211.413 308.042 211.252C308.385 211.087 308.764 211.005 309.179 211.005C309.517 211.005 309.822 211.051 310.093 211.145C310.364 211.233 310.594 211.377 310.785 211.576C310.979 211.775 311.127 212.033 311.229 212.351C311.33 212.664 311.381 213.047 311.381 213.5V218H310.201V213.487C310.201 213.127 310.148 212.839 310.042 212.624C309.936 212.403 309.782 212.245 309.579 212.147C309.375 212.046 309.126 211.995 308.829 211.995C308.538 211.995 308.271 212.056 308.03 212.179C307.793 212.302 307.587 212.471 307.414 212.687C307.245 212.903 307.111 213.15 307.014 213.43C306.921 213.705 306.874 213.997 306.874 214.306ZM317.189 216.826V213.29C317.189 213.019 317.134 212.784 317.024 212.585C316.919 212.382 316.758 212.226 316.542 212.116C316.326 212.006 316.059 211.951 315.742 211.951C315.446 211.951 315.186 212.001 314.961 212.103C314.741 212.205 314.568 212.338 314.441 212.503C314.318 212.668 314.257 212.846 314.257 213.036H313.082C313.082 212.791 313.146 212.547 313.273 212.306C313.4 212.065 313.582 211.847 313.819 211.652C314.06 211.453 314.348 211.297 314.682 211.183C315.021 211.064 315.397 211.005 315.812 211.005C316.311 211.005 316.751 211.09 317.132 211.259C317.517 211.428 317.818 211.684 318.034 212.027C318.254 212.365 318.364 212.791 318.364 213.303V216.502C318.364 216.73 318.383 216.974 318.421 217.232C318.463 217.49 318.524 217.712 318.605 217.898V218H317.38C317.321 217.865 317.274 217.685 317.24 217.46C317.206 217.232 317.189 217.02 317.189 216.826ZM317.392 213.836L317.405 214.661H316.218C315.884 214.661 315.586 214.689 315.323 214.744C315.061 214.794 314.841 214.873 314.663 214.979C314.485 215.084 314.35 215.218 314.257 215.378C314.164 215.535 314.117 215.719 314.117 215.931C314.117 216.146 314.166 216.343 314.263 216.521C314.36 216.699 314.506 216.84 314.701 216.946C314.9 217.048 315.143 217.099 315.431 217.099C315.791 217.099 316.108 217.022 316.383 216.87C316.658 216.718 316.876 216.532 317.037 216.312C317.202 216.091 317.291 215.878 317.304 215.67L317.805 216.235C317.775 216.413 317.695 216.61 317.564 216.826C317.433 217.042 317.257 217.249 317.037 217.448C316.821 217.642 316.563 217.805 316.263 217.937C315.966 218.063 315.632 218.127 315.26 218.127C314.794 218.127 314.386 218.036 314.035 217.854C313.688 217.672 313.417 217.429 313.222 217.124C313.032 216.815 312.936 216.47 312.936 216.089C312.936 215.721 313.008 215.397 313.152 215.118C313.296 214.835 313.503 214.6 313.774 214.414C314.045 214.223 314.371 214.079 314.752 213.982C315.133 213.885 315.558 213.836 316.028 213.836H317.392ZM323.086 211.132V212.033H319.373V211.132H323.086ZM320.63 209.462H321.804V216.299C321.804 216.532 321.84 216.707 321.912 216.826C321.984 216.944 322.077 217.022 322.191 217.061C322.306 217.099 322.428 217.118 322.559 217.118C322.657 217.118 322.758 217.109 322.864 217.092C322.974 217.071 323.057 217.054 323.112 217.042L323.118 218C323.025 218.03 322.902 218.057 322.75 218.083C322.602 218.112 322.422 218.127 322.21 218.127C321.923 218.127 321.658 218.07 321.417 217.956C321.176 217.841 320.983 217.651 320.839 217.384C320.7 217.113 320.63 216.75 320.63 216.292V209.462Z" fill="#464646"/>
<rect x="9" width="65" height="65" rx="25" fill="#F3EFFF"/>
<rect x="98" width="65" height="65" rx="25" fill="#FFF8E9"/>
<rect x="189" width="65" height="65" rx="25" fill="#E8FFF1"/>
<rect x="278" width="65" height="65" rx="25" fill="#FFF1F0"/>
<path d="M21.7323 84H19.8026L19.8153 83.0034H21.7323C22.3925 83.0034 22.9426 82.8659 23.3827 82.5908C23.8228 82.3115 24.1529 81.9222 24.373 81.4229C24.5972 80.9193 24.7094 80.3311 24.7094 79.6582V79.0933C24.7094 78.5643 24.6459 78.0946 24.519 77.6841C24.392 77.2694 24.2058 76.9202 23.9604 76.6367C23.7149 76.349 23.4145 76.131 23.059 75.9829C22.7078 75.8348 22.3036 75.7607 21.8466 75.7607H19.7646V74.7578H21.8466C22.4517 74.7578 23.004 74.8594 23.5033 75.0625C24.0027 75.2614 24.4322 75.5513 24.7919 75.9321C25.1558 76.3088 25.4351 76.7658 25.6298 77.3032C25.8245 77.8364 25.9218 78.4373 25.9218 79.106V79.6582C25.9218 80.3268 25.8245 80.9299 25.6298 81.4673C25.4351 82.0005 25.1537 82.4554 24.7856 82.832C24.4216 83.2087 23.9815 83.4985 23.4652 83.7017C22.9532 83.9006 22.3756 84 21.7323 84ZM20.4565 74.7578V84H19.2314V74.7578H20.4565ZM22.2465 78.814V79.7788H18.203V78.814H22.2465ZM31.6347 82.8257V79.29C31.6347 79.0192 31.5797 78.7843 31.4696 78.5854C31.3638 78.3823 31.203 78.2257 30.9872 78.1157C30.7714 78.0057 30.5048 77.9507 30.1874 77.9507C29.8912 77.9507 29.6309 78.0015 29.4066 78.103C29.1866 78.2046 29.0131 78.3379 28.8861 78.5029C28.7634 78.668 28.7021 78.8457 28.7021 79.0361H27.5277C27.5277 78.7907 27.5912 78.5474 27.7182 78.3062C27.8451 78.0649 28.0271 77.847 28.2641 77.6523C28.5053 77.4535 28.793 77.2969 29.1273 77.1826C29.4659 77.0641 29.8425 77.0049 30.2572 77.0049C30.7566 77.0049 31.1967 77.0895 31.5775 77.2588C31.9626 77.4281 32.2631 77.6841 32.4789 78.0269C32.699 78.3654 32.809 78.7907 32.809 79.3027V82.502C32.809 82.7305 32.828 82.9738 32.8661 83.2319C32.9084 83.4901 32.9698 83.7122 33.0502 83.8984V84H31.8251C31.7659 83.8646 31.7193 83.6847 31.6855 83.4604C31.6516 83.2319 31.6347 83.0203 31.6347 82.8257ZM31.8378 79.8359L31.8505 80.6611H30.6635C30.3292 80.6611 30.0308 80.6886 29.7685 80.7437C29.5061 80.7944 29.286 80.8727 29.1083 80.9785C28.9306 81.0843 28.7952 81.2176 28.7021 81.3784C28.609 81.535 28.5624 81.7191 28.5624 81.9307C28.5624 82.1465 28.6111 82.3433 28.7084 82.521C28.8057 82.6987 28.9517 82.8405 29.1464 82.9463C29.3453 83.0479 29.5886 83.0986 29.8764 83.0986C30.2361 83.0986 30.5535 83.0225 30.8285 82.8701C31.1036 82.7178 31.3215 82.5316 31.4823 82.3115C31.6474 82.0915 31.7362 81.8778 31.7489 81.6704L32.2504 82.2354C32.2208 82.4131 32.1404 82.6099 32.0092 82.8257C31.878 83.0415 31.7024 83.2489 31.4823 83.4478C31.2665 83.6424 31.0084 83.8053 30.7079 83.9365C30.4117 84.0635 30.0774 84.127 29.705 84.127C29.2395 84.127 28.8311 84.036 28.4799 83.854C28.1329 83.672 27.8621 83.4287 27.6674 83.124C27.477 82.8151 27.3817 82.4702 27.3817 82.0894C27.3817 81.7212 27.4537 81.3975 27.5976 81.1182C27.7414 80.8346 27.9488 80.5998 28.2196 80.4136C28.4905 80.2231 28.8163 80.0793 29.1972 79.9819C29.578 79.8846 30.0033 79.8359 30.4731 79.8359H31.8378ZM31.33 74.5103H32.2821C32.2821 74.8403 32.206 75.1344 32.0536 75.3926C31.9013 75.6465 31.6833 75.8454 31.3998 75.9893C31.1163 76.1331 30.7799 76.2051 30.3905 76.2051C29.8023 76.2051 29.3368 76.0485 28.994 75.7354C28.6555 75.418 28.4862 75.0096 28.4862 74.5103H29.4384C29.4384 74.7599 29.5103 74.98 29.6542 75.1704C29.7981 75.3608 30.0435 75.4561 30.3905 75.4561C30.7291 75.4561 30.9703 75.3608 31.1142 75.1704C31.258 74.98 31.33 74.7599 31.33 74.5103ZM35.8305 78.5981V84H34.6562V77.1318H35.767L35.8305 78.5981ZM35.5512 80.3057L35.0624 80.2866C35.0666 79.8169 35.1365 79.3831 35.2719 78.9854C35.4073 78.5833 35.5977 78.2342 35.8432 77.938C36.0886 77.6418 36.3806 77.4132 36.7191 77.2524C37.0619 77.0874 37.4407 77.0049 37.8554 77.0049C38.1939 77.0049 38.4986 77.0514 38.7694 77.1445C39.0403 77.2334 39.2709 77.3773 39.4613 77.5762C39.656 77.7751 39.8041 78.0332 39.9057 78.3506C40.0072 78.6637 40.058 79.0467 40.058 79.4995V84H38.8773V79.4868C38.8773 79.1271 38.8245 78.8394 38.7187 78.6235C38.6129 78.4035 38.4584 78.2448 38.2553 78.1475C38.0522 78.0459 37.8025 77.9951 37.5063 77.9951C37.2143 77.9951 36.9477 78.0565 36.7065 78.1792C36.4695 78.3019 36.2642 78.4712 36.0907 78.687C35.9215 78.9028 35.7882 79.1504 35.6908 79.4297C35.5977 79.7048 35.5512 79.9967 35.5512 80.3057ZM46.2914 77.1318H47.3578V83.854C47.3578 84.4591 47.2351 84.9754 46.9897 85.4028C46.7442 85.8302 46.4014 86.154 45.9613 86.374C45.5255 86.5983 45.0219 86.7104 44.4506 86.7104C44.2136 86.7104 43.9343 86.6724 43.6127 86.5962C43.2953 86.5243 42.9822 86.3994 42.6732 86.2217C42.3686 86.0482 42.1125 85.8133 41.9052 85.5171L42.5209 84.8188C42.8087 85.1659 43.1091 85.4071 43.4223 85.5425C43.7397 85.6779 44.0528 85.7456 44.3617 85.7456C44.7341 85.7456 45.0557 85.6758 45.3266 85.5361C45.5974 85.3965 45.8069 85.1891 45.955 84.9141C46.1073 84.6432 46.1835 84.3089 46.1835 83.9111V78.6426L46.2914 77.1318ZM41.5624 80.6421V80.5088C41.5624 79.984 41.6238 79.508 41.7465 79.0806C41.8734 78.6489 42.0533 78.2786 42.286 77.9697C42.523 77.6608 42.8087 77.4238 43.143 77.2588C43.4773 77.0895 43.8539 77.0049 44.2729 77.0049C44.7045 77.0049 45.0811 77.0811 45.4027 77.2334C45.7286 77.3815 46.0037 77.5994 46.2279 77.8872C46.4565 78.1707 46.6363 78.5135 46.7675 78.9155C46.8987 79.3175 46.9897 79.7725 47.0404 80.2803V80.8643C46.9939 81.3678 46.9029 81.8206 46.7675 82.2227C46.6363 82.6247 46.4565 82.9674 46.2279 83.251C46.0037 83.5345 45.7286 83.7524 45.4027 83.9048C45.0769 84.0529 44.696 84.127 44.2602 84.127C43.8497 84.127 43.4773 84.0402 43.143 83.8667C42.8129 83.6932 42.5294 83.4499 42.2924 83.1367C42.0554 82.8236 41.8734 82.4554 41.7465 82.0322C41.6238 81.6048 41.5624 81.1414 41.5624 80.6421ZM42.7367 80.5088V80.6421C42.7367 80.9849 42.7706 81.3065 42.8383 81.6069C42.9102 81.9074 43.0181 82.1719 43.162 82.4004C43.3101 82.6289 43.4984 82.8088 43.727 82.9399C43.9555 83.0669 44.2284 83.1304 44.5458 83.1304C44.9351 83.1304 45.2567 83.0479 45.5107 82.8828C45.7646 82.7178 45.9656 82.4998 46.1137 82.229C46.266 81.9582 46.3845 81.6641 46.4691 81.3467V79.8169C46.4226 79.5841 46.3507 79.3599 46.2533 79.144C46.1602 78.924 46.0375 78.7293 45.8852 78.5601C45.7371 78.3866 45.553 78.249 45.3329 78.1475C45.1129 78.0459 44.8547 77.9951 44.5585 77.9951C44.2369 77.9951 43.9597 78.0628 43.727 78.1982C43.4984 78.3294 43.3101 78.5114 43.162 78.7441C43.0181 78.9727 42.9102 79.2393 42.8383 79.5439C42.7706 79.8444 42.7367 80.166 42.7367 80.5088ZM53.5468 74.25V84H52.3661V74.25H53.5468ZM57.7426 77.1318L54.7465 80.3374L53.0707 82.0767L52.9755 80.8262L54.1752 79.3916L56.308 77.1318H57.7426ZM56.6698 84L54.2196 80.7246L54.829 79.6772L58.0536 84H56.6698ZM60.8847 83.2891L62.7953 77.1318H64.0522L61.2973 85.0601C61.2338 85.2293 61.1492 85.4113 61.0434 85.606C60.9418 85.8049 60.8106 85.9932 60.6498 86.1709C60.489 86.3486 60.2943 86.4925 60.0658 86.6025C59.8415 86.7168 59.5728 86.7739 59.2597 86.7739C59.1666 86.7739 59.0481 86.7612 58.9042 86.7358C58.7603 86.7104 58.6588 86.6893 58.5995 86.6724L58.5932 85.7202C58.627 85.7244 58.6799 85.7287 58.7519 85.7329C58.828 85.7414 58.8809 85.7456 58.9106 85.7456C59.1772 85.7456 59.4036 85.7096 59.5898 85.6377C59.776 85.57 59.9325 85.4536 60.0595 85.2886C60.1907 85.1278 60.3028 84.9056 60.3959 84.6221L60.8847 83.2891ZM59.4818 77.1318L61.2655 82.4639L61.5702 83.7017L60.726 84.1333L58.1996 77.1318H59.4818ZM60.6371 76.1162L61.8686 74.25H63.2841L61.5829 76.1162H60.6371Z" fill="#464646"/>
<path d="M105.972 80.3755H103.502V79.3789H105.972C106.45 79.3789 106.837 79.3027 107.133 79.1504C107.429 78.998 107.645 78.7865 107.781 78.5156C107.92 78.2448 107.99 77.9359 107.99 77.5889C107.99 77.2715 107.92 76.9731 107.781 76.6938C107.645 76.4146 107.429 76.1903 107.133 76.021C106.837 75.8475 106.45 75.7607 105.972 75.7607H103.788V84H102.563V74.7578H105.972C106.67 74.7578 107.26 74.8784 107.743 75.1196C108.225 75.3608 108.591 75.6951 108.841 76.1226C109.09 76.5457 109.215 77.0303 109.215 77.5762C109.215 78.1686 109.09 78.6743 108.841 79.0933C108.591 79.5122 108.225 79.8317 107.743 80.0518C107.26 80.2676 106.67 80.3755 105.972 80.3755ZM111.761 74.25V84H110.586V74.25H111.761ZM111.481 80.3057L110.993 80.2866C110.997 79.8169 111.067 79.3831 111.202 78.9854C111.337 78.5833 111.528 78.2342 111.773 77.938C112.019 77.6418 112.311 77.4132 112.649 77.2524C112.992 77.0874 113.371 77.0049 113.786 77.0049C114.124 77.0049 114.429 77.0514 114.7 77.1445C114.97 77.2334 115.201 77.3773 115.392 77.5762C115.586 77.7751 115.734 78.0332 115.836 78.3506C115.937 78.6637 115.988 79.0467 115.988 79.4995V84H114.808V79.4868C114.808 79.1271 114.755 78.8394 114.649 78.6235C114.543 78.4035 114.389 78.2448 114.185 78.1475C113.982 78.0459 113.733 77.9951 113.436 77.9951C113.144 77.9951 112.878 78.0565 112.637 78.1792C112.4 78.3019 112.194 78.4712 112.021 78.687C111.852 78.9028 111.718 79.1504 111.621 79.4297C111.528 79.7048 111.481 79.9967 111.481 80.3057ZM120.597 84.127C120.118 84.127 119.685 84.0465 119.295 83.8857C118.91 83.7207 118.578 83.4901 118.299 83.1938C118.024 82.8976 117.812 82.5464 117.664 82.1401C117.516 81.7339 117.442 81.2896 117.442 80.8071V80.5405C117.442 79.9819 117.524 79.4847 117.689 79.0488C117.854 78.6087 118.079 78.2363 118.362 77.9316C118.646 77.627 118.967 77.3963 119.327 77.2397C119.687 77.0832 120.059 77.0049 120.444 77.0049C120.935 77.0049 121.358 77.0895 121.714 77.2588C122.073 77.4281 122.368 77.665 122.596 77.9697C122.825 78.2702 122.994 78.6257 123.104 79.0361C123.214 79.4424 123.269 79.8867 123.269 80.3691V80.896H118.14V79.9375H122.095V79.8486C122.078 79.5439 122.014 79.2477 121.904 78.96C121.798 78.6722 121.629 78.4352 121.396 78.249C121.164 78.0628 120.846 77.9697 120.444 77.9697C120.178 77.9697 119.932 78.0269 119.708 78.1411C119.484 78.2511 119.291 78.4162 119.13 78.6362C118.969 78.8563 118.845 79.125 118.756 79.4424C118.667 79.7598 118.622 80.1258 118.622 80.5405V80.8071C118.622 81.133 118.667 81.4398 118.756 81.7275C118.849 82.0111 118.982 82.2607 119.156 82.4766C119.333 82.6924 119.547 82.8617 119.797 82.9844C120.051 83.1071 120.338 83.1685 120.66 83.1685C121.075 83.1685 121.426 83.0838 121.714 82.9146C122.002 82.7453 122.253 82.5189 122.469 82.2354L123.18 82.8003C123.032 83.0246 122.844 83.2383 122.615 83.4414C122.387 83.6445 122.105 83.8096 121.771 83.9365C121.441 84.0635 121.049 84.127 120.597 84.127ZM120.793 74.25L122.368 75.9829V76.0464H121.39L120.438 74.9736L119.492 76.0464H118.527V75.9766L120.082 74.25H120.793ZM132.194 82.667V74.25H133.374V84H132.295L132.194 82.667ZM127.573 80.6421V80.5088C127.573 79.984 127.636 79.508 127.763 79.0806C127.894 78.6489 128.078 78.2786 128.315 77.9697C128.557 77.6608 128.842 77.4238 129.172 77.2588C129.507 77.0895 129.879 77.0049 130.289 77.0049C130.721 77.0049 131.098 77.0811 131.419 77.2334C131.745 77.3815 132.02 77.5994 132.245 77.8872C132.473 78.1707 132.653 78.5135 132.784 78.9155C132.915 79.3175 133.006 79.7725 133.057 80.2803V80.8643C133.01 81.3678 132.92 81.8206 132.784 82.2227C132.653 82.6247 132.473 82.9674 132.245 83.251C132.02 83.5345 131.745 83.7524 131.419 83.9048C131.093 84.0529 130.713 84.127 130.277 84.127C129.875 84.127 129.507 84.0402 129.172 83.8667C128.842 83.6932 128.557 83.4499 128.315 83.1367C128.078 82.8236 127.894 82.4554 127.763 82.0322C127.636 81.6048 127.573 81.1414 127.573 80.6421ZM128.753 80.5088V80.6421C128.753 80.9849 128.787 81.3065 128.855 81.6069C128.927 81.9074 129.037 82.1719 129.185 82.4004C129.333 82.6289 129.521 82.8088 129.75 82.9399C129.978 83.0669 130.251 83.1304 130.569 83.1304C130.958 83.1304 131.278 83.0479 131.527 82.8828C131.781 82.7178 131.984 82.4998 132.137 82.229C132.289 81.9582 132.407 81.6641 132.492 81.3467V79.8169C132.441 79.5841 132.367 79.3599 132.27 79.144C132.177 78.924 132.054 78.7293 131.902 78.5601C131.754 78.3866 131.57 78.249 131.35 78.1475C131.134 78.0459 130.878 77.9951 130.581 77.9951C130.26 77.9951 129.983 78.0628 129.75 78.1982C129.521 78.3294 129.333 78.5114 129.185 78.7441C129.037 78.9727 128.927 79.2393 128.855 79.5439C128.787 79.8444 128.753 80.166 128.753 80.5088ZM139.405 82.4131V77.1318H140.585V84H139.462L139.405 82.4131ZM139.627 80.9658L140.116 80.9531C140.116 81.4102 140.067 81.8333 139.97 82.2227C139.877 82.6077 139.724 82.9421 139.513 83.2256C139.301 83.5091 139.024 83.7313 138.681 83.8921C138.338 84.0487 137.921 84.127 137.431 84.127C137.096 84.127 136.789 84.0783 136.51 83.981C136.235 83.8836 135.998 83.7334 135.799 83.5303C135.6 83.3271 135.446 83.0627 135.336 82.7368C135.23 82.411 135.177 82.0195 135.177 81.5625V77.1318H136.351V81.5752C136.351 81.8841 136.385 82.1401 136.453 82.3433C136.525 82.5422 136.62 82.7008 136.739 82.8193C136.861 82.9336 136.997 83.014 137.145 83.0605C137.297 83.1071 137.454 83.1304 137.615 83.1304C138.114 83.1304 138.51 83.0352 138.802 82.8447C139.094 82.6501 139.303 82.3898 139.43 82.064C139.561 81.7339 139.627 81.3678 139.627 80.9658ZM144.305 83.2891L146.216 77.1318H147.473L144.718 85.0601C144.654 85.2293 144.57 85.4113 144.464 85.606C144.362 85.8049 144.231 85.9932 144.07 86.1709C143.909 86.3486 143.715 86.4925 143.486 86.6025C143.262 86.7168 142.993 86.7739 142.68 86.7739C142.587 86.7739 142.468 86.7612 142.325 86.7358C142.181 86.7104 142.079 86.6893 142.02 86.6724L142.014 85.7202C142.047 85.7244 142.1 85.7287 142.172 85.7329C142.248 85.7414 142.301 85.7456 142.331 85.7456C142.598 85.7456 142.824 85.7096 143.01 85.6377C143.196 85.57 143.353 85.4536 143.48 85.2886C143.611 85.1278 143.723 84.9056 143.816 84.6221L144.305 83.2891ZM142.902 77.1318L144.686 82.4639L144.991 83.7017L144.146 84.1333L141.62 77.1318H142.902ZM151.294 84.127C150.816 84.127 150.382 84.0465 149.993 83.8857C149.607 83.7207 149.275 83.4901 148.996 83.1938C148.721 82.8976 148.509 82.5464 148.361 82.1401C148.213 81.7339 148.139 81.2896 148.139 80.8071V80.5405C148.139 79.9819 148.222 79.4847 148.387 79.0488C148.552 78.6087 148.776 78.2363 149.059 77.9316C149.343 77.627 149.665 77.3963 150.024 77.2397C150.384 77.0832 150.756 77.0049 151.142 77.0049C151.632 77.0049 152.056 77.0895 152.411 77.2588C152.771 77.4281 153.065 77.665 153.293 77.9697C153.522 78.2702 153.691 78.6257 153.801 79.0361C153.911 79.4424 153.966 79.8867 153.966 80.3691V80.896H148.837V79.9375H152.792V79.8486C152.775 79.5439 152.711 79.2477 152.601 78.96C152.496 78.6722 152.326 78.4352 152.094 78.249C151.861 78.0628 151.544 77.9697 151.142 77.9697C150.875 77.9697 150.629 78.0269 150.405 78.1411C150.181 78.2511 149.988 78.4162 149.828 78.6362C149.667 78.8563 149.542 79.125 149.453 79.4424C149.364 79.7598 149.32 80.1258 149.32 80.5405V80.8071C149.32 81.133 149.364 81.4398 149.453 81.7275C149.546 82.0111 149.679 82.2607 149.853 82.4766C150.031 82.6924 150.244 82.8617 150.494 82.9844C150.748 83.1071 151.036 83.1685 151.357 83.1685C151.772 83.1685 152.123 83.0838 152.411 82.9146C152.699 82.7453 152.951 82.5189 153.166 82.2354L153.877 82.8003C153.729 83.0246 153.541 83.2383 153.312 83.4414C153.084 83.6445 152.802 83.8096 152.468 83.9365C152.138 84.0635 151.747 84.127 151.294 84.127ZM151.491 74.25L153.065 75.9829V76.0464H152.087L151.135 74.9736L150.189 76.0464H149.225V75.9766L150.78 74.25H151.491ZM150.424 85.5615C150.424 85.3711 150.481 85.2103 150.596 85.0791C150.714 84.9479 150.888 84.8823 151.116 84.8823C151.34 84.8823 151.512 84.9479 151.63 85.0791C151.753 85.2103 151.814 85.3711 151.814 85.5615C151.814 85.7435 151.753 85.8979 151.63 86.0249C151.512 86.1561 151.34 86.2217 151.116 86.2217C150.888 86.2217 150.714 86.1561 150.596 86.0249C150.481 85.8979 150.424 85.7435 150.424 85.5615ZM158.213 77.1318V78.0332H154.499V77.1318H158.213ZM155.756 75.4624H156.931V82.2988C156.931 82.5316 156.967 82.7072 157.038 82.8257C157.11 82.9442 157.204 83.0225 157.318 83.0605C157.432 83.0986 157.555 83.1177 157.686 83.1177C157.783 83.1177 157.885 83.1092 157.991 83.0923C158.101 83.0711 158.183 83.0542 158.238 83.0415L158.245 84C158.151 84.0296 158.029 84.0571 157.876 84.0825C157.728 84.1121 157.548 84.127 157.337 84.127C157.049 84.127 156.785 84.0698 156.543 83.9556C156.302 83.8413 156.11 83.6509 155.966 83.3843C155.826 83.1134 155.756 82.7495 155.756 82.2925V75.4624Z" fill="#464646"/>
<path d="M194.667 79.6772H192.325L192.312 78.6934H194.439C194.79 78.6934 195.097 78.6341 195.359 78.5156C195.622 78.3971 195.825 78.2279 195.969 78.0078C196.117 77.7835 196.191 77.5169 196.191 77.208C196.191 76.8695 196.125 76.5944 195.994 76.3828C195.867 76.167 195.67 76.0104 195.404 75.9131C195.141 75.8115 194.807 75.7607 194.401 75.7607H192.598V84H191.373V74.7578H194.401C194.875 74.7578 195.298 74.8065 195.67 74.9038C196.043 74.9969 196.358 75.145 196.616 75.3481C196.878 75.547 197.077 75.8009 197.213 76.1099C197.348 76.4188 197.416 76.7891 197.416 77.2207C197.416 77.6016 197.319 77.9465 197.124 78.2554C196.929 78.5601 196.658 78.8097 196.311 79.0044C195.969 79.1991 195.567 79.3239 195.105 79.3789L194.667 79.6772ZM194.61 84H191.843L192.535 83.0034H194.61C195 83.0034 195.33 82.9357 195.6 82.8003C195.876 82.6649 196.085 82.4744 196.229 82.229C196.373 81.9793 196.445 81.6852 196.445 81.3467C196.445 81.0039 196.383 80.7077 196.261 80.458C196.138 80.2083 195.945 80.0158 195.683 79.8804C195.421 79.745 195.082 79.6772 194.667 79.6772H192.922L192.934 78.6934H195.321L195.581 79.0488C196.026 79.0869 196.402 79.2139 196.711 79.4297C197.02 79.6413 197.255 79.9121 197.416 80.2422C197.581 80.5723 197.663 80.9362 197.663 81.334C197.663 81.9095 197.537 82.3962 197.283 82.7939C197.033 83.1875 196.68 83.488 196.223 83.6953C195.766 83.8984 195.228 84 194.61 84ZM203.345 82.8257V79.29C203.345 79.0192 203.29 78.7843 203.18 78.5854C203.074 78.3823 202.913 78.2257 202.697 78.1157C202.481 78.0057 202.215 77.9507 201.897 77.9507C201.601 77.9507 201.341 78.0015 201.117 78.103C200.897 78.2046 200.723 78.3379 200.596 78.5029C200.473 78.668 200.412 78.8457 200.412 79.0361H199.238C199.238 78.7907 199.301 78.5474 199.428 78.3062C199.555 78.0649 199.737 77.847 199.974 77.6523C200.215 77.4535 200.503 77.2969 200.837 77.1826C201.176 77.0641 201.552 77.0049 201.967 77.0049C202.467 77.0049 202.907 77.0895 203.288 77.2588C203.673 77.4281 203.973 77.6841 204.189 78.0269C204.409 78.3654 204.519 78.7907 204.519 79.3027V82.502C204.519 82.7305 204.538 82.9738 204.576 83.2319C204.618 83.4901 204.68 83.7122 204.76 83.8984V84H203.535C203.476 83.8646 203.429 83.6847 203.395 83.4604C203.362 83.2319 203.345 83.0203 203.345 82.8257ZM203.548 79.8359L203.56 80.6611H202.373C202.039 80.6611 201.741 80.6886 201.478 80.7437C201.216 80.7944 200.996 80.8727 200.818 80.9785C200.641 81.0843 200.505 81.2176 200.412 81.3784C200.319 81.535 200.272 81.7191 200.272 81.9307C200.272 82.1465 200.321 82.3433 200.418 82.521C200.516 82.6987 200.662 82.8405 200.856 82.9463C201.055 83.0479 201.299 83.0986 201.586 83.0986C201.946 83.0986 202.263 83.0225 202.538 82.8701C202.814 82.7178 203.031 82.5316 203.192 82.3115C203.357 82.0915 203.446 81.8778 203.459 81.6704L203.96 82.2354C203.931 82.4131 203.85 82.6099 203.719 82.8257C203.588 83.0415 203.412 83.2489 203.192 83.4478C202.976 83.6424 202.718 83.8053 202.418 83.9365C202.122 84.0635 201.787 84.127 201.415 84.127C200.949 84.127 200.541 84.036 200.19 83.854C199.843 83.672 199.572 83.4287 199.377 83.124C199.187 82.8151 199.092 82.4702 199.092 82.0894C199.092 81.7212 199.164 81.3975 199.308 81.1182C199.451 80.8346 199.659 80.5998 199.93 80.4136C200.2 80.2231 200.526 80.0793 200.907 79.9819C201.288 79.8846 201.713 79.8359 202.183 79.8359H203.548ZM202.538 76.0146H201.694L201.688 75.0498C201.904 75.0371 202.079 75.016 202.215 74.9863C202.35 74.9525 202.45 74.9038 202.513 74.8403C202.577 74.7726 202.608 74.6838 202.608 74.5737C202.608 74.4849 202.581 74.4108 202.526 74.3516C202.471 74.2881 202.395 74.2373 202.297 74.1992C202.2 74.1569 202.088 74.1273 201.961 74.1104C201.834 74.0934 201.698 74.085 201.555 74.085L201.599 73.4121C201.912 73.4121 202.187 73.4396 202.424 73.4946C202.665 73.5496 202.866 73.63 203.027 73.7358C203.192 73.8416 203.315 73.9686 203.395 74.1167C203.48 74.2606 203.522 74.4214 203.522 74.5991C203.522 74.9207 203.421 75.1556 203.218 75.3037C203.015 75.4476 202.79 75.5365 202.545 75.5703L202.538 76.0146ZM207.54 78.5981V84H206.366V77.1318H207.477L207.54 78.5981ZM207.261 80.3057L206.772 80.2866C206.777 79.8169 206.846 79.3831 206.982 78.9854C207.117 78.5833 207.308 78.2342 207.553 77.938C207.799 77.6418 208.091 77.4132 208.429 77.2524C208.772 77.0874 209.151 77.0049 209.565 77.0049C209.904 77.0049 210.209 77.0514 210.479 77.1445C210.75 77.2334 210.981 77.3773 211.171 77.5762C211.366 77.7751 211.514 78.0332 211.616 78.3506C211.717 78.6637 211.768 79.0467 211.768 79.4995V84H210.587V79.4868C210.587 79.1271 210.534 78.8394 210.429 78.6235C210.323 78.4035 210.168 78.2448 209.965 78.1475C209.762 78.0459 209.512 77.9951 209.216 77.9951C208.924 77.9951 208.658 78.0565 208.416 78.1792C208.179 78.3019 207.974 78.4712 207.801 78.687C207.631 78.9028 207.498 79.1504 207.401 79.4297C207.308 79.7048 207.261 79.9967 207.261 80.3057ZM218.001 77.1318H219.068V83.854C219.068 84.4591 218.945 84.9754 218.7 85.4028C218.454 85.8302 218.111 86.154 217.671 86.374C217.235 86.5983 216.732 86.7104 216.161 86.7104C215.924 86.7104 215.644 86.6724 215.323 86.5962C215.005 86.5243 214.692 86.3994 214.383 86.2217C214.079 86.0482 213.822 85.8133 213.615 85.5171L214.231 84.8188C214.519 85.1659 214.819 85.4071 215.132 85.5425C215.45 85.6779 215.763 85.7456 216.072 85.7456C216.444 85.7456 216.766 85.6758 217.037 85.5361C217.307 85.3965 217.517 85.1891 217.665 84.9141C217.817 84.6432 217.893 84.3089 217.893 83.9111V78.6426L218.001 77.1318ZM213.272 80.6421V80.5088C213.272 79.984 213.334 79.508 213.456 79.0806C213.583 78.6489 213.763 78.2786 213.996 77.9697C214.233 77.6608 214.519 77.4238 214.853 77.2588C215.187 77.0895 215.564 77.0049 215.983 77.0049C216.414 77.0049 216.791 77.0811 217.113 77.2334C217.439 77.3815 217.714 77.5994 217.938 77.8872C218.166 78.1707 218.346 78.5135 218.477 78.9155C218.609 79.3175 218.7 79.7725 218.75 80.2803V80.8643C218.704 81.3678 218.613 81.8206 218.477 82.2227C218.346 82.6247 218.166 82.9674 217.938 83.251C217.714 83.5345 217.439 83.7524 217.113 83.9048C216.787 84.0529 216.406 84.127 215.97 84.127C215.56 84.127 215.187 84.0402 214.853 83.8667C214.523 83.6932 214.239 83.4499 214.002 83.1367C213.765 82.8236 213.583 82.4554 213.456 82.0322C213.334 81.6048 213.272 81.1414 213.272 80.6421ZM214.447 80.5088V80.6421C214.447 80.9849 214.481 81.3065 214.548 81.6069C214.62 81.9074 214.728 82.1719 214.872 82.4004C215.02 82.6289 215.208 82.8088 215.437 82.9399C215.665 83.0669 215.938 83.1304 216.256 83.1304C216.645 83.1304 216.967 83.0479 217.221 82.8828C217.475 82.7178 217.676 82.4998 217.824 82.229C217.976 81.9582 218.094 81.6641 218.179 81.3467V79.8169C218.133 79.5841 218.061 79.3599 217.963 79.144C217.87 78.924 217.747 78.7293 217.595 78.5601C217.447 78.3866 217.263 78.249 217.043 78.1475C216.823 78.0459 216.565 77.9951 216.268 77.9951C215.947 77.9951 215.67 78.0628 215.437 78.1982C215.208 78.3294 215.02 78.5114 214.872 78.7441C214.728 78.9727 214.62 79.2393 214.548 79.5439C214.481 79.8444 214.447 80.166 214.447 80.5088ZM226.825 83.1621C227.104 83.1621 227.362 83.105 227.599 82.9907C227.836 82.8765 228.031 82.7199 228.183 82.521C228.335 82.3179 228.422 82.0872 228.443 81.8291H229.56C229.539 82.2354 229.402 82.6141 229.148 82.9653C228.898 83.3123 228.57 83.5938 228.164 83.8096C227.758 84.0212 227.311 84.127 226.825 84.127C226.308 84.127 225.858 84.036 225.473 83.854C225.092 83.672 224.774 83.4224 224.52 83.105C224.271 82.7876 224.082 82.4237 223.955 82.0132C223.833 81.5985 223.771 81.1605 223.771 80.6992V80.4326C223.771 79.9714 223.833 79.5355 223.955 79.125C224.082 78.7103 224.271 78.3442 224.52 78.0269C224.774 77.7095 225.092 77.4598 225.473 77.2778C225.858 77.0959 226.308 77.0049 226.825 77.0049C227.362 77.0049 227.832 77.1149 228.234 77.335C228.636 77.5508 228.951 77.847 229.18 78.2236C229.412 78.596 229.539 79.0192 229.56 79.4932H228.443C228.422 79.2096 228.342 78.9536 228.202 78.7251C228.067 78.4966 227.88 78.3146 227.643 78.1792C227.411 78.0396 227.138 77.9697 226.825 77.9697C226.465 77.9697 226.162 78.0417 225.917 78.1855C225.676 78.3252 225.483 78.5156 225.339 78.7568C225.2 78.9938 225.098 79.2583 225.035 79.5503C224.975 79.8381 224.946 80.1322 224.946 80.4326V80.6992C224.946 80.9997 224.975 81.2959 225.035 81.5879C225.094 81.8799 225.193 82.1444 225.333 82.3813C225.477 82.6183 225.669 82.8088 225.911 82.9526C226.156 83.0923 226.461 83.1621 226.825 83.1621ZM230.57 80.6421V80.4961C230.57 80.001 230.642 79.5418 230.786 79.1187C230.929 78.6912 231.137 78.321 231.408 78.0078C231.678 77.6904 232.006 77.445 232.392 77.2715C232.777 77.0938 233.208 77.0049 233.686 77.0049C234.169 77.0049 234.603 77.0938 234.988 77.2715C235.377 77.445 235.707 77.6904 235.978 78.0078C236.253 78.321 236.462 78.6912 236.606 79.1187C236.75 79.5418 236.822 80.001 236.822 80.4961V80.6421C236.822 81.1372 236.75 81.5964 236.606 82.0195C236.462 82.4427 236.253 82.813 235.978 83.1304C235.707 83.4435 235.379 83.689 234.994 83.8667C234.613 84.0402 234.182 84.127 233.699 84.127C233.217 84.127 232.783 84.0402 232.398 83.8667C232.013 83.689 231.683 83.4435 231.408 83.1304C231.137 82.813 230.929 82.4427 230.786 82.0195C230.642 81.5964 230.57 81.1372 230.57 80.6421ZM231.744 80.4961V80.6421C231.744 80.9849 231.784 81.3086 231.865 81.6133C231.945 81.9137 232.066 82.1803 232.226 82.4131C232.392 82.6458 232.597 82.8299 232.842 82.9653C233.088 83.0965 233.373 83.1621 233.699 83.1621C234.021 83.1621 234.302 83.0965 234.543 82.9653C234.789 82.8299 234.992 82.6458 235.153 82.4131C235.314 82.1803 235.434 81.9137 235.515 81.6133C235.599 81.3086 235.642 80.9849 235.642 80.6421V80.4961C235.642 80.1576 235.599 79.8381 235.515 79.5376C235.434 79.2329 235.311 78.9642 235.146 78.7314C234.986 78.4945 234.782 78.3083 234.537 78.1729C234.296 78.0374 234.012 77.9697 233.686 77.9697C233.365 77.9697 233.081 78.0374 232.836 78.1729C232.595 78.3083 232.392 78.4945 232.226 78.7314C232.066 78.9642 231.945 79.2329 231.865 79.5376C231.784 79.8381 231.744 80.1576 231.744 80.4961ZM233.991 74.25L235.565 75.9829V76.0464H234.588L233.636 74.9736L232.69 76.0464H231.725V75.9766L233.28 74.25H233.991ZM239.469 78.5981V84H238.295V77.1318H239.406L239.469 78.5981ZM239.19 80.3057L238.701 80.2866C238.705 79.8169 238.775 79.3831 238.911 78.9854C239.046 78.5833 239.236 78.2342 239.482 77.938C239.727 77.6418 240.019 77.4132 240.358 77.2524C240.701 77.0874 241.079 77.0049 241.494 77.0049C241.833 77.0049 242.137 77.0514 242.408 77.1445C242.679 77.2334 242.91 77.3773 243.1 77.5762C243.295 77.7751 243.443 78.0332 243.544 78.3506C243.646 78.6637 243.697 79.0467 243.697 79.4995V84H242.516V79.4868C242.516 79.1271 242.463 78.8394 242.357 78.6235C242.252 78.4035 242.097 78.2448 241.894 78.1475C241.691 78.0459 241.441 77.9951 241.145 77.9951C240.853 77.9951 240.586 78.0565 240.345 78.1792C240.108 78.3019 239.903 78.4712 239.729 78.687C239.56 78.9028 239.427 79.1504 239.329 79.4297C239.236 79.7048 239.19 79.9967 239.19 80.3057ZM249.93 77.1318H250.996V83.854C250.996 84.4591 250.874 84.9754 250.628 85.4028C250.383 85.8302 250.04 86.154 249.6 86.374C249.164 86.5983 248.661 86.7104 248.089 86.7104C247.852 86.7104 247.573 86.6724 247.251 86.5962C246.934 86.5243 246.621 86.3994 246.312 86.2217C246.007 86.0482 245.751 85.8133 245.544 85.5171L246.16 84.8188C246.447 85.1659 246.748 85.4071 247.061 85.5425C247.378 85.6779 247.691 85.7456 248 85.7456C248.373 85.7456 248.694 85.6758 248.965 85.5361C249.236 85.3965 249.446 85.1891 249.594 84.9141C249.746 84.6432 249.822 84.3089 249.822 83.9111V78.6426L249.93 77.1318ZM245.201 80.6421V80.5088C245.201 79.984 245.262 79.508 245.385 79.0806C245.512 78.6489 245.692 78.2786 245.925 77.9697C246.162 77.6608 246.447 77.4238 246.782 77.2588C247.116 77.0895 247.493 77.0049 247.912 77.0049C248.343 77.0049 248.72 77.0811 249.041 77.2334C249.367 77.3815 249.642 77.5994 249.867 77.8872C250.095 78.1707 250.275 78.5135 250.406 78.9155C250.537 79.3175 250.628 79.7725 250.679 80.2803V80.8643C250.633 81.3678 250.542 81.8206 250.406 82.2227C250.275 82.6247 250.095 82.9674 249.867 83.251C249.642 83.5345 249.367 83.7524 249.041 83.9048C248.716 84.0529 248.335 84.127 247.899 84.127C247.488 84.127 247.116 84.0402 246.782 83.8667C246.452 83.6932 246.168 83.4499 245.931 83.1367C245.694 82.8236 245.512 82.4554 245.385 82.0322C245.262 81.6048 245.201 81.1414 245.201 80.6421ZM246.375 80.5088V80.6421C246.375 80.9849 246.409 81.3065 246.477 81.6069C246.549 81.9074 246.657 82.1719 246.801 82.4004C246.949 82.6289 247.137 82.8088 247.366 82.9399C247.594 83.0669 247.867 83.1304 248.184 83.1304C248.574 83.1304 248.895 83.0479 249.149 82.8828C249.403 82.7178 249.604 82.4998 249.752 82.229C249.905 81.9582 250.023 81.6641 250.108 81.3467V79.8169C250.061 79.5841 249.989 79.3599 249.892 79.144C249.799 78.924 249.676 78.7293 249.524 78.5601C249.376 78.3866 249.192 78.249 248.972 78.1475C248.752 78.0459 248.493 77.9951 248.197 77.9951C247.876 77.9951 247.598 78.0628 247.366 78.1982C247.137 78.3294 246.949 78.5114 246.801 78.7441C246.657 78.9727 246.549 79.2393 246.477 79.5439C246.409 79.8444 246.375 80.166 246.375 80.5088Z" fill="#464646"/>
<path d="M280.1 80.3755H277.631V79.3789H280.1C280.578 79.3789 280.965 79.3027 281.262 79.1504C281.558 78.998 281.774 78.7865 281.909 78.5156C282.049 78.2448 282.119 77.9359 282.119 77.5889C282.119 77.2715 282.049 76.9731 281.909 76.6938C281.774 76.4146 281.558 76.1903 281.262 76.021C280.965 75.8475 280.578 75.7607 280.1 75.7607H277.916V84H276.691V74.7578H280.1C280.798 74.7578 281.389 74.8784 281.871 75.1196C282.353 75.3608 282.719 75.6951 282.969 76.1226C283.219 76.5457 283.344 77.0303 283.344 77.5762C283.344 78.1686 283.219 78.6743 282.969 79.0933C282.719 79.5122 282.353 79.8317 281.871 80.0518C281.389 80.2676 280.798 80.3755 280.1 80.3755ZM285.889 74.25V84H284.715V74.25H285.889ZM285.61 80.3057L285.121 80.2866C285.125 79.8169 285.195 79.3831 285.33 78.9854C285.466 78.5833 285.656 78.2342 285.902 77.938C286.147 77.6418 286.439 77.4132 286.778 77.2524C287.121 77.0874 287.499 77.0049 287.914 77.0049C288.253 77.0049 288.557 77.0514 288.828 77.1445C289.099 77.2334 289.329 77.3773 289.52 77.5762C289.715 77.7751 289.863 78.0332 289.964 78.3506C290.066 78.6637 290.117 79.0467 290.117 79.4995V84H288.936V79.4868C288.936 79.1271 288.883 78.8394 288.777 78.6235C288.671 78.4035 288.517 78.2448 288.314 78.1475C288.111 78.0459 287.861 77.9951 287.565 77.9951C287.273 77.9951 287.006 78.0565 286.765 78.1792C286.528 78.3019 286.323 78.4712 286.149 78.687C285.98 78.9028 285.847 79.1504 285.749 79.4297C285.656 79.7048 285.61 79.9967 285.61 80.3057ZM293.151 77.1318V84H291.97V77.1318H293.151ZM291.881 75.3101C291.881 75.1196 291.938 74.9588 292.053 74.8276C292.171 74.6965 292.345 74.6309 292.573 74.6309C292.797 74.6309 292.969 74.6965 293.087 74.8276C293.21 74.9588 293.271 75.1196 293.271 75.3101C293.271 75.492 293.21 75.6486 293.087 75.7798C292.969 75.9067 292.797 75.9702 292.573 75.9702C292.345 75.9702 292.171 75.9067 292.053 75.7798C291.938 75.6486 291.881 75.492 291.881 75.3101ZM297.886 84.127C297.408 84.127 296.974 84.0465 296.585 83.8857C296.2 83.7207 295.868 83.4901 295.588 83.1938C295.313 82.8976 295.102 82.5464 294.954 82.1401C294.805 81.7339 294.731 81.2896 294.731 80.8071V80.5405C294.731 79.9819 294.814 79.4847 294.979 79.0488C295.144 78.6087 295.368 78.2363 295.652 77.9316C295.935 77.627 296.257 77.3963 296.617 77.2397C296.976 77.0832 297.349 77.0049 297.734 77.0049C298.225 77.0049 298.648 77.0895 299.003 77.2588C299.363 77.4281 299.657 77.665 299.886 77.9697C300.114 78.2702 300.283 78.6257 300.393 79.0361C300.503 79.4424 300.559 79.8867 300.559 80.3691V80.896H295.43V79.9375H299.384V79.8486C299.367 79.5439 299.304 79.2477 299.194 78.96C299.088 78.6722 298.919 78.4352 298.686 78.249C298.453 78.0628 298.136 77.9697 297.734 77.9697C297.467 77.9697 297.222 78.0269 296.997 78.1411C296.773 78.2511 296.581 78.4162 296.42 78.6362C296.259 78.8563 296.134 79.125 296.045 79.4424C295.956 79.7598 295.912 80.1258 295.912 80.5405V80.8071C295.912 81.133 295.956 81.4398 296.045 81.7275C296.138 82.0111 296.272 82.2607 296.445 82.4766C296.623 82.6924 296.837 82.8617 297.086 82.9844C297.34 83.1071 297.628 83.1685 297.95 83.1685C298.364 83.1685 298.716 83.0838 299.003 82.9146C299.291 82.7453 299.543 82.5189 299.759 82.2354L300.47 82.8003C300.322 83.0246 300.133 83.2383 299.905 83.4414C299.676 83.6445 299.395 83.8096 299.06 83.9365C298.73 84.0635 298.339 84.127 297.886 84.127ZM295.398 76.1162L297.245 74.4531H298.21L300.057 76.1162H298.807L297.727 75.1133L296.648 76.1162H295.398ZM299.587 74.9927L300.482 73.355H301.752L300.476 74.9927H299.587ZM306.132 82.4131V77.1318H307.312V84H306.189L306.132 82.4131ZM306.354 80.9658L306.843 80.9531C306.843 81.4102 306.794 81.8333 306.697 82.2227C306.604 82.6077 306.451 82.9421 306.24 83.2256C306.028 83.5091 305.751 83.7313 305.408 83.8921C305.065 84.0487 304.649 84.127 304.158 84.127C303.823 84.127 303.517 84.0783 303.237 83.981C302.962 83.8836 302.725 83.7334 302.526 83.5303C302.327 83.3271 302.173 83.0627 302.063 82.7368C301.957 82.411 301.904 82.0195 301.904 81.5625V77.1318H303.079V81.5752C303.079 81.8841 303.112 82.1401 303.18 82.3433C303.252 82.5422 303.347 82.7008 303.466 82.8193C303.588 82.9336 303.724 83.014 303.872 83.0605C304.024 83.1071 304.181 83.1304 304.342 83.1304C304.841 83.1304 305.237 83.0352 305.529 82.8447C305.821 82.6501 306.03 82.3898 306.157 82.064C306.288 81.7339 306.354 81.3678 306.354 80.9658ZM313.603 74.25V84H312.422V74.25H313.603ZM321.918 76.5796H322.82C322.82 77.0409 322.758 77.4281 322.636 77.7412C322.517 78.0544 322.308 78.2892 322.007 78.4458C321.707 78.6024 321.284 78.6807 320.738 78.6807V77.957C321.119 77.957 321.392 77.9105 321.557 77.8174C321.722 77.7201 321.823 77.5698 321.861 77.3667C321.899 77.1636 321.918 76.9012 321.918 76.5796ZM319.69 82.4131V77.1318H320.871V84H319.747L319.69 82.4131ZM319.913 80.9658L320.401 80.9531C320.401 81.4102 320.353 81.8333 320.255 82.2227C320.162 82.6077 320.01 82.9421 319.798 83.2256C319.587 83.5091 319.309 83.7313 318.967 83.8921C318.624 84.0487 318.207 84.127 317.716 84.127C317.382 84.127 317.075 84.0783 316.796 83.981C316.521 83.8836 316.284 83.7334 316.085 83.5303C315.886 83.3271 315.732 83.0627 315.621 82.7368C315.516 82.411 315.463 82.0195 315.463 81.5625V77.1318H316.637V81.5752C316.637 81.8841 316.671 82.1401 316.739 82.3433C316.811 82.5422 316.906 82.7008 317.024 82.8193C317.147 82.9336 317.282 83.014 317.431 83.0605C317.583 83.1071 317.739 83.1304 317.9 83.1304C318.4 83.1304 318.795 83.0352 319.087 82.8447C319.379 82.6501 319.589 82.3898 319.716 82.064C319.847 81.7339 319.913 81.3678 319.913 80.9658ZM329.377 76.3765H330.323C330.323 76.842 330.259 77.244 330.132 77.5825C330.005 77.9168 329.794 78.175 329.497 78.3569C329.201 78.5389 328.799 78.6299 328.291 78.6299V77.8936C328.609 77.8936 328.844 77.8301 328.996 77.7031C329.153 77.5762 329.254 77.3984 329.301 77.1699C329.351 76.9414 329.377 76.6769 329.377 76.3765ZM323.226 80.6421V80.4961C323.226 80.001 323.298 79.5418 323.442 79.1187C323.586 78.6912 323.793 78.321 324.064 78.0078C324.335 77.6904 324.663 77.445 325.048 77.2715C325.433 77.0938 325.864 77.0049 326.343 77.0049C326.825 77.0049 327.259 77.0938 327.644 77.2715C328.033 77.445 328.363 77.6904 328.634 78.0078C328.905 78.321 329.112 78.6912 329.256 79.1187C329.4 79.5418 329.472 80.001 329.472 80.4961V80.6421C329.472 81.1372 329.4 81.5964 329.256 82.0195C329.112 82.4427 328.905 82.813 328.634 83.1304C328.363 83.4435 328.035 83.689 327.65 83.8667C327.269 84.0402 326.838 84.127 326.355 84.127C325.873 84.127 325.439 84.0402 325.054 83.8667C324.669 83.689 324.339 83.4435 324.064 83.1304C323.793 82.813 323.586 82.4427 323.442 82.0195C323.298 81.5964 323.226 81.1372 323.226 80.6421ZM324.4 80.4961V80.6421C324.4 80.9849 324.441 81.3086 324.521 81.6133C324.601 81.9137 324.722 82.1803 324.883 82.4131C325.048 82.6458 325.253 82.8299 325.498 82.9653C325.744 83.0965 326.03 83.1621 326.355 83.1621C326.677 83.1621 326.958 83.0965 327.2 82.9653C327.445 82.8299 327.648 82.6458 327.809 82.4131C327.97 82.1803 328.09 81.9137 328.171 81.6133C328.255 81.3086 328.298 80.9849 328.298 80.6421V80.4961C328.298 80.1576 328.255 79.8381 328.171 79.5376C328.09 79.2329 327.968 78.9642 327.803 78.7314C327.642 78.4945 327.439 78.3083 327.193 78.1729C326.952 78.0374 326.669 77.9697 326.343 77.9697C326.021 77.9697 325.738 78.0374 325.492 78.1729C325.251 78.3083 325.048 78.4945 324.883 78.7314C324.722 78.9642 324.601 79.2329 324.521 79.5376C324.441 79.8381 324.4 80.1576 324.4 80.4961ZM332.151 78.5981V84H330.976V77.1318H332.087L332.151 78.5981ZM331.871 80.3057L331.383 80.2866C331.387 79.8169 331.457 79.3831 331.592 78.9854C331.728 78.5833 331.918 78.2342 332.163 77.938C332.409 77.6418 332.701 77.4132 333.039 77.2524C333.382 77.0874 333.761 77.0049 334.176 77.0049C334.514 77.0049 334.819 77.0514 335.09 77.1445C335.361 77.2334 335.591 77.3773 335.782 77.5762C335.976 77.7751 336.124 78.0332 336.226 78.3506C336.328 78.6637 336.378 79.0467 336.378 79.4995V84H335.198V79.4868C335.198 79.1271 335.145 78.8394 335.039 78.6235C334.933 78.4035 334.779 78.2448 334.576 78.1475C334.372 78.0459 334.123 77.9951 333.827 77.9951C333.535 77.9951 333.268 78.0565 333.027 78.1792C332.79 78.3019 332.585 78.4712 332.411 78.687C332.242 78.9028 332.108 79.1504 332.011 79.4297C331.918 79.7048 331.871 79.9967 331.871 80.3057ZM342.612 77.1318H343.678V83.854C343.678 84.4591 343.555 84.9754 343.31 85.4028C343.065 85.8302 342.722 86.154 342.282 86.374C341.846 86.5983 341.342 86.7104 340.771 86.7104C340.534 86.7104 340.255 86.6724 339.933 86.5962C339.616 86.5243 339.302 86.3994 338.994 86.2217C338.689 86.0482 338.433 85.8133 338.225 85.5171L338.841 84.8188C339.129 85.1659 339.429 85.4071 339.743 85.5425C340.06 85.6779 340.373 85.7456 340.682 85.7456C341.054 85.7456 341.376 85.6758 341.647 85.5361C341.918 85.3965 342.127 85.1891 342.275 84.9141C342.428 84.6432 342.504 84.3089 342.504 83.9111V78.6426L342.612 77.1318ZM337.883 80.6421V80.5088C337.883 79.984 337.944 79.508 338.067 79.0806C338.194 78.6489 338.374 78.2786 338.606 77.9697C338.843 77.6608 339.129 77.4238 339.463 77.2588C339.798 77.0895 340.174 77.0049 340.593 77.0049C341.025 77.0049 341.401 77.0811 341.723 77.2334C342.049 77.3815 342.324 77.5994 342.548 77.8872C342.777 78.1707 342.957 78.5135 343.088 78.9155C343.219 79.3175 343.31 79.7725 343.361 80.2803V80.8643C343.314 81.3678 343.223 81.8206 343.088 82.2227C342.957 82.6247 342.777 82.9674 342.548 83.251C342.324 83.5345 342.049 83.7524 341.723 83.9048C341.397 84.0529 341.016 84.127 340.58 84.127C340.17 84.127 339.798 84.0402 339.463 83.8667C339.133 83.6932 338.85 83.4499 338.613 83.1367C338.376 82.8236 338.194 82.4554 338.067 82.0322C337.944 81.6048 337.883 81.1414 337.883 80.6421ZM339.057 80.5088V80.6421C339.057 80.9849 339.091 81.3065 339.159 81.6069C339.231 81.9074 339.338 82.1719 339.482 82.4004C339.63 82.6289 339.819 82.8088 340.047 82.9399C340.276 83.0669 340.549 83.1304 340.866 83.1304C341.255 83.1304 341.577 83.0479 341.831 82.8828C342.085 82.7178 342.286 82.4998 342.434 82.229C342.586 81.9582 342.705 81.6641 342.789 81.3467V79.8169C342.743 79.5841 342.671 79.3599 342.574 79.144C342.481 78.924 342.358 78.7293 342.205 78.5601C342.057 78.3866 341.873 78.249 341.653 78.1475C341.433 78.0459 341.175 77.9951 340.879 77.9951C340.557 77.9951 340.28 78.0628 340.047 78.1982C339.819 78.3294 339.63 78.5114 339.482 78.7441C339.338 78.9727 339.231 79.2393 339.159 79.5439C339.091 79.8444 339.057 80.166 339.057 80.5088Z" fill="#464646"/>
<rect x="9" y="268" width="65" height="65" rx="25" fill="#F3EFFF"/>
<rect x="98" y="268" width="65" height="65" rx="25" fill="#FFF8E9"/>
<path d="M103.394 348.375H100.925V347.379H103.394C103.873 347.379 104.26 347.303 104.556 347.15C104.852 346.998 105.068 346.786 105.204 346.516C105.343 346.245 105.413 345.936 105.413 345.589C105.413 345.271 105.343 344.973 105.204 344.694C105.068 344.415 104.852 344.19 104.556 344.021C104.26 343.847 103.873 343.761 103.394 343.761H101.211V352H99.9857V342.758H103.394C104.093 342.758 104.683 342.878 105.165 343.12C105.648 343.361 106.014 343.695 106.264 344.123C106.513 344.546 106.638 345.03 106.638 345.576C106.638 346.169 106.513 346.674 106.264 347.093C106.014 347.512 105.648 347.832 105.165 348.052C104.683 348.268 104.093 348.375 103.394 348.375ZM109.184 342.25V352H108.009V342.25H109.184ZM108.904 348.306L108.415 348.287C108.42 347.817 108.489 347.383 108.625 346.985C108.76 346.583 108.951 346.234 109.196 345.938C109.442 345.642 109.734 345.413 110.072 345.252C110.415 345.087 110.794 345.005 111.208 345.005C111.547 345.005 111.852 345.051 112.122 345.145C112.393 345.233 112.624 345.377 112.814 345.576C113.009 345.775 113.157 346.033 113.259 346.351C113.36 346.664 113.411 347.047 113.411 347.5V352H112.23V347.487C112.23 347.127 112.177 346.839 112.072 346.624C111.966 346.403 111.811 346.245 111.608 346.147C111.405 346.046 111.156 345.995 110.859 345.995C110.567 345.995 110.301 346.056 110.059 346.179C109.822 346.302 109.617 346.471 109.444 346.687C109.274 346.903 109.141 347.15 109.044 347.43C108.951 347.705 108.904 347.997 108.904 348.306ZM114.858 348.642V348.496C114.858 348.001 114.93 347.542 115.074 347.119C115.218 346.691 115.425 346.321 115.696 346.008C115.967 345.69 116.295 345.445 116.68 345.271C117.065 345.094 117.497 345.005 117.975 345.005C118.457 345.005 118.891 345.094 119.276 345.271C119.666 345.445 119.996 345.69 120.267 346.008C120.542 346.321 120.751 346.691 120.895 347.119C121.039 347.542 121.111 348.001 121.111 348.496V348.642C121.111 349.137 121.039 349.596 120.895 350.02C120.751 350.443 120.542 350.813 120.267 351.13C119.996 351.444 119.668 351.689 119.283 351.867C118.902 352.04 118.47 352.127 117.988 352.127C117.505 352.127 117.072 352.04 116.686 351.867C116.301 351.689 115.971 351.444 115.696 351.13C115.425 350.813 115.218 350.443 115.074 350.02C114.93 349.596 114.858 349.137 114.858 348.642ZM116.033 348.496V348.642C116.033 348.985 116.073 349.309 116.153 349.613C116.234 349.914 116.354 350.18 116.515 350.413C116.68 350.646 116.885 350.83 117.131 350.965C117.376 351.097 117.662 351.162 117.988 351.162C118.309 351.162 118.591 351.097 118.832 350.965C119.077 350.83 119.281 350.646 119.441 350.413C119.602 350.18 119.723 349.914 119.803 349.613C119.888 349.309 119.93 348.985 119.93 348.642V348.496C119.93 348.158 119.888 347.838 119.803 347.538C119.723 347.233 119.6 346.964 119.435 346.731C119.274 346.494 119.071 346.308 118.826 346.173C118.584 346.037 118.301 345.97 117.975 345.97C117.653 345.97 117.37 346.037 117.124 346.173C116.883 346.308 116.68 346.494 116.515 346.731C116.354 346.964 116.234 347.233 116.153 347.538C116.073 347.838 116.033 348.158 116.033 348.496ZM117.366 342.25L118.591 344.116H117.581L115.944 342.25H117.366ZM123.758 346.598V352H122.583V345.132H123.694L123.758 346.598ZM123.478 348.306L122.99 348.287C122.994 347.817 123.064 347.383 123.199 346.985C123.335 346.583 123.525 346.234 123.77 345.938C124.016 345.642 124.308 345.413 124.646 345.252C124.989 345.087 125.368 345.005 125.783 345.005C126.121 345.005 126.426 345.051 126.697 345.145C126.968 345.233 127.198 345.377 127.389 345.576C127.583 345.775 127.731 346.033 127.833 346.351C127.934 346.664 127.985 347.047 127.985 347.5V352H126.805V347.487C126.805 347.127 126.752 346.839 126.646 346.624C126.54 346.403 126.386 346.245 126.183 346.147C125.979 346.046 125.73 345.995 125.434 345.995C125.142 345.995 124.875 346.056 124.634 346.179C124.397 346.302 124.191 346.471 124.018 346.687C123.849 346.903 123.715 347.15 123.618 347.43C123.525 347.705 123.478 347.997 123.478 348.306ZM134.219 345.132H135.285V351.854C135.285 352.459 135.162 352.975 134.917 353.403C134.671 353.83 134.329 354.154 133.889 354.374C133.453 354.598 132.949 354.71 132.378 354.71C132.141 354.71 131.862 354.672 131.54 354.596C131.223 354.524 130.909 354.399 130.6 354.222C130.296 354.048 130.04 353.813 129.832 353.517L130.448 352.819C130.736 353.166 131.036 353.407 131.35 353.542C131.667 353.678 131.98 353.746 132.289 353.746C132.661 353.746 132.983 353.676 133.254 353.536C133.525 353.396 133.734 353.189 133.882 352.914C134.035 352.643 134.111 352.309 134.111 351.911V346.643L134.219 345.132ZM129.49 348.642V348.509C129.49 347.984 129.551 347.508 129.674 347.081C129.801 346.649 129.981 346.279 130.213 345.97C130.45 345.661 130.736 345.424 131.07 345.259C131.405 345.09 131.781 345.005 132.2 345.005C132.632 345.005 133.008 345.081 133.33 345.233C133.656 345.382 133.931 345.599 134.155 345.887C134.384 346.171 134.564 346.514 134.695 346.916C134.826 347.318 134.917 347.772 134.968 348.28V348.864C134.921 349.368 134.83 349.821 134.695 350.223C134.564 350.625 134.384 350.967 134.155 351.251C133.931 351.535 133.656 351.752 133.33 351.905C133.004 352.053 132.623 352.127 132.187 352.127C131.777 352.127 131.405 352.04 131.07 351.867C130.74 351.693 130.457 351.45 130.22 351.137C129.983 350.824 129.801 350.455 129.674 350.032C129.551 349.605 129.49 349.141 129.49 348.642ZM130.664 348.509V348.642C130.664 348.985 130.698 349.306 130.766 349.607C130.837 349.907 130.945 350.172 131.089 350.4C131.237 350.629 131.426 350.809 131.654 350.94C131.883 351.067 132.156 351.13 132.473 351.13C132.862 351.13 133.184 351.048 133.438 350.883C133.692 350.718 133.893 350.5 134.041 350.229C134.193 349.958 134.312 349.664 134.396 349.347V347.817C134.35 347.584 134.278 347.36 134.181 347.144C134.087 346.924 133.965 346.729 133.812 346.56C133.664 346.387 133.48 346.249 133.26 346.147C133.04 346.046 132.782 345.995 132.486 345.995C132.164 345.995 131.887 346.063 131.654 346.198C131.426 346.329 131.237 346.511 131.089 346.744C130.945 346.973 130.837 347.239 130.766 347.544C130.698 347.844 130.664 348.166 130.664 348.509ZM141.468 342.25V352H140.293V342.25H141.468ZM141.188 348.306L140.7 348.287C140.704 347.817 140.774 347.383 140.909 346.985C141.045 346.583 141.235 346.234 141.48 345.938C141.726 345.642 142.018 345.413 142.356 345.252C142.699 345.087 143.078 345.005 143.493 345.005C143.831 345.005 144.136 345.051 144.407 345.145C144.677 345.233 144.908 345.377 145.099 345.576C145.293 345.775 145.441 346.033 145.543 346.351C145.644 346.664 145.695 347.047 145.695 347.5V352H144.515V347.487C144.515 347.127 144.462 346.839 144.356 346.624C144.25 346.403 144.096 346.245 143.892 346.147C143.689 346.046 143.44 345.995 143.143 345.995C142.851 345.995 142.585 346.056 142.344 346.179C142.107 346.302 141.901 346.471 141.728 346.687C141.559 346.903 141.425 347.15 141.328 347.43C141.235 347.705 141.188 347.997 141.188 348.306ZM147.142 348.642V348.496C147.142 348.001 147.214 347.542 147.358 347.119C147.502 346.691 147.71 346.321 147.98 346.008C148.251 345.69 148.579 345.445 148.964 345.271C149.349 345.094 149.781 345.005 150.259 345.005C150.742 345.005 151.175 345.094 151.56 345.271C151.95 345.445 152.28 345.69 152.551 346.008C152.826 346.321 153.035 346.691 153.179 347.119C153.323 347.542 153.395 348.001 153.395 348.496V348.642C153.395 349.137 153.323 349.596 153.179 350.02C153.035 350.443 152.826 350.813 152.551 351.13C152.28 351.444 151.952 351.689 151.567 351.867C151.186 352.04 150.754 352.127 150.272 352.127C149.789 352.127 149.356 352.04 148.971 351.867C148.586 351.689 148.255 351.444 147.98 351.13C147.71 350.813 147.502 350.443 147.358 350.02C147.214 349.596 147.142 349.137 147.142 348.642ZM148.317 348.496V348.642C148.317 348.985 148.357 349.309 148.437 349.613C148.518 349.914 148.638 350.18 148.799 350.413C148.964 350.646 149.17 350.83 149.415 350.965C149.66 351.097 149.946 351.162 150.272 351.162C150.593 351.162 150.875 351.097 151.116 350.965C151.362 350.83 151.565 350.646 151.725 350.413C151.886 350.18 152.007 349.914 152.087 349.613C152.172 349.309 152.214 348.985 152.214 348.642V348.496C152.214 348.158 152.172 347.838 152.087 347.538C152.007 347.233 151.884 346.964 151.719 346.731C151.558 346.494 151.355 346.308 151.11 346.173C150.869 346.037 150.585 345.97 150.259 345.97C149.938 345.97 149.654 346.037 149.409 346.173C149.167 346.308 148.964 346.494 148.799 346.731C148.638 346.964 148.518 347.233 148.437 347.538C148.357 347.838 148.317 348.158 148.317 348.496ZM149.536 353.568C149.536 353.377 149.593 353.217 149.707 353.085C149.825 352.954 149.999 352.889 150.227 352.889C150.452 352.889 150.623 352.954 150.742 353.085C150.864 353.217 150.926 353.377 150.926 353.568C150.926 353.75 150.864 353.904 150.742 354.031C150.623 354.162 150.452 354.228 150.227 354.228C149.999 354.228 149.825 354.162 149.707 354.031C149.593 353.904 149.536 353.75 149.536 353.568ZM156.042 346.452V354.641H154.861V345.132H155.94L156.042 346.452ZM160.669 348.509V348.642C160.669 349.141 160.61 349.605 160.492 350.032C160.373 350.455 160.2 350.824 159.971 351.137C159.747 351.45 159.47 351.693 159.14 351.867C158.809 352.04 158.431 352.127 158.003 352.127C157.567 352.127 157.182 352.055 156.848 351.911C156.514 351.767 156.23 351.558 155.997 351.283C155.765 351.008 155.579 350.678 155.439 350.292C155.303 349.907 155.21 349.474 155.16 348.991V348.28C155.21 347.772 155.306 347.318 155.445 346.916C155.585 346.514 155.769 346.171 155.997 345.887C156.23 345.599 156.512 345.382 156.842 345.233C157.172 345.081 157.553 345.005 157.984 345.005C158.416 345.005 158.799 345.09 159.133 345.259C159.468 345.424 159.749 345.661 159.977 345.97C160.206 346.279 160.377 346.649 160.492 347.081C160.61 347.508 160.669 347.984 160.669 348.509ZM159.489 348.642V348.509C159.489 348.166 159.453 347.844 159.381 347.544C159.309 347.239 159.197 346.973 159.044 346.744C158.896 346.511 158.706 346.329 158.473 346.198C158.24 346.063 157.963 345.995 157.642 345.995C157.345 345.995 157.087 346.046 156.867 346.147C156.651 346.249 156.467 346.387 156.315 346.56C156.163 346.729 156.038 346.924 155.94 347.144C155.847 347.36 155.777 347.584 155.731 347.817V349.461C155.816 349.757 155.934 350.036 156.086 350.299C156.239 350.557 156.442 350.766 156.696 350.927C156.95 351.084 157.269 351.162 157.654 351.162C157.972 351.162 158.245 351.097 158.473 350.965C158.706 350.83 158.896 350.646 159.044 350.413C159.197 350.18 159.309 349.914 159.381 349.613C159.453 349.309 159.489 348.985 159.489 348.642Z" fill="#464646"/>
<path d="M19.371 349.061H20.5898C20.5263 349.645 20.3591 350.168 20.0883 350.629C19.8175 351.09 19.4345 351.456 18.9394 351.727C18.4442 351.994 17.8264 352.127 17.0858 352.127C16.5442 352.127 16.0512 352.025 15.6068 351.822C15.1667 351.619 14.788 351.331 14.4706 350.959C14.1532 350.582 13.9078 350.132 13.7343 349.607C13.565 349.078 13.4804 348.49 13.4804 347.842V346.922C13.4804 346.274 13.565 345.688 13.7343 345.164C13.9078 344.635 14.1553 344.182 14.477 343.805C14.8028 343.429 15.1942 343.139 15.6513 342.936C16.1083 342.732 16.6225 342.631 17.1938 342.631C17.892 342.631 18.4823 342.762 18.9648 343.024C19.4472 343.287 19.8217 343.651 20.0883 344.116C20.3591 344.577 20.5263 345.113 20.5898 345.722H19.371C19.3118 345.291 19.2017 344.92 19.0409 344.611C18.8801 344.298 18.6516 344.057 18.3554 343.888C18.0592 343.718 17.6719 343.634 17.1938 343.634C16.7833 343.634 16.4215 343.712 16.1083 343.869C15.7994 344.025 15.5391 344.247 15.3275 344.535C15.1202 344.823 14.9636 345.168 14.8578 345.57C14.752 345.972 14.6991 346.418 14.6991 346.909V347.842C14.6991 348.295 14.7457 348.72 14.8388 349.118C14.9361 349.516 15.0821 349.865 15.2768 350.166C15.4714 350.466 15.719 350.703 16.0194 350.876C16.3199 351.046 16.6754 351.13 17.0858 351.13C17.6064 351.13 18.0211 351.048 18.33 350.883C18.6389 350.718 18.8717 350.481 19.0282 350.172C19.189 349.863 19.3033 349.493 19.371 349.061ZM21.7704 348.642V348.496C21.7704 348.001 21.8424 347.542 21.9862 347.119C22.1301 346.691 22.3375 346.321 22.6083 346.008C22.8791 345.69 23.2071 345.445 23.5922 345.271C23.9773 345.094 24.4089 345.005 24.8871 345.005C25.3695 345.005 25.8033 345.094 26.1884 345.271C26.5777 345.445 26.9078 345.69 27.1786 346.008C27.4537 346.321 27.6632 346.691 27.807 347.119C27.9509 347.542 28.0229 348.001 28.0229 348.496V348.642C28.0229 349.137 27.9509 349.596 27.807 350.02C27.6632 350.443 27.4537 350.813 27.1786 351.13C26.9078 351.444 26.5798 351.689 26.1947 351.867C25.8139 352.04 25.3822 352.127 24.8998 352.127C24.4174 352.127 23.9836 352.04 23.5985 351.867C23.2135 351.689 22.8834 351.444 22.6083 351.13C22.3375 350.813 22.1301 350.443 21.9862 350.02C21.8424 349.596 21.7704 349.137 21.7704 348.642ZM22.9447 348.496V348.642C22.9447 348.985 22.9849 349.309 23.0653 349.613C23.1457 349.914 23.2663 350.18 23.4272 350.413C23.5922 350.646 23.7974 350.83 24.0429 350.965C24.2883 351.097 24.574 351.162 24.8998 351.162C25.2214 351.162 25.5028 351.097 25.744 350.965C25.9895 350.83 26.1926 350.646 26.3534 350.413C26.5142 350.18 26.6348 349.914 26.7152 349.613C26.7999 349.309 26.8422 348.985 26.8422 348.642V348.496C26.8422 348.158 26.7999 347.838 26.7152 347.538C26.6348 347.233 26.5121 346.964 26.3471 346.731C26.1863 346.494 25.9831 346.308 25.7377 346.173C25.4965 346.037 25.213 345.97 24.8871 345.97C24.5655 345.97 24.282 346.037 24.0365 346.173C23.7953 346.308 23.5922 346.494 23.4272 346.731C23.2663 346.964 23.1457 347.233 23.0653 347.538C22.9849 347.838 22.9447 348.158 22.9447 348.496ZM25.1918 342.25L26.766 343.983V344.046H25.7885L24.8363 342.974L23.8905 344.046H22.9257V343.977L24.4809 342.25H25.1918ZM30.6698 346.598V352H29.4955V345.132H30.6064L30.6698 346.598ZM30.3905 348.306L29.9018 348.287C29.906 347.817 29.9758 347.383 30.1112 346.985C30.2467 346.583 30.4371 346.234 30.6825 345.938C30.928 345.642 31.22 345.413 31.5585 345.252C31.9013 345.087 32.28 345.005 32.6947 345.005C33.0333 345.005 33.338 345.051 33.6088 345.145C33.8796 345.233 34.1103 345.377 34.3007 345.576C34.4954 345.775 34.6435 346.033 34.745 346.351C34.8466 346.664 34.8974 347.047 34.8974 347.5V352H33.7167V347.487C33.7167 347.127 33.6638 346.839 33.558 346.624C33.4522 346.403 33.2978 346.245 33.0946 346.147C32.8915 346.046 32.6418 345.995 32.3456 345.995C32.0536 345.995 31.787 346.056 31.5458 346.179C31.3088 346.302 31.1036 346.471 30.9301 346.687C30.7608 346.903 30.6275 347.15 30.5302 347.43C30.4371 347.705 30.3905 347.997 30.3905 348.306ZM41.1308 345.132H42.1972V351.854C42.1972 352.459 42.0745 352.975 41.829 353.403C41.5836 353.83 41.2408 354.154 40.8007 354.374C40.3648 354.598 39.8612 354.71 39.2899 354.71C39.053 354.71 38.7737 354.672 38.4521 354.596C38.1347 354.524 37.8215 354.399 37.5126 354.222C37.2079 354.048 36.9519 353.813 36.7445 353.517L37.3603 352.819C37.648 353.166 37.9485 353.407 38.2616 353.542C38.579 353.678 38.8922 353.746 39.2011 353.746C39.5735 353.746 39.8951 353.676 40.1659 353.536C40.4368 353.396 40.6462 353.189 40.7943 352.914C40.9467 352.643 41.0229 352.309 41.0229 351.911V346.643L41.1308 345.132ZM36.4018 348.642V348.509C36.4018 347.984 36.4631 347.508 36.5858 347.081C36.7128 346.649 36.8926 346.279 37.1254 345.97C37.3624 345.661 37.648 345.424 37.9823 345.259C38.3166 345.09 38.6933 345.005 39.1122 345.005C39.5439 345.005 39.9205 345.081 40.2421 345.233C40.5679 345.382 40.843 345.599 41.0673 345.887C41.2958 346.171 41.4757 346.514 41.6068 346.916C41.738 347.318 41.829 347.772 41.8798 348.28V348.864C41.8332 349.368 41.7423 349.821 41.6068 350.223C41.4757 350.625 41.2958 350.967 41.0673 351.251C40.843 351.535 40.5679 351.752 40.2421 351.905C39.9162 352.053 39.5354 352.127 39.0995 352.127C38.689 352.127 38.3166 352.04 37.9823 351.867C37.6523 351.693 37.3687 351.45 37.1317 351.137C36.8948 350.824 36.7128 350.455 36.5858 350.032C36.4631 349.605 36.4018 349.141 36.4018 348.642ZM37.5761 348.509V348.642C37.5761 348.985 37.6099 349.306 37.6776 349.607C37.7496 349.907 37.8575 350.172 38.0014 350.4C38.1495 350.629 38.3378 350.809 38.5663 350.94C38.7948 351.067 39.0678 351.13 39.3852 351.13C39.7745 351.13 40.0961 351.048 40.35 350.883C40.6039 350.718 40.8049 350.5 40.953 350.229C41.1054 349.958 41.2239 349.664 41.3085 349.347V347.817C41.262 347.584 41.19 347.36 41.0927 347.144C40.9996 346.924 40.8769 346.729 40.7245 346.56C40.5764 346.387 40.3923 346.249 40.1723 346.147C39.9522 346.046 39.6941 345.995 39.3979 345.995C39.0762 345.995 38.7991 346.063 38.5663 346.198C38.3378 346.329 38.1495 346.511 38.0014 346.744C37.8575 346.973 37.7496 347.239 37.6776 347.544C37.6099 347.844 37.5761 348.166 37.5761 348.509ZM49.2939 350.94L51.1728 345.132H52.3725L49.9032 352H49.1161L49.2939 350.94ZM47.726 345.132L49.662 350.972L49.7953 352H49.0082L46.5199 345.132H47.726ZM54.7782 345.132V352H53.5976V345.132H54.7782ZM53.5087 343.31C53.5087 343.12 53.5658 342.959 53.6801 342.828C53.7986 342.696 53.9721 342.631 54.2006 342.631C54.4249 342.631 54.5963 342.696 54.7148 342.828C54.8375 342.959 54.8988 343.12 54.8988 343.31C54.8988 343.492 54.8375 343.649 54.7148 343.78C54.5963 343.907 54.4249 343.97 54.2006 343.97C53.9721 343.97 53.7986 343.907 53.6801 343.78C53.5658 343.649 53.5087 343.492 53.5087 343.31ZM59.5136 352.127C59.0354 352.127 58.6016 352.047 58.2123 351.886C57.8272 351.721 57.495 351.49 57.2157 351.194C56.9407 350.898 56.7291 350.546 56.581 350.14C56.4329 349.734 56.3588 349.29 56.3588 348.807V348.541C56.3588 347.982 56.4413 347.485 56.6064 347.049C56.7714 346.609 56.9957 346.236 57.2792 345.932C57.5627 345.627 57.8843 345.396 58.244 345.24C58.6037 345.083 58.9761 345.005 59.3612 345.005C59.8521 345.005 60.2753 345.09 60.6308 345.259C60.9905 345.428 61.2846 345.665 61.5131 345.97C61.7416 346.27 61.9109 346.626 62.0209 347.036C62.1309 347.442 62.1859 347.887 62.1859 348.369V348.896H57.057V347.938H61.0116V347.849C60.9947 347.544 60.9312 347.248 60.8212 346.96C60.7154 346.672 60.5461 346.435 60.3134 346.249C60.0806 346.063 59.7633 345.97 59.3612 345.97C59.0946 345.97 58.8492 346.027 58.6249 346.141C58.4006 346.251 58.2081 346.416 58.0473 346.636C57.8865 346.856 57.7616 347.125 57.6728 347.442C57.5839 347.76 57.5395 348.126 57.5395 348.541V348.807C57.5395 349.133 57.5839 349.44 57.6728 349.728C57.7659 350.011 57.8992 350.261 58.0727 350.477C58.2504 350.692 58.4641 350.862 58.7138 350.984C58.9677 351.107 59.2554 351.168 59.5771 351.168C59.9918 351.168 60.343 351.084 60.6308 350.915C60.9185 350.745 61.1703 350.519 61.3861 350.235L62.0971 350.8C61.949 351.025 61.7607 351.238 61.5321 351.441C61.3036 351.645 61.0222 351.81 60.6879 351.937C60.3578 352.063 59.9664 352.127 59.5136 352.127ZM59.7104 342.25L61.2846 343.983V344.046H60.307L59.3549 342.974L58.4091 344.046H57.4442V343.977L58.9994 342.25H59.7104ZM58.644 353.562C58.644 353.371 58.7011 353.21 58.8153 353.079C58.9338 352.948 59.1073 352.882 59.3358 352.882C59.5601 352.882 59.7315 352.948 59.85 353.079C59.9727 353.21 60.0341 353.371 60.0341 353.562C60.0341 353.743 59.9727 353.898 59.85 354.025C59.7315 354.156 59.5601 354.222 59.3358 354.222C59.1073 354.222 58.9338 354.156 58.8153 354.025C58.7011 353.898 58.644 353.743 58.644 353.562ZM66.3056 351.162C66.5849 351.162 66.843 351.105 67.08 350.991C67.317 350.876 67.5116 350.72 67.664 350.521C67.8163 350.318 67.9031 350.087 67.9242 349.829H69.0414C69.0203 350.235 68.8827 350.614 68.6288 350.965C68.3791 351.312 68.0512 351.594 67.6449 351.81C67.2387 352.021 66.7922 352.127 66.3056 352.127C65.7893 352.127 65.3386 352.036 64.9535 351.854C64.5727 351.672 64.2553 351.422 64.0014 351.105C63.7517 350.788 63.5634 350.424 63.4364 350.013C63.3137 349.598 63.2523 349.16 63.2523 348.699V348.433C63.2523 347.971 63.3137 347.535 63.4364 347.125C63.5634 346.71 63.7517 346.344 64.0014 346.027C64.2553 345.709 64.5727 345.46 64.9535 345.278C65.3386 345.096 65.7893 345.005 66.3056 345.005C66.843 345.005 67.3127 345.115 67.7148 345.335C68.1168 345.551 68.432 345.847 68.6606 346.224C68.8933 346.596 69.0203 347.019 69.0414 347.493H67.9242C67.9031 347.21 67.8227 346.954 67.683 346.725C67.5476 346.497 67.3614 346.315 67.1244 346.179C66.8917 346.04 66.6187 345.97 66.3056 345.97C65.9459 345.97 65.6433 346.042 65.3979 346.186C65.1566 346.325 64.9641 346.516 64.8202 346.757C64.6806 346.994 64.579 347.258 64.5155 347.55C64.4563 347.838 64.4267 348.132 64.4267 348.433V348.699C64.4267 349 64.4563 349.296 64.5155 349.588C64.5748 349.88 64.6742 350.144 64.8139 350.381C64.9578 350.618 65.1503 350.809 65.3915 350.953C65.637 351.092 65.9416 351.162 66.3056 351.162Z" fill="#464646"/>
<path d="M55.0706 34.3L53.5412 35.8294L50.4059 32.6941L51.9353 31.1647C52.0925 31.0106 52.3039 30.9242 52.5241 30.9242C52.7443 30.9242 52.9557 31.0106 53.1129 31.1647L55.0706 33.1224C55.3918 33.4435 55.3918 33.9788 55.0706 34.3ZM40.2353 42.8494L49.5035 33.5812L52.6388 36.7165L43.3859 46H40.2353V42.8494ZM40.2353 35.2941C33.4753 35.2941 28 38.0318 28 41.4118V44.4706H37.1765V41.58L43.2941 35.4624C42.2847 35.34 41.26 35.2941 40.2353 35.2941ZM40.2353 20C38.6128 20 37.0567 20.6445 35.9095 21.7918C34.7622 22.9391 34.1176 24.4951 34.1176 26.1176C34.1176 27.7401 34.7622 29.2962 35.9095 30.4435C37.0567 31.5908 38.6128 32.2353 40.2353 32.2353C41.8578 32.2353 43.4138 31.5908 44.5611 30.4435C45.7084 29.2962 46.3529 27.7401 46.3529 26.1176C46.3529 24.4951 45.7084 22.9391 44.5611 21.7918C43.4138 20.6445 41.8578 20 40.2353 20Z" fill="#6B3BED"/>
<path d="M215.667 20C215.667 19.7348 215.561 19.4804 215.374 19.2929C215.186 19.1054 214.932 19 214.667 19C214.402 19 214.147 19.1054 213.96 19.2929C213.772 19.4804 213.667 19.7348 213.667 20V22.1067C211.747 22.26 210.488 22.636 209.563 23.5627C208.636 24.488 208.26 25.748 208.105 27.6667H234.561C234.407 25.7467 234.031 24.488 233.104 23.5627C232.179 22.636 230.919 22.26 229 22.1053V20C229 19.7348 228.895 19.4804 228.707 19.2929C228.52 19.1054 228.265 19 228 19C227.735 19 227.481 19.1054 227.293 19.2929C227.105 19.4804 227 19.7348 227 20V22.0173C226.113 22 225.119 22 224 22H218.667C217.548 22 216.553 22 215.667 22.0173V20Z" fill="#3DC65A"/>
<path fill-rule="evenodd" clip-rule="evenodd" d="M208 32.6666C208 31.548 208 30.5533 208.017 29.6666H234.649C234.667 30.5533 234.667 31.548 234.667 32.6666V35.3333C234.667 40.3613 234.667 42.876 233.104 44.4373C231.543 46 229.028 46 224 46H218.667C213.639 46 211.124 46 209.563 44.4373C208 42.876 208 40.3613 208 35.3333V32.6666ZM228 35.3333C228.354 35.3333 228.693 35.1928 228.943 34.9428C229.193 34.6927 229.333 34.3536 229.333 34C229.333 33.6463 229.193 33.3072 228.943 33.0572C228.693 32.8071 228.354 32.6666 228 32.6666C227.646 32.6666 227.307 32.8071 227.057 33.0572C226.807 33.3072 226.667 33.6463 226.667 34C226.667 34.3536 226.807 34.6927 227.057 34.9428C227.307 35.1928 227.646 35.3333 228 35.3333ZM228 40.6666C228.354 40.6666 228.693 40.5262 228.943 40.2761C229.193 40.0261 229.333 39.6869 229.333 39.3333C229.333 38.9797 229.193 38.6405 228.943 38.3905C228.693 38.1404 228.354 38 228 38C227.646 38 227.307 38.1404 227.057 38.3905C226.807 38.6405 226.667 38.9797 226.667 39.3333C226.667 39.6869 226.807 40.0261 227.057 40.2761C227.307 40.5262 227.646 40.6666 228 40.6666ZM222.667 34C222.667 34.3536 222.526 34.6927 222.276 34.9428C222.026 35.1928 221.687 35.3333 221.333 35.3333C220.98 35.3333 220.641 35.1928 220.391 34.9428C220.14 34.6927 220 34.3536 220 34C220 33.6463 220.14 33.3072 220.391 33.0572C220.641 32.8071 220.98 32.6666 221.333 32.6666C221.687 32.6666 222.026 32.8071 222.276 33.0572C222.526 33.3072 222.667 33.6463 222.667 34ZM222.667 39.3333C222.667 39.6869 222.526 40.0261 222.276 40.2761C222.026 40.5262 221.687 40.6666 221.333 40.6666C220.98 40.6666 220.641 40.5262 220.391 40.2761C220.14 40.0261 220 39.6869 220 39.3333C220 38.9797 220.14 38.6405 220.391 38.3905C220.641 38.1404 220.98 38 221.333 38C221.687 38 222.026 38.1404 222.276 38.3905C222.526 38.6405 222.667 38.9797 222.667 39.3333ZM214.667 35.3333C215.02 35.3333 215.359 35.1928 215.609 34.9428C215.86 34.6927 216 34.3536 216 34C216 33.6463 215.86 33.3072 215.609 33.0572C215.359 32.8071 215.02 32.6666 214.667 32.6666C214.313 32.6666 213.974 32.8071 213.724 33.0572C213.474 33.3072 213.333 33.6463 213.333 34C213.333 34.3536 213.474 34.6927 213.724 34.9428C213.974 35.1928 214.313 35.3333 214.667 35.3333ZM214.667 40.6666C215.02 40.6666 215.359 40.5262 215.609 40.2761C215.86 40.0261 216 39.6869 216 39.3333C216 38.9797 215.86 38.6405 215.609 38.3905C215.359 38.1404 215.02 38 214.667 38C214.313 38 213.974 38.1404 213.724 38.3905C213.474 38.6405 213.333 38.9797 213.333 39.3333C213.333 39.6869 213.474 40.0261 213.724 40.2761C213.974 40.5262 214.313 40.6666 214.667 40.6666Z" fill="#3DC65A"/>
<path d="M31.7144 170.714V167H35.4286V170.714H31.7144ZM50.2856 156.775C50.2827 156.038 49.9879 155.332 49.4658 154.812C48.9437 154.292 48.2368 154 47.4999 154H28.7857C28.0469 154 27.3383 154.293 26.8159 154.816C26.2935 155.338 26 156.047 26 156.786V173.5C26 174.731 26.4892 175.912 27.3598 176.783C28.2305 177.653 29.4115 178.143 30.6428 178.143H51.3572C52.5885 178.143 53.7695 177.653 54.6402 176.783C55.5108 175.912 56 174.731 56 173.5V162.357C56 161.618 55.7065 160.91 55.1841 160.387C54.6617 159.865 53.9531 159.571 53.2143 159.571H52.1428V172.998C52.1428 173.245 52.0449 173.481 51.8708 173.655C51.6966 173.829 51.4605 173.927 51.2142 173.927C50.9679 173.927 50.7317 173.829 50.5576 173.655C50.3835 173.481 50.2856 173.245 50.2856 172.998V156.775ZM29.8572 160.5C29.8572 160.254 29.9551 160.017 30.1292 159.843C30.3034 159.669 30.5395 159.571 30.7858 159.571H45.6428C45.8891 159.571 46.1253 159.669 46.2994 159.843C46.4735 160.017 46.5714 160.254 46.5714 160.5C46.5714 160.746 46.4735 160.982 46.2994 161.157C46.1253 161.331 45.8891 161.429 45.6428 161.429H30.7858C30.5395 161.429 30.3034 161.331 30.1292 161.157C29.9551 160.982 29.8572 160.746 29.8572 160.5ZM40.0714 165.143H45.6428C45.8891 165.143 46.1253 165.241 46.2994 165.415C46.4735 165.589 46.5714 165.825 46.5714 166.071C46.5714 166.318 46.4735 166.554 46.2994 166.728C46.1253 166.902 45.8891 167 45.6428 167H40.0714C39.8252 167 39.589 166.902 39.4148 166.728C39.2407 166.554 39.1429 166.318 39.1429 166.071C39.1429 165.825 39.2407 165.589 39.4148 165.415C39.589 165.241 39.8252 165.143 40.0714 165.143ZM39.1429 171.643C39.1429 171.396 39.2407 171.16 39.4148 170.986C39.589 170.812 39.8252 170.714 40.0714 170.714H45.6428C45.8891 170.714 46.1253 170.812 46.2994 170.986C46.4735 171.16 46.5714 171.396 46.5714 171.643C46.5714 171.889 46.4735 172.125 46.2994 172.299C46.1253 172.473 45.8891 172.571 45.6428 172.571H40.0714C39.8252 172.571 39.589 172.473 39.4148 172.299C39.2407 172.125 39.1429 171.889 39.1429 171.643ZM30.7858 165.143H36.3572C36.6035 165.143 36.8396 165.241 37.0138 165.415C37.1879 165.589 37.2858 165.825 37.2858 166.071V171.643C37.2858 171.889 37.1879 172.125 37.0138 172.299C36.8396 172.473 36.6035 172.571 36.3572 172.571H30.7858C30.5395 172.571 30.3034 172.473 30.1292 172.299C29.9551 172.125 29.8572 171.889 29.8572 171.643V166.071C29.8572 165.825 29.9551 165.589 30.1292 165.415C30.3034 165.241 30.5395 165.143 30.7858 165.143Z" fill="#FE3E36"/>
<path d="M130 154C127.349 154.003 124.807 155.08 122.932 156.995C121.058 158.91 120.003 161.506 120 164.214C120 172.955 129.091 179.556 129.478 179.832C129.631 179.941 129.813 180 130 180C130.187 180 130.369 179.941 130.522 179.832C130.909 179.556 140 172.955 140 164.214C139.997 161.506 138.942 158.91 137.068 156.995C135.193 155.08 132.651 154.003 130 154ZM130 160.5C130.719 160.5 131.422 160.718 132.02 161.126C132.618 161.534 133.084 162.114 133.36 162.793C133.635 163.472 133.707 164.219 133.566 164.939C133.426 165.66 133.08 166.321 132.571 166.841C132.063 167.36 131.415 167.714 130.709 167.857C130.004 168.001 129.273 167.927 128.608 167.646C127.944 167.365 127.376 166.889 126.976 166.278C126.577 165.667 126.364 164.949 126.364 164.214C126.364 163.229 126.747 162.285 127.429 161.588C128.111 160.891 129.036 160.5 130 160.5Z" fill="#3DC65A"/>
<path d="M120.556 44C119.853 44 119.251 43.7496 118.75 43.2487C118.249 42.7478 117.999 42.1464 118 41.4444V23.5556C118 22.8528 118.25 22.2509 118.751 21.7501C119.252 21.2492 119.854 20.9992 120.556 21H141C141.703 21 142.305 21.2504 142.805 21.7513C143.306 22.2522 143.556 22.8536 143.556 23.5556V41.4444C143.556 42.1472 143.305 42.7491 142.804 43.2499C142.303 43.7508 141.702 44.0009 141 44H120.556ZM121.833 38.8889H128.222V36.3333H121.833V38.8889ZM134.036 36.3333L140.361 30.0083L138.54 28.1875L134.036 32.7236L132.215 30.9028L130.426 32.7236L134.036 36.3333ZM121.833 33.7778H128.222V31.2222H121.833V33.7778ZM121.833 28.6667H128.222V26.1111H121.833V28.6667Z" fill="#FE9400"/>
<path d="M321.6 19C322.714 19 323.782 19.4425 324.57 20.2302C325.358 21.0178 325.8 22.0861 325.8 23.2V26H323V42.8C323 43.9139 322.558 44.9822 321.77 45.7698C320.982 46.5575 319.914 47 318.8 47H299.2C298.086 47 297.018 46.5575 296.23 45.7698C295.442 44.9822 295 43.9139 295 42.8V40H317.4V42.8C317.4 43.1429 317.526 43.4739 317.754 43.7301C317.982 43.9864 318.296 44.1501 318.636 44.1902L318.8 44.2C319.143 44.2 319.474 44.0741 319.73 43.8462C319.986 43.6183 320.15 43.3044 320.19 42.9638L320.2 42.8V21.8H302C301.657 21.8 301.326 21.9259 301.07 22.1538C300.814 22.3817 300.65 22.6956 300.61 23.0362L300.6 23.2V37.2H297.8V23.2C297.8 22.0861 298.242 21.0178 299.03 20.2302C299.818 19.4425 300.886 19 302 19H321.6Z" fill="#FE3E36"/>
<path d="M305.121 27.0001C304.975 26.998 304.829 27.0251 304.693 27.0797C304.557 27.1343 304.434 27.2154 304.329 27.3182C304.225 27.4211 304.142 27.5436 304.086 27.6788C304.029 27.8139 304 27.9589 304 28.1054C304 28.2518 304.029 28.3969 304.086 28.532C304.142 28.6671 304.225 28.7897 304.329 28.8925C304.434 28.9953 304.557 29.0764 304.693 29.131C304.829 29.1857 304.975 29.2127 305.121 29.2106H311.753C311.899 29.2127 312.044 29.1857 312.18 29.131C312.316 29.0764 312.44 28.9953 312.544 28.8925C312.649 28.7897 312.731 28.6671 312.788 28.532C312.844 28.3969 312.874 28.2518 312.874 28.1054C312.874 27.9589 312.844 27.8139 312.788 27.6788C312.731 27.5436 312.649 27.4211 312.544 27.3182C312.44 27.2154 312.316 27.1343 312.18 27.0797C312.044 27.0251 311.899 26.998 311.753 27.0001H305.121ZM316.174 27.0001C315.881 27.0001 315.599 27.1166 315.392 27.3238C315.185 27.5311 315.068 27.8122 315.068 28.1054C315.068 28.3985 315.185 28.6796 315.392 28.8869C315.599 29.0942 315.881 29.2106 316.174 29.2106C316.467 29.2106 316.748 29.0942 316.955 28.8869C317.162 28.6796 317.279 28.3985 317.279 28.1054C317.279 27.8122 317.162 27.5311 316.955 27.3238C316.748 27.1166 316.467 27.0001 316.174 27.0001ZM305.121 32.158C304.975 32.1559 304.829 32.183 304.693 32.2376C304.557 32.2922 304.434 32.3733 304.329 32.4761C304.225 32.579 304.142 32.7015 304.086 32.8367C304.029 32.9718 304 33.1168 304 33.2633C304 33.4097 304.029 33.5548 304.086 33.6899C304.142 33.825 304.225 33.9476 304.329 34.0504C304.434 34.1532 304.557 34.2343 304.693 34.2889C304.829 34.3435 304.975 34.3706 305.121 34.3685H311.753C311.899 34.3706 312.044 34.3435 312.18 34.2889C312.316 34.2343 312.44 34.1532 312.544 34.0504C312.649 33.9476 312.731 33.825 312.788 33.6899C312.844 33.5548 312.874 33.4097 312.874 33.2633C312.874 33.1168 312.844 32.9718 312.788 32.8367C312.731 32.7015 312.649 32.579 312.544 32.4761C312.44 32.3733 312.316 32.2922 312.18 32.2376C312.044 32.183 311.899 32.1559 311.753 32.158H305.121ZM316.174 32.158C315.881 32.158 315.599 32.2745 315.392 32.4817C315.185 32.689 315.068 32.9701 315.068 33.2633C315.068 33.5564 315.185 33.8375 315.392 34.0448C315.599 34.2521 315.881 34.3685 316.174 34.3685C316.467 34.3685 316.748 34.2521 316.955 34.0448C317.162 33.8375 317.279 33.5564 317.279 33.2633C317.279 32.9701 317.162 32.689 316.955 32.4817C316.748 32.2745 316.467 32.158 316.174 32.158Z" fill="#FE3E36"/>
<path d="M47.8095 299.143C49.6543 299.143 51.3629 299.725 52.7619 300.703V295.429C52.7619 294.054 51.66 292.952 50.2857 292.952H45.3333V290.476C45.3333 289.102 44.2314 288 42.8571 288H37.9048C36.5305 288 35.4286 289.102 35.4286 290.476V292.952H30.4762C29.1019 292.952 28.0124 294.054 28.0124 295.429L28 309.048C28 310.422 29.1019 311.524 30.4762 311.524H39.9848C39.3566 310.203 39.073 308.745 39.1604 307.286C39.2477 305.826 39.7032 304.413 40.4844 303.176C41.2656 301.94 42.347 300.922 43.6279 300.217C44.9087 299.512 46.3473 299.142 47.8095 299.143ZM37.9048 290.476H42.8571V292.952H37.9048V290.476Z" fill="#6B3BED"/>
<path d="M47.8096 301.619C44.3925 301.619 41.6191 304.392 41.6191 307.809C41.6191 311.227 44.3925 314 47.8096 314C51.2268 314 54.0001 311.227 54.0001 307.809C54.0001 304.392 51.2268 301.619 47.8096 301.619ZM49.8525 310.719L47.1906 308.057V304.095H48.4287V307.549L50.7191 309.84L49.8525 310.719Z" fill="#6B3BED"/>
<path fill-rule="evenodd" clip-rule="evenodd" d="M326 166.5C326 173.956 319.284 180 311 180C308.338 180.011 305.712 179.363 303.344 178.11L296 180L298.509 173.977C296.924 171.836 296 169.265 296 166.5C296 159.044 302.716 153 311 153C319.284 153 326 159.044 326 166.5ZM305.375 164.571H301.625V168.428H305.375V164.571ZM320.375 164.571H316.625V168.428H320.375V164.571ZM309.125 164.571H312.875V168.428H309.125V164.571Z" fill="#6B3BED"/>
<path d="M213.833 156.556V161.667H229.167V156.556H231.731C232.431 156.556 233 157.124 233 157.824V178.287C233 178.623 232.866 178.946 232.628 179.184C232.39 179.421 232.068 179.555 231.731 179.556H211.269C210.932 179.556 210.61 179.422 210.372 179.184C210.134 178.946 210 178.623 210 178.287V157.824C210 157.124 210.569 156.556 211.269 156.556H213.833ZM217.667 173.167H215.111V175.722H217.667V173.167ZM217.667 169.333H215.111V171.889H217.667V169.333ZM217.667 165.5H215.111V168.056H217.667V165.5ZM226.611 154V159.111H216.389V154H226.611Z" fill="#FE9400"/>
<path d="M130.5 309C135.194 309 139 305.194 139 300.5C139 295.806 135.194 292 130.5 292C125.806 292 122 295.806 122 300.5C122 305.194 125.806 309 130.5 309Z" fill="#FE9400"/>
<path d="M141.37 295.557L143.769 293.158C145.41 291.517 145.41 288.871 143.769 287.231C142.129 285.59 139.483 285.59 137.842 287.231L135.443 289.63C136.714 290.204 137.904 291.004 138.95 292.05C139.975 293.096 140.796 294.286 141.37 295.557Z" fill="#FE9400"/>
<path d="M119.63 305.443L117.231 307.842C115.59 309.483 115.59 312.129 117.231 313.769C118.871 315.41 121.517 315.41 123.158 313.769L125.557 311.37C124.286 310.796 123.096 309.996 122.05 308.95C121.004 307.904 120.204 306.714 119.63 305.443Z" fill="#FE9400"/>
<path d="M143.769 307.842L141.37 305.443C140.796 306.714 139.996 307.904 138.95 308.95C137.904 309.996 136.714 310.796 135.443 311.37L137.842 313.769C139.483 315.41 142.129 315.41 143.769 313.769C145.39 312.129 145.39 309.483 143.769 307.842Z" fill="#FE9400"/>
<path d="M125.557 289.63L123.158 287.231C121.517 285.59 118.871 285.59 117.231 287.231C115.59 288.871 115.59 291.517 117.231 293.158L119.63 295.557C120.204 294.286 121.004 293.096 122.05 292.05C123.096 291.004 124.286 290.204 125.557 289.63Z" fill="#FE9400"/>
</svg>
