<?xml version="1.0" encoding="utf-8"?>
<!-- Generator: Adobe Illustrator 25.2.0, SVG Export Plug-In . SVG Version: 6.00 Build 0)  -->
<svg version="1.1" id="Layer_1" xmlns="http://www.w3.org/2000/svg" xmlns:xlink="http://www.w3.org/1999/xlink" x="0px" y="0px"
	 viewBox="0 0 686.6 253.8" style="enable-background:new 0 0 686.6 253.8;" xml:space="preserve">
<style type="text/css">
	.st0{fill-rule:evenodd;clip-rule:evenodd;fill:#FFFFFF;}
	.st1{fill-rule:evenodd;clip-rule:evenodd;fill:#F37540;}
	.st2{fill-rule:evenodd;clip-rule:evenodd;fill:#96989A;}
</style>
<g id="Layer_x0020_1">
	<path class="st0" d="M29.3,179.2V73.7h14v43.5h54.4V73.7h14v105.4h-14v-49.6H43.4v49.6L29.3,179.2L29.3,179.2z M133.5,88.4V73.7h13
		v14.7C146.5,88.4,133.5,88.4,133.5,88.4z M133.5,179.2v-76.4h13v76.4H133.5z M161.6,145l20.8-2.1c1.2,6.9,3.8,12,7.6,15.3
		s9,4.9,15.4,4.9c6.8,0,11.9-1.5,15.4-4.4s5.2-6.2,5.2-10.1c0-2.5-0.7-4.7-2.2-6.4s-4-3.3-7.6-4.6c-2.5-0.8-8.1-2.4-16.9-4.6
		c-11.4-2.8-19.4-6.3-23.9-10.5c-6.5-5.8-9.6-12.9-9.6-21.2c0-5.4,1.5-10.5,4.5-15.1c3.1-4.7,7.4-8.3,13.1-10.7
		c5.8-2.5,12.6-3.7,20.7-3.7c13.2,0,23.1,2.9,29.8,8.7c6.7,5.9,10.1,13.7,10.5,23.5l-21.3,0.8c-0.9-5.5-2.8-9.4-5.8-11.7
		s-7.4-3.6-13.4-3.6c-6.1,0-10.9,1.3-14.4,3.8c-2.2,1.7-3.4,3.9-3.4,6.6c0,2.5,1.1,4.7,3.2,6.4c2.6,2.3,9.2,4.7,19.5,7.2
		c10.3,2.4,18,4.9,22.9,7.6c4.9,2.6,8.8,6.2,11.6,10.7c2.8,4.6,4.2,10.1,4.2,16.8c0,6-1.7,11.7-5.1,17c-3.3,5.3-8.1,9.2-14.2,11.7
		c-6.1,2.6-13.7,3.8-22.9,3.8c-13.3,0-23.6-3.1-30.7-9.2C167.3,165.7,163,156.7,161.6,145z M300.1,102.7v16h-13.8v31
		c0,6.2,0.1,9.9,0.3,11c0.3,1,0.9,1.9,1.9,2.6c0.9,0.7,2,1,3.4,1c1.9,0,4.6-0.7,8.1-1.9l1.7,15.7c-4.7,2-9.9,3-15.9,3
		c-3.6,0-6.9-0.6-9.8-1.8s-5.1-2.8-6.5-4.8c-1.3-1.9-2.3-4.6-2.8-7.9c-0.4-2.4-0.6-7.1-0.6-14.3v-33.5h-9.2v-16h9.2V87.6l20.2-11.9
		v27.1L300.1,102.7L300.1,102.7z M329.3,126.3l-18.3-3.2c2.1-7.5,5.6-13,10.6-16.6c5.1-3.5,12.6-5.3,22.5-5.3c9,0,15.7,1,20.1,3.2
		c4.4,2.1,7.5,4.8,9.3,8.1c1.8,3.3,2.7,9.3,2.7,18l-0.3,23.6c0,6.7,0.3,11.6,1,14.8c0.6,3.2,1.9,6.7,3.6,10.3h-20
		c-0.6-1.3-1.2-3.3-1.9-5.9c-0.3-1.2-0.6-2-0.8-2.4c-3.4,3.4-7.1,5.9-11,7.6c-3.9,1.7-8.1,2.5-12.5,2.5c-7.8,0-14-2.1-18.5-6.4
		c-4.5-4.2-6.8-9.6-6.8-16.2c0-4.3,1-8.1,3.1-11.5c2.1-3.3,4.9-6,8.7-7.8c3.7-1.7,9-3.3,16-4.7c9.4-1.7,16-3.4,19.6-4.9v-2
		c0-4-1-6.7-2.8-8.4c-1.9-1.7-5.6-2.6-10.9-2.6c-3.6,0-6.4,0.8-8.4,2.2C332.1,120.2,330.5,122.7,329.3,126.3z M356.4,142.7
		c-2.6,0.8-6.7,1.9-12.3,3.1c-5.6,1.2-9.2,2.4-11,3.5c-2.6,1.9-4,4.2-4,7.1s1,5.3,3.2,7.4c2.1,2.1,4.7,3.1,8,3.1
		c3.7,0,7.2-1.2,10.5-3.6c2.4-1.8,4-4,4.8-6.7c0.5-1.7,0.8-5.1,0.8-9.9V142.7z M387.3,102.7h11.2V97c0-6.5,0.7-11.2,2.1-14.4
		c1.4-3.2,3.9-5.8,7.6-7.8s8.4-3,14-3c5.8,0,11.5,0.8,17,2.6l-2.6,14c-3.3-0.8-6.5-1.2-9.4-1.2c-3,0-5.1,0.7-6.5,2.1s-1.9,4-1.9,8
		v5.4h15.1v15.9h-15.1v60.5h-20.2v-60.5h-11.2v-15.9H387.3z M436.3,102.7h11.2V97c0-6.5,0.7-11.2,2.1-14.4c1.4-3.2,3.9-5.8,7.6-7.8
		s8.4-3,14-3c5.8,0,11.5,0.8,17,2.6l-2.6,14c-3.3-0.8-6.5-1.2-9.5-1.2s-5.1,0.7-6.5,2.1c-1.2,1.4-1.9,4-1.9,8v5.4h15.1v15.9h-15.1
		v60.5h-20.2v-60.5h-11.2V102.7z"/>
	<g id="_2697908074144">
		<path class="st1" d="M568.1,56.1c-3.8-13-16.4-15-26.9-7.8c-10.8,7.4-18,23.4-14.3,36.2c3.8,13,16.4,15,26.9,7.9
			C564.6,85,571.8,68.9,568.1,56.1z"/>
		<path class="st1" d="M527.1,175.3c4.3-3.7,10-7.2,14.6-10.2l9-5.6c13-25.3,30.5-49,48.9-70.6C616.4,69,636,48.2,657.4,33.2
			l-3.6-4.8C630.9,40.5,609.9,57,591,74.7c-19.9,18.7-38.2,39.4-52.9,62.4l-0.6,0.8l-4.2-8.8c-3.1-6.4-11.7-23.3-20.4-23.3
			s-17,6.2-23.1,12.1c5.4,1.9,9.9,5.5,13.5,9.9c5.6,6.6,10.1,15.6,13.7,23.5l3.4,7.4C522.6,164,525.3,169.9,527.1,175.3z"/>
	</g>
	<path class="st2" d="M29.8,224.9v-23h7.4c2.8,0,4.7,0.1,5.6,0.3c1.3,0.3,2.4,1.1,3.3,2.3c0.9,1.2,1.3,2.6,1.3,4.5
		c0,1.4-0.3,2.6-0.8,3.5c-0.5,1-1.2,1.7-1.9,2.3c-0.8,0.6-1.6,0.9-2.4,1c-1.1,0.3-2.7,0.3-4.8,0.3h-3.1v8.7L29.8,224.9L29.8,224.9z
		 M34.4,205.8v6.6H37c1.8,0,3.1-0.1,3.7-0.3c0.6-0.3,1-0.6,1.4-1.2c0.3-0.5,0.6-1.1,0.6-1.7c0-0.9-0.3-1.6-0.8-2.1
		c-0.5-0.6-1.1-0.9-1.9-1c-0.6-0.1-1.7-0.2-3.3-0.2h-2.3V205.8z M56.1,224.9v-23H66c2.4,0,4.2,0.2,5.3,0.6c1.1,0.4,2,1.2,2.7,2.2
		c0.6,1,1,2.3,1,3.6c0,1.7-0.5,3.2-1.5,4.3s-2.5,1.9-4.5,2.2c1,0.6,1.8,1.2,2.5,1.9c0.6,0.7,1.5,1.9,2.6,3.7l2.8,4.4h-5.6l-3.3-5
		c-1.2-1.8-2-2.9-2.5-3.4c-0.4-0.4-0.9-0.8-1.4-1c-0.5-0.1-1.2-0.2-2.4-0.2h-0.9v9.6L56.1,224.9L56.1,224.9z M60.9,211.7h3.4
		c2.2,0,3.7-0.1,4.2-0.3c0.6-0.2,1-0.6,1.2-1c0.3-0.5,0.5-1,0.5-1.7c0-0.8-0.2-1.4-0.6-1.9s-1-0.8-1.7-0.9c-0.4-0.1-1.5-0.1-3.4-0.1
		h-3.6V211.7z M83.4,213.5c0-2.3,0.3-4.3,1-5.9c0.5-1.2,1.2-2.2,2.2-3.2c0.9-0.9,1.9-1.6,3-2.1c1.4-0.6,3.1-0.9,4.9-0.9
		c3.4,0,6.2,1.1,8.2,3.2c2,2.1,3.1,5.1,3.1,8.8s-1,6.7-3.1,8.7c-2,2.1-4.7,3.1-8.1,3.1s-6.1-1-8.2-3.1
		C84.4,220.1,83.4,217.2,83.4,213.5z M88.2,213.4c0,2.6,0.6,4.6,1.8,6c1.2,1.3,2.7,2,4.6,2s3.4-0.7,4.6-2s1.8-3.3,1.8-6
		c0-2.6-0.6-4.6-1.7-5.9s-2.7-1.9-4.7-1.9s-3.5,0.6-4.7,1.9S88.2,210.8,88.2,213.4z M114.4,224.9v-23h15.8v3.9H119v5.5h9.6v3.9H119
		v9.8L114.4,224.9L114.4,224.9z M138.9,224.9v-23H156v3.9h-12.4v5.1h11.5v3.9h-11.5v6.2h12.8v3.9L138.9,224.9L138.9,224.9z
		 M164.1,217.5l4.5-0.5c0.3,1.5,0.8,2.6,1.7,3.4c0.8,0.7,1.9,1,3.4,1s2.6-0.3,3.3-1s1.2-1.4,1.2-2.2c0-0.6-0.2-1-0.5-1.4
		c-0.3-0.3-0.9-0.7-1.7-1c-0.6-0.2-1.8-0.6-3.7-1c-2.4-0.6-4.2-1.4-5.2-2.3c-1.4-1.2-2.2-2.8-2.2-4.7c0-1.2,0.3-2.3,1-3.3
		c0.6-1,1.6-1.8,2.8-2.4c1.2-0.6,2.8-0.8,4.5-0.8c2.9,0,5.1,0.6,6.5,1.9c1.5,1.2,2.2,3,2.3,5.1l-4.7,0.1c-0.2-1.2-0.6-2-1.2-2.6
		c-0.7-0.5-1.7-0.8-3-0.8s-2.4,0.3-3.1,0.8c-0.5,0.3-0.8,0.8-0.8,1.5c0,0.6,0.3,1,0.7,1.4c0.6,0.5,2,1,4.3,1.5c2.2,0.6,4,1.1,5,1.7
		c1.1,0.6,1.9,1.4,2.6,2.4c0.6,1,0.9,2.2,0.9,3.7c0,1.3-0.3,2.6-1.1,3.7c-0.8,1.2-1.7,2-3.1,2.6c-1.3,0.6-3,0.8-5,0.8
		c-2.9,0-5.1-0.6-6.7-2C165.4,222,164.4,220.1,164.1,217.5z M190.5,217.5l4.6-0.5c0.3,1.5,0.8,2.6,1.7,3.4c0.8,0.7,1.9,1,3.3,1
		c1.5,0,2.6-0.3,3.4-1s1.1-1.4,1.1-2.2c0-0.6-0.1-1-0.5-1.4c-0.3-0.3-0.8-0.7-1.7-1c-0.6-0.2-1.7-0.6-3.7-1
		c-2.5-0.6-4.2-1.4-5.3-2.3c-1.4-1.2-2.1-2.8-2.1-4.7c0-1.2,0.3-2.3,1-3.3s1.7-1.8,2.9-2.4c1.2-0.6,2.7-0.8,4.5-0.8
		c2.8,0,5.1,0.6,6.5,1.9c1.5,1.2,2.2,3,2.3,5.1l-4.7,0.1c-0.1-1.2-0.6-2-1.2-2.6c-0.6-0.5-1.6-0.8-2.9-0.8c-1.3,0-2.4,0.3-3.1,0.8
		c-0.5,0.3-0.8,0.8-0.8,1.5c0,0.6,0.2,1,0.7,1.4c0.6,0.5,2,1,4.2,1.5c2.3,0.6,4,1.1,5.1,1.7c1,0.6,1.9,1.4,2.5,2.4s0.9,2.2,0.9,3.7
		c0,1.3-0.3,2.6-1,3.7c-0.8,1.2-1.8,2-3.1,2.6c-1.4,0.6-3.1,0.8-5.1,0.8c-2.9,0-5.1-0.6-6.7-2C191.8,222,190.9,220.1,190.5,217.5z
		 M218,224.9v-23h4.7v23H218z M231.1,213.5c0-2.3,0.3-4.3,1-5.9c0.5-1.2,1.2-2.2,2.2-3.2c0.9-0.9,1.9-1.6,3-2.1
		c1.5-0.6,3.1-0.9,4.9-0.9c3.5,0,6.2,1.1,8.2,3.2c2,2.1,3.1,5.1,3.1,8.8s-1,6.7-3.1,8.7c-2,2.1-4.7,3.1-8.1,3.1s-6.1-1-8.1-3.1
		C232.1,220.1,231.1,217.2,231.1,213.5z M235.9,213.4c0,2.6,0.6,4.6,1.8,6c1.2,1.3,2.8,2,4.6,2c1.9,0,3.4-0.7,4.6-2s1.8-3.3,1.8-6
		c0-2.6-0.6-4.6-1.7-5.9s-2.7-1.9-4.7-1.9c-1.9,0-3.5,0.6-4.7,1.9S235.9,210.8,235.9,213.4z M262.1,224.9v-23h4.5l9.4,15.5v-15.5
		h4.4v23h-4.7l-9.3-15.1v15.1H262.1z M311,224.9h-5l-2-5.2h-9.2l-1.9,5.2H288l9-23h4.9L311,224.9z M302.5,215.8l-3.2-8.5l-3.1,8.5
		H302.5z M318.6,224.9v-22.8h4.7v19h11.6v3.9L318.6,224.9L318.6,224.9z M351.4,224.9v-23h4.7v9.1h9.1v-9.1h4.7v23h-4.7v-10.1h-9.1
		v10.1H351.4z M379.6,224.9v-23h9.8c2.5,0,4.3,0.2,5.4,0.6c1.1,0.4,2,1.2,2.6,2.2c0.7,1,1,2.3,1,3.6c0,1.7-0.5,3.2-1.5,4.3
		s-2.5,1.9-4.5,2.2c1,0.6,1.8,1.2,2.4,1.9c0.7,0.7,1.5,1.9,2.6,3.7l2.8,4.4h-5.6l-3.3-5c-1.2-1.8-2.1-2.9-2.5-3.4
		c-0.4-0.4-0.9-0.8-1.4-1c-0.5-0.1-1.3-0.2-2.4-0.2h-1v9.6L379.6,224.9L379.6,224.9z M384.3,211.7h3.5c2.2,0,3.6-0.1,4.2-0.3
		s1-0.6,1.3-1c0.3-0.5,0.5-1,0.5-1.7c0-0.8-0.2-1.4-0.6-1.9s-1-0.8-1.7-0.9c-0.4-0.1-1.5-0.1-3.4-0.1h-3.7L384.3,211.7L384.3,211.7z
		 M407.7,224.9v-23h7l4.2,15.8l4-15.8h7v23h-4.3v-18.1l-4.6,18.1h-4.4l-4.5-18.1l-0.1,18.1H407.7z M447.3,217.5l4.5-0.5
		c0.3,1.5,0.8,2.6,1.7,3.4c0.8,0.7,1.9,1,3.4,1s2.6-0.3,3.3-1c0.8-0.6,1.2-1.4,1.2-2.2c0-0.6-0.2-1-0.5-1.4c-0.3-0.3-0.9-0.7-1.7-1
		c-0.6-0.2-1.8-0.6-3.7-1c-2.4-0.6-4.2-1.4-5.2-2.3c-1.4-1.2-2.1-2.8-2.1-4.7c0-1.2,0.3-2.3,1-3.3c0.6-1,1.6-1.8,2.8-2.4
		s2.8-0.8,4.5-0.8c2.9,0,5.1,0.6,6.5,1.9c1.5,1.2,2.2,3,2.3,5.1l-4.7,0.1c-0.2-1.2-0.6-2-1.2-2.6c-0.7-0.5-1.7-0.8-2.9-0.8
		c-1.4,0-2.4,0.3-3.2,0.8c-0.5,0.3-0.7,0.8-0.7,1.5c0,0.6,0.2,1,0.7,1.4c0.6,0.5,1.9,1,4.2,1.5c2.3,0.6,4,1.1,5,1.7
		c1.1,0.6,1.9,1.4,2.6,2.4c0.6,1,0.9,2.2,0.9,3.7c0,1.3-0.3,2.6-1.1,3.7c-0.7,1.2-1.7,2-3.1,2.6c-1.3,0.6-3,0.8-5,0.8
		c-2.9,0-5.1-0.6-6.7-2C448.6,222,447.6,220.1,447.3,217.5z M474,213.5c0-2.3,0.3-4.3,1.1-5.9c0.5-1.2,1.2-2.2,2.1-3.2
		c1-0.9,1.9-1.6,3-2.1c1.5-0.6,3.1-0.9,5-0.9c3.4,0,6.1,1.1,8.2,3.2c2,2.1,3.1,5.1,3.1,8.8s-1,6.7-3.1,8.7s-4.7,3.1-8.1,3.1
		s-6.2-1-8.2-3.1C475,220.1,474,217.2,474,213.5z M478.8,213.4c0,2.6,0.6,4.6,1.9,6c1.2,1.3,2.7,2,4.6,2s3.4-0.7,4.6-2
		s1.8-3.3,1.8-6c0-2.6-0.6-4.6-1.8-5.9c-1.1-1.3-2.6-1.9-4.6-1.9c-1.9,0-3.5,0.6-4.7,1.9C479.4,208.7,478.8,210.8,478.8,213.4z
		 M505.1,224.9v-22.8h4.7v19h11.6v3.9L505.1,224.9L505.1,224.9z M529.6,201.9h4.7v12.5c0,2,0.1,3.3,0.1,3.9c0.2,0.9,0.7,1.7,1.5,2.3
		c0.7,0.6,1.7,0.8,3.1,0.8c1.2,0,2.3-0.3,2.9-0.8c0.7-0.6,1-1.2,1.2-1.9c0.1-0.8,0.2-2.2,0.2-4v-12.8h4.7V214c0,2.8-0.1,4.7-0.4,5.9
		c-0.2,1.1-0.7,2.1-1.4,2.8c-0.7,0.8-1.5,1.5-2.7,1.9c-1.1,0.5-2.6,0.7-4.4,0.7c-2.2,0-3.9-0.2-5-0.7c-1.2-0.6-2.1-1.2-2.7-2
		c-0.7-0.8-1.1-1.7-1.3-2.6c-0.3-1.3-0.4-3.3-0.4-5.8L529.6,201.9L529.6,201.9z M562.9,224.9v-19.2h-6.8v-3.9h18.3v3.9h-6.8v19.2
		H562.9z M582.2,224.9v-23h4.7v23H582.2z M595.2,213.5c0-2.3,0.3-4.3,1.1-5.9c0.5-1.2,1.2-2.2,2.2-3.2c0.9-0.9,1.9-1.6,2.9-2.1
		c1.5-0.6,3.1-0.9,5-0.9c3.4,0,6.1,1.1,8.2,3.2c2,2.1,3.1,5.1,3.1,8.8s-1,6.7-3.1,8.7c-2,2.1-4.7,3.1-8.1,3.1s-6.2-1-8.2-3.1
		C596.3,220.1,595.2,217.2,595.2,213.5z M600,213.4c0,2.6,0.6,4.6,1.9,6c1.2,1.3,2.7,2,4.6,2s3.4-0.7,4.6-2s1.8-3.3,1.8-6
		c0-2.6-0.6-4.6-1.7-5.9c-1.2-1.3-2.7-1.9-4.7-1.9s-3.5,0.6-4.7,1.9C600.7,208.7,600,210.8,600,213.4z M626.2,224.9v-23h4.5
		l9.5,15.5v-15.5h4.3v23h-4.7l-9.4-15.1v15.1H626.2z"/>
</g>
</svg>
