<?xml version="1.0"?>
<svg width="1000" height="550" xmlns="http://www.w3.org/2000/svg" xmlns:svg="http://www.w3.org/2000/svg" version="1.1" xml:space="preserve">
 <style type="text/css">.st0{fill:#ED1820;}</style>
 <g class="layer">
  <g id="svg_2">
   <path class="st0" d="m472.5,0.1c91,-1.1 182.3,7.2 270.8,28.4c51.9,13 103.3,30.3 149.7,57.5c17.8,10.6 34.8,22.9 49.4,37.7c11.7,12.2 21.8,26.2 27.6,42.2c6.4,16.8 7,35.8 1.3,52.9c-5.8,18.1 -17,34.2 -30.6,47.4c-11.5,11.1 -24,21.1 -37.5,29.6c-33.3,21.5 -70.3,36.6 -107.9,49c-57.2,18.3 -116.4,29.5 -176,36.3c-33.6,3.6 -67.3,6.1 -101,6.5c-18.7,0.8 -37.4,0.9 -56,0c-35,-0.3 -70,-3.1 -104.8,-6.8c-50.2,-5.7 -100.2,-14.6 -148.9,-28.2c-36.6,-10.4 -72.6,-23.3 -106.4,-40.9c-19.8,-10.4 -38.9,-22.4 -55.8,-37.1c-15.1,-13.6 -29,-29.2 -36.8,-48.2c-4.3,-10.6 -6.9,-22.1 -6.8,-33.6c0.8,-20.6 9.2,-40.5 22,-56.6c14.8,-18.3 33.2,-33.4 53.1,-45.8c43.2,-26.9 91.5,-44.3 140.4,-57.6c82.9,-22 168.7,-31.3 254.2,-32.7zm-35.7,20.3c-43.3,1.9 -86.6,5.8 -129.3,13c-43.6,6.9 -86.8,16.8 -128.8,30.8c-28.6,10 -56.8,21.6 -82.7,37.3c-16.1,9.7 -31.6,20.8 -44.3,34.7c-13.7,14.3 -24.5,32.5 -26.1,52.6c-1.7,23.8 10.4,46.5 26.6,63.1c16.3,17.7 36.9,30.6 57.9,42.1c23.5,12.3 48.2,22.2 73.4,30.6c46.5,15.3 94.5,25.4 143,32.2c37.1,5.4 74.5,8.5 111.9,10.3c48.7,1.5 97.5,1.4 146,-2.5c62.8,-4.9 125.5,-14.4 186.2,-31.5c40.1,-11.5 79.7,-25.9 115.6,-47.4c14.1,-8.1 27,-18.1 38.8,-29.1c14.8,-14.2 27,-32.1 30.4,-52.7c1.6,-12.5 0.3,-25.6 -5,-37.1c-6.9,-16.8 -19.3,-30.5 -32.8,-42.2c-31.4,-26.7 -69.7,-43.7 -108.1,-57.7c-49.3,-17.2 -100.5,-28.5 -152.1,-35.9c-73.1,-10.7 -147,-13.5 -220.6,-10.6z" id="svg_3"/>
  </g>
  <g id="svg_4">
   <path class="st0" d="m149.8,86.3c26.3,-0.1 52.7,-0.1 79,0c-6.1,49.2 -12.8,98.4 -18.9,147.6c31.7,-49.1 63.2,-98.5 94.9,-147.6c54.4,-0.2 108.9,-0.3 163.4,0.1c-3.4,9.5 -7.3,18.9 -11.1,28.3c-0.5,1.5 -2.5,1.3 -3.8,1.3c-14.7,0 -29.4,0 -44,0c-3.8,0 -7.6,0.3 -11.3,-0.6c-9.2,19.6 -16.3,40.1 -25.3,59.8c19.9,0.4 39.8,0 59.6,0.1c-3.7,7.9 -7,16 -10.7,23.9c-19.6,0.4 -39.2,0.2 -58.7,0.1c-9,21.7 -18.1,43.4 -27,65.2c-1.6,4.6 -4.1,9 -5.4,13.7c28.9,-0.2 57.9,0 86.8,-0.2c1.3,-2.6 2.8,-5.1 4.5,-7.5c39.9,-61.2 79.2,-122.9 119.3,-184.1c15,-0.2 30,-0.1 45,0c-1.1,27.2 -3,54.3 -4.2,81.4c-2.3,36.7 -3.9,73.5 -6.2,110.2c4.2,0 8.5,0.2 12.7,0c1.3,-0.9 1.5,-2.5 2.1,-3.8c17.1,-39.4 33.5,-79 50.7,-118.3c9.6,-23.3 19.6,-46.4 29.7,-69.4c18,-0.4 36.1,0 54.1,-0.3c-1.6,22.2 -3.3,44.4 -4.9,66.6c-0.5,10.3 -1.9,20.6 -1.7,30.9c5.6,-9.1 12.5,-17.3 18.7,-26c17.5,-23.3 35,-46.5 52.2,-70c0.9,-1.8 3.1,-1.4 4.8,-1.5c17.8,0 35.5,0 53.3,0.1c-8.4,20.5 -16.8,41.1 -24.9,61.7c-10.1,24.5 -20,49 -29.7,73.6c-11,26.7 -21.7,53.5 -32.5,80.4c-13,0.4 -26.1,0.1 -39.1,0.1c-5.4,-0.2 -10.9,0.2 -16.3,-0.7c14.4,-32.8 27.6,-66.2 41.9,-99.1c0.7,-1.4 1,-3 1.3,-4.5c-14.5,20.1 -29.7,39.6 -44.4,59.5c-9.3,12.3 -18.5,24.8 -27.8,37c-2.2,2.5 -3.8,5.7 -6.5,7.7c-8.9,0.4 -17.9,0 -26.8,0c1.9,-28.4 4.4,-56.8 6.3,-85.3c0.5,-6.8 1.4,-13.5 1,-20.3c-2,2.9 -2.7,6.6 -4.2,9.8c-13.5,32 -27.6,63.8 -41.2,95.8c-23.4,0.1 -46.9,0.1 -70.3,0c-3.5,0 -7.1,0.2 -10.5,-0.7c0.2,-6.5 0.9,-13 1,-19.4c0.2,-9.7 1.4,-19.3 1.2,-29c-7.7,-0.9 -15.8,-0.1 -23.6,-0.4c-12,0.4 -24,-0.2 -36.1,0c-1.2,-0.1 -2.2,0.3 -2.8,1.3c-10,15.7 -20,31.4 -30.2,47c-0.9,1.8 -3.2,1.1 -4.9,1.4c-19.4,0 -38.7,-0.1 -58.1,0c-36.4,-0.1 -72.7,0.4 -109.1,-0.2c0.4,-0.1 1.1,-0.5 1.5,-0.6c16.6,-38.9 32.7,-78.1 49.3,-117c9.2,-22.9 19.1,-45.5 28.4,-68.3c-7.9,0.1 -15.8,0 -23.7,0.1c-20,33.6 -41,66.5 -61.1,100.1c-11.8,19.5 -23.9,38.8 -35.7,58.2c-5.4,9.1 -11.4,17.8 -16.4,27.1c-4.3,1 -8.8,0.7 -13.2,0.8c-19.6,-0.1 -39.2,0.1 -58.8,0c-0.2,-7.2 0.9,-14.3 1.4,-21.5c5.4,-61.3 10.5,-122.6 15.8,-183.9c0.3,-3.8 0.4,-7.3 1.2,-10.7zm371,79c-12.4,19.3 -24.8,38.5 -37.3,57.8c-0.8,1.2 -1.7,2.4 -1.9,3.9c15.4,-0.1 30.8,-0.1 46.1,0c1.5,-26.4 3.4,-52.8 4.6,-79.2c-4.3,5.4 -7.4,11.8 -11.5,17.5z" id="svg_5"/>
  </g>
 </g>
</svg>