<svg width="157" height="27" viewBox="0 0 157 27" fill="none" xmlns="http://www.w3.org/2000/svg">
<path d="M17.8101 0L7.01784 17.6941L2.81651 10.75L0 15.3742L7.0647 27L17.8361 9.38926L23.5577 18.7994H14.9363L12.0417 23.4914H26.4627L29.2948 18.8463L17.8101 0Z" fill="#C9252C"/>
<path d="M36.2837 23.6547L29.2948 6.57526H36.0578L39.644 17.9286L43.3573 6.57526H50.1203L43.0184 23.6547H36.2837Z" fill="#6D7686"/>
<path d="M57.8857 6.57526L64.564 15.8926L64.3381 12.0045V6.57526H70.2116V23.6406H64.4793L57.7869 14.3515L58.0269 18.2396V23.6406H52.1534V6.57526H57.8857Z" fill="#6D7686"/>
<path d="M90.5288 11.5378H84.6835C84.5988 11.0005 84.3023 10.6188 83.794 10.3784C83.3564 10.1663 82.834 10.0674 82.1986 10.0674C80.8997 10.0674 80.2361 10.3926 80.2361 11.0429C80.2361 11.6933 81.1679 12.2306 83.0316 12.6547C85.7283 13.2768 87.3803 13.6727 88.1709 14.0545C90.0346 14.9735 91.0512 16.4439 91.0512 18.2254C91.0512 20.1341 90.2323 21.6186 88.5945 22.6508C87.0414 23.6122 84.9236 24.0929 82.241 24.0929C79.8266 24.0929 77.8217 23.5273 76.2545 22.3821C74.7579 21.3076 73.9672 19.9644 73.9108 18.3809H79.8125C79.9396 18.9606 80.2925 19.512 80.8573 19.823C81.3656 20.1058 82.0998 20.4027 82.7069 20.4593C84.4153 20.5865 85.1636 19.7382 85.1636 18.904C85.1636 18.2536 84.2176 17.5608 82.3539 17.1508C79.6854 16.557 77.9629 16.2177 77.144 15.7935C75.2803 14.8604 74.3485 13.4606 74.3485 11.5802C74.3485 9.82702 75.125 8.46971 76.6781 7.50828C78.1182 6.58927 80.0666 6.13684 82.5092 6.13684C84.98 6.13684 86.9285 6.6741 88.3262 7.72036C89.5405 8.65351 90.2888 9.92599 90.5288 11.5378Z" fill="#6D7686"/>
<path d="M156.366 23.6547H143.63V6.57526H149.221V19.6676H156.366V23.6547Z" fill="#6D7686"/>
<path d="M89.8652 6.57526C89.9499 6.63181 90.0347 6.68836 90.1194 6.75906C91.4183 7.81945 92.2231 9.24746 92.5196 11.0572H95.9787V23.6406H101.57V11.0572H106.017L107.627 6.57526H89.8652Z" fill="#6D7686"/>
<path d="M123.186 19.6676H115.322V16.9813H123.186V13.0083H115.322V10.5624H123.186H123.242L124.683 6.57526H109.745V23.6547H123.186V19.6676Z" fill="#6D7686"/>
<path d="M140.143 19.6676H132.293V16.9813H140.143V13.0083H132.293V10.5624H140.143H140.199L141.64 6.57526H126.702V23.6547H140.143V19.6676Z" fill="#6D7686"/>
</svg>
