<svg xmlns="http://www.w3.org/2000/svg" width="45" height="33" viewBox="0 0 45 33" fill="none">
<path d="M32.7869 30.5735V27.5531C32.7869 25.9511 32.2414 24.4146 31.2704 23.2818C30.2994 22.1489 28.9824 21.5125 27.6092 21.5125H17.2539C15.8807 21.5125 14.5637 22.1489 13.5927 23.2818C12.6217 24.4146 12.0762 25.9511 12.0762 27.5531V30.5735" stroke="#F37540" stroke-width="3" stroke-linecap="round" stroke-linejoin="round"/>
<path d="M22.1436 14.7528C25.6386 14.7528 28.4719 11.9195 28.4719 8.42448C28.4719 4.92946 25.6386 2.09619 22.1436 2.09619C18.6486 2.09619 15.8153 4.92946 15.8153 8.42448C15.8153 11.9195 18.6486 14.7528 22.1436 14.7528Z" stroke="#F37540" stroke-width="3" stroke-linecap="round" stroke-linejoin="round"/>
<path d="M1.74942 30.2363V27.2591C1.75047 25.9398 2.21912 24.6582 3.08179 23.6155C3.94446 22.5728 5.15229 21.8281 6.51563 21.4982" stroke="#F37540" stroke-width="3" stroke-linecap="round" stroke-linejoin="round"/>
<path d="M42.5666 30.5735V27.4094C42.5655 26.0072 42.0988 24.6451 41.2398 23.5369C40.3807 22.4288 39.178 21.6373 37.8204 21.2867" stroke="#F37540" stroke-width="3" stroke-linecap="round" stroke-linejoin="round"/>
<path d="M31.4921 2.30188C32.8534 2.65041 34.0599 3.44208 34.9215 4.55208C35.7831 5.66207 36.2507 7.02726 36.2507 8.43241C36.2507 9.83756 35.7831 11.2027 34.9215 12.3127C34.0599 13.4227 32.8534 14.2144 31.4921 14.5629" stroke="#F37540" stroke-width="3" stroke-linecap="round" stroke-linejoin="round"/>
<path d="M12.8702 2.43341C11.5068 2.77212 10.2983 3.54148 9.43537 4.62019C8.5724 5.69891 8.10399 7.02562 8.10399 8.39117C8.10399 9.75672 8.5724 11.0834 9.43537 12.1621C10.2983 13.2409 11.5068 14.0102 12.8702 14.3489" stroke="#F37540" stroke-width="3" stroke-linecap="round" stroke-linejoin="round"/>
</svg>
