<svg xmlns="http://www.w3.org/2000/svg" width="41" height="34" viewBox="0 0 41 34" fill="none">
<path d="M27 32.0962V28.7629C27 26.9947 26.2976 25.2991 25.0474 24.0488C23.7971 22.7986 22.1014 22.0962 20.3333 22.0962H8.66667C6.89856 22.0962 5.20286 22.7986 3.95262 24.0488C2.70238 25.2991 2 26.9947 2 28.7629V32.0962" stroke="#F37540" stroke-width="3" stroke-linecap="round" stroke-linejoin="round"/>
<path d="M14.4997 15.4295C18.1816 15.4295 21.1663 12.4448 21.1663 8.76286C21.1663 5.08096 18.1816 2.09619 14.4997 2.09619C10.8178 2.09619 7.83301 5.08096 7.83301 8.76286C7.83301 12.4448 10.8178 15.4295 14.4997 15.4295Z" stroke="#F37540" stroke-width="3" stroke-linecap="round" stroke-linejoin="round"/>
<path d="M33.667 10.4296V20.4296" stroke="#F37540" stroke-width="3" stroke-linecap="round" stroke-linejoin="round"/>
<path d="M38.667 15.4296H28.667" stroke="#F37540" stroke-width="3" stroke-linecap="round" stroke-linejoin="round"/>
</svg>