<svg id="plus_1_" data-name="plus (1)" xmlns="http://www.w3.org/2000/svg" width="11.876" height="11.876" viewBox="0 0 11.876 11.876">
  <g id="Group_141" data-name="Group 141">
    <g id="Group_140" data-name="Group 140">
      <path id="Path_24" data-name="Path 24" d="M5.938,0a5.938,5.938,0,1,0,5.938,5.938A5.944,5.944,0,0,0,5.938,0Zm0,10.956a5.018,5.018,0,1,1,5.018-5.018A5.024,5.024,0,0,1,5.938,10.956Z" fill="#0075f2"/>
    </g>
  </g>
  <g id="Group_143" data-name="Group 143" transform="translate(3.178 3.137)">
    <g id="Group_142" data-name="Group 142">
      <path id="Path_25" data-name="Path 25" d="M142.081,137.538h-1.84V135.7a.46.46,0,1,0-.92,0v1.84h-1.84a.46.46,0,1,0,0,.92h1.84v1.84a.46.46,0,1,0,.92,0v-1.84h1.84a.46.46,0,0,0,0-.92Z" transform="translate(-137.022 -135.238)" fill="#0075f2"/>
    </g>
  </g>
</svg>
