<svg xmlns="http://www.w3.org/2000/svg" width="71.088" height="31.177" viewBox="0 0 71.088 31.177">
  <path id="Shape_8" data-name="Shape 8" d="M178.245,50.79a15.5,15.5,0,1,0,15.476,16.4,3,3,0,0,0-2.938-2.413c-.076,0-.15.006-.227.011s-.139-.011-.21-.011H175.866a3,3,0,0,0,0,6.008h4.064V68.233s.329-.824,1.435,0c.569.422,1.926,1.55,3.116,2.549.455.379.877.737,1.226,1.032.526.445.88.746.88.746a.832.832,0,0,1,0,1.388c-.847.8-5.386,4.563-5.386,4.563s-.858.623-1.082-.282V75.642l-2.587-.1a9.28,9.28,0,1,1,7.992-15.009,3.245,3.245,0,0,0,3.015,2.061h.091a3.148,3.148,0,0,0,3.15-3.148V59.36a3.219,3.219,0,0,0-.1-.808A15.494,15.494,0,0,0,178.245,50.79Zm35.248,31.177h-3.98V75.475H199.349v6.492h-3.936V65.083h3.936v6.466h10.164V65.083h3.98Zm18.988,0H227.1l-7.2-9.474h8.91q1.071,0,1.072-1.728t-1.072-1.745h-9.752V81.967h-3.938V65.083h13.914a4.262,4.262,0,0,1,3.473,1.665,6.805,6.805,0,0,1,0,8.034,4.277,4.277,0,0,1-3.472,1.649h-1.505Z" transform="translate(-162.737 -50.79)" fill="#fff" fill-rule="evenodd"/>
</svg>
