<svg width="115" height="29" viewBox="0 0 115 29" fill="none" xmlns="http://www.w3.org/2000/svg">
<path fill-rule="evenodd" clip-rule="evenodd" d="M0 28.5528V8.57686H2.56329V16.8134H12.5235V8.57686H15.0868V28.5339H12.5235V19.1423H2.5816V28.5339H0V28.5528ZM19.0782 11.3602V8.57686H21.4584V11.3602H19.0782ZM19.0782 28.5528V14.0868H21.4584V28.5528H19.0782ZM24.2231 22.0772L28.0315 21.6796C28.2512 22.9861 28.7272 23.9517 29.423 24.5766C30.1187 25.2014 31.0708 25.5044 32.2426 25.5044C33.4876 25.5044 34.4214 25.2203 35.0622 24.6712C35.703 24.1221 36.0143 23.4973 36.0143 22.7589C36.0143 22.2855 35.8861 21.8689 35.6115 21.547C35.3368 21.2252 34.8791 20.9222 34.22 20.6761C33.7622 20.5246 32.7369 20.2216 31.1257 19.8051C29.0385 19.2749 27.5737 18.6122 26.7498 17.8169C25.5597 16.7187 24.9921 15.3744 24.9921 13.8028C24.9921 12.7803 25.2668 11.8147 25.816 10.9437C26.3836 10.0538 27.1709 9.37211 28.2145 8.91768C29.2765 8.44432 30.5215 8.2171 32.0046 8.2171C34.4214 8.2171 36.234 8.7662 37.4607 9.86441C38.6874 10.9815 39.3099 12.4584 39.3832 14.314L35.4833 14.4655C35.3185 13.4241 34.9707 12.6857 34.4214 12.2502C33.8721 11.8147 33.0665 11.5685 31.9679 11.5685C30.8511 11.5685 29.9722 11.8147 29.3314 12.288C28.9286 12.6099 28.7089 13.0265 28.7089 13.5377C28.7089 14.0111 28.9103 14.4276 29.2948 14.7495C29.7708 15.185 30.9792 15.6395 32.8651 16.1128C34.7509 16.5672 36.1608 17.0406 37.0579 17.5518C37.9551 18.0441 38.6691 18.7258 39.1818 19.5778C39.6944 20.4488 39.9508 21.4902 39.9508 22.7589C39.9508 23.8949 39.6395 24.9742 39.017 25.9777C38.4128 26.9813 37.534 27.7197 36.4171 28.1931C35.3002 28.6854 33.9087 28.9126 32.2243 28.9126C29.7891 28.9126 27.9033 28.3256 26.6033 27.1706C25.2668 25.9967 24.4795 24.2926 24.2231 22.0772ZM49.5814 14.0679V17.0974H47.0548V22.9671C47.0548 24.1411 47.0731 24.8417 47.1097 25.0499C47.1646 25.2393 47.2745 25.4097 47.4576 25.5422C47.6223 25.6748 47.8237 25.7316 48.0801 25.7316C48.428 25.7316 48.9223 25.599 49.5631 25.3718L49.8744 28.3446C49.0139 28.7232 48.0618 28.9126 46.9632 28.9126C46.3041 28.9126 45.6999 28.799 45.1689 28.5718C44.6379 28.3446 44.2351 28.0416 43.9788 27.6629C43.7408 27.3032 43.5577 26.7919 43.4661 26.1671C43.3929 25.7126 43.3563 24.8227 43.3563 23.4594V17.1164H41.6718V14.0868H43.3563V11.2088L47.0548 8.95555V14.0868H49.5814V14.0679ZM54.9277 18.5364L51.5771 17.9305C51.9616 16.5104 52.6025 15.469 53.5179 14.7874C54.4517 14.1247 55.8249 13.7839 57.6375 13.7839C59.2853 13.7839 60.5121 13.9732 61.3177 14.3898C62.1233 14.7874 62.6909 15.2986 63.0204 15.9235C63.35 16.5483 63.5148 17.6844 63.5148 19.3317L63.4598 23.8003C63.4598 25.0689 63.5148 25.9967 63.6429 26.6026C63.7528 27.2085 63.9908 27.8712 64.3021 28.5528H60.6402C60.5304 28.3067 60.4205 27.928 60.2923 27.4357C60.2374 27.2085 60.1825 27.057 60.1459 26.9813C59.5234 27.625 58.8459 28.0984 58.1319 28.4203C57.4178 28.7422 56.6488 28.8937 55.8432 28.8937C54.4151 28.8937 53.2799 28.496 52.456 27.6818C51.6321 26.8866 51.211 25.8641 51.211 24.6144C51.211 23.8003 51.3941 23.0807 51.7785 22.437C52.163 21.8121 52.6757 21.3009 53.3714 20.9601C54.0489 20.6382 55.0193 20.3352 56.3009 20.0701C58.022 19.7483 59.2304 19.4264 59.8895 19.1423V18.7637C59.8895 18.0063 59.7065 17.495 59.3769 17.1732C59.029 16.8513 58.3516 16.6809 57.3812 16.6809C56.722 16.6809 56.2094 16.8323 55.8432 17.0974C55.4404 17.3814 55.1474 17.8548 54.9277 18.5364ZM59.8895 21.6417C59.4135 21.7932 58.6628 22.0015 57.6375 22.2287C56.6122 22.4559 55.9531 22.6831 55.6235 22.8914C55.1474 23.2512 54.8911 23.6866 54.8911 24.2357C54.8911 24.7849 55.0742 25.2393 55.477 25.6369C55.8615 26.0345 56.3375 26.2239 56.9417 26.2239C57.6192 26.2239 58.26 25.9967 58.8642 25.5422C59.3036 25.2014 59.5966 24.7849 59.7431 24.2736C59.8346 23.9517 59.8895 23.308 59.8895 22.3991V21.6417ZM65.5471 14.0679H67.5977V12.9886C67.5977 11.7579 67.7259 10.8679 67.9822 10.262C68.2386 9.65613 68.6963 9.16383 69.3737 8.78514C70.0512 8.40645 70.9117 8.2171 71.937 8.2171C72.999 8.2171 74.0426 8.36858 75.0496 8.7094L74.5736 11.3602C73.9694 11.2088 73.3835 11.133 72.8525 11.133C72.3032 11.133 71.9187 11.2656 71.6624 11.5307C71.4061 11.7957 71.3145 12.288 71.3145 13.0454V14.0679H74.0792V17.0785H71.3145V28.5339H67.616V17.0785H65.5654V14.0679H65.5471ZM74.5186 14.0679H76.5693V12.9886C76.5693 11.7579 76.6974 10.8679 76.9538 10.262C77.2101 9.65613 77.6678 9.16383 78.3453 8.78514C79.0227 8.40645 79.8832 8.2171 80.9086 8.2171C81.9705 8.2171 83.0141 8.36858 84.0211 8.7094L83.5451 11.3602C82.9409 11.2088 82.355 11.133 81.8057 11.133C81.2564 11.133 80.8719 11.2656 80.6156 11.5307C80.3959 11.7957 80.2677 12.288 80.2677 13.0454V14.0679H83.0324V17.0785H80.2677V28.5339H76.5693V17.0785H74.5186V14.0679Z" fill="black"/>
<path fill-rule="evenodd" clip-rule="evenodd" d="M98.6498 5.24477C97.954 2.78328 95.6471 2.40459 93.7246 3.76788C91.7472 5.16903 90.4289 8.19857 91.1064 10.6222C91.8021 13.0837 94.1091 13.4624 96.0316 12.118C98.009 10.7169 99.3272 7.6684 98.6498 5.24477Z" fill="#F37540"/>
<path fill-rule="evenodd" clip-rule="evenodd" d="M91.1428 27.8149C91.9301 27.1143 92.9738 26.4516 93.816 25.8836L95.4638 24.8232C97.844 20.0328 101.048 15.5453 104.417 11.4554C107.493 7.68744 111.082 3.74905 115 0.90886L114.341 0C110.148 2.29108 106.303 5.41529 102.842 8.76671C99.1989 12.3075 95.8483 16.2269 93.1568 20.5819L93.047 20.7334L92.278 19.0671C91.7104 17.8553 90.1358 14.6554 88.5429 14.6554C86.95 14.6554 85.4303 15.8293 84.3135 16.9464C85.3022 17.3062 86.1261 17.9878 86.7852 18.821C87.8105 20.0706 88.6345 21.7748 89.2936 23.2706L89.9161 24.6717C90.3189 25.6753 90.8133 26.7924 91.1428 27.8149Z" fill="#F37540"/>
</svg>
