<svg xmlns="http://www.w3.org/2000/svg" width="18.822" height="23.748" viewBox="0 0 18.822 23.748">
  <g id="notification_2_" data-name="notification (2)" transform="translate(-53.013 0)">
    <path id="Path_47" data-name="Path 47" d="M184.9,465.044a2.616,2.616,0,0,0,4.788,0Z" transform="translate(-124.874 -442.859)" fill="#fff"/>
    <path id="Path_48" data-name="Path 48" d="M198.286,1.654a5.884,5.884,0,0,1,2.009.352V1.929A1.931,1.931,0,0,0,198.366,0h-.16a1.931,1.931,0,0,0-1.929,1.929v.076A5.9,5.9,0,0,1,198.286,1.654Z" transform="translate(-135.862)" fill="#fff"/>
    <path id="Path_49" data-name="Path 49" d="M71.12,97.335H53.729a.729.729,0,0,1-.7-.608.784.784,0,0,1,.372-.86,4.08,4.08,0,0,0,1.123-1.707,21.821,21.821,0,0,0,1.171-7.8c0-4.147,3.018-7.521,6.728-7.521s6.714,3.357,6.728,7.491c0,.01,0,.02,0,.03a21.822,21.822,0,0,0,1.171,7.8,4.08,4.08,0,0,0,1.123,1.707.784.784,0,0,1,.372.86A.729.729,0,0,1,71.12,97.335Zm.335-1.462h0Z" transform="translate(0 -76.165)" fill="#fff"/>
  </g>
</svg>
