<svg width="65" height="65" viewBox="0 0 65 65" fill="none" xmlns="http://www.w3.org/2000/svg">
<circle cx="32.5" cy="32.5" r="32.5" fill="#FE9400"/>
<path d="M21.2268 45.8047C20.4168 45.8047 19.7232 45.516 19.1459 44.9388C18.5687 44.3615 18.2805 43.6683 18.2815 42.8594V22.2422C18.2815 21.4322 18.5701 20.7386 19.1474 20.1613C19.7247 19.584 20.4178 19.2959 21.2268 19.2969H44.7893C45.5993 19.2969 46.2929 19.5855 46.8702 20.1628C47.4474 20.7401 47.7356 21.4332 47.7346 22.2422V42.8594C47.7346 43.6693 47.446 44.363 46.8687 44.9402C46.2914 45.5175 45.5983 45.8057 44.7893 45.8047H21.2268ZM22.6995 39.9141H30.0627V36.9687H22.6995V39.9141ZM36.7633 36.9687L44.053 29.6791L41.9544 27.5806L36.7633 32.8085L34.6648 30.71L32.6031 32.8085L36.7633 36.9687ZM22.6995 34.0234H30.0627V31.0781H22.6995V34.0234ZM22.6995 28.1328H30.0627V25.1875H22.6995V28.1328Z" fill="white"/>
</svg>
