<svg width="65" height="65" viewBox="0 0 65 65" fill="none" xmlns="http://www.w3.org/2000/svg">
<circle cx="32.5" cy="32.5" r="32.5" fill="#3DC65A"/>
<path d="M26.2064 15.3849C26.2064 15.0756 26.0836 14.779 25.8649 14.5604C25.6462 14.3417 25.3496 14.2188 25.0403 14.2188C24.731 14.2188 24.4344 14.3417 24.2158 14.5604C23.9971 14.779 23.8742 15.0756 23.8742 15.3849V17.8415C21.6353 18.0203 20.1676 18.4587 19.0886 19.5393C18.008 20.6183 17.5695 22.0876 17.3892 24.325H48.2394C48.0591 22.0861 47.6206 20.6183 46.54 19.5393C45.461 18.4587 43.9917 18.0203 41.7544 17.8399V15.3849C41.7544 15.0756 41.6315 14.779 41.4128 14.5604C41.1941 14.3417 40.8975 14.2188 40.5883 14.2188C40.279 14.2188 39.9824 14.3417 39.7637 14.5604C39.545 14.779 39.4222 15.0756 39.4222 15.3849V17.7373C38.3882 17.7171 37.2284 17.7171 35.9239 17.7171H29.7047C28.4002 17.7171 27.2403 17.7171 26.2064 17.7373V15.3849Z" fill="white"/>
<path fill-rule="evenodd" clip-rule="evenodd" d="M17.2656 30.1552C17.2656 28.8507 17.2656 27.6908 17.2858 26.6569H48.3413C48.3615 27.6908 48.3615 28.8507 48.3615 30.1552V33.2648C48.3615 39.1279 48.3615 42.0603 46.5393 43.8809C44.7187 45.7031 41.7863 45.7031 35.9232 45.7031H29.704C23.8409 45.7031 20.9085 45.7031 19.0878 43.8809C17.2656 42.0603 17.2656 39.1279 17.2656 33.2648V30.1552ZM40.5876 33.2648C40.9999 33.2648 41.3954 33.101 41.687 32.8094C41.9786 32.5178 42.1424 32.1223 42.1424 31.71C42.1424 31.2976 41.9786 30.9022 41.687 30.6106C41.3954 30.319 40.9999 30.1552 40.5876 30.1552C40.1752 30.1552 39.7797 30.319 39.4882 30.6106C39.1966 30.9022 39.0328 31.2976 39.0328 31.71C39.0328 32.1223 39.1966 32.5178 39.4882 32.8094C39.7797 33.101 40.1752 33.2648 40.5876 33.2648ZM40.5876 39.484C40.9999 39.484 41.3954 39.3201 41.687 39.0286C41.9786 38.737 42.1424 38.3415 42.1424 37.9292C42.1424 37.5168 41.9786 37.1213 41.687 36.8298C41.3954 36.5382 40.9999 36.3744 40.5876 36.3744C40.1752 36.3744 39.7797 36.5382 39.4882 36.8298C39.1966 37.1213 39.0328 37.5168 39.0328 37.9292C39.0328 38.3415 39.1966 38.737 39.4882 39.0286C39.7797 39.3201 40.1752 39.484 40.5876 39.484ZM34.3684 31.71C34.3684 32.1223 34.2046 32.5178 33.913 32.8094C33.6214 33.101 33.2259 33.2648 32.8136 33.2648C32.4012 33.2648 32.0058 33.101 31.7142 32.8094C31.4226 32.5178 31.2588 32.1223 31.2588 31.71C31.2588 31.2976 31.4226 30.9022 31.7142 30.6106C32.0058 30.319 32.4012 30.1552 32.8136 30.1552C33.2259 30.1552 33.6214 30.319 33.913 30.6106C34.2046 30.9022 34.3684 31.2976 34.3684 31.71ZM34.3684 37.9292C34.3684 38.3415 34.2046 38.737 33.913 39.0286C33.6214 39.3201 33.2259 39.484 32.8136 39.484C32.4012 39.484 32.0058 39.3201 31.7142 39.0286C31.4226 38.737 31.2588 38.3415 31.2588 37.9292C31.2588 37.5168 31.4226 37.1213 31.7142 36.8298C32.0058 36.5382 32.4012 36.3744 32.8136 36.3744C33.2259 36.3744 33.6214 36.5382 33.913 36.8298C34.2046 37.1213 34.3684 37.5168 34.3684 37.9292ZM25.0396 33.2648C25.452 33.2648 25.8474 33.101 26.139 32.8094C26.4306 32.5178 26.5944 32.1223 26.5944 31.71C26.5944 31.2976 26.4306 30.9022 26.139 30.6106C25.8474 30.319 25.452 30.1552 25.0396 30.1552C24.6272 30.1552 24.2318 30.319 23.9402 30.6106C23.6486 30.9022 23.4848 31.2976 23.4848 31.71C23.4848 32.1223 23.6486 32.5178 23.9402 32.8094C24.2318 33.101 24.6272 33.2648 25.0396 33.2648ZM25.0396 39.484C25.452 39.484 25.8474 39.3201 26.139 39.0286C26.4306 38.737 26.5944 38.3415 26.5944 37.9292C26.5944 37.5168 26.4306 37.1213 26.139 36.8298C25.8474 36.5382 25.452 36.3744 25.0396 36.3744C24.6272 36.3744 24.2318 36.5382 23.9402 36.8298C23.6486 37.1213 23.4848 37.5168 23.4848 37.9292C23.4848 38.3415 23.6486 38.737 23.9402 39.0286C24.2318 39.3201 24.6272 39.484 25.0396 39.484Z" fill="white"/>
</svg>
