<svg width="36" height="37" viewBox="0 0 36 37" fill="none" xmlns="http://www.w3.org/2000/svg">
<path d="M17.2715 34.4129C17.1908 34.4129 17.11 34.4129 17.0293 34.4129H16.9486H3.75291C2.46159 34.4129 1.61416 33.6058 1.61416 32.3145V12.8639H30.2251V19.4416V19.6434C30.2251 19.8451 30.2251 20.0065 30.2251 20.168C30.2654 20.5715 30.5479 20.8943 30.9514 20.9347C31.3953 20.975 31.7182 20.6926 31.7989 20.2487C31.7989 20.168 31.7989 20.0469 31.7989 19.9662V16.6975C31.7989 13.7517 31.7989 10.8462 31.7989 7.90038C31.7989 5.72127 30.2654 4.22818 28.0863 4.22818H27.3599C26.4318 4.22818 25.5037 4.22818 24.5755 4.22818C24.5352 4.22818 24.5352 4.22818 24.5352 4.22818V4.18782C24.5352 3.70358 24.5352 3.17898 24.5352 2.61402C24.4948 1.44376 23.6474 0.434912 22.5175 0.152435C22.0332 0.0313736 21.549 0.0313736 21.0647 0.0717274C19.8541 0.112081 18.8856 0.919159 18.5628 2.04907C18.4821 2.3719 18.4417 2.73508 18.4417 3.05791C18.4417 3.38075 18.4417 3.70358 18.4417 4.02641V4.22818H16.8276C15.6573 4.22818 14.5274 4.22818 13.3168 4.22818V3.86499C13.3168 3.50181 13.3168 3.09827 13.3168 2.69473C13.2764 1.60517 12.7115 0.757743 11.7026 0.273497C11.057 -0.0089803 10.3306 -0.0896881 9.44281 0.112081C8.15148 0.394558 7.30405 1.48411 7.2637 2.85615C7.2637 3.21933 7.2637 3.58252 7.2637 3.9457V4.22818H7.10228C6.7391 4.22818 6.41627 4.22818 6.05308 4.22818C5.28636 4.22818 4.51963 4.22818 3.75291 4.22818C2.74406 4.18782 1.77557 4.55101 1.08955 5.23702C0.403539 5.96339 0 6.97224 0 8.02144C0.0403539 10.9269 0 13.9131 0 16.7782C0 17.9888 0 19.1995 0 20.4101V23.8402C0 26.6649 0 29.5301 0 32.3548C0 34.3322 1.5738 35.9867 3.47043 35.9867C5.52848 35.9867 7.58653 35.9867 9.60422 35.9867C11.0166 35.9867 12.3886 35.9867 13.801 35.9867H17.1908C17.675 35.9867 18.0382 35.6638 18.0785 35.22C18.1189 34.8164 17.7557 34.4532 17.2715 34.4129ZM11.743 4.22818C10.8955 4.26853 10.0885 4.26853 9.24104 4.26853H8.8375C8.8375 4.14747 8.8375 4.02641 8.8375 3.90535C8.8375 3.46145 8.8375 3.05791 8.8375 2.65438C8.87785 2.12978 9.24104 1.76659 9.80599 1.68588C10.1288 1.64553 10.4113 1.64553 10.7341 1.68588C11.2991 1.76659 11.7026 2.21048 11.7026 2.77544C11.7833 3.25968 11.743 3.78428 11.743 4.22818ZM20.0962 2.49296C20.1769 2.04907 20.4594 1.76659 20.984 1.68588C21.2665 1.64553 21.5893 1.64553 21.8718 1.68588C22.4771 1.76659 22.8403 2.17013 22.8806 2.73508C22.921 3.13862 22.921 3.50181 22.8806 3.9457C22.8806 4.06676 22.8806 4.18782 22.8806 4.26853H20.0559C20.0559 4.14747 20.0559 4.02641 20.0559 3.86499C20.0559 3.38075 20.0559 2.93685 20.0962 2.49296ZM7.30405 6.85118C7.42511 8.38463 8.51467 9.43383 10.0481 9.47418H10.0885C10.0885 9.59524 10.0885 9.67595 10.0885 9.79701C10.1288 10.2813 10.4517 10.6041 10.8955 10.6041C11.3394 10.6041 11.6623 10.2409 11.6623 9.75666C11.6623 8.94958 11.6623 8.1425 11.6623 7.33543C11.6623 6.85118 11.3394 6.48799 10.8955 6.48799C10.492 6.48799 10.1288 6.81082 10.0885 7.25472C10.0885 7.37578 10.0885 7.45649 10.0885 7.57755V7.69861V7.90038C9.84635 7.94073 9.60422 7.86003 9.40245 7.69861C9.11998 7.53719 8.95856 7.25472 8.91821 6.93189C8.87785 6.64941 8.87785 6.36693 8.91821 6.08446C8.91821 6.00375 8.91821 5.96339 8.91821 5.88269H18.4821V6.48799C18.4821 8.30392 19.4909 9.39347 21.2665 9.51453C21.2665 9.6356 21.2665 9.75666 21.2665 9.83737C21.3068 10.3216 21.67 10.6444 22.1139 10.6041C22.5578 10.5637 22.8403 10.2409 22.8806 9.79701C22.8806 8.98993 22.8806 8.1425 22.8806 7.33543C22.8806 6.89153 22.5578 6.52835 22.1139 6.52835C21.67 6.48799 21.3068 6.85118 21.2665 7.33543C21.2665 7.5372 21.2665 7.69861 21.2665 7.90038C20.984 7.90038 20.7015 7.81967 20.4998 7.65826C20.2576 7.45649 20.0962 7.17401 20.0559 6.85118C20.0559 6.60906 20.0559 6.32658 20.0559 6.08446C20.0559 6.0441 20.0559 5.96339 20.0559 5.92304C20.0962 5.92304 20.1366 5.92304 20.1769 5.92304H21.6297C23.8088 5.92304 25.9475 5.92304 28.1267 5.92304C29.3373 5.92304 30.2251 6.77047 30.2251 8.02144C30.2251 9.07064 30.2251 10.1602 30.2251 11.2094C30.2251 11.2498 30.2251 11.2901 30.2251 11.2901H1.61416C1.61416 11.2498 1.61416 11.2094 1.61416 11.2094V10.7655C1.61416 9.83737 1.61416 8.86887 1.61416 7.94073C1.61416 6.81083 2.46159 5.92304 3.5915 5.92304C4.31786 5.92304 5.00388 5.92304 5.73025 5.92304C6.2145 5.92304 6.7391 5.92304 7.22334 5.92304H7.2637C7.2637 5.92304 7.2637 5.92304 7.2637 5.96339C7.2637 6.12481 7.2637 6.48799 7.30405 6.85118Z" fill="white"/>
<path d="M34.2202 22.226C32.8885 22.0242 31.4357 21.7821 29.8216 21.5803C29.6602 21.54 29.6198 21.4996 29.5391 21.3786C29.2566 20.8136 28.9741 20.2083 28.6917 19.6434C28.3688 18.9573 28.0057 18.2713 27.6828 17.5853C27.2793 16.6975 26.5933 16.2536 25.7055 16.2536C24.8177 16.2536 24.172 16.6975 23.7281 17.545C23.1632 18.7152 22.5579 19.9662 21.8315 21.3786C21.7912 21.4593 21.7105 21.4996 21.6701 21.54C21.1051 21.6207 20.5402 21.7014 20.0156 21.7821L18.805 21.9435C18.2804 22.0242 17.7154 22.1049 17.1908 22.1857C16.3837 22.3067 15.7784 22.791 15.5363 23.598C15.2538 24.4051 15.4556 25.1718 16.0609 25.7771C17.0698 26.7456 18.0786 27.7545 19.2085 28.844C19.3296 28.9651 19.3699 29.0458 19.3296 29.1669C19.1682 30.1354 19.0067 31.1039 18.8453 32.032C18.805 32.1934 18.7646 32.3548 18.7646 32.5566C18.6839 33.0005 18.6032 33.4444 18.6032 33.8883C18.6032 34.6146 18.9664 35.2603 19.5717 35.6638C20.2174 36.0674 21.0244 36.0674 21.7105 35.7446C23.0421 35.0585 24.4142 34.3322 25.5441 33.7269C25.7055 33.6462 25.7862 33.6462 25.9476 33.7269C26.6336 34.09 27.36 34.4532 28.046 34.8568C28.5706 35.1392 29.1356 35.4217 29.6602 35.7042C30.0637 35.906 30.4269 36.027 30.7901 36.027C31.234 36.027 31.6375 35.8656 32.041 35.5831C32.7271 35.0585 33.0095 34.3322 32.8481 33.3637L32.606 31.9109C32.4446 30.9828 32.2832 30.095 32.1218 29.1669C32.0814 29.0458 32.1218 29.0055 32.2025 28.8844C32.8078 28.2791 33.4534 27.6738 34.0587 27.1088C34.4623 26.7053 34.9062 26.3017 35.3097 25.8982C35.794 25.414 36.0361 24.8894 35.9957 24.2437C35.9554 23.2349 35.229 22.3874 34.2202 22.226ZM20.2577 34.2515C20.177 34.09 20.0963 33.8883 20.1367 33.7672C20.4191 32.032 20.7016 30.3371 20.9437 29.0458C21.0244 28.6423 20.9034 28.3194 20.6209 28.037C19.8542 27.3106 19.1278 26.5842 18.3611 25.8579L17.2715 24.7683C17.0294 24.5262 16.989 24.3648 17.0294 24.163C17.1101 23.9209 17.2715 23.7998 17.5136 23.7595L18.6839 23.598C19.8542 23.4366 20.9841 23.2752 22.1543 23.1138C22.6386 23.0331 22.9614 22.8313 23.1632 22.3874C23.6071 21.4996 24.051 20.6118 24.4545 19.7241C24.6966 19.2398 24.9388 18.7556 25.1809 18.2713C25.3019 17.9888 25.4634 17.8678 25.7458 17.8678C25.9476 17.8678 26.109 17.9888 26.2301 18.2713C26.4722 18.7556 26.7143 19.2802 26.9565 19.7644C27.4004 20.6522 27.8039 21.4996 28.2478 22.3874C28.4496 22.8313 28.7724 23.0331 29.2566 23.1138C30.3865 23.2752 31.5164 23.4366 32.606 23.598L33.857 23.7998C34.0991 23.8402 34.2605 23.9612 34.3412 24.163C34.3816 24.3244 34.4219 24.4858 34.1798 24.7683C33.8166 25.1315 33.4534 25.4543 33.0902 25.8175C32.3235 26.5439 31.5568 27.3106 30.7901 28.037C30.4672 28.3598 30.3462 28.723 30.4269 29.1669C30.5883 30.0143 30.7094 30.9021 30.8708 31.7495C30.9918 32.4355 31.1129 33.1216 31.234 33.7672C31.2743 34.0093 31.234 34.2111 31.0322 34.3322C30.8304 34.4936 30.669 34.4936 30.4269 34.3725L29.297 33.7672C28.2881 33.2426 27.2389 32.718 26.2301 32.1531C26.0283 32.032 25.8265 31.9916 25.6651 31.9916C25.4634 31.9916 25.3019 32.032 25.1002 32.1531C23.8896 32.7987 22.6386 33.4444 21.3876 34.09L20.9437 34.3322C20.863 34.4129 20.4595 34.5743 20.2577 34.2515Z" fill="white"/>
<path d="M11.3797 16.5765C11.3797 15.5676 10.6937 14.8816 9.72519 14.8816C8.2321 14.8816 6.86007 14.8816 5.6091 14.8816C4.64061 14.8816 3.95459 15.5676 3.95459 16.5765C3.95459 17.9485 3.95459 19.3205 3.95459 20.6522C3.95459 21.6207 4.64061 22.3067 5.64945 22.3471C5.89158 22.3471 6.17405 22.3471 6.41618 22.3471C6.61795 22.3471 6.81972 22.3471 7.06184 22.3471H7.7075H8.35316C8.79706 22.3471 9.2813 22.3471 9.72519 22.3471C10.734 22.3471 11.4201 21.661 11.4201 20.6522C11.3797 19.2802 11.3797 17.9081 11.3797 16.5765ZM5.52839 18.5941V18.0292C5.52839 17.5853 5.52839 17.1011 5.52839 16.6572C5.52839 16.5361 5.56875 16.4957 5.56875 16.4957C5.56875 16.4957 5.6091 16.4554 5.73016 16.4554C7.02148 16.4554 8.35316 16.4554 9.64449 16.4554C9.72519 16.4554 9.76555 16.4554 9.8059 16.4957C9.8059 16.4957 9.84626 16.5361 9.84626 16.6572C9.84626 17.9485 9.84626 19.2802 9.84626 20.5715C9.84626 20.6926 9.8059 20.7329 9.8059 20.7329C9.8059 20.7329 9.76555 20.7733 9.64449 20.7733C8.99882 20.7733 8.35316 20.7733 7.7075 20.7733C7.06184 20.7733 6.41618 20.7733 5.77051 20.7733C5.64945 20.7733 5.6091 20.7329 5.6091 20.7329C5.6091 20.7329 5.56875 20.6926 5.56875 20.5715C5.56875 20.0872 5.56875 19.6434 5.56875 19.1591L5.52839 18.5941Z" fill="white"/>
<path d="M5.56882 24.6472C4.60032 24.6472 3.91431 25.3332 3.91431 26.3421C3.91431 27.7141 3.91431 29.0458 3.91431 30.4178C3.91431 31.4267 4.60032 32.1127 5.60917 32.1127C5.89165 32.1127 6.13377 32.1127 6.41625 32.1127C6.61802 32.1127 6.81979 32.1127 7.02156 32.1127H7.62686H8.23217C8.71642 32.1127 9.16031 32.1127 9.64456 32.1127C10.6534 32.1127 11.3394 31.4267 11.3394 30.4178C11.3394 29.0458 11.3394 27.7141 11.3394 26.3421C11.3394 25.3736 10.6534 24.6472 9.68491 24.6472C8.39359 24.6472 6.9812 24.6472 5.56882 24.6472ZM9.80597 28.4001V28.9651C9.80597 29.409 9.80597 29.8932 9.80597 30.3371C9.80597 30.4582 9.76562 30.4985 9.76562 30.4985C9.76562 30.4985 9.72527 30.5389 9.64456 30.5389C8.9989 30.5389 8.35323 30.5389 7.70757 30.5389C7.02156 30.5389 6.37589 30.5389 5.68988 30.5389C5.60917 30.5389 5.56882 30.5389 5.56882 30.4985C5.56882 30.4582 5.52846 30.4582 5.52846 30.3775C5.52846 29.0458 5.52846 27.7545 5.52846 26.4228C5.52846 26.3421 5.52846 26.3017 5.56882 26.2614C5.56882 26.2614 5.64952 26.221 5.73023 26.221C7.02156 26.221 8.35323 26.221 9.64456 26.221C9.76562 26.221 9.80597 26.2614 9.80597 26.2614C9.80597 26.2614 9.84633 26.3017 9.84633 26.4228C9.84633 26.907 9.84633 27.3509 9.84633 27.8352L9.80597 28.4001Z" fill="white"/>
<path d="M19.5715 20.0065C19.5715 20.5715 19.8944 20.9347 20.3786 20.9347C20.8629 20.9347 21.1857 20.5715 21.1857 20.0065V19.7241C21.1857 18.6749 21.1857 17.6257 21.1857 16.5765C21.1857 15.5676 20.4997 14.8816 19.4908 14.8816C18.1188 14.8816 16.7871 14.8816 15.4151 14.8816C14.4062 14.8816 13.7202 15.5676 13.7202 16.5765C13.7202 17.0607 13.7202 17.5853 13.7202 18.0695V18.5941V19.2398C13.7202 19.7241 13.7202 20.2083 13.7202 20.6926C13.7202 21.1364 13.922 21.5803 14.2448 21.8628C14.5273 22.1453 14.9308 22.3067 15.294 22.3067H15.3344C15.7783 22.3067 16.0607 22.0242 16.1414 21.6207C16.2222 21.1768 15.9397 20.8136 15.4958 20.7329C15.3344 20.6926 15.294 20.6926 15.294 20.4504C15.294 19.5626 15.294 18.7152 15.294 17.8274V16.6572C15.294 16.4957 15.294 16.4554 15.294 16.4554C15.294 16.4554 15.3747 16.4554 15.4958 16.4554C16.7871 16.4554 18.0381 16.4554 19.3294 16.4554C19.4908 16.4554 19.5312 16.4554 19.5312 16.4554C19.5312 16.4554 19.5312 16.5361 19.5312 16.6975V17.8678C19.5715 18.5941 19.5715 19.3205 19.5715 20.0065Z" fill="white"/>
<path d="M17.2714 30.5389C16.6257 30.5389 16.0204 30.5389 15.4958 30.5389C15.3747 30.5389 15.3344 30.4985 15.3344 30.4985C15.3344 30.4985 15.294 30.4582 15.294 30.3371C15.294 29.8529 15.294 29.409 15.294 28.9247V28.3598V27.7141C15.294 27.2702 15.294 26.786 15.294 26.3421C15.294 26.0596 15.2133 25.8175 15.0519 25.6561C14.8905 25.535 14.7291 25.4543 14.4869 25.4543C14.0027 25.4543 13.7202 25.8175 13.7202 26.3017V26.6649C13.7202 27.9159 13.7202 29.2072 13.7202 30.4582C13.7202 31.346 14.4062 32.032 15.3344 32.032C15.6572 32.032 15.98 32.032 16.3029 32.032C16.6257 32.032 16.9485 32.032 17.2714 31.9916C17.5538 31.9916 17.8363 31.8302 17.9574 31.6284C18.1188 31.3863 18.1591 31.1442 18.0381 30.9021C17.8767 30.7003 17.5942 30.5389 17.2714 30.5389Z" fill="white"/>
<path d="M25.6248 28.1984C26.1091 28.1984 26.6337 28.1984 27.1179 28.1984C27.6021 28.1984 28.046 28.1984 28.4899 28.1984C28.7321 28.1984 28.9338 28.0773 29.0952 27.9159C29.2163 27.7545 29.297 27.5124 29.2567 27.2702C29.1759 26.8667 28.8531 26.6246 28.4092 26.6246C27.925 26.6246 27.4004 26.6246 26.9161 26.6246H26.5126V24.163C26.5126 23.6787 26.5126 23.1945 26.5126 22.7506C26.5126 22.2664 26.1898 21.9032 25.7055 21.9032C25.4634 21.9032 25.302 21.9839 25.1406 22.1049C24.9791 22.2664 24.8984 22.5085 24.8984 22.7506C24.8984 24.284 24.8984 25.8578 24.8984 27.3913C24.8984 27.8755 25.1809 28.1984 25.6248 28.1984Z" fill="white"/>
</svg>
