<svg width="38" height="39" viewBox="0 0 38 39" fill="none" xmlns="http://www.w3.org/2000/svg">
<path d="M0 16.4827C0.368616 9.52184 3.50614 4.33549 9.87548 1.44657C18.9537 -2.67678 29.5579 2.38097 32.2925 11.9736C32.9183 14.1767 33.064 16.4141 32.7725 18.6772C32.7382 18.9344 32.8068 19.0544 33.0211 19.1916C35.6786 20.8203 37.2816 23.1692 37.8474 26.2381C38.8161 31.5702 35.0614 36.9623 29.7293 37.871C25.4259 38.6082 21.4569 36.808 19.1852 33.0961C19.048 32.8647 18.9109 32.7961 18.6365 32.8218C13.1759 33.4562 8.48674 31.8274 4.6377 27.9012C2.2717 25.4923 0.840101 22.5777 0.282891 19.243C0.128587 18.3343 0.0942971 17.3999 0 16.4827ZM30.2865 18.0343C30.9637 13.0623 28.5034 6.94152 22.6656 4.00117C17.385 1.33513 10.6041 2.47527 6.55793 6.73578C2.14312 11.3906 1.29444 18.0086 4.45768 23.495C7.54377 28.8356 13.3302 30.9701 18.0107 30.3186C17.2649 26.6839 18.0622 23.4435 20.6939 20.7861C23.3428 18.1029 26.5918 17.2971 30.2865 18.0343ZM20.291 27.8755C20.2996 32.1446 23.6857 35.5307 27.9291 35.5221C32.0182 35.5135 35.4643 32.0503 35.4643 27.9612C35.4557 23.7093 32.0439 20.2888 27.8262 20.2888C23.7029 20.2888 20.2824 23.735 20.291 27.8755Z" fill="white"/>
<path d="M17.745 11.4506C17.745 13.0794 17.7365 14.7082 17.7536 16.3369C17.7536 16.7913 17.6165 17.1685 17.2993 17.4942C15.6619 19.1316 14.0332 20.7689 12.3958 22.4062C11.83 22.972 11.0842 22.9892 10.5613 22.4748C10.047 21.969 10.0641 21.1632 10.6213 20.5975C12.0272 19.1744 13.4331 17.7514 14.8647 16.3541C15.1562 16.0712 15.259 15.7797 15.259 15.3854C15.2505 12.3679 15.2505 9.35895 15.259 6.34144C15.259 5.68994 15.7219 5.18416 16.3392 5.09844C16.9649 5.02129 17.5479 5.39847 17.7108 6.00712C17.7536 6.15285 17.7536 6.31573 17.7536 6.47003C17.7365 8.14166 17.7365 9.79615 17.745 11.4506Z" fill="white"/>
<path d="M26.6089 29.187C25.3401 29.187 24.1314 29.1956 22.9141 29.187C22.2283 29.187 21.714 28.7927 21.5854 28.2012C21.3968 27.3697 21.9883 26.641 22.8798 26.6325C23.9514 26.6239 25.0229 26.6325 26.0945 26.6325C26.2488 26.6325 26.4031 26.6325 26.6089 26.6325C26.6089 25.5952 26.6089 24.5836 26.6089 23.5807C26.6089 23.3063 26.5917 23.0406 26.6174 22.7663C26.6774 22.0719 27.2346 21.5576 27.8947 21.5747C28.5805 21.5833 29.1292 22.1405 29.1377 22.8434C29.1463 23.9321 29.1463 25.0123 29.1463 26.101C29.1463 26.2553 29.1463 26.4096 29.1463 26.6325C29.3177 26.6325 29.4635 26.6325 29.6178 26.6325C30.6722 26.6325 31.7352 26.6325 32.7896 26.6325C33.6297 26.6325 34.2041 27.1554 34.2041 27.9097C34.2126 28.647 33.6211 29.187 32.7896 29.187C31.5895 29.187 30.3979 29.187 29.1463 29.187C29.1463 29.4271 29.1463 29.6328 29.1463 29.8386C29.1463 30.8672 29.1549 31.8959 29.1463 32.9246C29.1463 33.6704 28.6062 34.2362 27.9119 34.2448C27.2175 34.2534 26.6431 33.7133 26.626 32.9761C26.5917 31.7331 26.6089 30.4901 26.6089 29.187Z" fill="white"/>
</svg>
