<svg width="34" height="35" viewBox="0 0 34 35" fill="none" xmlns="http://www.w3.org/2000/svg">
<path d="M5.2098 2.20346C5.2098 1.7908 5.20243 1.4371 5.2098 1.08339C5.22453 0.464407 5.6593 0.0149052 6.23407 0.00753635C6.80884 0.00753635 7.24361 0.457038 7.25834 1.08339C7.26571 1.4371 7.25834 1.7908 7.25834 2.17399C7.92891 2.17399 8.57 2.17399 9.27005 2.17399C9.27005 1.79817 9.25531 1.4371 9.27005 1.06865C9.29215 0.538095 9.55743 0.199127 10.029 0.0517496C10.427 -0.0735213 10.8617 0.0517496 11.0975 0.412825C11.2228 0.604415 11.2891 0.862326 11.3186 1.09813C11.3554 1.44447 11.326 1.80554 11.326 2.18135C15.1136 2.18135 18.8643 2.18135 22.6667 2.18135C22.6667 1.9824 22.6667 1.80554 22.6667 1.62869C22.6667 0.50862 22.9909 0.00753635 23.7057 0.0149052C24.4205 0.0222741 24.7226 0.515989 24.7226 1.6508C24.7226 1.82028 24.7226 1.98976 24.7226 2.18135C25.3932 2.18135 26.0416 2.18135 26.7343 2.18135C26.7343 1.79817 26.7195 1.4371 26.7343 1.06865C26.7564 0.604415 26.9554 0.24334 27.4196 0.0738562C27.8396 -0.0808902 28.2228 0.00753634 28.4881 0.339136C28.6502 0.545464 28.7386 0.840219 28.7755 1.1055C28.827 1.45184 28.7902 1.80554 28.7902 2.21083C29.4313 2.21083 30.0282 2.20346 30.6251 2.21083C32.0325 2.23294 33.0789 2.88877 33.661 4.15621C33.8821 4.62782 33.9705 5.19523 33.9779 5.72578C34 9.90394 33.9926 14.0747 33.9926 18.2529C33.9926 22.5121 33.9853 26.7713 34 31.0379C34 32.0106 33.8526 32.9169 33.1894 33.6833C32.5262 34.457 31.6788 34.8623 30.6766 34.8697C28.0459 34.8844 25.4226 34.8771 22.7919 34.8771C16.3589 34.8771 9.91851 34.8771 3.48548 34.8771C1.45904 34.8771 0.0147378 33.4696 0.00736888 31.4432C0 26.3807 0.00736888 21.3257 0 16.2633C0.0221066 12.7483 0.0294755 9.24811 0.0147378 5.74789C0.00736888 3.64039 1.45904 2.18135 3.57391 2.20346C4.0971 2.20346 4.62029 2.20346 5.2098 2.20346ZM2.06329 10.7735C2.06329 10.9503 2.06329 11.0977 2.06329 11.2451C2.06329 16.0127 2.06329 20.773 2.05592 25.5407C2.05592 27.4787 2.04855 29.4241 2.05592 31.3621C2.05592 32.2611 2.57174 32.799 3.41916 32.799C12.4166 32.799 21.4213 32.799 30.4187 32.799C31.4651 32.799 31.9441 32.3127 31.9441 31.2589C31.9441 24.568 31.9441 17.8771 31.9441 11.1861C31.9441 11.0535 31.9441 10.9208 31.9441 10.7808C21.9814 10.7735 12.0481 10.7735 2.06329 10.7735ZM2.09276 8.66597C12.0555 8.66597 21.9887 8.66597 31.9441 8.66597C31.9441 7.58274 31.9588 6.52162 31.9367 5.46787C31.922 4.90784 31.4946 4.34781 30.9788 4.30359C30.264 4.24464 29.5418 4.28885 28.7902 4.28885C28.7902 4.67204 28.8418 5.04785 28.7755 5.40155C28.7165 5.69631 28.5765 6.0058 28.3702 6.2195C28.0975 6.49952 27.6996 6.50689 27.3385 6.3374C26.9406 6.15318 26.7564 5.82158 26.7417 5.39419C26.7269 5.01837 26.7417 4.64256 26.7417 4.26675C26.0342 4.26675 25.4005 4.26675 24.73 4.26675C24.73 4.62782 24.7373 4.96679 24.73 5.30576C24.7226 5.96896 24.3026 6.42583 23.713 6.42583C23.1014 6.42583 22.6814 5.97633 22.674 5.29839C22.6667 4.95942 22.674 4.62045 22.674 4.27412C18.8643 4.27412 15.1209 4.27412 11.3333 4.27412C11.3333 4.66467 11.3849 5.04048 11.3186 5.39419C11.2596 5.68894 11.1196 5.99843 10.9133 6.21213C10.6407 6.49952 10.2427 6.49952 9.88166 6.33003C9.46901 6.13844 9.29215 5.7921 9.27742 5.35734C9.26268 4.99627 9.27742 4.63519 9.27742 4.26675C8.57737 4.26675 7.94365 4.26675 7.27308 4.26675C7.27308 4.62782 7.30256 4.97416 7.26571 5.31313C7.23624 5.57104 7.15518 5.84369 7.01517 6.05738C6.7941 6.39635 6.31513 6.50689 5.92458 6.38161C5.52666 6.25634 5.24664 5.89527 5.22453 5.4384C5.2098 5.04785 5.22453 4.66467 5.22453 4.27412C5.08452 4.25938 5.01084 4.25201 4.94452 4.25201C4.39185 4.25201 3.83918 4.23727 3.28652 4.25938C2.66016 4.28149 2.15171 4.70151 2.12224 5.3205C2.05592 6.4332 2.09276 7.53853 2.09276 8.66597Z" fill="white"/>
<path d="M25.1647 21.8121C25.1132 26.3071 21.4435 29.962 17.0148 29.9399C12.5492 29.9252 8.85742 26.3513 8.85742 21.7605C8.85742 17.2507 12.5787 13.6031 17.0148 13.6179C21.5024 13.6252 25.1574 17.2802 25.1647 21.8121ZM16.9927 27.884C20.2644 27.943 23.0499 25.1944 23.1088 21.8489C23.1678 18.5255 20.456 15.7401 17.0958 15.6738C13.7282 15.6075 10.9428 18.3045 10.9133 21.7457C10.8912 25.1723 13.6325 27.8619 16.9927 27.884Z" fill="white"/>
<path d="M16.1748 22.1952C16.8527 21.5173 17.4717 20.8909 18.0907 20.2646C18.4223 19.933 18.7465 19.6014 19.0781 19.2772C19.5423 18.8277 20.1687 18.8129 20.5887 19.2256C21.0161 19.6382 21.0014 20.2572 20.5298 20.7288C19.3581 21.9152 18.1791 23.1016 16.9927 24.2733C16.4843 24.7817 15.9095 24.7743 15.401 24.2659C14.7526 23.6248 14.1115 22.9837 13.4778 22.3352C13.0061 21.8563 12.9767 21.252 13.3893 20.8246C13.8167 20.3825 14.4431 20.3972 14.9221 20.8836C15.3494 21.3036 15.7474 21.7384 16.1748 22.1952Z" fill="white"/>
</svg>
