<svg width="22" height="23" viewBox="0 0 22 23" fill="none" xmlns="http://www.w3.org/2000/svg">
<path d="M10.9996 0.105469C10.5442 0.105469 10.1074 0.286374 9.78542 0.608388C9.46341 0.930401 9.2825 1.36715 9.2825 1.82254V10.4079C9.2825 10.8633 9.46341 11.3 9.78542 11.6221C10.1074 11.9441 10.5442 12.125 10.9996 12.125C11.455 12.125 11.8917 11.9441 12.2137 11.6221C12.5357 11.3 12.7166 10.8633 12.7166 10.4079V1.82254C12.7166 1.36715 12.5357 0.930401 12.2137 0.608388C11.8917 0.286374 11.455 0.105469 10.9996 0.105469ZM4.85589 2.33251C4.6082 2.3638 4.37495 2.46641 4.18451 2.62785C2.87877 3.65723 1.82372 4.96956 1.09887 6.46595C0.374027 7.96234 -0.00170128 9.60374 5.79089e-06 11.2664C5.79089e-06 17.326 4.93831 22.2669 10.9996 22.2669C17.0608 22.2669 22 17.326 22 11.2664C22 7.76962 20.3671 4.64112 17.8146 2.62699C17.6825 2.52129 17.5308 2.44266 17.3683 2.39557C17.2058 2.34848 17.0356 2.33387 16.8674 2.35257C16.6992 2.37126 16.5364 2.4229 16.3882 2.50453C16.2399 2.58616 16.1093 2.69618 16.0036 2.82832C15.8979 2.96045 15.8192 3.11212 15.7721 3.27464C15.725 3.43717 15.7104 3.60738 15.7291 3.77555C15.7478 3.94373 15.7995 4.10657 15.8811 4.25479C15.9627 4.40301 16.0727 4.5337 16.2049 4.6394C17.2089 5.4276 18.0205 6.43383 18.5782 7.58195C19.136 8.73007 19.4254 9.99001 19.4244 11.2664C19.4271 12.3736 19.2111 13.4703 18.7886 14.4937C18.3662 15.5171 17.7457 16.4469 16.9629 17.2297C16.18 18.0126 15.2502 18.6331 14.2268 19.0555C13.2035 19.4779 12.1067 19.694 10.9996 19.6913C9.89245 19.694 8.7957 19.4779 7.77232 19.0555C6.74895 18.6331 5.81913 18.0126 5.03627 17.2297C4.25341 16.4469 3.63295 15.5171 3.21052 14.4937C2.7881 13.4703 2.57204 12.3736 2.57476 11.2664C2.57404 9.99005 2.86349 8.7302 3.42125 7.58212C3.979 6.43404 4.79045 5.42777 5.79427 4.6394C6.02163 4.46863 6.18608 4.2274 6.26196 3.95336C6.33784 3.67932 6.32088 3.38787 6.21374 3.12447C6.1066 2.86108 5.91529 2.64055 5.66966 2.49729C5.42404 2.35402 5.1379 2.29609 4.85589 2.33251Z" fill="#EB0910"/>
</svg>
