<svg width="26" height="29" viewBox="0 0 26 29" fill="none" xmlns="http://www.w3.org/2000/svg">
<path d="M20.375 9.20831C20.375 7.15288 19.5585 5.18164 18.1051 3.72824C16.6517 2.27483 14.6804 1.45831 12.625 1.45831C10.5696 1.45831 8.59833 2.27483 7.14492 3.72824C5.69152 5.18164 4.875 7.15288 4.875 9.20831C4.875 18.25 1 20.8333 1 20.8333H24.25C24.25 20.8333 20.375 18.25 20.375 9.20831Z" stroke="#848484" stroke-width="2" stroke-linecap="round" stroke-linejoin="round"/>
<path d="M14.8595 26C14.6325 26.3915 14.3065 26.7164 13.9143 26.9423C13.5222 27.1682 13.0775 27.2871 12.625 27.2871C12.1724 27.2871 11.7278 27.1682 11.3356 26.9423C10.9434 26.7164 10.6175 26.3915 10.3904 26" stroke="#848484" stroke-width="2" stroke-linecap="round" stroke-linejoin="round"/>
</svg>
