<svg width="44" height="44" viewBox="0 0 44 44" fill="none" xmlns="http://www.w3.org/2000/svg">
<path fill-rule="evenodd" clip-rule="evenodd" d="M22 0C9.85 0 0 9.85 0 22C0 34.15 9.85 44 22 44C34.15 44 44 34.15 44 22C44 9.85 34.15 0 22 0ZM21 10C20.4696 10 19.9609 10.2107 19.5858 10.5858C19.2107 10.9609 19 11.4696 19 12C19 12.5304 19.2107 13.0391 19.5858 13.4142C19.9609 13.7893 20.4696 14 21 14H22C22.5304 14 23.0391 13.7893 23.4142 13.4142C23.7893 13.0391 24 12.5304 24 12C24 11.4696 23.7893 10.9609 23.4142 10.5858C23.0391 10.2107 22.5304 10 22 10H21ZM18 18C17.4696 18 16.9609 18.2107 16.5858 18.5858C16.2107 18.9609 16 19.4696 16 20C16 20.5304 16.2107 21.0391 16.5858 21.4142C16.9609 21.7893 17.4696 22 18 22H20V28H18C17.4696 28 16.9609 28.2107 16.5858 28.5858C16.2107 28.9609 16 29.4696 16 30C16 30.5304 16.2107 31.0391 16.5858 31.4142C16.9609 31.7893 17.4696 32 18 32H26C26.5304 32 27.0391 31.7893 27.4142 31.4142C27.7893 31.0391 28 30.5304 28 30C28 29.4696 27.7893 28.9609 27.4142 28.5858C27.0391 28.2107 26.5304 28 26 28H24V20C24 19.4696 23.7893 18.9609 23.4142 18.5858C23.0391 18.2107 22.5304 18 22 18H18Z" fill="#F37540"/>
</svg>
