<svg width="33" height="33" viewBox="0 0 33 33" fill="none" xmlns="http://www.w3.org/2000/svg">
<path d="M9.42857 14.1429V9.42857H23.5714V14.1429H9.42857ZM33 5.89286C33 4.32997 32.3791 2.8311 31.274 1.72598C30.1689 0.620853 28.67 0 27.1071 0H5.89286C4.32997 0 2.8311 0.620853 1.72598 1.72598C0.620853 2.8311 0 4.32997 0 5.89286V27.1071C0 28.67 0.620853 30.1689 1.72598 31.274C2.8311 32.3791 4.32997 33 5.89286 33H27.1071C28.67 33 30.1689 32.3791 31.274 31.274C32.3791 30.1689 33 28.67 33 27.1071V5.89286ZM8.25 7.07143H24.75C25.0626 7.07143 25.3624 7.1956 25.5834 7.41662C25.8044 7.63765 25.9286 7.93742 25.9286 8.25V15.3214C25.9286 15.634 25.8044 15.9338 25.5834 16.1548C25.3624 16.3758 25.0626 16.5 24.75 16.5H8.25C7.93742 16.5 7.63765 16.3758 7.41662 16.1548C7.1956 15.9338 7.07143 15.634 7.07143 15.3214V8.25C7.07143 7.93742 7.1956 7.63765 7.41662 7.41662C7.63765 7.1956 7.93742 7.07143 8.25 7.07143Z" fill="#F37540"/>
</svg>
