<svg xmlns="http://www.w3.org/2000/svg" width="22" height="22" viewBox="0 0 22 22" fill="none">
<path d="M11 0C8.82441 0 6.69767 0.645138 4.88873 1.85383C3.07979 3.06253 1.66989 4.78049 0.83733 6.79048C0.00476609 8.80047 -0.213071 11.0122 0.211367 13.146C0.635804 15.2798 1.68345 17.2398 3.22183 18.7782C4.76021 20.3165 6.72022 21.3642 8.85401 21.7886C10.9878 22.2131 13.1995 21.9952 15.2095 21.1627C17.2195 20.3301 18.9375 18.9202 20.1462 17.1113C21.3549 15.3023 22 13.1756 22 11C22 8.08262 20.8411 5.28472 18.7782 3.22182C16.7153 1.15893 13.9174 0 11 0ZM11 20.625C9.09636 20.625 7.23546 20.0605 5.65264 19.0029C4.06982 17.9453 2.83616 16.4421 2.10766 14.6833C1.37917 12.9246 1.18856 10.9893 1.55995 9.12225C1.93133 7.25519 2.84802 5.54018 4.1941 4.1941C5.54018 2.84802 7.25519 1.93132 9.12226 1.55994C10.9893 1.18856 12.9246 1.37917 14.6833 2.10766C16.4421 2.83615 17.9453 4.06981 19.0029 5.65263C20.0605 7.23546 20.625 9.09635 20.625 11C20.625 13.5527 19.6109 16.0009 17.8059 17.8059C16.0009 19.6109 13.5527 20.625 11 20.625Z" fill="#FE3E36"/>
<path d="M15.125 10.3125H6.875C6.69266 10.3125 6.5178 10.3849 6.38886 10.5139C6.25993 10.6428 6.1875 10.8177 6.1875 11C6.1875 11.1823 6.25993 11.3572 6.38886 11.4861C6.5178 11.6151 6.69266 11.6875 6.875 11.6875H15.125C15.3073 11.6875 15.4822 11.6151 15.6111 11.4861C15.7401 11.3572 15.8125 11.1823 15.8125 11C15.8125 10.8177 15.7401 10.6428 15.6111 10.5139C15.4822 10.3849 15.3073 10.3125 15.125 10.3125Z" fill="#FE3E36"/>
</svg>