<svg xmlns="http://www.w3.org/2000/svg" width="44" height="44" viewBox="0 0 44 44" fill="none">
<path d="M22 0C17.6488 0 13.3953 1.29028 9.77746 3.70767C6.15958 6.12506 3.33979 9.56099 1.67466 13.581C0.00953218 17.6009 -0.426141 22.0244 0.422734 26.292C1.27161 30.5596 3.3669 34.4796 6.44366 37.5563C9.52041 40.6331 13.4404 42.7284 17.708 43.5773C21.9756 44.4261 26.3991 43.9905 30.419 42.3253C34.439 40.6602 37.8749 37.8404 40.2923 34.2225C42.7097 30.6047 44 26.3512 44 22C44 16.1652 41.6822 10.5694 37.5564 6.44365C33.4306 2.31785 27.8348 0 22 0ZM32.5188 29.6862C31.1438 33.8112 27.555 34.9662 24.4063 35.1862V37.9362C24.4063 38.3921 24.2252 38.8293 23.9028 39.1516C23.5805 39.4739 23.1433 39.655 22.6875 39.655C22.2317 39.655 21.7945 39.4739 21.4722 39.1516C21.1498 38.8293 20.9688 38.3921 20.9688 37.9362V35.1862C17.8113 34.8902 14.8164 33.6491 12.375 31.625C12.2098 31.4706 12.0766 31.2852 11.983 31.0793C11.8895 30.8735 11.8374 30.6512 11.8297 30.4252C11.8221 30.1992 11.859 29.9739 11.9384 29.7622C12.0178 29.5505 12.1381 29.3565 12.2925 29.1912C12.4469 29.026 12.6323 28.8928 12.8382 28.7993C13.044 28.7057 13.2663 28.6536 13.4923 28.6459C13.7183 28.6383 13.9436 28.6752 14.1553 28.7546C14.367 28.834 14.561 28.9544 14.7263 29.1087C16.5258 30.5579 18.691 31.4811 20.9825 31.7762V23.1412C19.1564 22.8599 17.4093 22.1995 15.8538 21.2025C14.5461 20.3824 13.5672 19.1299 13.0874 17.6628C12.6076 16.1957 12.6572 14.6068 13.2275 13.1725C14.0388 11.0962 16.555 8.73125 20.9825 8.34625V5.84375C20.9825 5.38791 21.1636 4.95074 21.4859 4.62841C21.8082 4.30608 22.2454 4.125 22.7013 4.125C23.1571 4.125 23.5943 4.30608 23.9166 4.62841C24.2389 4.95074 24.42 5.38791 24.42 5.84375V8.40125C26.8779 8.67354 29.2111 9.62588 31.1575 11.1512C31.4273 11.4687 31.5726 11.8732 31.5664 12.2897C31.5603 12.7063 31.4031 13.1064 31.124 13.4157C30.845 13.725 30.4631 13.9224 30.0494 13.9712C29.6358 14.0201 29.2184 13.917 28.875 13.6812C27.5621 12.7211 26.0313 12.1021 24.42 11.88V20.3087C25.245 20.4875 26.125 20.68 27.0463 20.9687C28.1119 21.2345 29.1118 21.7156 29.9844 22.3824C30.857 23.0493 31.5838 23.8878 32.12 24.8462C32.8858 26.3439 33.0291 28.0834 32.5188 29.6862Z" fill="#F37540"/>
<path d="M26.015 24.2543C25.465 24.0893 24.9287 23.9518 24.4062 23.8418V31.7618C27.1562 31.4868 28.6275 30.5243 29.26 28.5993C29.4708 27.8753 29.397 27.0982 29.0537 26.4268C28.7182 25.8799 28.2764 25.4059 27.7544 25.0327C27.2325 24.6596 26.641 24.3949 26.015 24.2543Z" fill="#F37540"/>
<path d="M16.4175 14.4096C16.1306 15.1224 16.1118 15.9151 16.3646 16.6407C16.6174 17.3663 17.1247 17.9757 17.7925 18.3559C18.7646 18.9787 19.8477 19.4082 20.9825 19.6209V11.7559C18.095 12.0996 16.7612 13.5296 16.4175 14.4096Z" fill="#F37540"/>
</svg>