<svg xmlns="http://www.w3.org/2000/svg" width="44" height="42" viewBox="0 0 44 42" fill="none">
<path d="M29.5 27.6667C29.5 25.6408 23.7543 24 16.6667 24M29.5 27.6667C29.5 29.6925 23.7543 31.3333 16.6667 31.3333C9.579 31.3333 3.83333 29.6925 3.83333 27.6667M29.5 27.6667V36.7178C29.5 38.806 23.7543 40.5 16.6667 40.5C9.579 40.5 3.83333 38.8078 3.83333 36.7178V27.6667M29.5 27.6667C36.5107 27.6667 42.3333 25.8572 42.3333 24V5.66667M16.6667 24C9.579 24 3.83333 25.6408 3.83333 27.6667M16.6667 24C8.567 24 2 22.1905 2 20.3333V11.1667M16.6667 7.5C8.567 7.5 2 9.14083 2 11.1667M2 11.1667C2 13.1925 8.567 14.8333 16.6667 14.8333C16.6667 16.6905 22.6305 18.5 29.6412 18.5C36.65 18.5 42.3333 16.6905 42.3333 14.8333M42.3333 5.66667C42.3333 3.64083 36.65 2 29.6412 2C22.6305 2 16.949 3.64083 16.949 5.66667M42.3333 5.66667C42.3333 7.6925 36.65 9.33333 29.6412 9.33333C22.6323 9.33333 16.949 7.6925 16.949 5.66667M16.949 5.66667V24.3043" stroke="#F37540" stroke-width="3"/>
</svg>