<svg xmlns="http://www.w3.org/2000/svg" width="47" height="44" viewBox="0 0 47 44" fill="none">
<path d="M4.63158 0C2.06105 0 0 2.06105 0 4.63158V27.7895C0 29.0178 0.487968 30.1959 1.35656 31.0645C2.22515 31.9331 3.40321 32.4211 4.63158 32.4211H23.1579V44L30.1053 37.0526L37.0526 44V32.4211H41.6842C42.9126 32.4211 44.0906 31.9331 44.9592 31.0645C45.8278 30.1959 46.3158 29.0178 46.3158 27.7895V4.63158C46.3158 3.40321 45.8278 2.22515 44.9592 1.35656C44.0906 0.487968 42.9126 0 41.6842 0H4.63158ZM23.1579 4.63158L30.1053 9.26316L37.0526 4.63158V12.7368L44 16.2105L37.0526 19.6842V27.7895L30.1053 23.1579L23.1579 27.7895V19.6842L16.2105 16.2105L23.1579 12.7368V4.63158ZM4.63158 4.63158H16.2105V9.26316H4.63158V4.63158ZM4.63158 13.8947H11.5789V18.5263H4.63158V13.8947ZM4.63158 23.1579H16.2105V27.7895H4.63158V23.1579Z" fill="#F37540"/>
</svg>