<svg xmlns="http://www.w3.org/2000/svg" width="44" height="44" viewBox="0 0 44 44" fill="none">
<path d="M12.2222 39.1111C10.2773 39.1111 8.41204 38.3385 7.03677 36.9632C5.66151 35.588 4.88889 33.7227 4.88889 31.7778V12.2222C4.88889 10.2773 5.66151 8.41204 7.03677 7.03677C8.41204 5.66151 10.2773 4.88889 12.2222 4.88889C12.8705 4.88889 13.4923 4.63135 13.9507 4.17293C14.4091 3.7145 14.6667 3.09275 14.6667 2.44444C14.6667 1.79614 14.4091 1.17438 13.9507 0.715961C13.4923 0.257539 12.8705 0 12.2222 0C8.98069 0 5.87192 1.28769 3.57981 3.57981C1.28769 5.87192 0 8.98069 0 12.2222V31.7778C0 35.0193 1.28769 38.1281 3.57981 40.4202C5.87192 42.7123 8.98069 44 12.2222 44C12.8705 44 13.4923 43.7425 13.9507 43.284C14.4091 42.8256 14.6667 42.2039 14.6667 41.5556C14.6667 40.9072 14.4091 40.2855 13.9507 39.8271C13.4923 39.3686 12.8705 39.1111 12.2222 39.1111ZM31.0689 31.0689C31.298 30.8416 31.4799 30.5713 31.604 30.2734C31.7281 29.9755 31.792 29.656 31.792 29.3333C31.792 29.0106 31.7281 28.6911 31.604 28.3933C31.4799 28.0954 31.298 27.825 31.0689 27.5978L25.4467 22L31.0689 16.4022C31.5292 15.9419 31.7878 15.3176 31.7878 14.6667C31.7878 14.0157 31.5292 13.3914 31.0689 12.9311C30.6086 12.4708 29.9843 12.2122 29.3333 12.2122C28.6824 12.2122 28.0581 12.4708 27.5978 12.9311L22 18.5533L16.4022 12.9311C15.9419 12.4708 15.3176 12.2122 14.6667 12.2122C14.0157 12.2122 13.3914 12.4708 12.9311 12.9311C12.4708 13.3914 12.2122 14.0157 12.2122 14.6667C12.2122 15.3176 12.4708 15.9419 12.9311 16.4022L18.5533 22L12.9311 27.5978C12.702 27.825 12.5201 28.0954 12.396 28.3933C12.2719 28.6911 12.208 29.0106 12.208 29.3333C12.208 29.656 12.2719 29.9755 12.396 30.2734C12.5201 30.5713 12.702 30.8416 12.9311 31.0689C13.1584 31.298 13.4287 31.4799 13.7266 31.604C14.0245 31.7281 14.344 31.792 14.6667 31.792C14.9894 31.792 15.3089 31.7281 15.6067 31.604C15.9046 31.4799 16.175 31.298 16.4022 31.0689L22 25.4467L27.5978 31.0689C27.825 31.298 28.0954 31.4799 28.3933 31.604C28.6911 31.7281 29.0106 31.792 29.3333 31.792C29.656 31.792 29.9755 31.7281 30.2734 31.604C30.5713 31.4799 30.8416 31.298 31.0689 31.0689ZM31.7778 0C31.1295 0 30.5077 0.257539 30.0493 0.715961C29.5909 1.17438 29.3333 1.79614 29.3333 2.44444C29.3333 3.09275 29.5909 3.7145 30.0493 4.17293C30.5077 4.63135 31.1295 4.88889 31.7778 4.88889C33.7227 4.88889 35.588 5.66151 36.9632 7.03677C38.3385 8.41204 39.1111 10.2773 39.1111 12.2222V31.7778C39.1111 33.7227 38.3385 35.588 36.9632 36.9632C35.588 38.3385 33.7227 39.1111 31.7778 39.1111C31.1295 39.1111 30.5077 39.3686 30.0493 39.8271C29.5909 40.2855 29.3333 40.9072 29.3333 41.5556C29.3333 42.2039 29.5909 42.8256 30.0493 43.284C30.5077 43.7425 31.1295 44 31.7778 44C35.0193 44 38.1281 42.7123 40.4202 40.4202C42.7123 38.1281 44 35.0193 44 31.7778V12.2222C44 8.98069 42.7123 5.87192 40.4202 3.57981C38.1281 1.28769 35.0193 0 31.7778 0Z" fill="#F37540"/>
</svg>