<svg width="51" height="41" viewBox="0 0 51 41" fill="none" xmlns="http://www.w3.org/2000/svg">
<path d="M25.5 20.4L6.477 12.801L7.65 40.8H2.55L3.774 11.7045L0 10.2L25.5 0L51 10.2L25.5 20.4ZM25.5 7.65C24.0975 7.65 22.95 8.211 22.95 8.925C22.95 9.639 24.0975 10.2 25.5 10.2C26.9025 10.2 28.05 9.639 28.05 8.925C28.05 8.211 26.9025 7.65 25.5 7.65ZM25.5 22.95L39.7035 17.2635C41.514 19.6605 42.7635 22.542 43.1715 25.6785C42.4065 25.5765 41.616 25.5 40.8 25.5C34.2975 25.5 28.611 28.9935 25.5 34.1955C23.9209 31.5454 21.6807 29.3508 18.9987 27.8265C16.3167 26.3023 13.2849 25.5006 10.2 25.5C9.384 25.5 8.5935 25.5765 7.8285 25.6785C8.2365 22.542 9.486 19.6605 11.2965 17.2635L25.5 22.95Z" fill="#F37540"/>
</svg>
