<svg width="52" height="44" viewBox="0 0 52 44" fill="none" xmlns="http://www.w3.org/2000/svg">
<path d="M25.6769 0C24.7145 -1.43416e-08 23.7614 0.189568 22.8723 0.557881C21.9831 0.926194 21.1751 1.46604 20.4946 2.14659C19.814 2.82715 19.2742 3.63508 18.9059 4.52427C18.5376 5.41345 18.348 6.36648 18.348 7.32892C18.348 8.29137 18.5376 9.2444 18.9059 10.1336C19.2742 11.0228 19.814 11.8307 20.4946 12.5113C21.1751 13.1918 21.9831 13.7317 22.8723 14.1C23.7614 14.4683 24.7145 14.6578 25.6769 14.6578C27.6207 14.6578 29.4848 13.8857 30.8592 12.5113C32.2337 11.1368 33.0058 9.27268 33.0058 7.32892C33.0058 5.38517 32.2337 3.52103 30.8592 2.14659C29.4848 0.772152 27.6207 0 25.6769 0ZM42.1835 3.66079C40.7242 3.66079 39.3247 4.24049 38.2929 5.27235C37.261 6.30421 36.6813 7.70372 36.6813 9.16299C36.6813 10.6223 37.261 12.0218 38.2929 13.0536C39.3247 14.0855 40.7242 14.6652 42.1835 14.6652C43.6428 14.6652 45.0423 14.0855 46.0741 13.0536C47.106 12.0218 47.6857 10.6223 47.6857 9.16299C47.6857 7.70372 47.106 6.30421 46.0741 5.27235C45.0423 4.24049 43.6428 3.66079 42.1835 3.66079ZM9.17033 3.66079C7.71105 3.66079 6.31155 4.24049 5.27969 5.27235C4.24782 6.30421 3.66813 7.70372 3.66813 9.16299C3.66813 10.6223 4.24782 12.0218 5.27969 13.0536C6.31155 14.0855 7.71105 14.6652 9.17033 14.6652C10.6296 14.6652 12.0291 14.0855 13.061 13.0536C14.0928 12.0218 14.6725 10.6223 14.6725 9.16299C14.6725 7.70372 14.0928 6.30421 13.061 5.27235C12.0291 4.24049 10.6296 3.66079 9.17033 3.66079ZM14.6725 21.9758C14.6793 21.0074 15.0688 20.081 15.7559 19.3986C16.4431 18.7162 17.3722 18.3333 18.3407 18.3333H33.0132C33.986 18.3333 34.919 18.7198 35.6069 19.4077C36.2948 20.0956 36.6813 21.0286 36.6813 22.0014V33.0058C36.6811 34.1603 36.5004 35.3076 36.1458 36.4062C35.3335 38.8958 33.6604 41.0142 31.4268 42.3812C29.1931 43.7482 26.5454 44.2741 23.9589 43.8645C21.3724 43.4549 19.0166 42.1367 17.3146 40.1465C15.6126 38.1563 14.6758 35.6245 14.6725 33.0058V21.9758ZM11.0044 22.0014C11.0044 20.6626 11.3602 19.4117 11.9875 18.3333H3.66813C2.69528 18.3333 1.76228 18.7198 1.07437 19.4077C0.386463 20.0956 5.07718e-07 21.0286 5.07718e-07 22.0014V31.1718C-0.000499041 32.6732 0.367642 34.1517 1.07209 35.4776C1.77655 36.8034 2.79576 37.936 4.04023 38.7759C5.2847 39.6158 6.71636 40.1374 8.20948 40.2947C9.7026 40.452 11.2115 40.2403 12.6037 39.6782C11.5479 37.6114 10.9997 35.3229 11.0044 33.0022V22.0014ZM40.3494 22.0014V33.0058C40.3494 35.4085 39.7735 37.6754 38.7501 39.6782C40.1423 40.2403 41.6512 40.452 43.1443 40.2947C44.6375 40.1374 46.0691 39.6158 47.3136 38.7759C48.5581 37.936 49.5773 36.8034 50.2817 35.4776C50.9862 34.1517 51.3543 32.6732 51.3538 31.1718V22.0014C51.3538 21.0286 50.9674 20.0956 50.2794 19.4077C49.5915 18.7198 48.6585 18.3333 47.6857 18.3333H39.3664C39.99 19.4117 40.3494 20.6626 40.3494 22.0014Z" fill="#F37540"/>
</svg>
