<svg xmlns="http://www.w3.org/2000/svg" width="34" height="46" viewBox="0 0 34 46" fill="none">
<path d="M6.8 0C3.05469 0 0 3.17909 0 7.07692V38.9231C0 42.8209 3.05469 46 6.8 46H27.2C30.9453 46 34 42.8209 34 38.9231V14.1538C34 12.274 32.3465 10.491 29.3781 7.46394C28.9664 7.04237 28.5215 6.57242 28.1031 6.13702C27.6848 5.70162 27.2332 5.29387 26.8281 4.86538C23.9195 1.77614 22.2063 0 20.4 0H6.8ZM6.8 3.53846H19.1781C20.4066 3.86328 20.4 5.39754 20.4 6.96635V12.3846C20.4 13.3591 21.1637 14.1538 22.1 14.1538H27.2C28.8934 14.1538 30.6 14.1608 30.6 15.9231V38.9231C30.6 40.8789 29.0793 42.4615 27.2 42.4615H6.8C4.92734 42.4615 3.4 40.8789 3.4 38.9231V7.07692C3.4 5.12801 4.92734 3.53846 6.8 3.53846ZM8.5 14.1538V17.6923H18.7V14.1538H8.5ZM8.5 21.2308V24.7692H25.5V21.2308H8.5ZM13.0688 27.8654C11.9266 27.8654 11.0367 28.6118 10.4125 29.5793C9.78828 30.5469 9.40312 31.8116 9.40312 33.1731C9.40312 34.3203 9.70195 35.5436 10.3594 36.601C10.4391 36.7254 10.5852 36.8083 10.6781 36.9327C10.366 37.223 9.775 37.8726 9.775 37.8726C9.32344 38.2251 9.22383 38.8954 9.5625 39.3654C9.90117 39.8353 10.5453 39.939 10.9969 39.5865C10.9969 39.5865 11.8004 38.7296 12.3781 38.2043C12.75 38.3633 13.1086 38.5913 13.5469 38.5913C16.0637 38.5913 17.6906 37.1608 18.6469 35.8822C18.9191 35.5228 19.0453 35.2533 19.2313 34.9423C19.2977 35.1566 19.4172 35.3501 19.4969 35.5505C19.5566 35.7025 19.5898 35.8684 19.7094 36.0481C19.8289 36.2278 20.0813 36.6562 20.7188 36.6562C21.3895 36.6562 21.7613 36.3314 22.1531 36.0481C22.5449 35.7647 22.9434 35.4192 23.3219 35.1082C24.0789 34.4931 24.7961 34.0577 25.3406 34.0577C25.9117 34.0577 26.3766 33.5739 26.3766 32.9796C26.3766 32.3852 25.9117 31.9014 25.3406 31.9014C23.9328 31.9014 22.8836 32.7722 22.0469 33.4495C21.6883 33.7398 21.4027 33.9678 21.1438 34.1683C21.1172 34.0853 21.1172 34.037 21.0906 33.9471C20.9844 33.6154 20.8781 33.2353 20.7188 32.8966C20.6391 32.7239 20.5063 32.5856 20.3469 32.399C20.1875 32.2124 19.9219 31.9014 19.4438 31.9014C18.7863 31.9014 18.5406 32.3023 18.3813 32.5096C18.2219 32.7169 18.0824 32.9519 17.9563 33.1731C17.7039 33.6154 17.425 34.1199 17.0531 34.6106C16.3891 35.5021 15.4793 36.1794 13.9719 36.3245C14.9746 34.8939 15.9375 33.1523 15.9375 31.0168C15.9375 30.3119 15.7715 29.5586 15.3 28.9159C14.8285 28.2731 13.9918 27.8654 13.0688 27.8654ZM13.0688 29.9663C13.4938 29.9663 13.6066 30.0493 13.7063 30.1875C13.8059 30.3257 13.8656 30.6298 13.8656 31.0168C13.8656 32.6271 13.0289 34.1614 12.1125 35.3846C11.7141 34.7212 11.4219 33.8365 11.4219 33.1731C11.4219 32.2263 11.7406 31.3762 12.1125 30.7957C12.4844 30.2151 12.8629 29.9663 13.0688 29.9663Z" fill="#F37540"/>
</svg>