<svg width="41" height="45" viewBox="0 0 41 45" fill="none" xmlns="http://www.w3.org/2000/svg">
<path d="M13.5 17.1592L20.25 14.6279L27 17.1592V22.4129C26.9997 23.6665 26.6504 24.8953 25.9911 25.9615C25.3318 27.0278 24.3886 27.8893 23.2673 28.4497L20.25 29.9594L17.2305 28.4519C16.1089 27.8909 15.1657 27.0285 14.5067 25.9614C13.8478 24.8944 13.4992 23.6648 13.5 22.4107V17.1592Z" fill="#F37540"/>
<path fill-rule="evenodd" clip-rule="evenodd" d="M21.8295 0.28631C20.8111 -0.0954368 19.6889 -0.0954368 18.6705 0.28631L2.9205 6.19256C2.06256 6.51416 1.32323 7.08998 0.801344 7.84306C0.279459 8.59613 -0.000114071 9.49057 3.49151e-08 10.4068V22.4736C-8.10713e-05 26.2343 1.04708 29.9207 3.02416 33.1198C5.00123 36.3189 7.83009 38.9042 11.1937 40.5861L18.7403 44.3571C19.209 44.5915 19.7259 44.7136 20.25 44.7136C20.7741 44.7136 21.291 44.5915 21.7597 44.3571L29.3062 40.5838C32.6699 38.9019 35.4988 36.3166 37.4758 33.1175C39.4529 29.9185 40.5001 26.232 40.5 22.4713V10.4091C40.5001 9.49282 40.2205 8.59839 39.6987 7.84531C39.1768 7.09223 38.4374 6.51641 37.5795 6.19481L21.8295 0.288561V0.28631ZM21.4358 10.2651C20.6713 9.97819 19.8287 9.97819 19.0642 10.2651L11.1892 13.2171C10.5459 13.4585 9.9916 13.8905 9.60039 14.4554C9.20918 15.0203 8.99971 15.6912 9 16.3783V22.4083C8.99965 24.4979 9.5813 26.5463 10.6797 28.3239C11.7782 30.1015 13.35 31.5381 15.219 32.4726L18.9923 34.3581C19.3828 34.5533 19.8134 34.655 20.25 34.655C20.6866 34.655 21.1172 34.5533 21.5077 34.3581L25.281 32.4726C27.1497 31.5383 28.7213 30.1021 29.8197 28.3249C30.9181 26.5477 31.4999 24.4998 31.5 22.4106V16.3783C31.5003 15.6912 31.2908 15.0203 30.8996 14.4554C30.5084 13.8905 29.9541 13.4585 29.3108 13.2171L21.4358 10.2651Z" fill="#F37540"/>
</svg>
