<svg width="44" height="40" viewBox="0 0 44 40" fill="none" xmlns="http://www.w3.org/2000/svg">
<path d="M37.6812 0.357178C39.2352 0.357178 40.7255 0.974503 41.8244 2.07335C42.9232 3.1722 43.5405 4.66255 43.5405 6.21655V10.1228H39.6343V33.5603C39.6343 35.1143 39.017 36.6047 37.9181 37.7035C36.8193 38.8024 35.3289 39.4197 33.7749 39.4197H6.43115C4.87715 39.4197 3.38679 38.8024 2.28795 37.7035C1.1891 36.6047 0.571777 35.1143 0.571777 33.5603V29.6541H31.8218V33.5603C31.8218 34.0387 31.9975 34.5004 32.3154 34.8579C32.6333 35.2154 33.0713 35.4438 33.5464 35.4998L33.7749 35.5134C34.2533 35.5134 34.715 35.3377 35.0725 35.0198C35.43 34.702 35.6584 34.2639 35.7144 33.7888L35.728 33.5603V4.26343H10.3374C9.85902 4.26349 9.39729 4.43912 9.0398 4.75701C8.68231 5.0749 8.45392 5.51294 8.39795 5.98804L8.38428 6.21655V25.7478H4.47803V6.21655C4.47803 4.66255 5.09535 3.1722 6.1942 2.07335C7.29305 0.974503 8.7834 0.357178 10.3374 0.357178H37.6812Z" fill="#F37540"/>
<path d="M14.6918 11.518C14.4875 11.5151 14.2846 11.5528 14.095 11.629C13.9054 11.7052 13.7328 11.8183 13.5873 11.9618C13.4418 12.1053 13.3263 12.2762 13.2474 12.4648C13.1685 12.6533 13.1279 12.8556 13.1279 13.0599C13.1279 13.2643 13.1685 13.4666 13.2474 13.6551C13.3263 13.8436 13.4418 14.0146 13.5873 14.158C13.7328 14.3015 13.9054 14.4146 14.095 14.4908C14.2846 14.567 14.4875 14.6047 14.6918 14.6019H23.9435C24.1478 14.6047 24.3507 14.567 24.5403 14.4908C24.7299 14.4146 24.9025 14.3015 25.048 14.158C25.1935 14.0146 25.309 13.8436 25.3879 13.6551C25.4668 13.4666 25.5074 13.2643 25.5074 13.0599C25.5074 12.8556 25.4668 12.6533 25.3879 12.4648C25.309 12.2762 25.1935 12.1053 25.048 11.9618C24.9025 11.8183 24.7299 11.7052 24.5403 11.629C24.3507 11.5528 24.1478 11.5151 23.9435 11.518H14.6918ZM30.1112 11.518C29.7023 11.518 29.3101 11.6804 29.0209 11.9696C28.7318 12.2588 28.5693 12.651 28.5693 13.0599C28.5693 13.4689 28.7318 13.8611 29.0209 14.1502C29.3101 14.4394 29.7023 14.6019 30.1112 14.6019C30.5202 14.6019 30.9124 14.4394 31.2016 14.1502C31.4907 13.8611 31.6532 13.4689 31.6532 13.0599C31.6532 12.651 31.4907 12.2588 31.2016 11.9696C30.9124 11.6804 30.5202 11.518 30.1112 11.518ZM14.6918 18.7137C14.4875 18.7108 14.2846 18.7486 14.095 18.8248C13.9054 18.9009 13.7328 19.0141 13.5873 19.1575C13.4418 19.301 13.3263 19.472 13.2474 19.6605C13.1685 19.849 13.1279 20.0513 13.1279 20.2556C13.1279 20.46 13.1685 20.6623 13.2474 20.8508C13.3263 21.0393 13.4418 21.2103 13.5873 21.3537C13.7328 21.4972 13.9054 21.6103 14.095 21.6865C14.2846 21.7627 14.4875 21.8005 14.6918 21.7976H23.9435C24.1478 21.8005 24.3507 21.7627 24.5403 21.6865C24.7299 21.6103 24.9025 21.4972 25.048 21.3537C25.1935 21.2103 25.309 21.0393 25.3879 20.8508C25.4668 20.6623 25.5074 20.46 25.5074 20.2556C25.5074 20.0513 25.4668 19.849 25.3879 19.6605C25.309 19.472 25.1935 19.301 25.048 19.1575C24.9025 19.0141 24.7299 18.9009 24.5403 18.8248C24.3507 18.7486 24.1478 18.7108 23.9435 18.7137H14.6918ZM30.1112 18.7137C29.7023 18.7137 29.3101 18.8762 29.0209 19.1653C28.7318 19.4545 28.5693 19.8467 28.5693 20.2556C28.5693 20.6646 28.7318 21.0568 29.0209 21.346C29.3101 21.6351 29.7023 21.7976 30.1112 21.7976C30.5202 21.7976 30.9124 21.6351 31.2016 21.346C31.4907 21.0568 31.6532 20.6646 31.6532 20.2556C31.6532 19.8467 31.4907 19.4545 31.2016 19.1653C30.9124 18.8762 30.5202 18.7137 30.1112 18.7137Z" fill="#F37540"/>
</svg>
