<svg width="45" height="48" viewBox="0 0 45 48" fill="none" xmlns="http://www.w3.org/2000/svg">
<path d="M22.5 24C24.8962 24 27.2386 23.2962 29.2309 21.9776C31.2233 20.6591 32.7762 18.7849 33.6932 16.5922C34.6101 14.3995 34.8501 11.9867 34.3826 9.65892C33.9151 7.33115 32.7612 5.19295 31.0669 3.51472C29.3725 1.83649 27.2138 0.693605 24.8636 0.230582C22.5134 -0.232441 20.0774 0.0051994 17.8636 0.913451C15.6498 1.8217 13.7577 3.35977 12.4264 5.33316C11.0952 7.30655 10.3846 9.62663 10.3846 12C10.3846 15.1826 11.6611 18.2348 13.9331 20.4853C16.2052 22.7357 19.2868 24 22.5 24ZM22.5 27.4286C14.9906 27.4286 0 32.0229 0 41.1429V48H45V41.1429C45 32.0229 30.0094 27.4286 22.5 27.4286Z" fill="#F37540"/>
</svg>
