
<svg width="39" height="37" viewBox="0 0 39 37" fill="none" xmlns="http://www.w3.org/2000/svg">
<path d="M35.0645 13.6316V11.6842L23.3763 0H3.89605C1.73374 0 0 1.73316 0 3.89474V31.1579C0 32.1908 0.410476 33.1815 1.14113 33.9119C1.87178 34.6423 2.86276 35.0526 3.89605 35.0526H15.5842V31.4111L31.9282 15.0726C32.7853 14.2158 33.8762 13.7484 35.0645 13.6316ZM21.4283 2.92105L32.1424 13.6316H21.4283V2.92105ZM38.6683 21.7911L36.7593 23.6995L32.7853 19.7268L34.6943 17.8184C35.0645 17.4289 35.7073 17.4289 36.0969 17.8184L38.6683 20.3889C39.0579 20.7784 39.0579 21.4211 38.6683 21.7911ZM31.4217 21.09L35.3956 25.0626L23.4542 37H19.4803V33.0274L31.4217 21.09Z" fill="#F37540"/>
</svg>
