<svg width="41" height="43" viewBox="0 0 41 43" fill="none" xmlns="http://www.w3.org/2000/svg">
<path d="M24.5714 2.04762C24.5714 3.17849 23.6547 4.09524 22.5238 4.09524H14.3333C13.2025 4.09524 12.2857 3.17849 12.2857 2.04762C12.2857 0.91675 13.2025 0 14.3333 0H22.5238C23.6547 0 24.5714 0.91675 24.5714 2.04762ZM20.4762 36.8571C20.4762 38.9662 21.0086 40.9524 21.93 42.6519C20.8038 42.8771 19.6367 43 18.4286 43C13.541 43 8.85363 41.0584 5.3976 37.6024C1.94158 34.1464 0 29.459 0 24.5714C0 19.6839 1.94158 14.9965 5.3976 11.5405C8.85363 8.08443 13.541 6.14286 18.4286 6.14286C22.7695 6.14286 26.7624 7.6581 29.9362 10.2381L32.8438 7.28952C33.8881 8.19048 34.8095 9.13238 35.7309 10.1767L32.8233 13.0843C35.4358 16.3428 36.8587 20.3949 36.8571 24.5714V25.2881C35.5467 24.8376 34.1952 24.5714 32.7619 24.5714C25.9843 24.5714 20.4762 30.0795 20.4762 36.8571ZM20.4762 12.2857H16.381V26.619H20.4762V12.2857Z" fill="#F37540"/>
<path d="M39.3061 33.1635L39.3177 36.4418L34.3946 36.4302L34.4061 41.3534H31.1163L31.1279 36.4302L26.2048 36.4418L26.2163 33.1635L31.1279 33.1635L31.1279 28.252H34.3946L34.3946 33.1635L39.3061 33.1635Z" fill="#F37540"/>
</svg>
