<svg width="50" height="48" viewBox="0 0 50 48" fill="none" xmlns="http://www.w3.org/2000/svg">
<path d="M48.8051 26.3438L46.0478 29.1011L40.3952 23.4485L43.1526 20.6912C43.4361 20.4133 43.8172 20.2577 44.2142 20.2577C44.6111 20.2577 44.9922 20.4133 45.2757 20.6912L48.8051 24.2206C49.3842 24.7996 49.3842 25.7647 48.8051 26.3438ZM22.0588 41.7574L38.7684 25.0478L44.421 30.7004L27.739 47.4375H22.0588V41.7574ZM22.0588 28.136C9.87132 28.136 0 33.0717 0 39.1654V44.6801H16.5441V39.4688L27.5735 28.4393C25.7537 28.2187 23.9062 28.136 22.0588 28.136ZM22.0588 0.5625C19.1336 0.5625 16.3283 1.72452 14.2599 3.79294C12.1914 5.86135 11.0294 8.66673 11.0294 11.5919C11.0294 14.5171 12.1914 17.3225 14.2599 19.3909C16.3283 21.4593 19.1336 22.6213 22.0588 22.6213C24.984 22.6213 27.7894 21.4593 29.8578 19.3909C31.9262 17.3225 33.0882 14.5171 33.0882 11.5919C33.0882 8.66673 31.9262 5.86135 29.8578 3.79294C27.7894 1.72452 24.984 0.5625 22.0588 0.5625Z" fill="#F37540"/>
</svg>
