<svg width="49" height="50" viewBox="0 0 49 50" fill="none" xmlns="http://www.w3.org/2000/svg">
<path d="M14.584 2.67855C14.584 2.20495 14.3959 1.75074 14.061 1.41585C13.7261 1.08096 13.2719 0.892822 12.7983 0.892822C12.3247 0.892822 11.8705 1.08096 11.5356 1.41585C11.2007 1.75074 11.0126 2.20495 11.0126 2.67855V6.44048C7.58397 6.71429 5.33634 7.38573 3.68394 9.0405C2.02917 10.6929 1.35774 12.9429 1.08154 16.3691H48.3248C48.0486 12.9405 47.3771 10.6929 45.7224 9.0405C44.07 7.38573 41.8199 6.71429 38.3937 6.4381V2.67855C38.3937 2.20495 38.2056 1.75074 37.8707 1.41585C37.5358 1.08096 37.0816 0.892822 36.608 0.892822C36.1344 0.892822 35.6802 1.08096 35.3453 1.41585C35.0104 1.75074 34.8223 2.20495 34.8223 2.67855V6.28096C33.2389 6.25001 31.4627 6.25001 29.4651 6.25001H19.9412C17.9436 6.25001 16.1674 6.25001 14.584 6.28096V2.67855Z" fill="#F37540"/>
<path fill-rule="evenodd" clip-rule="evenodd" d="M0.893066 25.2976C0.893066 23.3 0.893066 21.5238 0.924019 19.9404H48.4815C48.5125 21.5238 48.5125 23.3 48.5125 25.2976V30.0596C48.5125 39.0382 48.5125 43.5287 45.722 46.3168C42.9339 49.1073 38.4434 49.1073 29.4647 49.1073H19.9408C10.9622 49.1073 6.47168 49.1073 3.68356 46.3168C0.893066 43.5287 0.893066 39.0382 0.893066 30.0596V25.2976ZM36.6076 30.0596C37.2391 30.0596 37.8447 29.8087 38.2912 29.3622C38.7377 28.9157 38.9886 28.3101 38.9886 27.6786C38.9886 27.0471 38.7377 26.4415 38.2912 25.995C37.8447 25.5485 37.2391 25.2976 36.6076 25.2976C35.9762 25.2976 35.3705 25.5485 34.924 25.995C34.4775 26.4415 34.2267 27.0471 34.2267 27.6786C34.2267 28.3101 34.4775 28.9157 34.924 29.3622C35.3705 29.8087 35.9762 30.0596 36.6076 30.0596ZM36.6076 39.5834C37.2391 39.5834 37.8447 39.3326 38.2912 38.8861C38.7377 38.4395 38.9886 37.8339 38.9886 37.2025C38.9886 36.571 38.7377 35.9654 38.2912 35.5189C37.8447 35.0723 37.2391 34.8215 36.6076 34.8215C35.9762 34.8215 35.3705 35.0723 34.924 35.5189C34.4775 35.9654 34.2267 36.571 34.2267 37.2025C34.2267 37.8339 34.4775 38.4395 34.924 38.8861C35.3705 39.3326 35.9762 39.5834 36.6076 39.5834ZM27.0837 27.6786C27.0837 28.3101 26.8329 28.9157 26.3864 29.3622C25.9399 29.8087 25.3342 30.0596 24.7028 30.0596C24.0713 30.0596 23.4657 29.8087 23.0192 29.3622C22.5727 28.9157 22.3218 28.3101 22.3218 27.6786C22.3218 27.0471 22.5727 26.4415 23.0192 25.995C23.4657 25.5485 24.0713 25.2976 24.7028 25.2976C25.3342 25.2976 25.9399 25.5485 26.3864 25.995C26.8329 26.4415 27.0837 27.0471 27.0837 27.6786ZM27.0837 37.2025C27.0837 37.8339 26.8329 38.4395 26.3864 38.8861C25.9399 39.3326 25.3342 39.5834 24.7028 39.5834C24.0713 39.5834 23.4657 39.3326 23.0192 38.8861C22.5727 38.4395 22.3218 37.8339 22.3218 37.2025C22.3218 36.571 22.5727 35.9654 23.0192 35.5189C23.4657 35.0723 24.0713 34.8215 24.7028 34.8215C25.3342 34.8215 25.9399 35.0723 26.3864 35.5189C26.8329 35.9654 27.0837 36.571 27.0837 37.2025ZM12.7979 30.0596C13.4294 30.0596 14.035 29.8087 14.4815 29.3622C14.928 28.9157 15.1789 28.3101 15.1789 27.6786C15.1789 27.0471 14.928 26.4415 14.4815 25.995C14.035 25.5485 13.4294 25.2976 12.7979 25.2976C12.1664 25.2976 11.5608 25.5485 11.1143 25.995C10.6678 26.4415 10.4169 27.0471 10.4169 27.6786C10.4169 28.3101 10.6678 28.9157 11.1143 29.3622C11.5608 29.8087 12.1664 30.0596 12.7979 30.0596ZM12.7979 39.5834C13.4294 39.5834 14.035 39.3326 14.4815 38.8861C14.928 38.4395 15.1789 37.8339 15.1789 37.2025C15.1789 36.571 14.928 35.9654 14.4815 35.5189C14.035 35.0723 13.4294 34.8215 12.7979 34.8215C12.1664 34.8215 11.5608 35.0723 11.1143 35.5189C10.6678 35.9654 10.4169 36.571 10.4169 37.2025C10.4169 37.8339 10.6678 38.4395 11.1143 38.8861C11.5608 39.3326 12.1664 39.5834 12.7979 39.5834Z" fill="#F37540"/>
</svg>
