<svg xmlns="http://www.w3.org/2000/svg" width="8.988" height="11.984" viewBox="0 0 8.988 11.984">
  <g id="print" transform="translate(-1.631 -0.008)">
    <g id="excel" transform="translate(-62.368 0.008)">
      <g id="Group_184" data-name="Group 184" transform="translate(64 0)">
        <g id="Group_183" data-name="Group 183" transform="translate(0)">
          <path id="Path_41" data-name="Path 41" d="M72.968,3.15a.249.249,0,0,0-.054-.081l-3-3A.251.251,0,0,0,69.742,0H64.25A.25.25,0,0,0,64,.25V11.734a.25.25,0,0,0,.25.25h8.489a.25.25,0,0,0,.25-.25V3.246A.25.25,0,0,0,72.968,3.15ZM69.992.852,72.136,3H69.992Zm2.5,10.632H64.5V.5h4.993V3.246a.25.25,0,0,0,.25.25h2.746v7.989Z" transform="translate(-64 0)" fill="#0e223d"/>
          <path id="Path_42" data-name="Path 42" d="M128,170.916v5.992a.25.25,0,0,0,.25.25h5.493a.25.25,0,0,0,.25-.25v-5.992a.25.25,0,0,0-.25-.25H128.25A.25.25,0,0,0,128,170.916Zm4.494.25h1v1h-1Zm0,1.5h1v1h-1Zm0,1.5h1v1h-1Zm0,1.5h1v1h-1Zm-2.5-4.494h2v1h-2Zm0,1.5h2v1h-2Zm0,1.5h2v1h-2Zm0,1.5h2v1h-2Zm-1.5-4.494h1v1h-1Zm0,1.5h1v1h-1Zm0,1.5h1v1h-1Zm0,1.5h1v1h-1Z" transform="translate(-126.502 -166.671)" fill="#0e223d"/>
        </g>
      </g>
    </g>
  </g>
</svg>
