<svg xmlns="http://www.w3.org/2000/svg" width="24.605" height="24.799" viewBox="0 0 24.605 24.799">
  <g id="settings" transform="translate(-2)">
    <g id="Group_6" data-name="Group 6" transform="translate(9.48 7.577)">
      <g id="Group_5" data-name="Group 5">
        <path id="Path_2" data-name="Path 2" d="M180.822,176a4.822,4.822,0,1,0,4.822,4.822A4.828,4.828,0,0,0,180.822,176Zm0,7.234a2.411,2.411,0,1,1,2.411-2.411A2.414,2.414,0,0,1,180.822,183.234Z" transform="translate(-176 -176)" fill="#fff"/>
      </g>
    </g>
    <g id="Group_8" data-name="Group 8" transform="translate(2)">
      <g id="Group_7" data-name="Group 7" transform="translate(0)">
        <path id="Path_3" data-name="Path 3" d="M26.225,15.288l-2.508-1.922a9.132,9.132,0,0,0,0-1.933l2.508-1.922A.969.969,0,0,0,26.47,8.25L24.041,4.134a.969.969,0,0,0-1.189-.409L19.876,4.9a9.467,9.467,0,0,0-1.739-.985L17.69.83A.969.969,0,0,0,16.731,0H11.873a.969.969,0,0,0-.959.83l-.447,3.082A9.47,9.47,0,0,0,8.729,4.9L5.752,3.725a.969.969,0,0,0-1.189.409L2.134,8.25a.969.969,0,0,0,.245,1.261l2.508,1.922a9.131,9.131,0,0,0,0,1.933L2.379,15.288a.969.969,0,0,0-.245,1.261l2.429,4.116a.969.969,0,0,0,1.189.409L8.729,19.9a9.469,9.469,0,0,0,1.739.985l.447,3.082a.969.969,0,0,0,.959.83h4.858a.969.969,0,0,0,.959-.83l.447-3.082a9.466,9.466,0,0,0,1.739-.985l2.976,1.172a.969.969,0,0,0,1.189-.409l2.429-4.116A.969.969,0,0,0,26.225,15.288Zm-3.432,3.681L20.078,17.9a.969.969,0,0,0-.965.149,7.546,7.546,0,0,1-2.185,1.236.969.969,0,0,0-.628.772l-.407,2.806H12.711L12.3,20.056a.969.969,0,0,0-.628-.772,7.549,7.549,0,0,1-2.185-1.236.969.969,0,0,0-.965-.149L5.812,18.968,4.239,16.3l2.275-1.743a.969.969,0,0,0,.365-.934,7.218,7.218,0,0,1,0-2.456.969.969,0,0,0-.365-.934L4.239,8.5,5.812,5.83,8.526,6.9a.969.969,0,0,0,.965-.149,7.549,7.549,0,0,1,2.185-1.236.969.969,0,0,0,.628-.772l.407-2.806h3.181L16.3,4.743a.969.969,0,0,0,.628.772A7.549,7.549,0,0,1,19.113,6.75a.969.969,0,0,0,.965.149L22.793,5.83,24.365,8.5l-2.275,1.743a.969.969,0,0,0-.365.934,7.218,7.218,0,0,1,0,2.456.969.969,0,0,0,.365.934L24.365,16.3Z" transform="translate(-2)" fill="#fff"/>
      </g>
    </g>
  </g>
</svg>
