<?xml version="1.0"?>
<svg width="1000" height="550" xmlns="http://www.w3.org/2000/svg" xmlns:svg="http://www.w3.org/2000/svg" version="1.1" xml:space="preserve">
 <style type="text/css">.st0{fill:#ED1820;}</style>
 <g class="layer">
  <title>Layer 1</title>
  <g class="layer" id="svg_1">
   <g id="svg_2">
    <path class="st0" d="m472.5,0.14c91,-1.56 182.3,10.19 270.8,40.18c51.9,18.39 103.3,42.87 149.7,81.35c17.8,15 34.8,32.4 49.4,53.33c11.7,17.26 21.8,37.07 27.6,59.7c6.4,23.77 7,50.65 1.3,74.84c-5.8,25.61 -17,48.38 -30.6,67.06c-11.5,15.7 -24,29.85 -37.5,41.88c-33.3,30.42 -70.3,51.78 -107.9,69.32c-57.2,25.89 -116.4,41.73 -176,51.35c-33.6,5.09 -67.3,8.63 -101,9.2c-18.7,1.13 -37.4,1.27 -56,0c-35,-0.42 -70,-4.39 -104.8,-9.62c-50.2,-8.06 -100.2,-20.65 -148.9,-39.89c-36.6,-14.71 -72.6,-32.96 -106.4,-57.86c-19.8,-14.71 -38.9,-31.69 -55.8,-52.49c-15.1,-19.24 -29,-41.31 -36.8,-68.19c-4.3,-15 -6.9,-31.26 -6.8,-47.53c0.8,-29.14 9.2,-57.3 22,-80.07c14.8,-25.89 33.2,-47.25 53.1,-64.79c43.2,-38.06 91.5,-62.67 140.4,-81.49c82.9,-31.12 168.7,-44.28 254.2,-46.26l0,-0.02zm-35.7,28.72c-43.3,2.69 -86.6,8.21 -129.3,18.39c-43.6,9.76 -86.8,23.77 -128.8,43.57c-28.6,14.15 -56.8,30.56 -82.7,52.77c-16.1,13.72 -31.6,29.43 -44.3,49.09c-13.7,20.23 -24.5,45.98 -26.1,74.41c-1.7,33.67 10.4,65.78 26.6,89.27c16.3,25.04 36.9,43.29 57.9,59.56c23.5,17.4 48.2,31.41 73.4,43.29c46.5,21.64 94.5,35.93 143,45.55c37.1,7.64 74.5,12.02 111.9,14.57c48.7,2.12 97.5,1.98 146,-3.54c62.8,-6.93 125.5,-20.37 186.2,-44.56c40.1,-16.27 79.7,-36.64 115.6,-67.06c14.1,-11.46 27,-25.61 38.8,-41.17c14.8,-20.09 27,-45.41 30.4,-74.55c1.6,-17.68 0.3,-36.22 -5,-52.49c-6.9,-23.77 -19.3,-43.15 -32.8,-59.7c-31.4,-37.77 -69.7,-61.82 -108.1,-81.63c-49.3,-24.33 -100.5,-40.32 -152.1,-50.79c-73.1,-15.14 -147,-19.1 -220.6,-15l0,0.02z" id="svg_3"/>
   </g>
   <g id="svg_4">
    <path class="st0" d="m149.8,122.09c26.3,-0.14 52.7,-0.14 79,0c-6.1,69.6 -12.8,139.21 -18.9,208.81c31.7,-69.46 63.2,-139.35 94.9,-208.81c54.4,-0.28 108.9,-0.42 163.4,0.14c-3.4,13.44 -7.3,26.74 -11.1,40.04c-0.5,2.12 -2.5,1.84 -3.8,1.84c-14.7,0 -29.4,0 -44,0c-3.8,0 -7.6,0.42 -11.3,-0.85c-9.2,27.73 -16.3,56.73 -25.3,84.6c19.9,0.57 39.8,0 59.6,0.14c-3.7,11.18 -7,22.64 -10.7,33.81c-19.6,0.57 -39.2,0.28 -58.7,0.14c-9,30.7 -18.1,61.4 -27,92.24c-1.6,6.51 -4.1,12.73 -5.4,19.38c28.9,-0.28 57.9,0 86.8,-0.28c1.3,-3.68 2.8,-7.21 4.5,-10.61c39.9,-86.58 79.2,-173.87 119.3,-260.45c15,-0.28 30,-0.14 45,0c-1.1,38.48 -3,76.82 -4.2,115.16c-2.3,51.92 -3.9,103.98 -6.2,155.9c4.2,0 8.5,0.28 12.7,0c1.3,-1.27 1.5,-3.54 2.1,-5.38c17.1,-55.74 33.5,-111.76 50.7,-167.36c9.6,-32.96 19.6,-65.64 29.7,-98.18c18,-0.57 36.1,0 54.1,-0.42c-1.6,31.41 -3.3,62.81 -4.9,94.22c-0.5,14.57 -1.9,29.14 -1.7,43.71c5.6,-12.87 12.5,-24.47 18.7,-36.78c17.5,-32.96 35,-65.78 52.2,-99.03c0.9,-2.55 3.1,-1.98 4.8,-2.12c17.8,0 35.5,0 53.3,0.14c-8.4,29 -16.8,58.14 -24.9,87.29c-10.1,34.66 -20,69.32 -29.7,104.12c-11,37.77 -21.7,75.69 -32.5,113.74c-13,0.57 -26.1,0.14 -39.1,0.14c-5.4,-0.28 -10.9,0.28 -16.3,-0.99c14.4,-46.4 27.6,-93.65 41.9,-140.2c0.7,-1.98 1,-4.24 1.3,-6.37c-14.5,28.44 -29.7,56.02 -44.4,84.17c-9.3,17.4 -18.5,35.08 -27.8,52.34c-2.2,3.54 -3.8,8.06 -6.5,10.89c-8.9,0.57 -17.9,0 -26.8,0c1.9,-40.18 4.4,-80.35 6.3,-120.67c0.5,-9.62 1.4,-19.1 1,-28.72c-2,4.1 -2.7,9.34 -4.2,13.86c-13.5,45.27 -27.6,90.26 -41.2,135.53c-23.4,0.14 -46.9,0.14 -70.3,0c-3.5,0 -7.1,0.28 -10.5,-0.99c0.2,-9.2 0.9,-18.39 1,-27.45c0.2,-13.72 1.4,-27.3 1.2,-41.03c-7.7,-1.27 -15.8,-0.14 -23.6,-0.57c-12,0.57 -24,-0.28 -36.1,0c-1.2,-0.14 -2.2,0.42 -2.8,1.84c-10,22.21 -20,44.42 -30.2,66.49c-0.9,2.55 -3.2,1.56 -4.9,1.98c-19.4,0 -38.7,-0.14 -58.1,0c-36.4,-0.14 -72.7,0.57 -109.1,-0.28c0.4,-0.14 1.1,-0.71 1.5,-0.85c16.6,-55.03 32.7,-110.49 49.3,-165.52c9.2,-32.4 19.1,-64.37 28.4,-96.62c-7.9,0.14 -15.8,0 -23.7,0.14c-20,47.53 -41,94.08 -61.1,141.61c-11.8,27.59 -23.9,54.89 -35.7,82.34c-5.4,12.87 -11.4,25.18 -16.4,38.34c-4.3,1.41 -8.8,0.99 -13.2,1.13c-19.6,-0.14 -39.2,0.14 -58.8,0c-0.2,-10.19 0.9,-20.23 1.4,-30.42c5.4,-86.72 10.5,-173.44 15.8,-260.16c0.3,-5.38 0.4,-10.33 1.2,-15.14l0,0.03zm371,111.76c-12.4,27.3 -24.8,54.47 -37.3,81.77c-0.8,1.7 -1.7,3.4 -1.9,5.52c15.4,-0.14 30.8,-0.14 46.1,0c1.5,-37.35 3.4,-74.7 4.6,-112.04c-4.3,7.64 -7.4,16.69 -11.5,24.76l0,-0.01z" id="svg_5"/>
   </g>
  </g>
 </g>
</svg>