<svg width="24" height="22" viewBox="0 0 24 22" fill="none" xmlns="http://www.w3.org/2000/svg">
<path fill-rule="evenodd" clip-rule="evenodd" d="M11.1935 4.09508C10.6503 2.1732 8.84909 1.87753 7.34807 2.94195C5.80417 4.03595 4.7749 6.40134 5.30383 8.29365C5.84705 10.2155 7.64827 10.5112 9.1493 9.46156C10.6932 8.36757 11.7225 5.98739 11.1935 4.09508Z" fill="#F37540"/>
<path fill-rule="evenodd" clip-rule="evenodd" d="M5.3322 21.7172C5.9469 21.1702 6.76175 20.6528 7.41934 20.2093L8.70592 19.3814C10.5643 15.6411 13.066 12.1374 15.6964 8.94413C18.098 6.00217 20.8999 2.92717 23.9592 0.709617L23.4445 0C20.1709 1.78883 17.1688 4.22813 14.467 6.84484C11.6222 9.60939 9.00612 12.6696 6.90469 16.0699L6.81893 16.1881L6.21852 14.8872C5.77536 13.941 4.54595 11.4426 3.30225 11.4426C2.05855 11.4426 0.872022 12.3592 0 13.2314C0.771954 13.5123 1.41525 14.0445 1.92988 14.695C2.73043 15.6707 3.37373 17.0012 3.88836 18.1691L4.37441 19.2631C4.68891 20.0467 5.07488 20.9189 5.3322 21.7172Z" fill="#F37540"/>
</svg>
