<svg xmlns="http://www.w3.org/2000/svg" width="14.326" height="11.192" viewBox="0 0 14.326 11.192">
  <path id="contact" d="M13.766,0H.56A.56.56,0,0,0,0,.56V10.633a.56.56,0,0,0,.56.56H2.686a.56.56,0,0,0,.56-.56.56.56,0,1,1,1.119,0,.56.56,0,0,0,.56.56H9.4a.56.56,0,0,0,.56-.56.56.56,0,1,1,1.119,0,.56.56,0,0,0,.56.56h2.127a.56.56,0,0,0,.56-.56V.56A.56.56,0,0,0,13.766,0Zm-.56,10.073H12.1a1.679,1.679,0,0,0-3.166,0H5.388a1.679,1.679,0,0,0-3.166,0h-1.1V1.119H13.207ZM2.686,8.254a.56.56,0,0,0,.56-.56,1.539,1.539,0,1,1,3.078,0,.56.56,0,0,0,1.119,0A2.658,2.658,0,0,0,6.217,5.456a1.819,1.819,0,1,0-2.864,0A2.658,2.658,0,0,0,2.127,7.695.56.56,0,0,0,2.686,8.254Zm1.4-3.917a.7.7,0,1,1,.7.7A.7.7,0,0,1,4.085,4.337Zm4.309-.42a.56.56,0,0,1,.56-.56H11.64a.56.56,0,1,1,0,1.119H8.954A.56.56,0,0,1,8.394,3.917Zm0,1.679a.56.56,0,0,1,.56-.56H11.64a.56.56,0,0,1,0,1.119H8.954A.56.56,0,0,1,8.394,5.6Zm0,1.679a.56.56,0,0,1,.56-.56H11.64a.56.56,0,0,1,0,1.119H8.954A.56.56,0,0,1,8.394,7.275Zm0,0" fill="#fff"/>
</svg>
