<svg xmlns="http://www.w3.org/2000/svg" width="531" height="183" viewBox="0 0 531 183" version="1.1"><path d="M 500.768 16.298 L 491.035 22.500 480.268 31.147 L 469.500 39.794 460.218 48.510 L 450.937 57.226 441.718 67.953 L 432.500 78.680 426.296 87.403 L 420.092 96.126 416.913 89.813 L 413.734 83.500 410.767 79.174 L 407.800 74.849 404.650 72.928 L 401.500 71.007 399.410 71.004 L 397.319 71 391.314 74.001 L 385.308 77.002 383.425 79.083 L 381.542 81.164 383.521 82.221 L 385.500 83.277 390.529 88.390 L 395.559 93.502 400.678 103.501 L 405.796 113.500 408.503 120 L 411.210 126.500 411.541 126.853 L 411.872 127.206 421.936 120.591 L 432 113.976 432 113.138 L 432 112.301 437.641 102.900 L 443.282 93.500 449.341 85 L 455.399 76.500 465.187 64.384 L 474.975 52.268 486.060 40.660 L 497.145 29.051 505.323 22.350 L 513.500 15.648 514.914 14.374 L 516.328 13.100 515.042 11.550 L 513.755 10 512.128 10.048 L 510.500 10.096 500.768 16.298 M 425.500 23.567 L 422.500 25.122 419.207 28.298 L 415.915 31.475 413.270 36.881 L 410.625 42.287 410.625 48.472 L 410.625 54.657 412.788 58.157 L 414.951 61.657 417.522 62.828 L 420.094 64 424.397 64 L 428.699 64 432.977 61.127 L 437.254 58.254 440.155 53.935 L 443.056 49.616 444.636 44.182 L 446.215 38.748 445.563 34.670 L 444.911 30.592 442.980 27.468 L 441.049 24.343 438.478 23.172 L 435.906 22 432.203 22.006 L 428.500 22.012 425.500 23.567" stroke="none" fill="#f47442" fill-rule="evenodd"/><path d="M 140.500 45.399 L 136.500 46.664 133.500 48.243 L 130.500 49.821 127.803 52.661 L 125.106 55.500 123.553 59.218 L 122 62.936 122.022 68.218 L 122.044 73.500 123.865 77.509 L 125.686 81.517 129.490 84.857 L 133.294 88.197 137.593 90.040 L 141.891 91.882 152.196 94.575 L 162.500 97.267 165.220 98.644 L 167.941 100.021 168.970 101.945 L 170 103.869 170 106.358 L 170 108.847 167.436 111.894 L 164.871 114.941 161.186 115.965 L 157.500 116.989 153.500 116.972 L 149.500 116.956 145.405 115.096 L 141.309 113.236 139.232 109.868 L 137.156 106.500 136.439 103.627 L 135.722 100.754 130.611 101.369 L 125.500 101.983 122.250 101.991 L 119 102 119 104.385 L 119 106.770 120.683 111.980 L 122.365 117.190 126.653 121.959 L 130.941 126.728 136.221 129.021 L 141.500 131.314 151.653 131.784 L 161.807 132.254 168.982 130.074 L 176.158 127.894 180.446 123.607 L 184.733 119.319 186.493 114.021 L 188.253 108.723 187.737 103.039 L 187.222 97.355 185.208 93.428 L 183.195 89.500 180.847 87.343 L 178.500 85.185 174.500 83.138 L 170.500 81.091 161 78.479 L 151.500 75.868 147.116 74.300 L 142.732 72.732 140.806 70.806 L 138.879 68.879 139.189 66.288 L 139.500 63.698 142.237 61.664 L 144.973 59.630 150.769 59.210 L 156.564 58.791 160.323 60.362 L 164.083 61.932 166.088 66.466 L 168.094 71 176.547 71 L 185 71 185 67.468 L 185 63.936 183.527 60.409 L 182.053 56.883 179.988 54.258 L 177.923 51.632 174.517 49.318 L 171.111 47.004 165.346 45.502 L 159.580 44 152.040 44.067 L 144.500 44.134 140.500 45.399 M 316.985 46.250 L 312.546 48.500 310.799 51.548 L 309.051 54.597 308.382 61.798 L 307.713 69 303.356 69 L 299 69 299 75.500 L 299 82 303.500 82 L 308 82 308 106.500 L 308 131 316.500 131 L 325 131 325 106.500 L 325 82 331 82 L 337 82 337 75.500 L 337 69 330.870 69 L 324.740 69 325.268 64.311 L 325.797 59.622 327.648 58.228 L 329.500 56.835 334.585 57.407 L 339.669 57.979 340.724 52.239 L 341.778 46.500 341.468 46.163 L 341.158 45.825 337.329 44.936 L 333.500 44.048 327.462 44.024 L 321.424 44 316.985 46.250 M 358.914 44.956 L 356.327 45.740 353.750 47.428 L 351.172 49.117 349.586 52.460 L 348 55.802 348 62.401 L 348 69 343.500 69 L 339 69 339 75.500 L 339 82 343.500 82 L 348 82 348 106.540 L 348 131.081 356.250 130.790 L 364.500 130.500 364.768 106.250 L 365.036 82 371.018 82 L 377 82 377 75.500 L 377 69 371 69 L 365 69 365 64.035 L 365 59.070 367.159 57.915 L 369.319 56.759 374.034 57.318 L 378.749 57.876 379.874 52.271 L 381 46.667 380.579 46.246 L 380.158 45.825 376.329 44.936 L 372.500 44.048 367 44.110 L 361.500 44.172 358.914 44.956 M 13 88 L 13 131.100 18.750 130.800 L 24.500 130.500 24.771 110.750 L 25.042 91 46 91 L 66.958 91 67.229 110.750 L 67.500 130.500 73.250 130.800 L 79 131.100 79 88 L 79 44.900 73.250 45.200 L 67.500 45.500 67.226 62.750 L 66.953 80 46 80 L 25.047 80 24.774 62.750 L 24.500 45.500 18.750 45.200 L 13 44.900 13 88 M 96 51.500 L 96 58 101.500 58 L 107 58 107 51.500 L 107 45 101.500 45 L 96 45 96 51.500 M 210.500 51.808 L 202.500 56.606 202.202 62.803 L 201.905 69 198.452 69 L 195 69 195 75.500 L 195 82 198.410 82 L 201.819 82 202.166 101.750 L 202.513 121.500 204.006 124.410 L 205.500 127.320 208.282 129.379 L 211.064 131.438 217.822 131.820 L 224.581 132.202 228.105 130.730 L 231.628 129.257 231.266 125.379 L 230.903 121.500 230.418 119.194 L 229.934 116.887 225.556 117.544 L 221.178 118.200 220.089 116.166 L 219 114.131 219 98.066 L 219 82 224.500 82 L 230 82 230 75.500 L 230 69 224.533 69 L 219.066 69 218.783 58.005 L 218.500 47.010 210.500 51.808 M 256.903 67.953 L 252.306 68.790 249.272 70.359 L 246.238 71.928 243.582 75.085 L 240.926 78.241 239.463 81.743 L 238 85.244 238 85.481 L 238 85.717 245.692 87.033 L 253.384 88.349 253.840 86.981 L 254.295 85.614 256.602 83.307 L 258.909 81 264.800 81 L 270.690 81 272.214 82.750 L 273.739 84.500 274.245 87.322 L 274.750 90.144 272.608 90.959 L 270.466 91.773 261.983 93.499 L 253.500 95.225 248.245 97.186 L 242.989 99.148 240.321 102.646 L 237.653 106.144 237.206 111.526 L 236.760 116.908 237.394 119.435 L 238.029 121.963 241.061 125.417 L 244.093 128.870 248.549 130.572 L 253.005 132.273 259.566 131.747 L 266.127 131.220 271.118 128.117 L 276.109 125.015 277.152 128.007 L 278.196 131 286.214 131 L 294.233 131 293.686 128.750 L 293.139 126.500 292.093 122.500 L 291.048 118.500 291.024 100.875 L 291 83.250 290.352 80.010 L 289.704 76.771 286.530 73.597 L 283.357 70.423 279.406 69.240 L 275.456 68.056 268.478 67.586 L 261.500 67.115 256.903 67.953 M 96 100 L 96 131 101.500 131 L 107 131 107 100 L 107 69 101.500 69 L 96 69 96 100 M 264.681 103.997 L 257.863 105.814 255.931 107.562 L 254 109.310 254 112.582 L 254 115.855 256.635 117.927 L 259.270 120 261.667 120 L 264.064 120 267.454 118.584 L 270.844 117.167 272.303 114.834 L 273.762 112.500 274.334 107.250 L 274.906 102 273.203 102.090 L 271.500 102.181 264.681 103.997 M 62 152.273 L 59.500 153.516 57.621 157.356 L 55.742 161.195 56.862 164.935 L 57.983 168.674 60.004 170.504 L 62.026 172.333 66.671 172.333 L 71.317 172.333 73.658 169.611 L 76 166.888 76 162.378 L 76 157.869 74.970 155.945 L 73.941 154.021 71.020 152.510 L 68.099 151 66.300 151.015 L 64.500 151.029 62 152.273 M 125.326 153.396 L 122.541 155.792 123.539 158.646 L 124.537 161.500 129.032 163 L 133.528 164.500 134.764 165.309 L 136 166.118 136 167.080 L 136 168.043 133.722 169.081 L 131.443 170.119 128.722 169.084 L 126 168.050 126 166.525 L 126 165 124.667 165 L 123.333 165 122.734 165.600 L 122.134 166.200 123.230 168.605 L 124.326 171.011 128.065 172.018 L 131.805 173.025 134.632 171.950 L 137.459 170.875 138.214 169.687 L 138.969 168.500 138.985 166.321 L 139 164.143 137.424 162.567 L 135.848 160.990 131.424 159.876 L 127 158.763 127 156.998 L 127 155.233 128.787 154.766 L 130.575 154.298 132.787 155.117 L 135 155.936 135 156.968 L 135 158 136.968 158 L 138.936 158 138.113 155.750 L 137.291 153.500 134.896 152.265 L 132.500 151.029 130.306 151.015 L 128.112 151 125.326 153.396 M 148 152.288 L 145.500 153.546 145.178 156.334 L 144.855 159.121 146.067 160.581 L 147.279 162.042 151.725 163.161 L 156.170 164.280 156.748 165.785 L 157.325 167.289 155.471 168.645 L 153.618 170 152.263 170 L 150.909 170 148.409 167.500 L 145.909 165 144.955 165 L 144 165 144 166.845 L 144 168.690 146.013 170.512 L 148.026 172.333 152.669 172.333 L 157.312 172.333 159.156 170.056 L 161 167.778 161 166.612 L 161 165.445 159.532 163.349 L 158.064 161.254 153.591 160.127 L 149.119 159.001 148.446 157.913 L 147.774 156.826 148.812 155.788 L 149.850 154.750 152.565 154.750 L 155.281 154.750 156.190 156.375 L 157.099 158 158.550 158 L 160 158 160 156.573 L 160 155.145 157.365 153.073 L 154.730 151 152.615 151.015 L 150.500 151.029 148 152.288 M 182.500 151.945 L 180.500 152.764 178.665 154.804 L 176.831 156.845 176.297 160.819 L 175.764 164.793 177.612 167.920 L 179.459 171.046 183.083 172.022 L 186.707 172.998 189.884 171.891 L 193.061 170.783 194.530 167.941 L 196 165.099 196 162 L 196 158.901 194.530 156.059 L 193.061 153.217 189.881 152.108 L 186.702 151 185.601 151.063 L 184.500 151.127 182.500 151.945 M 360.280 152.020 L 358.060 152.913 357.383 155.611 L 356.705 158.310 357.695 159.905 L 358.685 161.500 363.593 163.077 L 368.500 164.654 368.802 166.696 L 369.105 168.739 366.945 169.304 L 364.785 169.869 362.529 169.011 L 360.273 168.153 359.668 166.577 L 359.063 165 357.531 165 L 356 165 356 166.389 L 356 167.778 357.844 170.056 L 359.688 172.333 364.500 172.333 L 369.312 172.333 371.156 170.056 L 373 167.778 373 166.044 L 373 164.310 371.250 162.748 L 369.500 161.186 365.292 160.066 L 361.084 158.946 360.429 157.886 L 359.774 156.826 360.812 155.788 L 361.850 154.750 364.565 154.750 L 367.281 154.750 368.190 156.375 L 369.099 158 370.550 158 L 372 158 371.985 156.750 L 371.969 155.500 371.235 154.400 L 370.500 153.299 368.316 152.150 L 366.131 151 364.316 151.063 L 362.500 151.127 360.280 152.020 M 382.775 152.509 L 380.050 154.038 379.025 155.953 L 378 157.869 378 162.378 L 378 166.888 380.342 169.611 L 382.683 172.333 387.350 172.333 L 392.016 172.333 394.413 170.082 L 396.809 167.831 397.440 164.468 L 398.071 161.105 396.690 157.803 L 395.310 154.500 393.744 153.202 L 392.178 151.903 388.839 151.442 L 385.500 150.981 382.775 152.509 M 480.500 151.945 L 478.500 152.764 476.573 154.907 L 474.645 157.050 474.573 162.001 L 474.500 166.952 477.189 169.643 L 479.879 172.333 484.598 172.333 L 489.317 172.333 491.658 169.611 L 494 166.888 494 162.378 L 494 157.869 492.970 155.945 L 491.941 154.021 489.020 152.510 L 486.099 151 484.300 151.063 L 482.500 151.127 480.500 151.945 M 13 161.954 L 13 172 14.500 172 L 16 172 16 168.052 L 16 164.105 21.217 163.802 L 26.434 163.500 27.967 160.750 L 29.500 158 27.966 155.250 L 26.432 152.500 19.716 152.204 L 13 151.909 13 161.954 M 34 162 L 34 172 36 172 L 38 172 38 168 L 38 164 40.486 164 L 42.972 164 45.619 168 L 48.266 172 50.133 172 L 52 172 52 171.447 L 52 170.894 49.518 167.242 L 47.037 163.590 49.018 161.480 L 51 159.371 51 157.257 L 51 155.143 49.429 153.571 L 47.857 152 40.929 152 L 34 152 34 162 M 82 162 L 82 172 83.500 172 L 85 172 85 167.500 L 85 163 90 163 L 95 163 95 161.500 L 95 160 90 160 L 85 160 85 157.500 L 85 155 90.500 155 L 96 155 96 153.500 L 96 152 89 152 L 82 152 82 162 M 102 162 L 102 172 110.083 172 L 118.167 172 117.754 170.750 L 117.341 169.500 111.171 169.202 L 105 168.905 105 165.952 L 105 163 110.500 163 L 116 163 116 161.500 L 116 160 110.500 160 L 105 160 105 157.500 L 105 155 111 155 L 117 155 117 153.500 L 117 152 109.500 152 L 102 152 102 162 M 167 162 L 167 172 168.500 172 L 170 172 170 162 L 170 152 168.500 152 L 167 152 167 162 M 201 162 L 201 172 202.954 172 L 204.909 172 205.204 165.286 L 205.500 158.571 209.867 165.286 L 214.235 172 216.117 172 L 218 172 218 162 L 218 152 216.544 152 L 215.088 152 214.794 159.165 L 214.500 166.330 209.742 159.165 L 204.984 152 202.992 152 L 201 152 201 162 M 229.312 153.750 L 228.687 155.500 225.843 162.776 L 223 170.052 223 171.026 L 223 172 224.552 172 L 226.104 172 227.150 169 L 228.196 166 232 166 L 235.804 166 236.850 169 L 237.896 172 239.933 172 L 241.971 172 240.066 167.250 L 238.162 162.500 235.948 157.250 L 233.733 152 231.835 152 L 229.937 152 229.312 153.750 M 246 162 L 246 172 252.500 172 L 259 172 259 170.500 L 259 169 254 169 L 249 169 249 160.500 L 249 152 247.500 152 L 246 152 246 162 M 274 162 L 274 172 276 172 L 278 172 278 167.500 L 278 163 282.500 163 L 287 163 287 167.500 L 287 172 289 172 L 291 172 291 162 L 291 152 289 152 L 287 152 287 156 L 287 160 282.500 160 L 278 160 278 156 L 278 152 276 152 L 274 152 274 162 M 297 162 L 297 172 299 172 L 301 172 301 168 L 301 164 303.486 164 L 305.972 164 308.619 168 L 311.266 172 313.133 172 L 315 172 315 171.447 L 315 170.894 312.518 167.242 L 310.037 163.590 312.018 161.480 L 314 159.371 314 157.257 L 314 155.143 312.429 153.571 L 310.857 152 303.929 152 L 297 152 297 162 M 320 162 L 320 172 322 172 L 324 172 324.083 166.250 L 324.165 160.500 326.327 166.250 L 328.488 172 330.160 172 L 331.833 172 334.338 164.750 L 336.842 157.500 336.921 164.750 L 337 172 338.500 172 L 340 172 340 162 L 340 152 337.676 152 L 335.352 152 332.994 159.518 L 330.636 167.036 329.942 166.268 L 329.248 165.500 327.042 158.750 L 324.837 152 322.418 152 L 320 152 320 162 M 403 162 L 403 172 409.500 172 L 416 172 416 170.500 L 416 169 411 169 L 406 169 406 160.500 L 406 152 404.500 152 L 403 152 403 162 M 422.015 160.250 L 422.031 168.500 422.786 169.687 L 423.541 170.875 426.444 171.979 L 429.347 173.083 432.172 172.462 L 434.998 171.842 436.499 169.698 L 438 167.555 438 159.777 L 438 152 436.500 152 L 435 152 435 159 L 435 166 432.949 168.051 L 430.898 170.102 428.699 169.416 L 426.500 168.730 425.765 167.615 L 425.031 166.500 425.015 159.250 L 425 152 423.500 152 L 422 152 422.015 160.250 M 443 153.500 L 443 155 446.500 155 L 450 155 450 163.500 L 450 172 451.500 172 L 453 172 453 163.500 L 453 155 456.500 155 L 460 155 460 153.500 L 460 152 451.500 152 L 443 152 443 153.500 M 465 162 L 465 172 466.500 172 L 468 172 468 162 L 468 152 466.500 152 L 465 152 465 162 M 500 162 L 500 172 501.500 172 L 503 172 503.009 164.750 L 503.018 157.500 507.759 164.733 L 512.500 171.966 514.250 171.983 L 516 172 516 162 L 516 152 514.500 152 L 513 152 512.991 159.250 L 512.982 166.500 508.241 159.267 L 503.500 152.034 501.750 152.017 L 500 152 500 162 M 62.657 156.055 L 60 158.145 60 162 L 60 165.855 62.635 167.927 L 65.270 170 66.680 170 L 68.091 170 70.545 167.545 L 73 165.091 73 162.156 L 73 159.222 71.250 157.198 L 69.500 155.174 67.407 154.569 L 65.314 153.965 62.657 156.055 M 184 154.704 L 182.500 155.230 181.250 156.806 L 180 158.382 180 162.191 L 180 166 182 168 L 184 170 185.777 170 L 187.555 170 189.777 168.443 L 192 166.887 192 162.634 L 192 158.382 190.750 156.792 L 189.500 155.202 187.500 154.690 L 185.500 154.178 184 154.704 M 385.034 155.277 L 382.568 156.525 381.633 159.784 L 380.698 163.043 381.834 165.536 L 382.971 168.029 385.514 169.188 L 388.058 170.347 390.779 168.324 L 393.500 166.300 393.802 162.263 L 394.104 158.227 391.417 156.113 L 388.730 154 388.115 154.015 L 387.500 154.029 385.034 155.277 M 480.635 156.073 L 478 158.145 478 162.001 L 478 165.857 479.506 167.363 L 481.012 168.869 483.055 169.517 L 485.098 170.166 487.462 168.617 L 489.826 167.068 490.454 164.208 L 491.083 161.347 490.059 158.656 L 489.036 155.964 486.453 154.982 L 483.870 154 483.570 154 L 483.270 154 480.635 156.073 M 16 158 L 16 161.115 20.250 160.807 L 24.500 160.500 24.500 158 L 24.500 155.500 20.250 155.193 L 16 154.885 16 158 M 38 157.500 L 38 160 42.500 160 L 47 160 47 157.500 L 47 155 42.500 155 L 38 155 38 157.500 M 301 157.500 L 301 160 305.500 160 L 310 160 310 157.500 L 310 155 305.500 155 L 301 155 301 157.500 M 230.630 159.250 L 230.027 161.500 230.014 162.250 L 230 163 232 163 L 234 163 233.986 162.250 L 233.973 161.500 233.370 159.250 L 232.767 157 232 157 L 231.233 157 230.630 159.250" stroke="none" fill="#616163" fill-rule="evenodd"/></svg>