<svg width="186" height="47" viewBox="0 0 186 47" fill="none" xmlns="http://www.w3.org/2000/svg">
<path fill-rule="evenodd" clip-rule="evenodd" d="M0 45.9521V13.8038H4.12523V27.0593H20.1547V13.8038H24.2799V45.9216H20.1547V30.8074H4.1547V45.9216H0V45.9521ZM30.7035 18.2833V13.8038H34.5341V18.2833H30.7035ZM30.7035 45.9521V22.6713H34.5341V45.9521H30.7035ZM38.9834 35.5306L45.1123 34.8907C45.4659 36.9933 46.2321 38.5473 47.3518 39.5529C48.4715 40.5585 50.0037 41.0461 51.8895 41.0461C53.8932 41.0461 55.396 40.589 56.4273 39.7053C57.4586 38.8216 57.9595 37.816 57.9595 36.6276C57.9595 35.8658 57.7532 35.1954 57.3112 34.6774C56.8693 34.1593 56.1326 33.6718 55.0718 33.2756C54.3352 33.0319 52.6851 32.5443 50.0921 31.8739C46.733 31.0207 44.3757 29.9541 43.0497 28.6743C41.1344 26.9069 40.221 24.7434 40.221 22.2142C40.221 20.5687 40.663 19.0146 41.547 17.6129C42.4604 16.1807 43.7274 15.0837 45.407 14.3523C47.116 13.5905 49.1197 13.2249 51.5065 13.2249C55.396 13.2249 58.3131 14.1085 60.2873 15.8759C62.2615 17.6738 63.2634 20.0506 63.3812 23.0369L57.105 23.2807C56.8398 21.6047 56.2799 20.4163 55.396 19.7155C54.512 19.0146 53.2155 18.6185 51.4475 18.6185C49.6501 18.6185 48.2357 19.0146 47.2044 19.7764C46.5562 20.2944 46.2026 20.9648 46.2026 21.7876C46.2026 22.5494 46.5267 23.2198 47.1455 23.7378C47.9116 24.4387 49.8564 25.17 52.8914 25.9318C55.9263 26.6631 58.1952 27.4249 59.639 28.2477C61.0829 29.04 62.2321 30.137 63.0571 31.5082C63.8821 32.91 64.2947 34.5859 64.2947 36.6276C64.2947 38.4559 63.7937 40.1928 62.7919 41.8079C61.8195 43.4229 60.4052 44.6113 58.6077 45.3731C56.8103 46.1654 54.5709 46.5311 51.86 46.5311C47.9411 46.5311 44.9061 45.5864 42.814 43.7276C40.663 41.8383 39.396 39.0958 38.9834 35.5306ZM79.7938 22.6408V27.5164H75.7275V36.9628C75.7275 38.8521 75.7569 39.9795 75.8159 40.3147C75.9043 40.6195 76.081 40.8937 76.3757 41.107C76.6409 41.3203 76.965 41.4117 77.3775 41.4117C77.9374 41.4117 78.733 41.1984 79.7643 40.8328L80.2652 45.6169C78.8803 46.2264 77.3481 46.5311 75.5801 46.5311C74.5193 46.5311 73.547 46.3483 72.6925 45.9826C71.8379 45.6169 71.1897 45.1294 70.7772 44.5199C70.3941 43.9409 70.0995 43.1182 69.9521 42.1126C69.8343 41.3813 69.7753 39.9491 69.7753 37.7551V27.5468H67.0645V22.6713H69.7753V18.0395L75.7275 14.4133V22.6713H79.7938V22.6408ZM88.3978 29.8323L83.0055 28.8571C83.6243 26.5717 84.6556 24.8957 86.1289 23.7987C87.6317 22.7322 89.8416 22.1837 92.7588 22.1837C95.4107 22.1837 97.3849 22.4884 98.6814 23.1588C99.9779 23.7987 100.891 24.6215 101.422 25.6271C101.952 26.6327 102.217 28.461 102.217 31.1121L102.129 38.3036C102.129 40.3452 102.217 41.8383 102.424 42.8135C102.6 43.7886 102.983 44.8551 103.484 45.9521H97.5912C97.4144 45.556 97.2376 44.9465 97.0313 44.1542C96.9429 43.7886 96.8545 43.5448 96.7956 43.4229C95.7938 44.459 94.7035 45.2208 93.5543 45.7388C92.4052 46.2568 91.1676 46.5006 89.8711 46.5006C87.5728 46.5006 85.7459 45.8607 84.4199 44.5504C83.0939 43.2705 82.4162 41.625 82.4162 39.6139C82.4162 38.3036 82.7109 37.1456 83.3297 36.1096C83.9485 35.104 84.7735 34.2812 85.8932 33.7327C86.9834 33.2147 88.5451 32.7271 90.6077 32.3005C93.3775 31.7825 95.3223 31.2645 96.3831 30.8074V30.1979C96.3831 28.979 96.0884 28.1563 95.558 27.6383C94.9982 27.1202 93.9079 26.846 92.3462 26.846C91.2855 26.846 90.4604 27.0898 89.8711 27.5164C89.2228 27.9734 88.7514 28.7353 88.3978 29.8323ZM96.3831 34.8297C95.617 35.0735 94.4089 35.4087 92.7588 35.7744C91.1087 36.14 90.0479 36.5057 89.5175 36.8409C88.7514 37.4199 88.3389 38.1207 88.3389 39.0044C88.3389 39.8881 88.6335 40.6195 89.2818 41.2594C89.9006 41.8993 90.6667 42.204 91.6391 42.204C92.7293 42.204 93.7606 41.8384 94.733 41.107C95.4402 40.5585 95.9116 39.8881 96.1473 39.0654C96.2947 38.5473 96.3831 37.5113 96.3831 36.0486V34.8297ZM105.488 22.6408H108.788V20.9039C108.788 18.9232 108.994 17.491 109.407 16.5159C109.82 15.5407 110.556 14.7485 111.646 14.139C112.737 13.5296 114.122 13.2249 115.772 13.2249C117.481 13.2249 119.16 13.4686 120.781 14.0171L120.015 18.2833C119.042 18.0395 118.099 17.9176 117.245 17.9176C116.361 17.9176 115.742 18.1309 115.33 18.5575C114.917 18.9841 114.77 19.7764 114.77 20.9953V22.6408H119.219V27.4859H114.77V45.9216H108.818V27.4859H105.518V22.6408H105.488ZM119.926 22.6408H123.227V20.9039C123.227 18.9232 123.433 17.491 123.845 16.5159C124.258 15.5407 124.994 14.7485 126.085 14.139C127.175 13.5296 128.56 13.2249 130.21 13.2249C131.919 13.2249 133.599 13.4686 135.219 14.0171L134.453 18.2833C133.481 18.0395 132.538 17.9176 131.654 17.9176C130.77 17.9176 130.151 18.1309 129.739 18.5575C129.385 18.9841 129.179 19.7764 129.179 20.9953V22.6408H133.628V27.4859H129.179V45.9216H123.227V27.4859H119.926V22.6408Z" fill="#616163"/>
<path fill-rule="evenodd" clip-rule="evenodd" d="M158.762 8.44089C157.642 4.47949 153.93 3.87004 150.836 6.06405C147.653 8.319 145.532 13.1946 146.622 17.095C147.742 21.0564 151.455 21.6659 154.548 19.5023C157.731 17.2474 159.852 12.3413 158.762 8.44089Z" fill="#F37540"/>
<path fill-rule="evenodd" clip-rule="evenodd" d="M146.681 44.7638C147.948 43.6363 149.628 42.5698 150.983 41.6556L153.635 39.9492C157.466 32.2397 162.622 25.0178 168.044 18.4357C172.994 12.3718 178.77 6.03352 185.075 1.46267L184.015 0C177.267 3.68715 171.079 8.71508 165.51 14.1087C159.646 19.807 154.254 26.1148 149.922 33.1234L149.746 33.3672L148.508 30.6856C147.595 28.7354 145.061 23.5856 142.497 23.5856C139.934 23.5856 137.488 25.4748 135.69 27.2727C137.282 27.8517 138.608 28.9487 139.668 30.2895C141.318 32.3006 142.644 35.0431 143.705 37.4505L144.707 39.7054C145.355 41.3204 146.151 43.1183 146.681 44.7638Z" fill="#F37540"/>
</svg>
