<?xml version="1.0" standalone="no"?>
<!DOCTYPE svg PUBLIC "-//W3C//DTD SVG 20010904//EN"
 "http://www.w3.org/TR/2001/REC-SVG-20010904/DTD/svg10.dtd">
<svg version="1.0" xmlns="http://www.w3.org/2000/svg"
 width="512.000000pt" height="512.000000pt" viewBox="0 0 512.000000 512.000000"
 preserveAspectRatio="xMidYMid meet">

<g transform="translate(0.000000,512.000000) scale(0.100000,-0.100000)"
fill="#F37540" stroke="#F37540">
<path d="M2465 5113 c-640 -23 -1254 -291 -1710 -748 -363 -362 -609 -826
-704 -1325 -59 -307 -58 -667 0 -965 154 -778 652 -1437 1354 -1792 380 -192
730 -275 1160 -274 593 1 1138 193 1605 567 385 309 701 782 840 1257 71 246
101 457 101 722 1 430 -82 780 -274 1160 -449 887 -1375 1434 -2372 1398z
m232 -889 c32 -8 100 -35 151 -60 206 -101 349 -305 382 -545 32 -235 -72
-497 -258 -644 -73 -59 -197 -118 -289 -140 -106 -26 -292 -17 -391 18 -212
74 -375 237 -449 449 -34 97 -43 287 -19 393 91 386 488 627 873 529z m149
-1603 c520 -106 939 -469 1108 -960 43 -124 76 -278 76 -356 0 -53 -3 -60 -39
-96 l-39 -39 -1392 0 -1392 0 -39 39 c-37 36 -39 42 -39 97 1 196 119 519 266
726 75 104 237 266 339 340 198 141 447 238 685 267 117 15 349 6 466 -18z"/>
</g>
</svg>
