<?xml version="1.0" encoding="utf-8"?>
<!-- Generator: Adobe Illustrator 24.2.0, SVG Export Plug-In . SVG Version: 6.00 Build 0)  -->
<svg version="1.1" id="Layer_1" xmlns="http://www.w3.org/2000/svg" xmlns:xlink="http://www.w3.org/1999/xlink" x="0px" y="0px"
	 viewBox="0 0 979 583.2" style="enable-background:new 0 0 979 583.2;" xml:space="preserve">
<style type="text/css">
	.st0{fill:#ED1820;}
</style>
<g>
	<g>
		<path class="st0" d="M472.5,0.1C563.5-1,654.8,7.3,743.3,28.5C795.2,41.5,846.6,58.8,893,86c17.8,10.6,34.8,22.9,49.4,37.7
			c11.7,12.2,21.8,26.2,27.6,42.2c6.4,16.8,7,35.8,1.3,52.9c-5.8,18.1-17,34.2-30.6,47.4c-11.5,11.1-24,21.1-37.5,29.6
			c-33.3,21.5-70.3,36.6-107.9,49c-57.2,18.3-116.4,29.5-176,36.3c-33.6,3.6-67.3,6.1-101,6.5c-18.7,0.8-37.4,0.9-56,0
			c-35-0.3-70-3.1-104.8-6.8c-50.2-5.7-100.2-14.6-148.9-28.2c-36.6-10.4-72.6-23.3-106.4-40.9c-19.8-10.4-38.9-22.4-55.8-37.1
			c-15.1-13.6-29-29.2-36.8-48.2c-4.3-10.6-6.9-22.1-6.8-33.6c0.8-20.6,9.2-40.5,22-56.6c14.8-18.3,33.2-33.4,53.1-45.8
			c43.2-26.9,91.5-44.3,140.4-57.6C301.2,10.8,387,1.5,472.5,0.1z M436.8,20.4c-43.3,1.9-86.6,5.8-129.3,13
			c-43.6,6.9-86.8,16.8-128.8,30.8c-28.6,10-56.8,21.6-82.7,37.3c-16.1,9.7-31.6,20.8-44.3,34.7c-13.7,14.3-24.5,32.5-26.1,52.6
			c-1.7,23.8,10.4,46.5,26.6,63.1c16.3,17.7,36.9,30.6,57.9,42.1c23.5,12.3,48.2,22.2,73.4,30.6c46.5,15.3,94.5,25.4,143,32.2
			c37.1,5.4,74.5,8.5,111.9,10.3c48.7,1.5,97.5,1.4,146-2.5c62.8-4.9,125.5-14.4,186.2-31.5c40.1-11.5,79.7-25.9,115.6-47.4
			c14.1-8.1,27-18.1,38.8-29.1c14.8-14.2,27-32.1,30.4-52.7c1.6-12.5,0.3-25.6-5-37.1c-6.9-16.8-19.3-30.5-32.8-42.2
			c-31.4-26.7-69.7-43.7-108.1-57.7c-49.3-17.2-100.5-28.5-152.1-35.9C584.3,20.3,510.4,17.5,436.8,20.4z"/>
	</g>
	<g>
		<path class="st0" d="M149.8,86.3c26.3-0.1,52.7-0.1,79,0c-6.1,49.2-12.8,98.4-18.9,147.6c31.7-49.1,63.2-98.5,94.9-147.6
			c54.4-0.2,108.9-0.3,163.4,0.1c-3.4,9.5-7.3,18.9-11.1,28.3c-0.5,1.5-2.5,1.3-3.8,1.3c-14.7,0-29.4,0-44,0
			c-3.8,0-7.6,0.3-11.3-0.6c-9.2,19.6-16.3,40.1-25.3,59.8c19.9,0.4,39.8,0,59.6,0.1c-3.7,7.9-7,16-10.7,23.9
			c-19.6,0.4-39.2,0.2-58.7,0.1c-9,21.7-18.1,43.4-27,65.2c-1.6,4.6-4.1,9-5.4,13.7c28.9-0.2,57.9,0,86.8-0.2
			c1.3-2.6,2.8-5.1,4.5-7.5c39.9-61.2,79.2-122.9,119.3-184.1c15-0.2,30-0.1,45,0c-1.1,27.2-3,54.3-4.2,81.4
			c-2.3,36.7-3.9,73.5-6.2,110.2c4.2,0,8.5,0.2,12.7,0c1.3-0.9,1.5-2.5,2.1-3.8c17.1-39.4,33.5-79,50.7-118.3
			c9.6-23.3,19.6-46.4,29.7-69.4c18-0.4,36.1,0,54.1-0.3c-1.6,22.2-3.3,44.4-4.9,66.6c-0.5,10.3-1.9,20.6-1.7,30.9
			c5.6-9.1,12.5-17.3,18.7-26c17.5-23.3,35-46.5,52.2-70c0.9-1.8,3.1-1.4,4.8-1.5c17.8,0,35.5,0,53.3,0.1
			c-8.4,20.5-16.8,41.1-24.9,61.7c-10.1,24.5-20,49-29.7,73.6c-11,26.7-21.7,53.5-32.5,80.4c-13,0.4-26.1,0.1-39.1,0.1
			c-5.4-0.2-10.9,0.2-16.3-0.7c14.4-32.8,27.6-66.2,41.9-99.1c0.7-1.4,1-3,1.3-4.5c-14.5,20.1-29.7,39.6-44.4,59.5
			c-9.3,12.3-18.5,24.8-27.8,37c-2.2,2.5-3.8,5.7-6.5,7.7c-8.9,0.4-17.9,0-26.8,0c1.9-28.4,4.4-56.8,6.3-85.3
			c0.5-6.8,1.4-13.5,1-20.3c-2,2.9-2.7,6.6-4.2,9.8c-13.5,32-27.6,63.8-41.2,95.8c-23.4,0.1-46.9,0.1-70.3,0
			c-3.5,0-7.1,0.2-10.5-0.7c0.2-6.5,0.9-13,1-19.4c0.2-9.7,1.4-19.3,1.2-29c-7.7-0.9-15.8-0.1-23.6-0.4c-12,0.4-24-0.2-36.1,0
			c-1.2-0.1-2.2,0.3-2.8,1.3c-10,15.7-20,31.4-30.2,47c-0.9,1.8-3.2,1.1-4.9,1.4c-19.4,0-38.7-0.1-58.1,0
			c-36.4-0.1-72.7,0.4-109.1-0.2c0.4-0.1,1.1-0.5,1.5-0.6c16.6-38.9,32.7-78.1,49.3-117c9.2-22.9,19.1-45.5,28.4-68.3
			c-7.9,0.1-15.8,0-23.7,0.1c-20,33.6-41,66.5-61.1,100.1c-11.8,19.5-23.9,38.8-35.7,58.2c-5.4,9.1-11.4,17.8-16.4,27.1
			c-4.3,1-8.8,0.7-13.2,0.8c-19.6-0.1-39.2,0.1-58.8,0c-0.2-7.2,0.9-14.3,1.4-21.5c5.4-61.3,10.5-122.6,15.8-183.9
			C148.9,93.2,149,89.7,149.8,86.3z M520.8,165.3c-12.4,19.3-24.8,38.5-37.3,57.8c-0.8,1.2-1.7,2.4-1.9,3.9
			c15.4-0.1,30.8-0.1,46.1,0c1.5-26.4,3.4-52.8,4.6-79.2C528,153.2,524.9,159.6,520.8,165.3z"/>
	</g>
	<path class="st0" d="M579.1,439.5c14.5-1.6,30.5,0.6,41.6,10.8c10.4,10.3,15.6,25.3,15,39.8c-11,0.4-22.1-0.1-33.2,0.1
		c-0.3-6.6-1.1-13.5-4.7-19.2c-3.4-5.6-12.3-7.9-17.4-3.1c-4.6,3.9-6.5,10-7.5,15.8c-2.9,17.3-2.5,34.9-0.8,52.3
		c1.1,5.3,1.7,11.1,5.1,15.5c4.5,5.4,13,6.8,19,3.3c3.4-1.7,5.1-5.4,6.4-8.8c1.7-5.6,2.2-11.5,2.3-17.3c10.2,0.5,20.4,1.8,30.6,2.3
		c0.4,11.3-2,23-8.5,32.4c-6.8,10.4-18.5,17.4-30.8,18.8c-9,1.9-18.2,0.5-27-1.8c-13.5-3.6-24.2-14.6-29.4-27.3
		c-6.3-14.3-7.7-30.1-7.5-45.5c0.7-17,3.6-34.8,13.6-49C553.6,447.8,566,440.8,579.1,439.5z"/>
	<g>
		<path class="st0" d="M687.8,439.6c11.8-1.5,24.2,0.3,34.7,5.9c11,6.1,17.8,17.4,22.1,28.9c6,15.7,6,32.8,5.2,49.4
			c-1.5,15.7-5.9,31.9-16.5,43.9c-5,5.8-11.5,10-18.8,12.4c-15.4,5.2-33.1,3.9-47.1-4.6c-9.9-6-15.7-16.5-20.1-26.8
			c-4.9-12.1-5.5-25.2-6.2-38c0.7-13.5,1.8-27.3,7.3-39.9c4.9-11.7,13.4-22.7,25.5-27.5C678.3,441.1,683.1,440.3,687.8,439.6z
			 M690.7,466.4c-6.8,3.3-9.3,11.4-9.8,18.4c-0.8,13.3-1.7,26.6-0.7,39.9c0.5,8.4,0.2,17.3,4,25c3.5,7.9,15.5,9.5,21.3,3.3
			c5.9-7.4,5.6-17.3,6.1-26.3c0-14.4,0.5-28.8-0.8-43.1c-0.5-6-2.4-12.3-7.3-16.1C699.8,465.2,694.8,464.7,690.7,466.4z"/>
	</g>
	<path class="st0" d="M0,441.3c11.9,0.4,23.8,0.1,35.7,0c3.4,14.3,5.1,28.9,7.7,43.3c3.1,16.8,5.7,33.7,8.9,50.4l0.7-0.9
		c7.8-30.8,15.2-61.8,23.1-92.7c9.9,0.1,19.8,0,29.7,0c-12.7,46.3-25.2,92.7-38,139c-12.1,0.9-24.2-0.2-36.3,0
		C20.7,534.2,10.5,487.7,0,441.3z"/>
	<path class="st0" d="M117.9,441.6c29.2-0.3,58.3-0.2,87.5-0.1c0,9,0,18,0,27c-17.3,0.7-34.7,0.3-52,0c0,9.5-0.4,19,0.4,28.5
		c11.5-0.3,23-0.1,34.5-0.1c0.1,9,0.1,18.1,0.2,27.1c-11.7,0.1-23.4,0.3-35.1,0c-0.5,9.4,0.1,18.8,0.2,28.2
		c17.3-0.3,34.5-0.3,51.8,0c0.3,9.3-0.1,18.7,0.2,28c-1.1,0.5-2.1,0.7-3.3,0.7c-24.3-0.1-48.7,0-73,0c-3.9-0.1-7.8,0.3-11.6-0.6
		C117.8,534.1,117.5,487.9,117.9,441.6z"/>
	<g>
		<path class="st0" d="M248,442c3.7-0.7,7.5-0.4,11.3-0.5c11.7-0.1,23.5-0.1,35.2-0.1c3.7,14.3,6.3,28.9,9.6,43.3
			c5.6,26.7,11.4,53.3,17,80c1.1,5.4,2.7,10.7,3.1,16.3c-11.8,0.2-23.7-0.6-35.5-0.3c-2-9.5-3.9-19-5.5-28.5
			c-10.5-0.1-21,0.4-31.5-0.2c-2.6,9.6-3.7,19.7-7,29c-9.8,0-19.5-0.3-29.3-0.5c10.1-40.1,18.9-80.5,28.7-120.6
			C245.4,453.9,246.9,448,248,442z M266.2,483.6c-3.3,14.5-6.4,29.1-9.7,43.6c7.2,0,14.5,0,21.7-0.1c-2.9-17.9-6.3-35.8-9.6-53.6
			C267.3,476.7,267.1,480.3,266.2,483.6z"/>
	</g>
	<path class="st0" d="M335.1,445.8c0.2-1.3-0.6-3.4,0.9-4.2c16.2-0.3,32.3,0,48.5-0.3c4.5,20.1,7.9,40.4,12.3,60.5
		c1.1,4.9,1.7,9.8,2.8,14.6c1.4-3.9,2.1-8.1,3-12.1c3.7-16.2,7.7-32.3,11.3-48.5c1.2-4.7,1.9-9.5,3.6-14.1c2.8-0.8,5.8-0.2,8.7-0.2
		c13.2,0,26.3,0,39.5-0.1c0.3,21.1-0.4,42.3-0.2,63.4c0.1,25.2-0.1,50.4,0.3,75.6c-5.2,0.9-10.5,0.1-15.7,0.5
		c-6.6-0.6-13.2,0.4-19.8-0.1c-0.1-33.1-0.1-66.1,0.1-99.2c-3.4,10-5.1,20.5-7.8,30.8c-5.1,21.5-10.4,43-15.5,64.5
		c-0.4,1.5-1,2.9-1.6,4.3c-7-0.7-14-0.4-21-0.5c-6.6-31.8-13.5-63.6-20.1-95.4c-0.5-1.9-1-3.8-1.6-5.7c0,12.4,0.3,24.8,0.1,37.3
		c-0.8,19-0.3,38-0.5,57c-0.2,2.2,0.5,4.6-0.4,6.6c-8.9,1.1-17.8-0.2-26.6,0.2C334.8,535.6,335.2,490.7,335.1,445.8z"/>
	<g>
		<path class="st0" d="M761.9,441.5c17.5-0.1,34.9-0.1,52.4-0.2c10.4-0.1,21.1,1.8,30.2,7.2c13.3,8.1,19.1,25.4,15.7,40.2
			c-2.6,11.4-11.8,20.5-22.5,24.5c7.6,22.6,16,44.9,23.3,67.6c-11.8,0-23.5-0.4-35.3-0.4c-5.6-19.9-11.6-39.7-17.2-59.6
			c-3.8,0-7.5,0-11.2,0c0.2,15.9,0.1,31.9,0.1,47.8c-0.1,3.9,0.3,7.9-0.3,11.8c-11.8-0.1-23.5,0.6-35.3-0.1
			C761.9,534.1,761.5,487.8,761.9,441.5z M797.4,467.9c0.2,10.1,0,20.3,0.2,30.4c8-0.1,16.8,0.1,23.5-4.8c6.4-6.1,5.8-18.2-1.8-23.1
			C812.6,467,804.7,468,797.4,467.9z"/>
	</g>
	<g>
		<path class="st0" d="M879,441.6c15.8-0.1,31.5-0.1,47.3-0.2c10-0.2,20.5,0.2,29.8,4.4c9.6,3.6,17.4,11.7,20.7,21.4
			c2.6,7.2,2.6,15.1,1.7,22.7c-1.5,9.9-6.2,19.7-14.7,25.4c-14.1,10-32.4,11-49,9c-0.3,18.7-0.3,37.4,0.1,56.1
			c-11.9,1.3-23.9-0.1-35.8,0.2C879,534.2,878.8,487.9,879,441.6z M914.7,466.3c-0.3,11.3-0.1,22.6,0.1,34
			c7.1-0.2,14.7-0.2,20.9-4.2c8.3-5.3,8.9-19,1-25C930.6,466.3,922.2,466.1,914.7,466.3z"/>
	</g>
</g>
</svg>
