<svg width="24" height="24" viewBox="0 0 24 24" fill="none" xmlns="http://www.w3.org/2000/svg">
<path d="M19.4893 11.2518H6.31845L10.2826 7.28765C10.3541 7.21856 10.4112 7.13592 10.4504 7.04454C10.4897 6.95317 10.5103 6.85489 10.5112 6.75545C10.5121 6.65601 10.4931 6.55739 10.4555 6.46534C10.4178 6.3733 10.3622 6.28968 10.2919 6.21936C10.2216 6.14904 10.1379 6.09343 10.0459 6.05577C9.95386 6.01811 9.85524 5.99916 9.75579 6.00003C9.65635 6.00089 9.55807 6.02155 9.4667 6.0608C9.37532 6.10006 9.29268 6.15711 9.22359 6.22864L3.981 11.4712C3.84059 11.6117 3.76172 11.8021 3.76172 12.0007C3.76172 12.1993 3.84059 12.3898 3.981 12.5302L9.22359 17.7728C9.36485 17.9093 9.55403 17.9848 9.7504 17.983C9.94677 17.9813 10.1346 17.9026 10.2735 17.7637C10.4123 17.6249 10.4911 17.437 10.4928 17.2406C10.4945 17.0443 10.419 16.8551 10.2826 16.7138L6.31845 12.7497H19.4893C19.688 12.7497 19.8785 12.6708 20.0189 12.5303C20.1594 12.3899 20.2383 12.1994 20.2383 12.0007C20.2383 11.8021 20.1594 11.6116 20.0189 11.4712C19.8785 11.3307 19.688 11.2518 19.4893 11.2518Z" fill="#464646"/>
</svg>
