<svg xmlns="http://www.w3.org/2000/svg" width="2711" height="982" viewBox="0 0 2711 982" version="1.1"><path d="M 2089.067 79.312 L 2011.633 158.500 2059.067 159.233 C 2085.155 159.636, 2136.935 159.861, 2174.132 159.733 L 2241.765 159.500 2205.110 80.076 C 2184.950 36.393, 2168.016 0.533, 2167.478 0.388 C 2166.940 0.243, 2131.655 35.759, 2089.067 79.312 M 21.954 34.750 C 21.929 35.712, 17.044 66.200, 11.099 102.500 C 5.153 138.800, 0.400 168.639, 0.536 168.808 C 0.672 168.978, 30.224 169.428, 66.207 169.808 L 131.630 170.500 89.779 415.881 C 66.761 550.840, 48.207 661.540, 48.547 661.881 C 48.887 662.221, 79.633 662.630, 116.872 662.789 L 184.579 663.078 215.374 470.789 C 232.311 365.030, 250.058 254.262, 254.811 224.637 L 263.452 170.774 328.234 171.151 C 385.444 171.484, 393.065 171.351, 393.439 170.014 C 394.453 166.396, 415.260 35.927, 414.884 35.550 C 414.433 35.100, 122.036 33, 59.759 33 C 24.482 33, 21.997 33.115, 21.954 34.750 M 478.705 38.597 C 477.497 42.963, 457.694 171.028, 458.157 171.490 C 458.434 171.768, 484.678 172.333, 516.477 172.747 L 574.293 173.500 511.302 202.379 L 448.312 231.259 440.093 279.879 C 435.573 306.621, 419.154 403.875, 403.607 496 L 375.339 663.500 383.920 664.144 C 388.639 664.498, 416.877 664.836, 446.671 664.894 L 500.841 665 501.407 662.250 C 501.719 660.737, 519.540 550.600, 541.009 417.500 C 562.479 284.400, 580.476 174.600, 581.003 173.500 C 581.915 171.595, 602.264 38.931, 601.727 38.393 C 601.585 38.252, 573.966 37.811, 540.351 37.414 C 480.792 36.711, 479.219 36.742, 478.705 38.597 M 1153.703 41.914 C 1149 67.197, 1050.903 667.237, 1051.393 667.726 C 1052.519 668.853, 1174 669.392, 1174 668.271 C 1174 665.396, 1195.588 533.265, 1199.042 515 C 1210.358 455.155, 1222.832 407.817, 1233.372 384.721 C 1241.512 366.883, 1255.950 348.091, 1266.927 341.047 C 1282.117 331.299, 1300.298 328.785, 1312.795 334.704 C 1318.303 337.312, 1324.742 344.276, 1327.983 351.128 C 1332.246 360.142, 1333.344 368.790, 1332.726 388.485 C 1331.830 417.021, 1324.200 462.011, 1297.032 598.945 C 1289.345 637.689, 1283.184 669.517, 1283.340 669.673 C 1283.496 669.829, 1312.497 670.079, 1347.787 670.228 L 1411.951 670.500 1412.479 668 C 1413.413 663.573, 1461.960 369.296, 1465.600 346 C 1473.128 297.815, 1471.075 264.637, 1458.993 239.210 C 1445.884 211.623, 1427.834 197.434, 1395.584 189.366 C 1380.588 185.615, 1357.084 184.983, 1340.171 187.875 C 1302.222 194.366, 1275.075 212.429, 1249.612 248.129 C 1244.875 254.770, 1241 259.702, 1241 259.089 C 1241 258.475, 1249.143 209.123, 1259.097 149.417 C 1269.050 89.710, 1277.037 40.721, 1276.847 40.551 C 1276.656 40.381, 1248.979 40.036, 1215.342 39.785 L 1154.185 39.327 1153.703 41.914 M 890 186.620 C 880.192 188.422, 860.073 194.916, 852.659 198.673 C 833.102 208.583, 815.823 223.436, 799.894 244.031 C 794.809 250.604, 790.532 255.865, 790.388 255.721 C 790.245 255.578, 792.437 242.321, 795.261 226.261 C 798.084 210.201, 800.193 196.878, 799.947 196.655 C 799.701 196.431, 771.825 195.927, 738 195.535 L 676.500 194.823 638.652 428.161 C 617.836 556.498, 600.575 662.513, 600.294 663.750 L 599.783 666 661.142 665.999 L 722.500 665.998 734.847 590.249 C 755.702 462.295, 765.498 418.499, 779.972 388.492 C 796.880 353.439, 818.450 334, 840.438 334 C 858.049 334, 871.129 346.271, 875.638 367.024 C 877.611 376.105, 877.816 401.672, 876.036 416.500 C 875.023 424.938, 835.963 658.359, 834.516 664.622 L 834.026 666.745 896.563 667.489 C 930.959 667.898, 959.305 668.029, 959.554 667.779 C 959.804 667.529, 971.974 592.890, 986.598 501.913 C 1011.976 344.038, 1013.255 335.429, 1014.658 313 C 1016.731 279.856, 1015.612 265.945, 1009.312 246.500 C 1005.761 235.542, 1002.169 228.675, 995.039 219.212 C 982.638 202.755, 966.240 193.031, 941.500 187.464 C 931.058 185.114, 900.886 184.620, 890 186.620 M 2121 192.650 C 2079.332 196.583, 2038.670 204.697, 1994.066 217.980 L 1987.212 220.021 1958.479 287.050 C 1942.675 323.915, 1929.979 354.312, 1930.265 354.599 C 1930.552 354.885, 1938.029 351.492, 1946.881 347.060 C 1992.151 324.391, 2039.273 305.692, 2069.238 298.506 C 2102.281 290.582, 2122.648 295.178, 2128.629 311.910 C 2131.704 320.512, 2129.068 339.023, 2123.380 348.775 C 2122.009 351.126, 2117.908 355.507, 2114.267 358.510 C 2105.827 365.472, 2091.818 371.040, 2056.681 381.398 C 1976.551 405.022, 1946.252 423.994, 1916.783 469 C 1909.805 479.657, 1905.407 488.441, 1898.967 504.582 C 1884.250 541.471, 1882.279 583.868, 1893.489 622.400 C 1905.867 664.948, 1934.395 685.022, 1983 685.385 C 1996.461 685.486, 1996.547 685.472, 2012.669 680.538 L 2028.838 675.589 2036.976 662.044 C 2041.452 654.595, 2050.213 641.363, 2056.444 632.640 C 2067.862 616.656, 2091.997 585.664, 2092.576 586.242 C 2092.960 586.627, 2082.992 641.466, 2079.147 660.118 L 2076.341 673.735 2083.821 674.368 C 2087.935 674.715, 2115.423 675, 2144.904 675 L 2198.507 675 2228.268 496.250 C 2245.042 395.504, 2258.518 311.736, 2259.149 304.292 C 2260.387 289.692, 2259.309 272.724, 2256.399 261 C 2254.181 252.067, 2247.276 237.784, 2241.472 230.124 C 2222.877 205.583, 2185.129 191.637, 2138.711 192.160 C 2130.895 192.248, 2122.925 192.469, 2121 192.650 M 2584.769 196.578 C 2580.518 197.346, 2571.518 199.820, 2564.769 202.074 C 2535.522 211.843, 2515.383 226.617, 2495.342 253.007 C 2489.960 260.093, 2485.477 265.803, 2485.379 265.695 C 2485.281 265.588, 2487.489 252.345, 2490.285 236.268 C 2493.081 220.190, 2495.173 206.858, 2494.934 206.642 C 2494.695 206.425, 2466.828 206.080, 2433.007 205.874 L 2371.514 205.500 2333.855 437 C 2313.143 564.325, 2295.922 670.188, 2295.586 672.250 L 2294.976 676 2355.988 676 C 2398.417 676, 2417 675.676, 2417 674.937 C 2417 672.223, 2446.465 500.462, 2449.583 485 C 2454.395 461.140, 2461.308 434.266, 2466.638 418.707 C 2478.911 382.874, 2498.041 357.081, 2519.528 347.394 C 2528.044 343.554, 2539.320 342.984, 2547.289 345.989 C 2558.307 350.145, 2567.290 362.533, 2570.658 378.219 C 2572.543 386.992, 2572.752 411.750, 2571.066 426.500 C 2570.437 432, 2560.587 490.500, 2549.177 556.500 L 2528.431 676.500 2590.774 677.358 C 2625.062 677.830, 2653.361 677.973, 2653.659 677.674 C 2653.957 677.376, 2662.481 625.915, 2672.601 563.316 C 2711.546 322.404, 2711.752 320.948, 2710.699 294.500 C 2709.809 272.163, 2706.203 257.594, 2697.528 241.285 C 2683.583 215.072, 2661.472 200.788, 2627.533 196.068 C 2617.032 194.607, 2594.156 194.880, 2584.769 196.578 M 1546.396 205.353 C 1546.727 208.184, 1556.461 313.775, 1568.028 440 C 1579.595 566.225, 1589.258 670.066, 1589.501 670.757 C 1589.851 671.753, 1603.592 671.961, 1655.615 671.757 L 1721.287 671.500 1821.579 437.500 C 1916.726 215.507, 1921.760 203.467, 1919.686 202.850 C 1918.484 202.492, 1890.045 202.155, 1856.488 202.100 L 1795.476 202 1740.488 350.380 C 1710.245 431.990, 1685.394 498.252, 1685.264 497.630 C 1685.134 497.009, 1681.854 430.145, 1677.975 349.044 C 1674.096 267.944, 1670.827 201.515, 1670.711 201.425 C 1670.595 201.335, 1642.441 201.024, 1608.148 200.734 L 1545.795 200.206 1546.396 205.353 M 2104.992 471.580 C 2094.917 477.801, 2091.467 479.492, 2070.500 488.481 C 2040.471 501.354, 2033.708 505.166, 2024.264 514.540 C 2014.694 524.039, 2011.043 530.815, 2008.427 543.933 C 2006.188 555.159, 2006.970 563.465, 2011.045 571.742 C 2014.747 579.262, 2019.651 582.606, 2029.436 584.282 C 2034.917 585.221, 2038.218 585.047, 2051.199 583.136 C 2068.855 580.536, 2092.125 576.159, 2093.806 575.120 C 2094.877 574.458, 2113.392 469.677, 2112.768 467.804 C 2112.612 467.336, 2109.113 469.035, 2104.992 471.580" stroke="none" fill="#4c549c" fill-rule="evenodd"/><path d="M 118.500 731.151 C 95.973 733.657, 74.819 742.078, 58.606 754.994 C 36.669 772.470, 24.659 793.503, 19.486 823.500 C 17.210 836.698, 17.145 863.028, 19.357 875.636 C 25.986 913.412, 45.140 939.335, 78.371 955.505 C 96.520 964.336, 113.526 967.988, 136.500 967.988 C 183.355 967.988, 215.647 950.264, 233.932 914.511 C 237.729 907.085, 242.623 894.175, 241.853 893.616 C 241.659 893.475, 230.925 890.328, 218 886.622 C 205.075 882.916, 193.754 879.668, 192.843 879.404 C 191.578 879.038, 190.776 880.174, 189.453 884.212 C 186.377 893.595, 179.953 905.169, 174.794 910.625 C 164.576 921.429, 154.371 925.883, 138 926.683 C 108.602 928.121, 85.895 913.644, 77.627 888.192 C 73.112 874.297, 72.524 869.592, 72.537 847.500 C 72.550 824.256, 73.955 815.622, 79.817 802.791 C 87.831 785.245, 104.909 773.711, 126.971 770.944 C 146.560 768.488, 164.986 774.725, 177.424 788.022 C 182.010 792.924, 187.998 803.812, 187.999 807.250 C 188 808.212, 188.338 809.005, 188.750 809.011 C 189.162 809.017, 201.088 806.674, 215.250 803.804 C 232.752 800.258, 241 798.177, 241 797.309 C 241 794.809, 233.375 778.401, 229.470 772.500 C 220.733 759.295, 202.661 745.100, 186.800 738.983 C 166.719 731.239, 142.589 728.472, 118.500 731.151 M 411.825 733.458 C 382.998 737.591, 363.699 746.455, 346.422 763.500 C 326.849 782.809, 317.479 802.045, 314.043 829.974 C 312.687 840.993, 312.717 860.146, 314.109 871.500 C 320.401 922.852, 353.051 956.330, 407.476 967.235 C 422.051 970.155, 453.285 970.362, 468 967.636 C 505.008 960.779, 535.134 939.599, 549.981 910 C 558.778 892.462, 562.328 875.589, 562.292 851.500 C 562.235 814.545, 552.220 788.242, 529.716 765.949 C 512.715 749.107, 493.084 739.199, 467.374 734.483 C 455.070 732.227, 424.369 731.660, 411.825 733.458 M 1014 735.617 C 1004.729 736.236, 992.877 738.040, 984.937 740.041 C 960.587 746.178, 942.213 762.246, 934.813 783.875 C 931.601 793.262, 931.640 806.848, 934.906 816.403 C 938.125 825.822, 946.136 837.258, 954.344 844.152 C 967.650 855.327, 982.957 861.459, 1018.812 869.979 C 1061.261 880.065, 1068.908 882.714, 1074.734 889.350 C 1085.275 901.355, 1078.896 919.664, 1061.380 927.683 C 1053.630 931.231, 1043.822 932.965, 1031.500 932.965 C 1000.896 932.965, 983.370 921.284, 976.409 896.246 C 974.340 888.805, 977.567 889.286, 945.717 891.668 L 922.933 893.373 923.595 897.936 C 925.749 912.783, 933.282 930.087, 942.082 940.399 C 956.755 957.593, 976.161 967.625, 1002.128 971.439 C 1014.578 973.268, 1046.819 973.550, 1058.678 971.934 C 1091.607 967.448, 1115.317 952.921, 1125.858 930.774 C 1131.157 919.640, 1132.506 913.468, 1132.368 901 C 1132.156 881.815, 1127.128 869.143, 1114.853 856.859 C 1108.685 850.686, 1105.261 848.233, 1097.146 844.170 C 1084.853 838.016, 1067.710 832.379, 1046.500 827.517 C 1014.852 820.262, 998.068 814.745, 989.853 808.895 C 982.888 803.936, 981.372 793.276, 986.727 786.912 C 990.085 782.922, 999.660 778.180, 1007.878 776.438 C 1021.970 773.451, 1044.557 775.183, 1053.939 779.969 C 1063.233 784.710, 1070.003 793.916, 1071.617 804.004 L 1072.299 808.271 1093.899 807.610 C 1105.780 807.246, 1117.862 806.683, 1120.750 806.359 C 1125.612 805.813, 1125.999 805.575, 1125.983 803.135 C 1125.944 797.237, 1122.805 786.032, 1119.069 778.450 C 1108 755.992, 1084.407 741.546, 1051.500 737.080 C 1043.110 735.942, 1021.668 735.105, 1014 735.617 M 640 851.841 L 640 967 664.494 967 L 688.987 967 689.244 893.042 L 689.500 819.084 740.868 893.542 L 792.236 968 818.618 968 L 845 968 845 853.617 L 845 739.233 842.750 738.630 C 841.513 738.299, 830.490 738.021, 818.256 738.014 L 796.013 738 795.756 813.392 L 795.500 888.785 744.116 813.869 C 715.855 772.665, 692.399 738.746, 691.990 738.494 C 691.582 738.242, 679.717 737.730, 665.624 737.358 L 640 736.681 640 851.841 M 1213 814.326 C 1213 903.268, 1213.817 914.662, 1221.324 930.465 C 1230.168 949.079, 1250.426 964.674, 1273.290 970.470 C 1298.056 976.748, 1343.210 976.466, 1364.647 969.899 C 1380.333 965.095, 1396.466 954.048, 1404.704 942.471 C 1407.040 939.187, 1410.344 932.947, 1412.045 928.604 C 1417.889 913.682, 1418.247 907.906, 1418.725 820.750 L 1419.158 742 1392.079 742 L 1365 742 1365 820.816 C 1365 900.598, 1364.715 907.749, 1361.266 914.480 C 1357.197 922.421, 1349.218 928.775, 1339.765 931.601 C 1334.744 933.102, 1330.322 933.467, 1317.500 933.437 C 1303.547 933.405, 1300.691 933.114, 1295.171 931.163 C 1279.167 925.505, 1269.904 915.107, 1266.966 899.500 C 1266.220 895.542, 1265.659 867.544, 1265.316 817.250 L 1264.796 741 1238.898 741 L 1213 741 1213 814.326 M 1511 857.837 L 1511 971.674 1556.750 972.336 C 1581.912 972.700, 1622.862 972.998, 1647.750 972.999 L 1693 973 1693 953.663 L 1693 934.326 1650.250 933.664 C 1626.737 933.300, 1597.713 933.002, 1585.750 933.001 L 1564 933 1564 838.500 L 1564 744 1537.500 744 L 1511 744 1511 857.837 M 1722 763.500 L 1722 783 1756.250 783.011 C 1775.088 783.017, 1792.188 783.301, 1794.250 783.642 L 1798 784.262 1798 879.131 L 1798 974 1824 974 L 1850 974 1850 879 L 1850 784 1888 784 L 1926 784 1926 764.663 L 1926 745.327 1876.336 744.663 C 1849.020 744.299, 1803.120 744, 1774.336 744 L 1722 744 1722 763.500 M 2532.500 745.047 C 2492.443 748.548, 2460.871 765.704, 2441.259 794.628 C 2433.420 806.188, 2427.454 821.020, 2424.326 836.725 C 2421.876 849.027, 2421.882 875.361, 2424.338 887 C 2429.821 912.985, 2439.750 932.118, 2455.993 948 C 2469.734 961.435, 2487.586 971.231, 2508.544 976.836 C 2534.617 983.809, 2571.882 983.842, 2599.260 976.916 C 2619.531 971.787, 2646.645 959.912, 2657.260 951.513 L 2663.020 946.955 2662.760 901.227 L 2662.500 855.500 2606.750 855.242 L 2551 854.983 2551 874.492 L 2551 894 2580.527 894 L 2610.053 894 2609.777 908.750 L 2609.500 923.500 2597 929.728 C 2578.574 938.908, 2572.369 940.352, 2551 940.433 C 2535.337 940.493, 2532.713 940.254, 2526 938.158 C 2513.537 934.267, 2505.301 929.412, 2496.982 921.054 C 2484.845 908.859, 2478.896 894.068, 2477.155 871.755 C 2473.455 824.353, 2492.103 794.415, 2530.208 786.584 C 2541.235 784.318, 2558.713 784.497, 2568.404 786.975 C 2584.312 791.044, 2597.027 800.860, 2604.259 814.655 C 2607.055 819.989, 2608.454 821.713, 2609.755 821.429 C 2612.881 820.747, 2656.659 814, 2657.959 814 C 2660.758 814, 2655.704 798.721, 2649.280 787.761 C 2644.890 780.270, 2635.301 770.029, 2627.391 764.385 C 2619.606 758.830, 2606.744 752.763, 2597.074 750.086 C 2580.788 745.577, 2552.074 743.336, 2532.500 745.047 M 1996 860 L 1996 975 2022 975 L 2048 975 2048 860.656 L 2048 746.312 2032.841 745.656 C 2024.504 745.295, 2012.804 745, 2006.841 745 L 1996 745 1996 860 M 2135 861 L 2135 976 2159.494 976 L 2183.987 976 2184.244 902.083 L 2184.500 828.167 2235.453 902.583 L 2286.406 977 2313.207 977 L 2340.008 977 2339.754 862.250 L 2339.500 747.500 2314.756 747.233 L 2290.013 746.965 2289.756 822.278 L 2289.500 897.591 2237.544 821.795 L 2185.588 746 2160.294 746 L 2135 746 2135 861 M 421.754 773.510 C 400.751 777.499, 384.717 789.373, 375.992 807.399 C 366.948 826.083, 364.721 855.411, 370.594 878.465 C 375.311 896.981, 387.904 912.936, 404.034 920.835 C 414.594 926.005, 421.868 927.905, 434 928.660 C 456.737 930.076, 477.641 922.303, 490.589 907.617 C 496.194 901.261, 502.326 889.025, 505.183 878.500 C 507.041 871.655, 507.363 867.756, 507.414 851.500 C 507.481 829.718, 505.828 820.625, 499.332 807.040 C 492.250 792.231, 475.325 779.056, 457.500 774.479 C 448.682 772.215, 431.085 771.737, 421.754 773.510" stroke="none" fill="#84848c" fill-rule="evenodd"/></svg>