<svg width="127" height="42" viewBox="0 0 127 42" fill="none" xmlns="http://www.w3.org/2000/svg">
<path fill-rule="evenodd" clip-rule="evenodd" d="M0 31.5327V9.47237H2.83076V18.5683H13.8303V9.47237H16.661V31.5118H13.8303V21.1403H2.85098V31.5118H0V31.5327ZM21.0689 12.5462V9.47237H23.6975V12.5462H21.0689ZM21.0689 31.5327V15.5573H23.6975V31.5327H21.0689ZM26.7507 24.3814L30.9564 23.9423C31.199 25.3851 31.7247 26.4515 32.4931 27.1416C33.2614 27.8316 34.3129 28.1662 35.6069 28.1662C36.9819 28.1662 38.0131 27.8525 38.7208 27.2461C39.4285 26.6397 39.7722 25.9497 39.7722 25.1342C39.7722 24.6114 39.6306 24.1514 39.3274 23.7959C39.0241 23.4404 38.5186 23.1059 37.7907 22.8341C37.2852 22.6668 36.1529 22.3322 34.3735 21.8722C32.0685 21.2867 30.4509 20.5548 29.541 19.6766C28.2267 18.4638 27.5999 16.9792 27.5999 15.2436C27.5999 14.1145 27.9032 13.048 28.5098 12.0862C29.1366 11.1034 30.0061 10.3506 31.1586 9.84875C32.3313 9.326 33.7063 9.07507 35.3441 9.07507C38.0131 9.07507 40.0148 9.68147 41.3695 10.8943C42.7243 12.128 43.4117 13.759 43.4926 15.8082L39.1858 15.9755C39.0038 14.8254 38.6197 14.0099 38.0131 13.529C37.4065 13.048 36.5168 12.7762 35.3036 12.7762C34.0702 12.7762 33.0997 13.048 32.392 13.5708C31.9472 13.9263 31.7045 14.3863 31.7045 14.9509C31.7045 15.4736 31.9269 15.9337 32.3515 16.2891C32.8773 16.7701 34.2118 17.2719 36.2944 17.7947C38.377 18.2965 39.9339 18.8193 40.9247 19.3838C41.9155 19.9275 42.704 20.6803 43.2702 21.6213C43.8363 22.5831 44.1194 23.7332 44.1194 25.1342C44.1194 26.3888 43.7757 27.5807 43.0882 28.6889C42.421 29.7972 41.4504 30.6127 40.217 31.1354C38.9836 31.6791 37.4469 31.93 35.5867 31.93C32.8975 31.93 30.8148 31.2818 29.3793 30.0063C27.9032 28.7098 27.0338 26.8279 26.7507 24.3814ZM54.755 15.5364V18.882H51.9647V25.3642C51.9647 26.6606 51.9849 27.4343 52.0253 27.6643C52.086 27.8734 52.2073 28.0616 52.4095 28.208C52.5915 28.3544 52.8139 28.4171 53.097 28.4171C53.4812 28.4171 54.0271 28.2707 54.7348 28.0198L55.0785 31.3027C54.1282 31.7209 53.0768 31.93 51.8636 31.93C51.1357 31.93 50.4684 31.8046 49.882 31.5536C49.2957 31.3027 48.8508 30.9682 48.5678 30.5499C48.3049 30.1527 48.1027 29.5881 48.0016 28.898C47.9207 28.3962 47.8803 27.4134 47.8803 25.9079V18.9029H46.0201V15.5573H47.8803V12.3789L51.9647 9.89057V15.5573H54.755V15.5364ZM60.6592 20.4712L56.9589 19.8021C57.3836 18.2338 58.0913 17.0837 59.1022 16.3309C60.1334 15.5991 61.6499 15.2227 63.6517 15.2227C65.4715 15.2227 66.8262 15.4318 67.7158 15.8918C68.6055 16.3309 69.2323 16.8955 69.5963 17.5856C69.9602 18.2756 70.1422 19.5302 70.1422 21.3494L70.0815 26.2843C70.0815 27.6852 70.1422 28.7098 70.2837 29.379C70.4051 30.0481 70.6679 30.78 71.0117 31.5327H66.9677C66.8464 31.2609 66.7251 30.8427 66.5835 30.299C66.5229 30.0481 66.4622 29.8808 66.4218 29.7972C65.7343 30.5081 64.9862 31.0309 64.1976 31.3864C63.409 31.7418 62.5598 31.9091 61.6701 31.9091C60.093 31.9091 58.8394 31.47 57.9295 30.5709C57.0196 29.6926 56.5546 28.5635 56.5546 27.1834C56.5546 26.2842 56.7568 25.4897 57.1814 24.7787C57.606 24.0887 58.1721 23.5241 58.9405 23.1477C59.6886 22.7922 60.7603 22.4577 62.1756 22.1649C64.0763 21.8094 65.4108 21.454 66.1387 21.1403V20.7221C66.1387 19.8857 65.9365 19.3211 65.5725 18.9656C65.1884 18.6102 64.4402 18.422 63.3686 18.422C62.6407 18.422 62.0745 18.5893 61.6701 18.882C61.2253 19.1957 60.9018 19.7184 60.6592 20.4712ZM66.1387 23.9005C65.613 24.0678 64.784 24.2978 63.6517 24.5487C62.5194 24.7996 61.7915 25.0505 61.4275 25.2806C60.9018 25.6779 60.6187 26.1588 60.6187 26.7652C60.6187 27.3716 60.8209 27.8734 61.2657 28.3125C61.6904 28.7517 62.2161 28.9608 62.8833 28.9608C63.6315 28.9608 64.3391 28.7098 65.0064 28.208C65.4917 27.8316 65.8152 27.3716 65.9769 26.807C66.078 26.4515 66.1387 25.7406 66.1387 24.7369V23.9005ZM72.3866 15.5364H74.6512V14.3445C74.6512 12.9853 74.7927 12.0025 75.0758 11.3334C75.3589 10.6643 75.8644 10.1206 76.6125 9.70238C77.3606 9.28418 78.311 9.07507 79.4433 9.07507C80.616 9.07507 81.7685 9.24236 82.8806 9.61874L82.3549 12.5462C81.6877 12.3789 81.0406 12.2953 80.4543 12.2953C79.8477 12.2953 79.4231 12.4416 79.14 12.7344C78.8569 13.0271 78.7558 13.5708 78.7558 14.4072V15.5364H81.809V18.8611H78.7558V31.5118H74.6714V18.8611H72.4068V15.5364H72.3866ZM82.2943 15.5364H84.5589V14.3445C84.5589 12.9853 84.7004 12.0025 84.9835 11.3334C85.2666 10.6643 85.772 10.1206 86.5202 9.70238C87.2683 9.28418 88.2186 9.07507 89.3509 9.07507C90.5237 9.07507 91.6762 9.24236 92.7883 9.61874L92.2626 12.5462C91.5953 12.3789 90.9483 12.2953 90.3417 12.2953C89.7351 12.2953 89.3105 12.4416 89.0274 12.7344C88.7848 13.0271 88.6432 13.5708 88.6432 14.4072V15.5364H91.6964V18.8611H88.6432V31.5118H84.5589V18.8611H82.2943V15.5364Z" fill="white"/>
<path fill-rule="evenodd" clip-rule="evenodd" d="M108.944 5.79217C108.175 3.07383 105.628 2.65563 103.505 4.16117C101.321 5.70853 99.865 9.05418 100.613 11.7307C101.382 14.449 103.929 14.8672 106.052 13.3826C108.236 11.8352 109.692 8.46869 108.944 5.79217Z" fill="#F37540"/>
<path fill-rule="evenodd" clip-rule="evenodd" d="M100.654 30.7172C101.523 29.9435 102.676 29.2117 103.606 28.5844L105.425 27.4134C108.054 22.1231 111.592 17.1674 115.313 12.6507C118.71 8.48958 122.673 4.14024 127 1.00369L126.272 0C121.642 2.53015 117.395 5.98034 113.574 9.68147C109.55 13.5917 105.85 17.9201 102.878 22.7295L102.756 22.8968L101.907 21.0567C101.28 19.7184 99.5415 16.1846 97.7823 16.1846C96.0232 16.1846 94.345 17.481 93.1116 18.7147C94.2034 19.112 95.1133 19.8648 95.8412 20.7848C96.9735 22.1649 97.8834 24.0468 98.6113 25.6988L99.2988 27.2461C99.7436 28.3544 100.29 29.5881 100.654 30.7172Z" fill="#F37540"/>
<path fill-rule="evenodd" clip-rule="evenodd" d="M0.10083 41.0888V36.2794H1.59709C2.16324 36.2794 2.54742 36.3003 2.72939 36.3421C2.99225 36.4049 3.21467 36.5721 3.39664 36.8231C3.57862 37.074 3.6595 37.3667 3.6595 37.764C3.6595 38.0568 3.59884 38.3077 3.49774 38.4959C3.39664 38.705 3.25511 38.8514 3.11357 38.9768C2.95181 39.1023 2.79005 39.165 2.62829 39.1859C2.40588 39.2487 2.08236 39.2487 1.65775 39.2487H1.03094V41.0679H0.10083V41.0888ZM1.03094 37.0949V38.475H1.55665C1.9206 38.475 2.18346 38.4541 2.30478 38.4122C2.4261 38.3495 2.50698 38.2868 2.58786 38.1613C2.64851 38.0568 2.70917 37.9313 2.70917 37.8058C2.70917 37.6177 2.64851 37.4713 2.54742 37.3667C2.44632 37.2413 2.325 37.1785 2.16324 37.1576C2.04192 37.1367 1.81951 37.1158 1.49599 37.1158H1.03094V37.0949ZM5.41862 41.0888V36.2794H7.42037C7.90564 36.2794 8.2696 36.3212 8.49201 36.4049C8.71443 36.4885 8.89641 36.6558 9.03794 36.8649C9.15926 37.074 9.24014 37.3458 9.24014 37.6177C9.24014 37.9731 9.13904 38.2868 8.93685 38.5168C8.73465 38.7468 8.43135 38.9141 8.02696 38.9768C8.22916 39.1023 8.39091 39.2277 8.53245 39.3741C8.65377 39.5205 8.83575 39.7714 9.05816 40.1478L9.62432 41.0679H8.49201L7.82476 40.0223C7.58213 39.646 7.42037 39.4159 7.31927 39.3114C7.23839 39.2277 7.13729 39.1441 7.03619 39.1023C6.93509 39.0814 6.79356 39.0605 6.55092 39.0605H6.36894V41.0679H5.41862V41.0888ZM6.38916 38.3286H7.07663C7.52147 38.3286 7.82476 38.3077 7.92586 38.2659C8.04718 38.224 8.12806 38.1404 8.1685 38.0568C8.22916 37.9522 8.2696 37.8477 8.2696 37.7013C8.2696 37.534 8.22916 37.4085 8.14828 37.304C8.0674 37.1994 7.94608 37.1367 7.80454 37.1158C7.72366 37.0949 7.50125 37.0949 7.11707 37.0949H6.38916V38.3286ZM10.9386 38.705C10.9386 38.224 10.9993 37.8058 11.1408 37.4713C11.2419 37.2204 11.3834 37.0113 11.5856 36.8021C11.7676 36.614 11.9698 36.4676 12.1922 36.363C12.4753 36.2376 12.819 36.1748 13.183 36.1748C13.8705 36.1748 14.4366 36.4049 14.841 36.844C15.2454 37.2831 15.4678 37.9104 15.4678 38.6841C15.4678 39.4578 15.2656 40.0851 14.841 40.5033C14.4366 40.9424 13.8907 41.1515 13.2032 41.1515C12.5157 41.1515 11.9698 40.9424 11.5452 40.5033C11.1408 40.0851 10.9386 39.4787 10.9386 38.705ZM11.9091 38.6841C11.9091 39.2277 12.0305 39.6459 12.2731 39.9387C12.5157 40.2105 12.819 40.3569 13.2032 40.3569C13.5874 40.3569 13.8907 40.2105 14.1333 39.9387C14.3759 39.6669 14.4973 39.2487 14.4973 38.6841C14.4973 38.1404 14.3759 37.7222 14.1535 37.4504C13.9311 37.1785 13.6076 37.0531 13.2032 37.0531C12.7988 37.0531 12.4955 37.1785 12.2529 37.4504C12.0102 37.7222 11.9091 38.1404 11.9091 38.6841ZM17.2067 41.0888V36.2794H20.4014V37.0949H18.1368V38.245H20.0779V39.0605H18.1368V41.1097H17.2067V41.0888ZM22.1605 41.0888V36.2794H25.6181V37.0949H23.1109V38.1613H25.4361V38.9768H23.1109V40.2733H25.699V41.0888H22.1605ZM27.2559 39.5414L28.1658 39.4368C28.2265 39.7505 28.3276 39.9805 28.5095 40.1478C28.6713 40.2942 28.8937 40.3569 29.197 40.3569C29.5003 40.3569 29.7227 40.2942 29.8643 40.1478C30.0058 40.0014 30.1069 39.8551 30.1069 39.6878C30.1069 39.5623 30.0664 39.4787 30.0058 39.395C29.9451 39.3323 29.8238 39.2487 29.6621 39.1859C29.5407 39.1441 29.2981 39.0605 28.9139 38.9768C28.4287 38.8514 28.0647 38.6841 27.8625 38.4959C27.5794 38.245 27.4177 37.9104 27.4177 37.5131C27.4177 37.2622 27.4783 37.0322 27.6199 36.8231C27.7412 36.614 27.9434 36.4467 28.186 36.3212C28.4287 36.1958 28.7522 36.1539 29.0959 36.1539C29.6823 36.1539 30.1271 36.2794 30.4102 36.5512C30.7135 36.8021 30.855 37.1785 30.8752 37.6177L29.9249 37.6386C29.8845 37.3876 29.8036 37.2204 29.6823 37.0949C29.5407 36.9903 29.3385 36.9276 29.0757 36.9276C28.8128 36.9276 28.5904 36.9903 28.4489 37.0949C28.3478 37.1576 28.2871 37.2622 28.2871 37.4085C28.2871 37.534 28.3478 37.6177 28.4287 37.7013C28.55 37.8058 28.833 37.9104 29.2981 38.0149C29.7429 38.1404 30.1069 38.245 30.3091 38.3704C30.5315 38.4959 30.6933 38.6632 30.8348 38.8723C30.9561 39.0814 31.0168 39.3323 31.0168 39.6459C31.0168 39.9178 30.9561 40.1896 30.7944 40.4196C30.6326 40.6706 30.4506 40.8378 30.1675 40.9633C29.9047 41.0888 29.561 41.1306 29.1566 41.1306C28.5702 41.1306 28.1254 41.0051 27.8018 40.7124C27.5188 40.4824 27.3166 40.0851 27.2559 39.5414ZM32.5939 39.5414L33.524 39.4368C33.5847 39.7505 33.6858 39.9805 33.8678 40.1478C34.0295 40.2942 34.2519 40.3569 34.535 40.3569C34.8383 40.3569 35.0607 40.2942 35.2225 40.1478C35.3842 40.0014 35.4449 39.8551 35.4449 39.6878C35.4449 39.5623 35.4247 39.4787 35.3438 39.395C35.2831 39.3323 35.182 39.2487 35.0001 39.1859C34.8787 39.1441 34.6563 39.0605 34.2519 38.9768C33.7464 38.8514 33.4027 38.6841 33.1803 38.4959C32.8972 38.245 32.7557 37.9104 32.7557 37.5131C32.7557 37.2622 32.8163 37.0322 32.9579 36.8231C33.0994 36.614 33.3016 36.4467 33.5442 36.3212C33.7869 36.1958 34.0902 36.1539 34.4541 36.1539C35.0203 36.1539 35.4853 36.2794 35.7684 36.5512C36.0717 36.8021 36.2132 37.1785 36.2335 37.6177L35.2831 37.6386C35.2629 37.3876 35.1618 37.2204 35.0405 37.0949C34.9192 36.9903 34.717 36.9276 34.4541 36.9276C34.1913 36.9276 33.9689 36.9903 33.8273 37.0949C33.7262 37.1576 33.6656 37.2622 33.6656 37.4085C33.6656 37.534 33.706 37.6177 33.8071 37.7013C33.9284 37.8058 34.2115 37.9104 34.6563 38.0149C35.1214 38.1404 35.4651 38.245 35.6875 38.3704C35.8897 38.4959 36.0717 38.6632 36.193 38.8723C36.3143 39.0814 36.375 39.3323 36.375 39.6459C36.375 39.9178 36.3143 40.1896 36.1728 40.4196C36.011 40.6706 35.8088 40.8378 35.546 40.9633C35.2629 41.0888 34.9192 41.1306 34.5148 41.1306C33.9284 41.1306 33.4836 41.0051 33.1601 40.7124C32.8568 40.4824 32.6748 40.0851 32.5939 39.5414ZM38.1543 41.0888V36.2794H39.1047V41.0888H38.1543ZM40.8031 38.705C40.8031 38.224 40.8638 37.8058 41.0053 37.4713C41.1064 37.2204 41.248 37.0113 41.4501 36.8021C41.6321 36.614 41.8343 36.4676 42.0567 36.363C42.36 36.2376 42.6836 36.1748 43.0475 36.1748C43.7552 36.1748 44.3011 36.4049 44.7055 36.844C45.1099 37.2831 45.3323 37.9104 45.3323 38.6841C45.3323 39.4578 45.1301 40.0851 44.7055 40.5033C44.3011 40.9424 43.7552 41.1515 43.0677 41.1515C42.3803 41.1515 41.8343 40.9424 41.4299 40.5033C41.0053 40.0851 40.8031 39.4787 40.8031 38.705ZM41.7737 38.6841C41.7737 39.2277 41.895 39.6459 42.1376 39.9387C42.3803 40.2105 42.7038 40.3569 43.0677 40.3569C43.4519 40.3569 43.7552 40.2105 43.9978 39.9387C44.2405 39.6669 44.3618 39.2487 44.3618 38.6841C44.3618 38.1404 44.2405 37.7222 44.0181 37.4504C43.7956 37.1785 43.4721 37.0531 43.0677 37.0531C42.6836 37.0531 42.36 37.1785 42.1174 37.4504C41.8748 37.7222 41.7737 38.1404 41.7737 38.6841ZM47.0712 41.0888V36.2794H47.9811L49.8818 39.5205V36.2794H50.7714V41.0888H49.8211L47.9407 37.9313V41.0888H47.0712ZM56.9587 41.0888H55.9477L55.5433 40.0014H53.6831L53.2989 41.0888H52.3081L54.1279 36.2794H55.1187L56.9587 41.0888ZM55.24 39.1859L54.593 37.4085L53.9662 39.1859H55.24ZM58.4954 41.0888V36.3212H59.4457V40.2942H61.7912V41.1097H58.4954V41.0888ZM65.1274 41.0888V36.2794H66.0778V38.1822H67.9178V36.2794H68.8681V41.0888H67.9178V38.9768H66.0778V41.0888H65.1274ZM70.8294 41.0888V36.2794H72.8109C73.3164 36.2794 73.6804 36.3212 73.9028 36.4049C74.1252 36.4885 74.3072 36.6558 74.4285 36.8649C74.57 37.074 74.6307 37.3458 74.6307 37.6177C74.6307 37.9731 74.5296 38.2868 74.3274 38.5168C74.1252 38.7468 73.8219 38.9141 73.4175 38.9768C73.6197 39.1023 73.7815 39.2277 73.9028 39.3741C74.0443 39.5205 74.2061 39.7714 74.4285 40.1478L74.9947 41.0679H73.8624L73.1951 40.0223C72.9525 39.646 72.7705 39.4159 72.6896 39.3114C72.6087 39.2277 72.5076 39.1441 72.4065 39.1023C72.3054 39.0814 72.1437 39.0605 71.9213 39.0605H71.7191V41.0679H70.8294V41.0888ZM71.7797 38.3286H72.4874C72.9323 38.3286 73.2153 38.3077 73.3366 38.2659C73.458 38.224 73.5388 38.1404 73.5995 38.0568C73.6602 37.9522 73.7006 37.8477 73.7006 37.7013C73.7006 37.534 73.6602 37.4085 73.5793 37.304C73.4984 37.1994 73.3771 37.1367 73.2355 37.1158C73.1547 37.0949 72.9323 37.0949 72.5481 37.0949H71.7999V38.3286H71.7797ZM76.5111 41.0888V36.2794H77.9265L78.7757 39.5832L79.5845 36.2794H80.9999V41.0888H80.1305V37.304L79.2004 41.0888H78.3107L77.4008 37.304L77.3806 41.0888H76.5111ZM84.5181 39.5414L85.428 39.4368C85.4887 39.7505 85.5898 39.9805 85.7718 40.1478C85.9335 40.2942 86.1559 40.3569 86.4592 40.3569C86.7625 40.3569 86.985 40.2942 87.1265 40.1478C87.2883 40.0223 87.3691 39.8551 87.3691 39.6878C87.3691 39.5623 87.3287 39.4787 87.268 39.395C87.2074 39.3323 87.0861 39.2487 86.9243 39.1859C86.803 39.1441 86.5603 39.0605 86.1762 38.9768C85.6909 38.8514 85.3269 38.6841 85.1247 38.4959C84.8417 38.245 84.7001 37.9104 84.7001 37.5131C84.7001 37.2622 84.7608 37.0322 84.9023 36.8231C85.0236 36.614 85.2258 36.4467 85.4685 36.3212C85.7111 36.1958 86.0346 36.1539 86.3784 36.1539C86.9647 36.1539 87.4096 36.2794 87.6926 36.5512C87.9959 36.8021 88.1375 37.1785 88.1577 37.6177L87.2074 37.6386C87.1669 37.3876 87.0861 37.2204 86.9647 37.0949C86.8232 36.9903 86.621 36.9276 86.3784 36.9276C86.0953 36.9276 85.8931 36.9903 85.7313 37.0949C85.6302 37.1576 85.5898 37.2622 85.5898 37.4085C85.5898 37.534 85.6302 37.6177 85.7313 37.7013C85.8526 37.8058 86.1155 37.9104 86.5806 38.0149C87.0456 38.1404 87.3894 38.245 87.5915 38.3704C87.814 38.4959 87.9757 38.6632 88.1173 38.8723C88.2386 39.0814 88.2992 39.3323 88.2992 39.6459C88.2992 39.9178 88.2386 40.1896 88.0768 40.4196C87.9353 40.6706 87.7331 40.8378 87.45 40.9633C87.1871 41.0888 86.8434 41.1306 86.439 41.1306C85.8526 41.1306 85.4078 41.0051 85.0843 40.7124C84.781 40.4824 84.5788 40.0851 84.5181 39.5414ZM89.9168 38.705C89.9168 38.224 89.9775 37.8058 90.1392 37.4713C90.2403 37.2204 90.3819 37.0113 90.5638 36.8021C90.766 36.614 90.948 36.4676 91.1704 36.363C91.4737 36.2376 91.7972 36.1748 92.1814 36.1748C92.8689 36.1748 93.4148 36.4049 93.8394 36.844C94.2438 37.2831 94.4662 37.9104 94.4662 38.6841C94.4662 39.4578 94.2641 40.0851 93.8394 40.5033C93.4148 40.9215 92.8891 41.1515 92.2016 41.1515C91.5142 41.1515 90.948 40.9424 90.5436 40.5033C90.119 40.0851 89.9168 39.4787 89.9168 38.705ZM90.8874 38.6841C90.8874 39.2277 91.0087 39.6459 91.2715 39.9387C91.5142 40.2105 91.8175 40.3569 92.2016 40.3569C92.5858 40.3569 92.8891 40.2105 93.1317 39.9387C93.3744 39.6669 93.4957 39.2487 93.4957 38.6841C93.4957 38.1404 93.3744 37.7222 93.1317 37.4504C92.9093 37.1785 92.606 37.0531 92.2016 37.0531C91.8175 37.0531 91.4939 37.1785 91.2513 37.4504C91.0087 37.7013 90.8874 38.1404 90.8874 38.6841ZM96.2051 41.0888V36.3212H97.1555V40.2942H99.501V41.1097H96.2051V41.0888ZM101.159 36.2794H102.109V38.8932C102.109 39.3114 102.13 39.5832 102.13 39.7087C102.17 39.8969 102.271 40.0642 102.433 40.1896C102.574 40.3151 102.777 40.3569 103.06 40.3569C103.302 40.3569 103.525 40.2942 103.646 40.1896C103.788 40.0642 103.848 39.9387 103.889 39.7923C103.909 39.625 103.929 39.3323 103.929 38.9559V36.2794H104.879V38.8095C104.879 39.395 104.859 39.7923 104.799 40.0432C104.758 40.2733 104.657 40.4824 104.515 40.6287C104.374 40.796 104.212 40.9424 103.97 41.026C103.747 41.1306 103.444 41.1724 103.08 41.1724C102.635 41.1724 102.291 41.1306 102.069 41.026C101.826 40.9006 101.644 40.7751 101.523 40.6078C101.381 40.4405 101.301 40.2523 101.26 40.0642C101.199 39.7923 101.179 39.3741 101.179 38.8514V36.2794H101.159ZM107.892 41.0888V37.074H106.517V36.2585H110.217V37.074H108.842V41.0888H107.892ZM111.795 41.0888V36.2794H112.745V41.0888H111.795ZM114.423 38.705C114.423 38.224 114.484 37.8058 114.646 37.4713C114.747 37.2204 114.888 37.0113 115.09 36.8021C115.272 36.614 115.475 36.4676 115.677 36.363C115.98 36.2376 116.304 36.1748 116.688 36.1748C117.375 36.1748 117.921 36.4049 118.346 36.844C118.75 37.2831 118.973 37.9104 118.973 38.6841C118.973 39.4578 118.77 40.0851 118.346 40.5033C117.941 40.9424 117.395 41.1515 116.708 41.1515C116.02 41.1515 115.454 40.9424 115.05 40.5033C114.646 40.0851 114.423 39.4787 114.423 38.705ZM115.394 38.6841C115.394 39.2277 115.515 39.6459 115.778 39.9387C116.02 40.2105 116.324 40.3569 116.708 40.3569C117.092 40.3569 117.395 40.2105 117.638 39.9387C117.881 39.6669 118.002 39.2487 118.002 38.6841C118.002 38.1404 117.881 37.7222 117.658 37.4504C117.416 37.1785 117.112 37.0531 116.708 37.0531C116.304 37.0531 116 37.1785 115.758 37.4504C115.535 37.7013 115.394 38.1404 115.394 38.6841ZM120.691 41.0888V36.2794H121.601L123.522 39.5205V36.2794H124.391V41.0888H123.441L121.54 37.9313V41.0888H120.691Z" fill="#96989A"/>
</svg>
