<svg version="1.0" xmlns="http://www.w3.org/2000/svg" width="300px" height="239px" viewBox="0 0 6890 5500" preserveAspectRatio="xMidYMid meet">
<g id="layer101" fill="#0e4374" stroke="none">
 <path d="M1240 5106 c-12 -33 -215 -382 -293 -506 -38 -59 -63 -108 -58 -113 9 -9 237 -11 251 -2 4 3 32 55 63 117 31 62 72 139 91 172 20 32 36 62 36 67 0 5 4 9 9 9 10 0 62 -128 105 -260 17 -52 35 -101 40 -109 7 -10 31 -12 111 -9 57 3 108 8 114 12 7 5 5 18 -8 44 -10 20 -37 82 -59 137 -66 164 -183 429 -196 441 -6 7 -53 14 -104 17 -90 5 -93 5 -102 -17z"/>
 <path d="M1850 5112 c-47 -1 -89 -7 -94 -12 -5 -5 -9 -143 -8 -317 l2 -308 102 0 103 0 0 319 c0 205 -4 320 -10 321 -5 0 -48 -1 -95 -3z"/>
 <path d="M2049 5108 c-3 -11 -2 -88 5 -248 5 -102 8 -225 9 -275 0 -49 4 -96 10 -103 7 -9 37 -11 111 -7 96 4 102 6 121 32 20 28 155 198 188 237 18 20 18 17 15 -124 l-3 -145 110 0 110 0 0 235 c0 129 -2 271 -5 315 l-5 80 -94 0 -95 0 -36 -52 c-20 -29 -48 -67 -63 -85 -16 -18 -55 -68 -89 -111 -33 -43 -62 -76 -64 -75 -1 2 -5 75 -8 163 l-5 160 -105 3 c-58 1 -106 1 -107 0z"/>
 <path d="M2745 5101 c-3 -5 8 -36 25 -67 16 -32 30 -62 30 -65 0 -4 16 -43 36 -86 82 -175 107 -232 141 -313 19 -47 39 -91 45 -97 11 -14 104 -17 183 -6 47 6 48 6 77 72 17 36 67 143 113 236 175 359 171 341 67 331 -37 -3 -86 -6 -109 -6 -39 0 -44 -3 -57 -33 -13 -32 -17 -34 -76 -40 -35 -4 -98 -7 -142 -7 l-79 0 -19 45 -19 45 -105 0 c-58 0 -107 -4 -111 -9z m434 -298 c-12 -27 -25 -59 -30 -72 -9 -23 -12 -21 -39 38 -17 35 -30 67 -30 72 0 5 27 9 60 9 l59 0 -20 -47z"/>
 <path d="M3713 5088 c-6 -7 -10 -24 -8 -38 1 -14 6 -111 10 -217 l7 -192 -103 -3 -104 -3 0 -90 0 -90 100 -3 c55 -1 188 1 295 5 l195 8 5 68 c8 104 5 107 -89 107 l-79 0 -6 78 c-3 42 -8 145 -11 227 l-5 150 -99 3 c-70 2 -101 -1 -108 -10z"/>
 <path d="M4305 5092 c-71 -1 -134 -7 -139 -12 -12 -12 -10 -171 4 -370 6 -80 12 -170 13 -200 l2 -55 55 1 c30 1 147 3 260 6 l205 4 3 73 c4 105 7 104 -165 95 l-143 -7 0 32 c0 25 4 31 23 32 12 1 76 4 142 8 l120 6 3 56 c3 56 -11 114 -26 105 -5 -3 -66 -6 -138 -8 l-129 -3 -3 38 -3 37 113 2 c62 1 129 2 148 2 l35 1 3 68 c2 42 -2 74 -9 83 -9 11 -38 13 -128 11 -64 -1 -174 -3 -246 -5z"/>
 <path d="M4770 5086 c-6 -6 37 -59 108 -135 65 -69 123 -133 130 -142 10 -14 5 -26 -35 -80 -25 -35 -82 -106 -125 -157 -44 -52 -77 -99 -75 -105 3 -11 41 -13 187 -9 l65 2 75 91 c74 91 74 91 90 68 8 -13 39 -53 68 -90 l52 -68 123 -3 c67 -2 126 0 131 4 5 4 -11 31 -36 60 -24 29 -63 78 -86 108 -23 30 -55 71 -71 90 l-29 35 46 61 c79 103 161 203 189 228 17 16 24 30 19 41 -5 15 -21 16 -139 11 -72 -3 -133 -5 -134 -5 -1 -1 -30 -41 -64 -91 -33 -49 -65 -90 -69 -90 -12 0 -74 74 -117 138 l-35 53 -129 -3 c-72 -2 -134 -7 -139 -12z"/>
 <path d="M2925 3850 c-65 -5 -140 -14 -165 -19 -25 -6 -67 -13 -95 -17 -113 -14 -599 -128 -720 -169 -443 -148 -690 -269 -943 -462 -45 -35 -85 -63 -87 -63 -15 0 -191 -161 -266 -242 -158 -172 -214 -267 -270 -458 -67 -233 -46 -437 71 -671 111 -222 404 -528 685 -716 202 -135 638 -308 1000 -397 77 -19 147 -37 155 -40 59 -23 527 -81 780 -96 210 -14 606 -5 755 15 177 24 722 140 774 164 9 4 90 33 181 63 268 91 403 148 525 221 265 160 368 233 505 355 248 223 385 414 455 632 48 154 36 379 -32 565 -38 104 -90 202 -142 270 -62 82 -241 265 -326 335 -76 62 -251 182 -355 243 -195 116 -634 275 -970 353 -192 44 -357 76 -435 84 -49 6 -119 14 -155 20 -199 30 -702 46 -925 30z m635 -100 c168 -14 284 -30 378 -51 46 -11 94 -19 107 -19 14 0 86 -14 162 -31 76 -16 178 -39 227 -49 105 -23 360 -103 433 -137 28 -12 57 -23 63 -23 15 0 218 -96 354 -168 105 -55 275 -176 403 -286 215 -186 347 -372 401 -567 28 -101 29 -278 2 -404 -27 -122 -39 -153 -104 -266 -89 -154 -294 -365 -495 -509 -34 -25 -97 -71 -139 -102 -42 -32 -79 -58 -84 -58 -4 0 -31 -14 -60 -31 -136 -81 -404 -209 -499 -238 -57 -18 -122 -39 -144 -47 -22 -8 -67 -21 -100 -29 -33 -8 -69 -19 -80 -24 -22 -11 -320 -79 -375 -87 -19 -2 -60 -9 -90 -14 -60 -11 -64 -11 -320 -29 -181 -12 -585 -2 -757 20 -132 16 -145 18 -258 39 -60 12 -146 28 -190 36 -44 8 -102 21 -130 29 -27 8 -88 26 -135 39 -156 45 -363 117 -445 156 -44 21 -129 61 -188 89 -220 103 -424 246 -592 416 -124 125 -196 225 -280 389 -83 163 -95 204 -102 356 -5 116 -4 132 21 219 29 99 84 217 147 312 22 32 39 63 39 69 0 5 4 10 8 10 4 0 26 23 47 52 46 59 196 196 305 276 273 202 542 337 925 462 358 118 669 180 980 197 61 3 112 7 114 9 9 8 341 3 451 -6z"/>
 <path d="M3146 3371 c-7 -10 22 -35 73 -63 31 -17 55 -61 71 -134 5 -23 12 -225 15 -449 5 -416 18 -712 36 -820 10 -61 37 -141 68 -205 16 -33 20 -35 62 -34 62 3 149 16 154 24 2 3 -10 23 -26 43 -17 20 -28 37 -24 37 3 0 -2 15 -11 33 -20 37 -44 144 -37 163 2 6 0 29 -6 50 -16 62 -21 203 -22 629 -1 514 -10 595 -73 683 l-32 43 -121 5 c-74 3 -123 1 -127 -5z"/>
 <path d="M3465 3359 c-4 -6 2 -20 13 -32 12 -12 28 -39 36 -59 23 -54 36 -266 36 -583 0 -375 13 -713 28 -743 6 -9 13 -37 17 -62 9 -55 39 -115 78 -157 30 -32 31 -32 106 -26 92 7 105 16 69 46 -32 26 -69 136 -94 277 -17 100 -18 125 -15 720 1 201 -1 393 -4 428 -6 69 -33 136 -70 176 -22 24 -31 26 -109 26 -50 0 -88 -4 -91 -11z"/>
 <path d="M3696 3361 c-4 -6 8 -30 27 -54 58 -71 66 -167 66 -759 0 -391 2 -477 16 -548 25 -130 54 -214 87 -254 28 -35 32 -36 94 -36 36 0 74 5 85 10 19 11 18 12 -6 48 -28 41 -67 161 -87 267 -12 67 -17 472 -10 880 2 175 -10 271 -43 340 -35 72 -77 102 -157 110 -44 5 -68 3 -72 -4z"/>
 <path d="M3005 3346 c-124 -30 -195 -91 -550 -467 -219 -233 -334 -369 -368 -435 -9 -18 -16 -66 -18 -129 -5 -134 5 -135 107 -4 103 134 288 344 433 493 155 159 347 343 373 357 12 7 -46 -55 -128 -137 -175 -173 -531 -568 -635 -705 -40 -52 -92 -118 -116 -147 l-43 -54 -1 -104 c-1 -57 -2 -109 -3 -116 -1 -6 4 -13 10 -15 11 -4 75 75 251 307 40 52 113 140 163 195 49 55 131 147 182 205 135 152 336 344 572 547 31 27 36 36 30 60 -11 47 -58 98 -89 96 -22 -2 -25 1 -15 12 16 20 5 33 -38 45 -45 12 -53 12 -117 -4z"/>
 <path d="M3195 3057 c-148 -127 -278 -249 -374 -351 -117 -124 -404 -460 -477 -557 -27 -35 -73 -94 -103 -130 -31 -36 -74 -92 -96 -123 -22 -32 -54 -75 -70 -97 -28 -35 -31 -48 -35 -127 -7 -154 -5 -267 5 -271 11 -4 10 -5 65 109 46 97 118 199 345 489 17 21 75 96 130 166 54 71 151 185 215 253 63 68 129 143 146 166 17 22 99 107 182 187 l152 146 0 85 c0 115 -9 121 -85 55z"/>
 <path d="M4235 1703 c-11 -1 -121 -7 -245 -13 -124 -6 -268 -15 -320 -21 -52 -5 -156 -14 -230 -19 -74 -5 -245 -21 -380 -35 -422 -44 -463 -47 -556 -42 -89 5 -227 38 -239 57 -3 6 -15 15 -25 20 -17 9 -22 5 -42 -37 -12 -27 -30 -61 -41 -76 -10 -15 -16 -34 -13 -42 10 -27 115 -71 231 -96 73 -16 439 -17 541 -1 38 6 98 14 133 17 35 3 67 7 70 10 8 4 64 11 206 26 55 5 125 14 155 19 201 35 868 65 1020 45 80 -10 194 -37 221 -53 15 -8 34 -12 44 -8 15 5 16 16 10 84 -4 42 -9 80 -12 84 -7 13 -162 58 -237 69 -67 11 -247 18 -291 12z"/>
 <path d="M4100 1483 c-14 -2 -106 -10 -205 -18 -99 -8 -198 -17 -220 -20 -43 -5 -148 -21 -205 -30 -52 -9 -180 -26 -220 -29 -19 -2 -60 -7 -90 -11 -30 -4 -62 -8 -70 -7 -8 0 -60 -6 -115 -14 -55 -7 -127 -16 -160 -19 -33 -3 -90 -8 -126 -11 -80 -8 -277 11 -380 36 -42 10 -102 33 -134 50 -58 32 -72 31 -78 -5 -2 -11 -8 -30 -15 -42 -7 -12 -12 -38 -12 -58 0 -34 3 -37 53 -59 28 -13 57 -25 62 -26 6 -1 21 -8 35 -15 14 -7 68 -24 120 -36 77 -19 120 -23 230 -22 74 0 171 6 215 13 44 7 91 14 105 15 14 2 57 9 95 15 102 18 98 18 375 50 140 16 291 32 335 36 44 3 103 8 130 10 28 3 153 9 280 14 232 10 237 10 480 -25 61 -9 137 -28 164 -42 14 -6 28 -10 33 -7 4 3 8 41 8 84 0 72 -2 81 -23 94 -29 19 -102 45 -147 53 -19 3 -46 7 -60 9 -14 3 -88 7 -165 9 -77 3 -169 6 -205 8 -36 1 -76 1 -90 0z"/>
 <path d="M4050 1253 c-122 -5 -355 -23 -430 -33 -41 -5 -136 -17 -210 -25 -74 -9 -171 -22 -215 -30 -44 -8 -151 -23 -238 -35 -239 -30 -667 -26 -721 8 -6 3 -17 7 -24 8 -8 2 -22 10 -31 18 -10 9 -23 16 -30 16 -7 0 -26 9 -42 21 -36 25 -44 21 -47 -26 -4 -59 16 -101 71 -150 65 -59 88 -70 178 -91 191 -42 511 -26 924 48 156 27 308 47 615 78 52 6 212 10 355 11 277 0 373 -10 490 -52 84 -29 110 -30 109 -1 0 12 -1 51 -2 87 -2 62 -3 65 -34 79 -31 14 -110 33 -238 57 -54 10 -353 18 -480 12z"/>
 </g>

</svg>