<svg xmlns="http://www.w3.org/2000/svg" width="11.22" height="11.192" viewBox="0 0 11.22 11.192">
  <path id="address_2_" data-name="address (2)" d="M4.481,10.049v1.136l-.275-.222a18.421,18.421,0,0,1-2.077-2.03C.716,7.31,0,5.854,0,4.6V4.48a4.481,4.481,0,0,1,8.963,0V4.6c0,.1-.006.212-.016.319l-.876-.8a3.607,3.607,0,0,0-7.2.356V4.6c0,2.112,2.721,4.668,3.607,5.444ZM7.17,9.421H8.481V8.109H7.17Zm-2.689-6.8A1.858,1.858,0,1,1,2.623,4.48,1.86,1.86,0,0,1,4.481,2.622Zm0,.874a.984.984,0,1,0,.984.984A.985.985,0,0,0,4.481,3.5Zm6.149,5.33L10.384,8.6v1.4A1.187,1.187,0,0,1,9.2,11.191H6.431a1.187,1.187,0,0,1-1.185-1.185V8.6L5,8.826,4.41,8.181l3.4-3.106,3.4,3.106ZM9.51,7.8l-1.7-1.547L6.12,7.8v2.2a.311.311,0,0,0,.311.311H9.2a.311.311,0,0,0,.311-.311Zm0,0" transform="translate(0 0.001)" fill="#fff"/>
</svg>
