<svg id="Group_173" data-name="Group 173" xmlns="http://www.w3.org/2000/svg" width="11.992" height="11.992" viewBox="0 0 11.992 11.992">
  <path id="Path_37" data-name="Path 37" d="M11.564,3H9.422V.428A.428.428,0,0,0,8.994,0H3A.428.428,0,0,0,2.57.428V3H.428A.428.428,0,0,0,0,3.426V8.994a.428.428,0,0,0,.428.428H2.57v2.141A.428.428,0,0,0,3,11.992h6a.428.428,0,0,0,.428-.428V9.422h2.141a.428.428,0,0,0,.428-.428V3.426A.428.428,0,0,0,11.564,3ZM3.426.857H8.566V3H3.426ZM8.566,11.135H3.426V7.281H8.566Zm2.57-2.57H9.422V7.281h.428a.428.428,0,1,0,0-.857H2.141a.428.428,0,1,0,0,.857H2.57V8.566H.857V3.855H11.135Z" fill="#0e223d"/>
</svg>
