<svg width="50" height="45" viewBox="0 0 50 45" fill="none" xmlns="http://www.w3.org/2000/svg">
<path fill-rule="evenodd" clip-rule="evenodd" d="M23.072 8.44089C21.9523 4.47949 18.2396 3.87004 15.1457 6.06405C11.9633 8.319 9.8418 13.1946 10.932 17.095C12.0517 21.0564 15.7644 21.6659 18.8584 19.5023C22.0407 17.2474 24.1622 12.3413 23.072 8.44089Z" fill="#F37540"/>
<path fill-rule="evenodd" clip-rule="evenodd" d="M10.9908 44.7638C12.2578 43.6363 13.9374 42.5698 15.2928 41.6556L17.9448 39.9492C21.7753 32.2397 26.9319 25.0178 32.3536 18.4357C37.3039 12.3718 43.0792 6.03352 49.3849 1.46267L48.3241 0C41.5764 3.68715 35.3886 8.71508 29.8195 14.1087C23.9558 19.807 18.5635 26.1148 14.232 33.1234L14.0553 33.3672L12.8177 30.6856C11.9042 28.7354 9.37018 23.5856 6.80664 23.5856C4.2431 23.5856 1.79742 25.4748 0 27.2727C1.59116 27.8517 2.91713 28.9487 3.9779 30.2895C5.62799 32.3006 6.95396 35.0431 8.01474 37.4505L9.01659 39.7054C9.66484 41.3204 10.4604 43.1183 10.9908 44.7638Z" fill="#F37540"/>
</svg>
