<svg xmlns="http://www.w3.org/2000/svg" width="11.876" height="11.876" viewBox="0 0 11.876 11.876">
  <g id="notepad" transform="translate(-0.003)">
    <g id="Group_147" data-name="Group 147" transform="translate(0.003)">
      <g id="Group_146" data-name="Group 146" transform="translate(0)">
        <path id="Path_26" data-name="Path 26" d="M11.471,3.124a1.419,1.419,0,0,0-1.991,0L9.1,3.508V1.744A1.042,1.042,0,0,0,8.058.7H7.68V.348a.348.348,0,1,0-.7,0V.7h-.7V.348a.348.348,0,0,0-.7,0V.7H4.9V.348a.348.348,0,1,0-.7,0V.7h-.7V.348a.348.348,0,0,0-.7,0V.7h-.7V.348a.348.348,0,0,0-.7,0V.7H1.07A1.055,1.055,0,0,0,0,1.741v9.093a1.061,1.061,0,0,0,1.066,1.041H8.058A1.031,1.031,0,0,0,9.1,10.839V7.453c.8-.8,1.586-1.571,2.376-2.362A1.391,1.391,0,0,0,11.471,3.124ZM8.4,10.839a.338.338,0,0,1-.341.343H1.07A.37.37,0,0,1,.7,10.834V1.741a.372.372,0,0,1,.371-.349h.348V1.74a.348.348,0,1,0,.7,0V1.392h.7V1.74a.348.348,0,1,0,.7,0V1.392h.7V1.74a.348.348,0,0,0,.7,0V1.392h.7V1.74a.348.348,0,1,0,.7,0V1.392h.7V1.74a.348.348,0,1,0,.7,0V1.392h.378a.345.345,0,0,1,.341.353V4.2L6.312,6.288H1.766a.347.347,0,1,0,0,.693h3.85c-.414.414-.664.666-.7.7H1.766a.348.348,0,1,0,0,.7H4.606l-.232.7H1.766a.348.348,0,0,0,0,.7H4.143l-.109.326a.348.348,0,0,0,.44.44l2.214-.738a.348.348,0,0,0,.136-.084q.8-.8,1.575-1.568v2.7ZM6.065,9.269l-1.15.383L5.3,8.5Zm.6-.383L5.681,7.9,8.92,4.666l1,.986C9.462,6.11,7.269,8.284,6.665,8.886ZM10.979,4.6l-.563.562-1-.987.559-.559a.723.723,0,0,1,1.007,0A.7.7,0,0,1,10.979,4.6Z" transform="translate(-0.003)" fill="#0e223d"/>
      </g>
    </g>
    <g id="Group_149" data-name="Group 149" transform="translate(1.418 3.505)">
      <g id="Group_148" data-name="Group 148">
        <path id="Path_27" data-name="Path 27" d="M63.9,151.094H61.349a.348.348,0,0,0,0,.7H63.9a.348.348,0,0,0,0-.7Z" transform="translate(-61.001 -151.094)" fill="#0e223d"/>
      </g>
    </g>
    <g id="Group_151" data-name="Group 151" transform="translate(1.418 4.896)">
      <g id="Group_150" data-name="Group 150">
        <path id="Path_28" data-name="Path 28" d="M65.342,211.092H61.349a.348.348,0,0,0,0,.7h3.994a.348.348,0,0,0,0-.7Z" transform="translate(-61.001 -211.092)" fill="#0e223d"/>
      </g>
    </g>
  </g>
</svg>
