<svg id="question_1_" data-name="question (1)" xmlns="http://www.w3.org/2000/svg" width="24.799" height="24.799" viewBox="0 0 24.799 24.799">
  <g id="Group_10" data-name="Group 10">
    <g id="Group_9" data-name="Group 9">
      <circle id="Ellipse_1" data-name="Ellipse 1" cx="1.507" cy="1.507" r="1.507" transform="translate(10.892 16.669)" fill="#fff"/>
      <path id="Path_4" data-name="Path 4" d="M12.4,0A12.4,12.4,0,1,0,24.8,12.4,12.393,12.393,0,0,0,12.4,0Zm0,22.861A10.462,10.462,0,1,1,22.861,12.4,10.456,10.456,0,0,1,12.4,22.861Z" fill="#fff"/>
      <path id="Path_5" data-name="Path 5" d="M180.822,128.5A4.828,4.828,0,0,0,176,133.322a1.206,1.206,0,1,0,2.411,0,2.411,2.411,0,1,1,2.411,2.411,1.206,1.206,0,0,0-1.206,1.206v3.014a1.206,1.206,0,1,0,2.411,0v-1.961a4.823,4.823,0,0,0-1.206-9.492Z" transform="translate(-168.423 -123.334)" fill="#fff"/>
    </g>
  </g>
</svg>
