<svg xmlns="http://www.w3.org/2000/svg" width="11.113" height="11.603" viewBox="0 0 11.113 11.603">
  <g id="trash" transform="translate(-65)">
    <g id="Group_154" data-name="Group 154" transform="translate(73.339 11.113)">
      <g id="Group_153" data-name="Group 153" transform="translate(0)">
        <path id="Path_29" data-name="Path 29" d="M365.485,453.1a.245.245,0,1,0,.245.245A.245.245,0,0,0,365.485,453.1Z" transform="translate(-365.24 -453.1)" fill="#0e223d"/>
      </g>
    </g>
    <g id="Group_156" data-name="Group 156" transform="translate(68.924 10.132)">
      <g id="Group_155" data-name="Group 155">
        <path id="Path_30" data-name="Path 30" d="M185.485,413.1a.245.245,0,1,0,.245.245A.245.245,0,0,0,185.485,413.1Z" transform="translate(-185.24 -413.1)" fill="#0e223d"/>
      </g>
    </g>
    <g id="Group_164" data-name="Group 164" transform="translate(69.828 10.132)">
      <g id="Group_163" data-name="Group 163" transform="translate(0)">
        <path id="Path_34" data-name="Path 34" d="M224.006,413.1h-1.68a.244.244,0,1,0,0,.488h1.68a.244.244,0,1,0,0-.488Z" transform="translate(-222.08 -413.1)" fill="#0e223d"/>
      </g>
    </g>
    <g id="save_1_" data-name="save (1)" transform="translate(65)">
      <g id="Group_169" data-name="Group 169">
        <g id="Group_168" data-name="Group 168">
          <path id="Path_36" data-name="Path 36" d="M9.513,0H1.3A1.3,1.3,0,0,0,0,1.3V9.81a1.3,1.3,0,0,0,1.3,1.3H9.81a1.3,1.3,0,0,0,1.3-1.3V1.6ZM2.6.868H7.6V3.429H2.6Zm5.9,9.376H2.6V6.815h5.9Zm1.736-.434a.435.435,0,0,1-.434.434H9.376v-4.3H1.736v4.3H1.3A.435.435,0,0,1,.868,9.81V1.3A.435.435,0,0,1,1.3.868h.434V4.3H8.465V.868h.688L10.244,1.96Z" fill="#0e223d"/>
        </g>
      </g>
      <g id="Group_171" data-name="Group 171" transform="translate(6.392 1.574)">
        <g id="Group_170" data-name="Group 170" transform="translate(0 0)">
          <rect id="Rectangle_37" data-name="Rectangle 37" width="1" height="1" transform="translate(-0.268 0.426)" fill="#0e223d"/>
        </g>
      </g>
    </g>
  </g>
</svg>
