<svg width="65" height="65" viewBox="0 0 65 65" fill="none" xmlns="http://www.w3.org/2000/svg">
<circle cx="32.5" cy="32.5" r="32.5" fill="#6B3BED"/>
<path d="M46.6208 33.2516L45.0197 34.8527L41.7374 31.5704L43.3385 29.9693C43.5031 29.808 43.7244 29.7176 43.9549 29.7176C44.1854 29.7176 44.4067 29.808 44.5714 29.9693L46.6208 32.0187C46.957 32.3549 46.957 32.9153 46.6208 33.2516ZM31.0901 42.2017L40.7928 32.499L44.075 35.7813L34.3883 45.5H31.0901V42.2017ZM31.0901 34.2923C24.0132 34.2923 18.2812 37.1583 18.2812 40.6967V43.8989H27.8879V40.8728L34.2923 34.4684C33.2355 34.3403 32.1628 34.2923 31.0901 34.2923ZM31.0901 18.2812C29.3915 18.2812 27.7625 18.956 26.5615 20.1571C25.3604 21.3581 24.6857 22.9871 24.6857 24.6857C24.6857 26.3842 25.3604 28.0132 26.5615 29.2143C27.7625 30.4153 29.3915 31.0901 31.0901 31.0901C32.7886 31.0901 34.4176 30.4153 35.6187 29.2143C36.8197 28.0132 37.4945 26.3842 37.4945 24.6857C37.4945 22.9871 36.8197 21.3581 35.6187 20.1571C34.4176 18.956 32.7886 18.2812 31.0901 18.2812Z" fill="white"/>
</svg>
