<svg width="65" height="65" viewBox="0 0 65 65" fill="none" xmlns="http://www.w3.org/2000/svg">
<circle cx="32.5" cy="32.5" r="32.5" fill="#FE3E36"/>
<path d="M44.2809 18.2812C45.4122 18.2812 46.4972 18.7307 47.2971 19.5306C48.0971 20.3306 48.5465 21.4156 48.5465 22.5469V25.3906H45.7028V42.4531C45.7028 43.5844 45.2533 44.6694 44.4534 45.4694C43.6534 46.2693 42.5684 46.7188 41.4371 46.7188H21.5309C20.3996 46.7188 19.3146 46.2693 18.5146 45.4694C17.7147 44.6694 17.2653 43.5844 17.2653 42.4531V39.6094H40.0153V42.4531C40.0153 42.8014 40.1432 43.1375 40.3746 43.3978C40.606 43.658 40.9249 43.8243 41.2708 43.865L41.4371 43.875C41.7854 43.875 42.1215 43.7471 42.3818 43.5157C42.642 43.2842 42.8083 42.9654 42.8491 42.6195L42.859 42.4531V21.125H24.3746C24.0264 21.125 23.6902 21.2529 23.43 21.4843C23.1697 21.7158 23.0035 22.0346 22.9627 22.3805L22.9528 22.5469V36.7656H20.109V22.5469C20.109 21.4156 20.5584 20.3306 21.3584 19.5306C22.1583 18.7307 23.2433 18.2812 24.3746 18.2812H44.2809Z" fill="white"/>
<path d="M27.5443 26.4064C27.3955 26.4043 27.2478 26.4317 27.1098 26.4872C26.9718 26.5427 26.8461 26.625 26.7402 26.7295C26.6343 26.8339 26.5502 26.9584 26.4927 27.0956C26.4353 27.2329 26.4058 27.3801 26.4058 27.5289C26.4058 27.6777 26.4353 27.8249 26.4927 27.9622C26.5502 28.0994 26.6343 28.2239 26.7402 28.3283C26.8461 28.4328 26.9718 28.5151 27.1098 28.5706C27.2478 28.6261 27.3955 28.6535 27.5443 28.6514H34.2795C34.4282 28.6535 34.5759 28.6261 34.7139 28.5706C34.852 28.5151 34.9776 28.4328 35.0835 28.3283C35.1895 28.2239 35.2736 28.0994 35.331 27.9622C35.3884 27.8249 35.418 27.6777 35.418 27.5289C35.418 27.3801 35.3884 27.2329 35.331 27.0956C35.2736 26.9584 35.1895 26.8339 35.0835 26.7295C34.9776 26.625 34.852 26.5427 34.7139 26.4872C34.5759 26.4317 34.4282 26.4043 34.2795 26.4064H27.5443ZM38.7696 26.4064C38.4719 26.4064 38.1864 26.5246 37.9759 26.7351C37.7653 26.9457 37.6471 27.2312 37.6471 27.5289C37.6471 27.8266 37.7653 28.1121 37.9759 28.3226C38.1864 28.5332 38.4719 28.6514 38.7696 28.6514C39.0673 28.6514 39.3528 28.5332 39.5634 28.3226C39.7739 28.1121 39.8921 27.8266 39.8921 27.5289C39.8921 27.2312 39.7739 26.9457 39.5634 26.7351C39.3528 26.5246 39.0673 26.4064 38.7696 26.4064ZM27.5443 31.6448C27.3955 31.6427 27.2478 31.6702 27.1098 31.7257C26.9718 31.7812 26.8461 31.8635 26.7402 31.968C26.6343 32.0724 26.5502 32.1969 26.4927 32.3341C26.4353 32.4713 26.4058 32.6186 26.4058 32.7674C26.4058 32.9161 26.4353 33.0634 26.4927 33.2007C26.5502 33.3379 26.6343 33.4624 26.7402 33.5668C26.8461 33.6712 26.9718 33.7536 27.1098 33.8091C27.2478 33.8645 27.3955 33.892 27.5443 33.8899H34.2795C34.4282 33.892 34.5759 33.8645 34.7139 33.8091C34.852 33.7536 34.9776 33.6712 35.0835 33.5668C35.1895 33.4624 35.2736 33.3379 35.331 33.2007C35.3884 33.0634 35.418 32.9161 35.418 32.7674C35.418 32.6186 35.3884 32.4713 35.331 32.3341C35.2736 32.1969 35.1895 32.0724 35.0835 31.968C34.9776 31.8635 34.852 31.7812 34.7139 31.7257C34.5759 31.6702 34.4282 31.6427 34.2795 31.6448H27.5443ZM38.7696 31.6448C38.4719 31.6448 38.1864 31.7631 37.9759 31.9736C37.7653 32.1841 37.6471 32.4697 37.6471 32.7674C37.6471 33.0651 37.7653 33.3506 37.9759 33.5611C38.1864 33.7716 38.4719 33.8899 38.7696 33.8899C39.0673 33.8899 39.3528 33.7716 39.5634 33.5611C39.7739 33.3506 39.8921 33.0651 39.8921 32.7674C39.8921 32.4697 39.7739 32.1841 39.5634 31.9736C39.3528 31.7631 39.0673 31.6448 38.7696 31.6448Z" fill="white"/>
</svg>
