<svg width="38" height="38" viewBox="0 0 38 38" fill="none" xmlns="http://www.w3.org/2000/svg">
<g clip-path="url(#clip0_1690_4163)">
<path d="M32.5389 22.2885C32.3114 21.895 32.0838 21.5015 31.8563 21.1361C31.6003 20.6864 31.3443 20.2367 31.0883 19.8151C31.0599 19.7589 31.0314 19.6746 31.0599 19.5902C31.3443 18.2692 31.4297 16.9201 31.3443 15.5429C31.1737 13.2101 30.4626 11.0178 29.2111 9.02219C27.3338 6.07101 24.7455 4.01923 21.4177 2.89497C19.9955 2.41716 18.5165 2.1642 17.009 2.1642C13.0838 2.1642 9.69911 3.42899 6.8548 6.0429C4.46558 8.23521 2.9581 10.9334 2.41768 14.1095C1.67816 18.6065 2.81588 22.6538 5.83085 26.0828C8.02097 28.5843 10.8084 30.1302 14.0794 30.7485C14.5629 30.8328 15.018 30.8891 15.5015 30.9453C15.53 30.9453 15.53 30.9453 15.5584 30.9453C15.53 31.0015 15.53 31.0296 15.5015 31.0577C15.1602 31.676 14.8189 32.2663 14.4776 32.8846C14.4207 32.9689 14.3922 32.997 14.2785 32.9689C10.4955 32.3787 7.25301 30.7485 4.6078 27.9941C2.36079 25.6893 0.938634 22.9349 0.312886 19.8151C1.16816e-05 18.2973 -0.0853176 16.7234 0.0568979 15.1494C0.398215 11.4956 1.79193 8.29142 4.26648 5.53698C6.74103 2.81065 9.81289 1.06805 13.4536 0.337278C15.1033 0 16.753 -0.0843195 18.4312 0.0843195C22.4416 0.477811 25.8548 2.10799 28.6991 4.91864C31.0883 7.27959 32.5958 10.1183 33.25 13.3787C33.5629 14.8683 33.6482 16.3861 33.506 17.932C33.3922 19.3935 33.0794 20.7988 32.5674 22.2041C32.5674 22.2041 32.5674 22.2322 32.5389 22.2885Z" fill="white"/>
<path d="M26.5943 38C23.9206 38 21.2754 38 18.6018 38C17.0658 38 15.7859 37.0725 15.3308 35.639C15.0464 34.7115 15.1602 33.8402 15.6437 32.997C17.265 30.1864 18.9147 27.4038 20.5644 24.5932C21.6167 22.8225 22.6407 21.0799 23.6646 19.3092C25.0015 17.0325 28.2155 17.0325 29.5524 19.3092C32.1976 23.8624 34.8712 28.4157 37.5164 32.9689C38.5688 34.7958 37.7724 37.0444 35.8099 37.8032C35.4117 37.9438 34.985 38.0281 34.5584 38.0281C31.9132 38 29.2395 38 26.5943 38ZM26.5943 35.8358C29.2395 35.8358 31.8563 35.8358 34.5015 35.8358C34.5584 35.8358 34.6152 35.8358 34.6721 35.8358C35.6108 35.7796 36.0943 34.8521 35.6392 34.0651C35.4685 33.784 35.2979 33.5029 35.1272 33.2219C32.6242 28.9497 30.1497 24.6775 27.6467 20.4053C27.1347 19.5621 26.0254 19.5621 25.5419 20.4053C23.6078 23.75 21.6452 27.0666 19.7111 30.4112C19 31.6479 18.2889 32.8565 17.5778 34.0932C17.2365 34.6553 17.4356 35.358 17.976 35.6953C18.2036 35.8358 18.4311 35.8639 18.6871 35.8639C21.3323 35.8358 23.9491 35.8358 26.5943 35.8358Z" fill="white"/>
<path d="M15.7006 10.3432C15.7006 8.96599 15.7006 7.58877 15.7006 6.18344C15.7006 5.64942 16.0988 5.17161 16.6392 5.1154C17.1797 5.03108 17.6916 5.39646 17.8339 5.90238C17.8623 6.0148 17.8623 6.15534 17.8623 6.26776C17.8623 8.99409 17.8623 11.7204 17.8623 14.4749C17.8623 14.5873 17.8907 14.6716 18.0045 14.7278C18.8009 15.2337 19.1707 16.1613 18.9431 17.0607C18.744 17.9601 17.9761 18.6346 17.0659 18.7471C16.1557 18.8595 15.4162 18.5222 14.8758 17.7633C14.8189 17.679 14.7336 17.6228 14.6198 17.6228C12.1737 17.6228 9.72757 17.6228 7.25302 17.6228C6.85481 17.6228 6.48505 17.4823 6.25751 17.145C6.00152 16.7796 6.00152 16.4142 6.20062 16.0488C6.39972 15.6553 6.74104 15.4586 7.16769 15.4586C9.64224 15.4586 12.1168 15.4586 14.6198 15.4586C14.7336 15.4586 14.8189 15.4305 14.8758 15.3181C15.0464 15.0651 15.2455 14.8402 15.53 14.6997C15.6437 14.6435 15.6722 14.5592 15.6722 14.4468C15.6722 13.0976 15.7006 11.7204 15.7006 10.3432Z" fill="white"/>
<path d="M27.8458 26.111C27.7889 27.3195 27.7036 28.5 27.6467 29.7086C27.6183 30.2426 27.1347 30.6923 26.5943 30.6642C26.0254 30.6642 25.5704 30.2145 25.5419 29.6805C25.485 28.4719 25.3997 27.2352 25.3428 26.0266C25.3144 25.5207 25.2859 25.0148 25.2575 24.5089C25.229 23.8062 25.741 23.216 26.4521 23.1036C27.1347 23.0192 27.7889 23.4689 27.9311 24.1435C27.988 24.3684 27.9596 24.6213 27.9596 24.8743C27.9027 25.2678 27.8742 25.6894 27.8458 26.111Z" fill="white"/>
<path d="M28.1018 32.8846C28.1018 33.6997 27.4191 34.3742 26.5943 34.3461C25.7694 34.3461 25.1152 33.6716 25.1152 32.8565C25.1152 32.0414 25.7979 31.3669 26.6227 31.3669C27.4191 31.395 28.1018 32.0695 28.1018 32.8846Z" fill="white"/>
</g>
<defs>
<clipPath id="clip0_1690_4163">
<rect width="38" height="38" fill="white"/>
</clipPath>
</defs>
</svg>
