<svg width="49" height="44" viewBox="0 0 49 44" fill="none" xmlns="http://www.w3.org/2000/svg">
<path d="M5.51828 43.1608C4.21694 43.1608 3.10252 42.6971 2.17502 41.7696C1.24752 40.8421 0.784559 39.7284 0.786137 38.4287V5.30368C0.786137 4.00234 1.24989 2.88792 2.17739 1.96042C3.10489 1.03292 4.21852 0.56996 5.51828 0.571537H43.3754C44.6768 0.571537 45.7912 1.03529 46.7187 1.96279C47.6462 2.89029 48.1091 4.00392 48.1076 5.30368V38.4287C48.1076 39.73 47.6438 40.8444 46.7163 41.7719C45.7888 42.6994 44.6752 43.1624 43.3754 43.1608H5.51828ZM7.88435 33.6965H19.7147V28.9644H7.88435V33.6965ZM30.4803 28.9644L42.1924 17.2523L38.8207 13.8807L30.4803 22.2802L27.1087 18.9086L23.7962 22.2802L30.4803 28.9644ZM7.88435 24.2322H19.7147V19.5001H7.88435V24.2322ZM7.88435 14.768H19.7147V10.0358H7.88435V14.768Z" fill="#F37540"/>
</svg>
