<svg xmlns="http://www.w3.org/2000/svg" width="42" height="42" viewBox="0 0 42 42" fill="none">
<path d="M32 18C34.98 18 37.74 18.94 40 20.52V12C40 9.78 38.22 8 36 8H28V4C28 1.78 26.22 0 24 0H16C13.78 0 12 1.78 12 4V8H4C1.78 8 0.02 9.78 0.02 12L0 34C0 36.22 1.78 38 4 38H19.36C18.3453 35.867 17.8871 33.5119 18.0283 31.1541C18.1694 28.7963 18.9052 26.5126 20.1671 24.5159C21.4291 22.5192 23.176 20.8745 25.245 19.7352C27.3141 18.5958 29.638 17.9989 32 18ZM16 4H24V8H16V4Z" fill="#F37540"/>
<path d="M31.9998 22C26.4798 22 21.9998 26.48 21.9998 32C21.9998 37.52 26.4798 42 31.9998 42C37.5198 42 41.9998 37.52 41.9998 32C41.9998 26.48 37.5198 22 31.9998 22ZM35.2998 36.7L30.9998 32.4V26H32.9998V31.58L36.6998 35.28L35.2998 36.7Z" fill="#F37540"/>
</svg>