<svg width="40" height="38" viewBox="0 0 40 38" fill="none" xmlns="http://www.w3.org/2000/svg">
<path fill-rule="evenodd" clip-rule="evenodd" d="M21.34 0.317877L38.34 9.84724C38.839 10.0972 39.2587 10.4817 39.552 10.9576C39.8452 11.4335 40.0004 11.9821 40 12.5415V15.4305C40 16.8147 38.88 17.9382 37.5 17.9382H36V33.9876H38C38.5304 33.9876 39.0391 34.199 39.4142 34.5752C39.7893 34.9515 40 35.4617 40 35.9938C40 36.5259 39.7893 37.0362 39.4142 37.4124C39.0391 37.7886 38.5304 38 38 38H2C1.46957 38 0.960859 37.7886 0.585786 37.4124C0.210714 37.0362 0 36.5259 0 35.9938C0 35.4617 0.210714 34.9515 0.585786 34.5752C0.960859 34.199 1.46957 33.9876 2 33.9876H4V17.9382H2.5C1.12 17.9382 0 16.8147 0 15.4305V12.5415C0 11.4943 0.54 10.5314 1.412 9.98567L18.658 0.317877C19.0747 0.108834 19.5341 0 20 0C20.4659 0 20.9233 0.108834 21.34 0.317877ZM30 17.9382H10V33.9876H14V21.9505H18V33.9876H22V21.9505H26V33.9876H30V17.9382ZM20 7.90727C19.4696 7.90727 18.9609 8.11863 18.5858 8.49486C18.2107 8.8711 18 9.38138 18 9.91345C18 10.4455 18.2107 10.9558 18.5858 11.332C18.9609 11.7083 19.4696 11.9196 20 11.9196C20.5304 11.9196 21.0391 11.7083 21.4142 11.332C21.7893 10.9558 22 10.4455 22 9.91345C22 9.38138 21.7893 8.8711 21.4142 8.49486C21.0391 8.11863 20.5304 7.90727 20 7.90727Z" fill="#F37540"/>
</svg>
