<svg width="40" height="42" viewBox="0 0 40 42" fill="none" xmlns="http://www.w3.org/2000/svg">
<path d="M26.0316 29.2277C25.5815 29.6292 24.9855 29.6048 24.4624 29.2764C19.7183 26.3813 16.7624 22.209 15.8623 16.5891C15.7528 15.8714 16.0326 15.324 16.653 14.9591C17.0301 14.7402 17.4436 14.5577 17.7964 14.3022C17.9545 14.1928 18.1005 13.9373 18.1005 13.7427C18.1005 13.0128 18.0275 12.283 17.991 11.5531C17.9302 10.2516 17.9302 10.2516 16.653 10.0569C15.4974 9.87447 14.4269 10.58 14.1836 11.7356C13.6971 13.9495 13.6606 16.1634 14.0863 18.3894C15.3879 25.2379 20.8131 30.9916 28.4644 32.5364C29.766 32.7919 30.7878 32.0863 31.0919 30.7726C31.1406 30.5536 31.177 30.3347 31.2379 30.0549C30.6053 29.7386 29.9728 29.5197 29.4376 29.1426C28.2698 28.3276 27.175 28.2303 26.0316 29.2277Z" fill="#F37540"/>
<path d="M39.0108 4.46123C39.0108 1.99189 37.028 0.00912316 34.5587 0.00912316C25.5085 -0.00304105 16.4705 -0.00304105 7.4325 0.00912316C4.96316 0.00912316 3.02905 2.00405 3.00472 4.48556C3.00472 4.97212 3.00472 5.44653 3.00472 5.98175C2.55465 5.98175 2.17756 5.98175 1.80047 5.98175C0.693524 5.98175 -0.012001 6.58996 0.000163227 7.50228C0.0123274 8.4146 0.705688 8.99848 1.77614 9.01064C2.17756 9.01064 2.56681 9.01064 2.96823 9.01064C2.96823 17.0512 2.96823 24.9944 2.96823 32.9985C2.45733 32.9985 1.99509 32.9863 1.53285 32.9985C0.657031 33.035 0.0123274 33.6675 0.000163227 34.4947C-0.012001 35.334 0.657031 35.9909 1.56935 36.0152C2.03159 36.0274 2.49383 36.0152 3.01689 36.0152C3.01689 36.5018 3.01689 36.9275 3.01689 37.3411C3.00472 40.0659 4.93884 42 7.68795 42C16.5678 42 25.4477 42 34.3154 42C37.0889 42 39.0108 40.0781 39.0108 37.2924C39.0108 33.3391 39.0108 29.3857 39.0108 25.4323C39.0108 18.4379 39.023 11.4557 39.0108 4.46123ZM34.3519 29.7506C34.2303 30.3224 34.0965 30.8941 33.9627 31.478C33.2815 34.373 30.7756 36.1369 27.8805 35.48C19.4143 33.5459 13.7214 28.4856 11.3859 19.8246C10.6074 16.9174 10.6682 13.9493 11.325 11.0177C11.9211 8.32945 14.5121 6.63862 17.2977 7.12519C18.064 7.259 18.8182 7.4293 19.5846 7.59959C20.3144 7.75773 20.7523 8.20781 20.801 8.98632C20.9469 10.9934 21.0564 13.0005 21.1537 15.0076C21.1781 15.6037 20.8861 16.0537 20.3752 16.3457C19.9251 16.6011 19.4751 16.8566 18.9642 17.1363C19.84 20.9437 21.8836 23.8632 24.9733 26.0406C25.1071 26.1379 25.3504 26.077 25.545 26.077C25.5815 26.077 25.618 26.0405 25.6423 26.0162C27.6859 24.7998 27.3575 24.7998 29.547 25.8824C30.8365 26.515 32.1259 27.1475 33.4153 27.7922C34.2911 28.2058 34.5587 28.7653 34.3519 29.7506Z" fill="#F37540"/>
</svg>
