<svg xmlns="http://www.w3.org/2000/svg" width="44" height="44" viewBox="0 0 44 44" fill="none">
<path d="M0.5 22C0.5 10.1261 10.1261 0.5 22 0.5C33.8739 0.5 43.5 10.1261 43.5 22C43.5 33.8739 33.8739 43.5 22 43.5C10.1261 43.5 0.5 33.8739 0.5 22ZM21 9.5C20.337 9.5 19.7011 9.76339 19.2322 10.2322C18.7634 10.7011 18.5 11.337 18.5 12C18.5 12.663 18.7634 13.2989 19.2322 13.7678C19.7011 14.2366 20.337 14.5 21 14.5H22C22.663 14.5 23.2989 14.2366 23.7678 13.7678C24.2366 13.2989 24.5 12.663 24.5 12C24.5 11.337 24.2366 10.7011 23.7678 10.2322C23.2989 9.76339 22.663 9.5 22 9.5H21ZM18 17.5C17.337 17.5 16.7011 17.7634 16.2322 18.2322C15.7634 18.7011 15.5 19.337 15.5 20C15.5 20.663 15.7634 21.2989 16.2322 21.7678C16.7011 22.2366 17.337 22.5 18 22.5H19.5V27.5H18C17.337 27.5 16.7011 27.7634 16.2322 28.2322C15.7634 28.7011 15.5 29.337 15.5 30C15.5 30.663 15.7634 31.2989 16.2322 31.7678C16.7011 32.2366 17.337 32.5 18 32.5H26C26.663 32.5 27.2989 32.2366 27.7678 31.7678C28.2366 31.2989 28.5 30.663 28.5 30C28.5 29.337 28.2366 28.7011 27.7678 28.2322C27.2989 27.7634 26.663 27.5 26 27.5H24.5V20C24.5 19.337 24.2366 18.7011 23.7678 18.2322C23.2989 17.7634 22.663 17.5 22 17.5H18Z" fill="#F37540" stroke="black"/>
</svg>