
<svg width="40" height="40" viewBox="0 0 40 40" fill="none" xmlns="http://www.w3.org/2000/svg">
<path d="M20 0C16.0444 0 12.1776 1.17298 8.8886 3.37061C5.59962 5.56823 3.03617 8.69181 1.52242 12.3463C0.00866562 16.0009 -0.387401 20.0222 0.384303 23.9018C1.15601 27.7814 3.06082 31.3451 5.85787 34.1421C8.65492 36.9392 12.2186 38.844 16.0982 39.6157C19.9778 40.3874 23.9992 39.9913 27.6537 38.4776C31.3082 36.9638 34.4318 34.4004 36.6294 31.1114C38.827 27.8224 40 23.9556 40 20C40 14.6957 37.8929 9.60859 34.1421 5.85786C30.3914 2.10714 25.3043 0 20 0ZM20 37.5C16.5388 37.5 13.1554 36.4736 10.2775 34.5507C7.39967 32.6278 5.15665 29.8947 3.83212 26.697C2.50758 23.4993 2.16103 19.9806 2.83627 16.5859C3.51151 13.1912 5.17822 10.073 7.62564 7.62563C10.0731 5.17821 13.1913 3.5115 16.5859 2.83626C19.9806 2.16102 23.4993 2.50757 26.697 3.83211C29.8947 5.15664 32.6278 7.39966 34.5507 10.2775C36.4736 13.1554 37.5 16.5388 37.5 20C37.5 24.6413 35.6563 29.0925 32.3744 32.3744C29.0925 35.6562 24.6413 37.5 20 37.5Z" fill="#FE3E36"/>
<path fill-rule="evenodd" clip-rule="evenodd" d="M11.7629 11.7627C12.2955 11.2301 13.1589 11.2301 13.6914 11.7627L19.9999 18.0712L26.3084 11.7627C26.8409 11.2301 27.7043 11.2301 28.2369 11.7627C28.7694 12.2952 28.7694 13.1586 28.2369 13.6912L21.9284 19.9996L28.2369 26.3081C28.7694 26.8407 28.7694 27.7041 28.2369 28.2366C27.7043 28.7691 26.8409 28.7691 26.3084 28.2366L19.9999 21.9281L13.6914 28.2366C13.1589 28.7691 12.2955 28.7691 11.7629 28.2366C11.2304 27.7041 11.2304 26.8407 11.7629 26.3081L18.0714 19.9996L11.7629 13.6912C11.2304 13.1586 11.2304 12.2952 11.7629 11.7627Z" fill="#FE3E36"/>
</svg>
