
<svg width="44" height="39" viewBox="0 0 44 39" fill="none" xmlns="http://www.w3.org/2000/svg">
<path d="M4.68125 38.7582C3.49703 38.7582 2.48291 38.3362 1.63889 37.4922C0.794863 36.6481 0.373568 35.6347 0.375004 34.452V4.30821C0.375004 3.12399 0.797016 2.10987 1.64104 1.26584C2.48507 0.421816 3.49847 0.000521364 4.68125 0.00195678H39.1312C40.3155 0.00195678 41.3296 0.423969 42.1736 1.26799C43.0176 2.11202 43.4389 3.12542 43.4375 4.30821V34.452C43.4375 35.6362 43.0155 36.6503 42.1715 37.4943C41.3274 38.3383 40.314 38.7596 39.1312 38.7582H4.68125ZM6.83438 30.1457H17.6V25.8395H6.83438V30.1457ZM27.3967 25.8395L38.0547 15.1815L34.9865 12.1133L27.3967 19.7569L24.3285 16.6887L21.3141 19.7569L27.3967 25.8395ZM6.83438 21.5332H17.6V17.227H6.83438V21.5332ZM6.83438 12.9207H17.6V8.61446H6.83438V12.9207Z" fill="#F37540"/>
</svg>
