<svg width="41" height="41" viewBox="0 0 41 41" fill="none" xmlns="http://www.w3.org/2000/svg">
<path d="M8.16667 38.9999H32.8333C30.7778 38.9999 26.6667 37.7666 26.6667 32.8333V28.7222H2V32.8333C2 37.7666 6.11111 38.9999 8.16667 38.9999Z" fill="#F37540"/>
<path d="M6.11111 22.5556V6.11111C6.11111 5.02078 6.54424 3.9751 7.31523 3.20412C8.08621 2.43313 9.13189 2 10.2222 2H34.8889C35.9792 2 37.0249 2.43313 37.7959 3.20412C38.5669 3.9751 39 5.02078 39 6.11111V32.8333C39 34.8889 37.7667 39 32.8333 39M32.8333 39H8.16667C6.11111 39 2 37.7667 2 32.8333V28.7222H26.6667V32.8333C26.6667 37.7667 30.7778 39 32.8333 39ZM14.3333 10.2222H30.7778M14.3333 18.4444H22.5556" stroke="#F37540" stroke-width="3" stroke-linecap="round" stroke-linejoin="round"/>
</svg>
