<svg xmlns="http://www.w3.org/2000/svg" width="40" height="40" viewBox="0 0 40 40" fill="none">
<path fill-rule="evenodd" clip-rule="evenodd" d="M17.4076 1.8496C18.0566 1.20147 18.9249 0.820095 19.8413 0.780726C20.7576 0.741357 21.6554 1.04685 22.3576 1.63693L22.5923 1.85143L26.0756 5.33293H30.9999C31.9247 5.3331 32.8152 5.68268 33.4931 6.31163C34.171 6.94058 34.5863 7.80246 34.6556 8.7246L34.6666 8.9996V13.9239L38.1499 17.4073C38.7986 18.0563 39.1803 18.925 39.2197 19.8418C39.259 20.7586 38.9532 21.6568 38.3626 22.3591L38.1481 22.5919L34.6648 26.0753V30.9996C34.6651 31.9247 34.3157 32.8156 33.6867 33.4939C33.0577 34.1722 32.1956 34.5877 31.2731 34.6571L30.9999 34.6663H26.0774L22.5941 38.1496C21.945 38.7982 21.0763 39.1799 20.1596 39.2193C19.2428 39.2587 18.3446 38.9529 17.6423 38.3623L17.4094 38.1496L13.9261 34.6663H8.99995C8.07489 34.6666 7.18391 34.3172 6.50561 33.6882C5.82731 33.0592 5.41182 32.197 5.34245 31.2746L5.33328 30.9996V26.0753L1.84995 22.5919C1.2013 21.9429 0.819608 21.0742 0.780235 20.1574C0.740862 19.2406 1.04667 18.3424 1.63728 17.6401L1.84995 17.4073L5.33328 13.9239V8.9996C5.33345 8.07486 5.68303 7.18433 6.31198 6.50642C6.94093 5.82851 7.80281 5.41329 8.72495 5.34393L8.99995 5.33293H13.9243L17.4076 1.8496ZM25.6448 14.4684L17.8641 22.2491L14.6228 19.0078C14.2788 18.664 13.8123 18.471 13.326 18.4711C12.8396 18.4713 12.3733 18.6647 12.0295 19.0087C11.6858 19.3527 11.4927 19.8192 11.4929 20.3055C11.4931 20.7918 11.6864 21.2582 12.0304 21.6019L16.4378 26.0093C16.6251 26.1966 16.8474 26.3453 17.0921 26.4467C17.3369 26.5481 17.5992 26.6003 17.8641 26.6003C18.129 26.6003 18.3913 26.5481 18.6361 26.4467C18.8808 26.3453 19.1032 26.1966 19.2904 26.0093L28.2371 17.0608C28.5711 16.715 28.7559 16.2519 28.7517 15.7712C28.7475 15.2905 28.5547 14.8307 28.2148 14.4908C27.8749 14.1508 27.415 13.958 26.9343 13.9539C26.4537 13.9497 25.9905 14.1345 25.6448 14.4684Z" fill="#F37540"/>
</svg>