<svg width="41" height="37" viewBox="0 0 41 37" fill="none" xmlns="http://www.w3.org/2000/svg">
<path fill-rule="evenodd" clip-rule="evenodd" d="M35.4091 3.7H5.59091C5.09664 3.7 4.62262 3.89491 4.27312 4.24185C3.92362 4.5888 3.72727 5.05935 3.72727 5.55V31.45C3.72727 31.9407 3.92362 32.4112 4.27312 32.7581C4.62262 33.1051 5.09664 33.3 5.59091 33.3H35.4091C35.9034 33.3 36.3774 33.1051 36.7269 32.7581C37.0764 32.4112 37.2727 31.9407 37.2727 31.45V5.55C37.2727 5.05935 37.0764 4.5888 36.7269 4.24185C36.3774 3.89491 35.9034 3.7 35.4091 3.7ZM5.59091 0C4.10811 0 2.68604 0.584731 1.63754 1.62556C0.58904 2.66638 0 4.07805 0 5.55V31.45C0 32.922 0.58904 34.3336 1.63754 35.3744C2.68604 36.4153 4.10811 37 5.59091 37H35.4091C36.8919 37 38.314 36.4153 39.3625 35.3744C40.411 34.3336 41 32.922 41 31.45V5.55C41 4.07805 40.411 2.66638 39.3625 1.62556C38.314 0.584731 36.8919 0 35.4091 0H5.59091ZM9.31818 9.25H13.0455V12.95H9.31818V9.25ZM18.6364 9.25C18.1421 9.25 17.6681 9.44491 17.3186 9.79185C16.9691 10.1388 16.7727 10.6093 16.7727 11.1C16.7727 11.5907 16.9691 12.0612 17.3186 12.4081C17.6681 12.7551 18.1421 12.95 18.6364 12.95H29.8182C30.3124 12.95 30.7865 12.7551 31.136 12.4081C31.4855 12.0612 31.6818 11.5907 31.6818 11.1C31.6818 10.6093 31.4855 10.1388 31.136 9.79185C30.7865 9.44491 30.3124 9.25 29.8182 9.25H18.6364ZM13.0455 16.65H9.31818V20.35H13.0455V16.65ZM16.7727 18.5C16.7727 18.0093 16.9691 17.5388 17.3186 17.1919C17.6681 16.8449 18.1421 16.65 18.6364 16.65H29.8182C30.3124 16.65 30.7865 16.8449 31.136 17.1919C31.4855 17.5388 31.6818 18.0093 31.6818 18.5C31.6818 18.9907 31.4855 19.4612 31.136 19.8081C30.7865 20.1551 30.3124 20.35 29.8182 20.35H18.6364C18.1421 20.35 17.6681 20.1551 17.3186 19.8081C16.9691 19.4612 16.7727 18.9907 16.7727 18.5ZM13.0455 24.05H9.31818V27.75H13.0455V24.05ZM16.7727 25.9C16.7727 25.4093 16.9691 24.9388 17.3186 24.5919C17.6681 24.2449 18.1421 24.05 18.6364 24.05H29.8182C30.3124 24.05 30.7865 24.2449 31.136 24.5919C31.4855 24.9388 31.6818 25.4093 31.6818 25.9C31.6818 26.3907 31.4855 26.8612 31.136 27.2081C30.7865 27.5551 30.3124 27.75 29.8182 27.75H18.6364C18.1421 27.75 17.6681 27.5551 17.3186 27.2081C16.9691 26.8612 16.7727 26.3907 16.7727 25.9Z" fill="#F37540"/>
</svg>
